<svg width="160" height="160" viewBox="0 0 160 160" fill="none" xmlns="http://www.w3.org/2000/svg">
<mask id="path-1-inside-1" fill="white">
<path fill-rule="evenodd" clip-rule="evenodd" d="M71.853 3.53872L71.5067 0.219574C47.7421 2.71348 26.5094 15.6402 13.254 35.685L16.0298 37.5279C28.7348 18.3165 49.0812 5.92818 71.853 3.53872ZM37.3258 107.794H122.527V52.3734H37.3258V107.794ZM79.9259 89.2612L88.6285 82.2295L116.15 104.457H43.7057L71.2256 82.2312L79.9259 89.2612ZM119.197 57.5307L91.2818 80.0858L119.197 102.631V57.5307ZM79.9259 84.9742L43.7087 55.7104H116.144L79.9259 84.9742ZM40.6561 102.633L68.5724 80.0873L40.6561 57.5307V102.633ZM8.28608 52.6495C4.99803 61.3342 3.33035 70.4923 3.33035 79.8686C3.33035 105.237 15.8265 128.942 36.7574 143.277L34.8776 146.033C13.0385 131.074 0 106.34 0 79.8686C0 70.0857 1.73994 60.53 5.17204 51.4665L8.28608 52.6495ZM79.9285 156.62C68.1845 156.62 56.916 154.027 46.4371 148.914L44.9784 151.914C55.9159 157.251 67.6754 159.957 79.9285 159.957C109.706 159.957 136.825 143.541 150.704 117.116L147.758 115.561C134.456 140.887 108.465 156.62 79.9285 156.62ZM93.8923 0.99843C96.1233 1.39286 98.3593 1.88741 100.537 2.46821L99.6798 5.69275C97.5933 5.13631 95.4526 4.66212 93.315 4.28487L93.8923 0.99843ZM141.23 33.8413L143.894 31.8388C141.237 28.2899 138.262 24.9367 135.049 21.8719L132.753 24.2882C135.831 27.2261 138.684 30.4408 141.23 33.8413ZM113.075 6.97116C117.104 8.81318 121.01 11.0113 124.684 13.5042L122.817 16.2675C119.296 13.8781 115.552 11.7721 111.693 10.0067L113.075 6.97116ZM159.049 68.4505L155.753 68.9214C156.265 72.5192 156.526 76.2024 156.527 79.8684C156.527 80.4754 156.519 81.0807 156.505 81.6844L159.834 81.7643C159.85 81.133 159.857 80.5016 159.857 79.8686C159.856 76.0444 159.584 72.203 159.049 68.4505ZM148.013 44.6654L150.971 43.1322C153.007 47.0769 154.723 51.2204 156.074 55.4479L152.901 56.4647C151.607 52.4147 149.963 48.4447 148.013 44.6654ZM153.643 100.8L156.849 101.709C157.462 99.5362 157.989 97.3054 158.417 95.0781L155.147 94.4476C154.737 96.5821 154.231 98.719 153.643 100.8ZM13.3206 79.8686C13.3206 92.1893 16.7135 104.235 23.1336 114.705L20.296 116.452C13.5539 105.457 9.99022 92.8061 9.99022 79.8687C9.99022 66.6078 13.7214 53.6885 20.7806 42.5067L23.5954 44.2908C16.8737 54.938 13.3206 67.2407 13.3206 79.8686ZM120.223 137.116L118.299 134.392C107.023 142.384 93.7547 146.609 79.9275 146.609C62.6944 146.609 46.3354 140.011 33.8635 128.032L31.5592 130.44C44.6539 143.018 61.8308 149.946 79.9275 149.946C94.4474 149.946 108.381 145.51 120.223 137.116ZM134.799 36.4631C135.856 37.8025 136.874 39.1924 137.824 40.5953L135.068 42.469C134.164 41.1329 133.194 39.8091 132.187 38.534L134.799 36.4631ZM144.292 97.0741L147.51 97.9328C148.365 94.7221 148.994 91.4209 149.383 88.1221L146.075 87.731C145.705 90.8727 145.106 94.0158 144.292 97.0741ZM143.369 59.5182C142.408 56.5128 141.216 53.544 139.829 50.695L142.821 49.2318C144.279 52.2234 145.531 55.342 146.54 58.4998L143.369 59.5182ZM148.897 68.2053L145.612 68.7592C146.135 71.8705 146.438 75.056 146.515 78.2276L149.844 78.1462C149.763 74.8174 149.445 71.473 148.897 68.2053ZM141.189 106.062L144.252 107.376C142.948 110.423 141.412 113.41 139.682 116.253L136.838 114.516C138.485 111.808 139.95 108.964 141.189 106.062ZM130.477 128.25C131.648 127.024 132.79 125.735 133.874 124.42L131.306 122.296C130.274 123.549 129.185 124.776 128.07 125.945L130.477 128.25ZM121.593 23.6169L119.605 26.2941C110.862 19.7756 100.573 15.479 89.8511 13.8676C86.6623 13.3877 83.3953 13.1399 80.1406 13.1294L80.1504 9.79242C83.567 9.80294 86.9975 10.0637 90.3456 10.5679C101.607 12.2601 112.412 16.7719 121.593 23.6169ZM28.8552 32.0409L31.2878 34.3204C33.5027 31.9471 35.9077 29.7181 38.4373 27.6953L36.3591 25.0866C33.7043 27.2106 31.1798 29.5503 28.8552 32.0409ZM51.1116 19.7031L49.6659 16.6968C54.398 14.4125 59.3902 12.6674 64.5054 11.5088L65.2388 14.7644C60.3701 15.8668 55.6169 17.5288 51.1116 19.7031ZM21.0318 91.0951L24.3036 90.4711C24.0035 88.8905 23.7686 87.2725 23.6044 85.6619L20.2918 85.9991C20.465 87.7059 20.714 89.4201 21.0318 91.0951ZM20.2887 73.7672C20.7 69.7019 21.5302 65.6715 22.7555 61.7887L25.9313 62.7957C24.7735 66.4602 23.9905 70.2649 23.6027 74.1029L20.2887 73.7672ZM30.5163 52.1965C31.3058 50.7863 32.1644 49.3964 33.0686 48.0643L30.3139 46.1889C29.3577 47.5983 28.4479 49.0706 27.6119 50.5639L30.5163 52.1965ZM92.4204 138.623C88.3364 139.493 84.1329 139.935 79.9276 139.935C55.9834 139.935 34.3679 125.672 24.8589 103.598L27.916 102.275C36.8981 123.126 57.3135 136.598 79.9276 136.598C83.9011 136.598 87.8705 136.181 91.7277 135.359L92.4204 138.623ZM138.8 68.5158L135.53 69.1448C136.202 72.6545 136.544 76.2628 136.544 79.8686C136.544 99.0637 126.936 116.823 110.841 127.374L112.664 130.167C129.702 118.997 139.874 100.194 139.874 79.8686C139.874 76.0517 139.513 72.2315 138.8 68.5158ZM40.591 39.1076L38.2754 36.7092C39.9123 35.1229 41.6554 33.6149 43.4569 32.2267L45.4864 34.8728C43.7848 36.1838 42.1374 37.6087 40.591 39.1076ZM82.7864 19.8693L82.6287 23.203C87.0519 23.4116 91.4383 24.1407 95.668 25.3685L96.5949 22.1635C92.1149 20.8624 87.4689 20.0909 82.7864 19.8693ZM68.8267 20.8356L69.4413 24.1155C65.1052 24.9319 60.8627 26.2647 56.8331 28.0765L55.4703 25.0312C59.739 23.1126 64.232 21.7008 68.8267 20.8356ZM109.488 27.626L107.84 30.5264C111.673 32.7114 115.256 35.3518 118.492 38.3727L120.762 35.9318C117.337 32.7341 113.544 29.9397 109.488 27.626ZM129.842 46.6361C131.107 48.5368 132.273 50.528 133.31 52.5549L130.347 54.0767C129.367 52.163 128.265 50.2819 127.071 48.4871L129.842 46.6361ZM112.712 74.5836H116.043V90.7847H112.712V74.5836ZM116.043 67.2856H112.712V70.968H116.043V67.2856ZM44.0422 74.5836H47.3726V90.7847H44.0422V74.5836ZM47.3726 67.2856H44.0422V70.968H47.3726V67.2856Z"/>
</mask>
<path d="M71.5067 0.219574L73.4958 0.0119973L73.2882 -1.97836L71.2979 -1.7695L71.5067 0.219574ZM71.853 3.53872L72.0617 5.5278L74.0497 5.3192L73.8422 3.33114L71.853 3.53872ZM13.254 35.685L11.5857 34.5819L10.4845 36.2471L12.1478 37.3513L13.254 35.685ZM16.0298 37.5279L14.9236 39.1941L16.5928 40.3023L17.698 38.6311L16.0298 37.5279ZM122.527 107.794V109.794H124.527V107.794H122.527ZM37.3258 107.794H35.3258V109.794H37.3258V107.794ZM122.527 52.3734H124.527V50.3734H122.527V52.3734ZM37.3258 52.3734V50.3734H35.3258V52.3734H37.3258ZM88.6285 82.2295L89.8851 80.6736L88.6282 79.6585L87.3715 80.6739L88.6285 82.2295ZM79.9259 89.2612L78.669 90.8169L79.9259 91.8325L81.1829 90.8169L79.9259 89.2612ZM116.15 104.457V106.457H121.81L117.407 102.901L116.15 104.457ZM43.7057 104.457L42.4491 102.901L38.0462 106.457H43.7057V104.457ZM71.2256 82.2312L72.4826 80.6755L71.2259 79.6601L69.969 80.6752L71.2256 82.2312ZM91.2818 80.0858L90.0248 78.5302L88.0991 80.0862L90.0252 81.6417L91.2818 80.0858ZM119.197 57.5307H121.197V53.3435L117.94 55.9751L119.197 57.5307ZM119.197 102.631L117.94 104.187L121.197 106.817V102.631H119.197ZM43.7087 55.7104V53.7104H38.0512L42.4517 57.266L43.7087 55.7104ZM79.9259 84.9742L78.669 86.5298L79.9259 87.5455L81.1829 86.5298L79.9259 84.9742ZM116.144 55.7104L117.401 57.266L121.802 53.7104H116.144V55.7104ZM68.5724 80.0873L69.8291 81.6432L71.7551 80.0877L69.8294 78.5317L68.5724 80.0873ZM40.6561 102.633H38.6561V106.819L41.9127 104.189L40.6561 102.633ZM40.6561 57.5307L41.9131 55.9751L38.6561 53.3434V57.5307H40.6561ZM8.28608 52.6495L10.1565 53.3577L10.8639 51.4893L8.99632 50.7799L8.28608 52.6495ZM36.7574 143.277L38.4096 144.404L39.5347 142.755L37.8876 141.627L36.7574 143.277ZM34.8776 146.033L33.7474 147.683L35.4005 148.815L36.5297 147.16L34.8776 146.033ZM5.17204 51.4665L5.88228 49.5969L4.01066 48.8859L3.30165 50.7583L5.17204 51.4665ZM46.4371 148.914L47.3141 147.117L45.5143 146.238L44.6385 148.039L46.4371 148.914ZM44.9784 151.914L43.1798 151.039L42.3064 152.835L44.1013 153.711L44.9784 151.914ZM150.704 117.116L152.475 118.046L153.403 116.278L151.637 115.347L150.704 117.116ZM147.758 115.561L148.691 113.792L146.919 112.857L145.987 114.631L147.758 115.561ZM100.537 2.46821L102.47 2.98187L102.983 1.05076L101.052 0.535779L100.537 2.46821ZM93.8923 0.99843L94.2405 -0.971027L92.2689 -1.3196L91.9224 0.652396L93.8923 0.99843ZM99.6798 5.69275L99.1644 7.62521L101.099 8.14104L101.613 6.20641L99.6798 5.69275ZM93.315 4.28487L91.3451 3.93884L90.9994 5.90712L92.9674 6.25444L93.315 4.28487ZM143.894 31.8388L145.096 33.4374L146.691 32.2379L145.495 30.6401L143.894 31.8388ZM141.23 33.8413L139.629 35.0402L140.83 36.6441L142.432 35.44L141.23 33.8413ZM135.049 21.8719L136.43 20.4248L134.98 19.0415L133.599 20.4942L135.049 21.8719ZM132.753 24.2882L131.303 22.9105L129.929 24.3572L131.372 25.735L132.753 24.2882ZM124.684 13.5042L126.341 14.6238L127.459 12.9698L125.807 11.8492L124.684 13.5042ZM113.075 6.97116L113.907 5.15225L112.085 4.31937L111.255 6.14231L113.075 6.97116ZM122.817 16.2675L121.694 17.9225L123.353 19.0478L124.474 17.3871L122.817 16.2675ZM111.693 10.0067L109.873 9.17782L109.045 10.9949L110.861 11.8254L111.693 10.0067ZM155.753 68.9214L155.47 66.9415L153.491 67.2242L153.773 69.2033L155.753 68.9214ZM159.049 68.4505L161.029 68.1682L160.747 66.1877L158.767 66.4706L159.049 68.4505ZM156.527 79.8684H158.527V79.868L156.527 79.8684ZM156.505 81.6844L154.506 81.6387L154.46 83.6359L156.457 83.6838L156.505 81.6844ZM159.834 81.7643L159.786 83.7637L161.784 83.8117L161.833 81.8134L159.834 81.7643ZM159.857 79.8686H161.857V79.8681L159.857 79.8686ZM150.971 43.1322L152.748 42.215L151.829 40.4346L150.051 41.3566L150.971 43.1322ZM148.013 44.6654L147.092 42.8897L145.32 43.8085L146.236 45.5827L148.013 44.6654ZM156.074 55.4479L156.684 57.3525L158.587 56.7427L157.979 54.8393L156.074 55.4479ZM152.901 56.4647L150.996 57.0732L151.605 58.9803L153.511 58.3693L152.901 56.4647ZM156.849 101.709L156.303 103.633L158.23 104.18L158.773 102.252L156.849 101.709ZM153.643 100.8L151.719 100.256L151.176 102.179L153.098 102.724L153.643 100.8ZM158.417 95.0781L160.381 95.4552L160.758 93.4926L158.796 93.1143L158.417 95.0781ZM155.147 94.4476L155.525 92.4838L153.56 92.1048L153.183 94.0705L155.147 94.4476ZM23.1336 114.705L24.1821 116.408L25.8823 115.361L24.8386 113.66L23.1336 114.705ZM20.296 116.452L18.591 117.497L19.6383 119.205L21.3445 118.155L20.296 116.452ZM20.7806 42.5067L21.8513 40.8174L20.159 39.7448L19.0894 41.439L20.7806 42.5067ZM23.5954 44.2908L25.2866 45.3585L26.3523 43.6703L24.6661 42.6016L23.5954 44.2908ZM118.299 134.392L119.933 133.238L118.777 131.602L117.142 132.76L118.299 134.392ZM120.223 137.116L121.379 138.748L123.008 137.594L121.856 135.963L120.223 137.116ZM33.8635 128.032L35.249 126.589L33.8038 125.201L32.4184 126.649L33.8635 128.032ZM31.5592 130.44L30.1142 129.057L28.7342 130.5L30.1738 131.883L31.5592 130.44ZM137.824 40.5953L138.949 42.2493L140.6 41.1266L139.48 39.4734L137.824 40.5953ZM134.799 36.4631L136.369 35.2241L135.127 33.6504L133.556 34.896L134.799 36.4631ZM135.068 42.469L133.412 43.5899L134.535 45.2497L136.192 44.123L135.068 42.469ZM132.187 38.534L130.945 36.9669L129.381 38.2069L130.617 39.7733L132.187 38.534ZM147.51 97.9328L146.995 99.8652L148.928 100.381L149.443 98.4472L147.51 97.9328ZM144.292 97.0741L142.359 96.5598L141.845 98.4913L143.777 99.0065L144.292 97.0741ZM149.383 88.1221L151.369 88.3562L151.603 86.3707L149.618 86.136L149.383 88.1221ZM146.075 87.731L146.31 85.7449L144.323 85.5099L144.089 87.4972L146.075 87.731ZM139.829 50.695L138.951 48.8984L137.157 49.7755L138.031 51.5705L139.829 50.695ZM143.369 59.5182L141.465 60.1279L142.075 62.0346L143.981 61.4224L143.369 59.5182ZM142.821 49.2318L144.619 48.3556L143.742 46.5552L141.943 47.4351L142.821 49.2318ZM146.54 58.4998L147.152 60.404L149.054 59.7932L148.445 57.8906L146.54 58.4998ZM145.612 68.7592L145.279 66.7871L143.308 67.1194L143.639 69.0907L145.612 68.7592ZM148.897 68.2053L150.869 67.8745L150.538 65.9002L148.564 66.2331L148.897 68.2053ZM146.515 78.2276L144.516 78.2763L144.564 80.2759L146.564 80.227L146.515 78.2276ZM149.844 78.1462L149.893 80.1456L151.892 80.0967L151.843 78.0979L149.844 78.1462ZM144.252 107.376L146.09 108.163L146.876 106.326L145.04 105.538L144.252 107.376ZM141.189 106.062L141.978 104.224L140.137 103.434L139.35 105.276L141.189 106.062ZM139.682 116.253L138.64 117.96L140.349 119.004L141.391 117.292L139.682 116.253ZM136.838 114.516L135.129 113.477L134.092 115.182L135.795 116.223L136.838 114.516ZM133.874 124.42L135.418 125.692L136.687 124.152L135.149 122.879L133.874 124.42ZM130.477 128.25L129.094 129.694L130.54 131.08L131.924 129.631L130.477 128.25ZM131.306 122.296L132.581 120.755L131.037 119.477L129.763 121.024L131.306 122.296ZM128.07 125.945L126.623 124.564L125.245 126.008L126.687 127.389L128.07 125.945ZM119.605 26.2941L118.409 27.8974L120.016 29.095L121.21 27.4867L119.605 26.2941ZM121.593 23.6169L123.199 24.8096L124.39 23.2069L122.789 22.0135L121.593 23.6169ZM89.8511 13.8676L89.5535 15.8453L89.5538 15.8454L89.8511 13.8676ZM80.1406 13.1294L78.1406 13.1235L78.1347 15.123L80.1341 15.1294L80.1406 13.1294ZM80.1504 9.79242L80.1566 7.79243L78.1563 7.78628L78.1504 9.78653L80.1504 9.79242ZM90.3456 10.5679L90.0478 12.5456L90.0484 12.5457L90.3456 10.5679ZM31.2878 34.3204L29.9203 35.7798L31.3827 37.1501L32.75 35.6849L31.2878 34.3204ZM28.8552 32.0409L27.3931 30.6762L26.0311 32.1354L27.4876 33.5003L28.8552 32.0409ZM38.4373 27.6953L39.6864 29.2572L41.2454 28.0105L40.0016 26.4491L38.4373 27.6953ZM36.3591 25.0866L37.9234 23.8404L36.6746 22.2728L35.1097 23.5249L36.3591 25.0866ZM49.6659 16.6968L48.7964 14.8957L46.998 15.7639L47.8635 17.5636L49.6659 16.6968ZM51.1116 19.7031L49.3092 20.5699L50.1772 22.3749L51.9809 21.5043L51.1116 19.7031ZM64.5054 11.5088L66.4565 11.0693L66.0165 9.11589L64.0636 9.55822L64.5054 11.5088ZM65.2388 14.7644L65.6804 16.715L67.6289 16.2738L67.1899 14.3249L65.2388 14.7644ZM24.3036 90.4711L24.6783 92.4356L26.6412 92.0613L26.2685 90.098L24.3036 90.4711ZM21.0318 91.0951L19.0669 91.468L19.4402 93.4347L21.4065 93.0597L21.0318 91.0951ZM23.6044 85.6619L25.5941 85.4591L25.3913 83.4697L23.4018 83.6722L23.6044 85.6619ZM20.2918 85.9991L20.0893 84.0094L18.1002 84.2119L18.3021 86.201L20.2918 85.9991ZM22.7555 61.7887L23.3599 59.8822L21.4509 59.277L20.8482 61.1869L22.7555 61.7887ZM20.2887 73.7672L18.2988 73.5659L18.0975 75.5555L20.0871 75.757L20.2887 73.7672ZM25.9313 62.7957L27.8384 63.3982L28.4403 61.493L26.5358 60.8892L25.9313 62.7957ZM23.6027 74.1029L23.4011 76.0927L25.3915 76.2943L25.5926 74.304L23.6027 74.1029ZM33.0686 48.0643L34.7234 49.1875L35.845 47.535L34.1941 46.4111L33.0686 48.0643ZM30.5163 52.1965L29.5363 53.9399L31.2828 54.9217L32.2615 53.1735L30.5163 52.1965ZM30.3139 46.1889L31.4394 44.5357L29.7834 43.4083L28.6588 45.0661L30.3139 46.1889ZM27.6119 50.5639L25.8668 49.587L24.8916 51.329L26.6319 52.3073L27.6119 50.5639ZM92.4204 138.623L92.8372 140.579L94.7918 140.163L94.3769 138.208L92.4204 138.623ZM24.8589 103.598L24.0645 101.763L22.2322 102.556L23.0221 104.39L24.8589 103.598ZM27.916 102.275L29.7528 101.484L28.9602 99.644L27.1216 100.44L27.916 102.275ZM91.7277 135.359L93.6841 134.944L93.2685 132.986L91.3108 133.403L91.7277 135.359ZM135.53 69.1448L135.152 67.1808L133.189 67.5583L133.565 69.5211L135.53 69.1448ZM138.8 68.5158L140.764 68.1389L140.387 66.1738L138.422 66.5518L138.8 68.5158ZM110.841 127.374L109.745 125.702L108.076 126.796L109.167 128.468L110.841 127.374ZM112.664 130.167L110.99 131.26L112.085 132.939L113.761 131.84L112.664 130.167ZM139.874 79.8686L137.874 79.8685V79.8686H139.874ZM38.2754 36.7092L36.8836 35.2729L35.45 36.6621L36.8365 38.0983L38.2754 36.7092ZM40.591 39.1076L39.1521 40.4968L40.5441 41.9385L41.983 40.5437L40.591 39.1076ZM43.4569 32.2267L45.0439 31.0096L43.824 29.419L42.2362 30.6425L43.4569 32.2267ZM45.4864 34.8728L46.707 36.4572L48.288 35.2392L47.0734 33.6556L45.4864 34.8728ZM82.6287 23.203L80.6309 23.1085L80.5364 25.1066L82.5345 25.2008L82.6287 23.203ZM82.7864 19.8693L82.8809 17.8716L80.8831 17.777L80.7886 19.7748L82.7864 19.8693ZM95.668 25.3685L95.1105 27.2892L97.0331 27.8474L97.5893 25.9241L95.668 25.3685ZM96.5949 22.1635L98.5161 22.7191L99.0711 20.8L97.1527 20.2429L96.5949 22.1635ZM69.4413 24.1155L69.8114 26.081L71.7752 25.7112L71.4071 23.7471L69.4413 24.1155ZM68.8267 20.8356L70.7925 20.4672L70.4238 18.4996L68.4566 18.8701L68.8267 20.8356ZM56.8331 28.0765L55.0076 28.8934L55.826 30.7222L57.6533 29.9006L56.8331 28.0765ZM55.4703 25.0312L54.6504 23.207L52.8292 24.0255L53.6448 25.8481L55.4703 25.0312ZM107.84 30.5264L106.101 29.5386L105.115 31.2748L106.85 32.2638L107.84 30.5264ZM109.488 27.626L110.479 25.8888L108.738 24.896L107.749 26.6383L109.488 27.626ZM118.492 38.3727L117.127 39.8347L118.592 41.2019L119.956 39.7347L118.492 38.3727ZM120.762 35.9318L122.226 37.2939L123.586 35.8322L122.127 34.47L120.762 35.9318ZM133.31 52.5549L134.224 54.3339L136 53.4217L135.091 51.6441L133.31 52.5549ZM129.842 46.6361L131.508 45.5284L130.398 43.8599L128.731 44.973L129.842 46.6361ZM130.347 54.0767L128.567 54.9882L129.48 56.7708L131.261 55.8558L130.347 54.0767ZM127.071 48.4871L125.96 46.824L124.301 47.9327L125.406 49.5946L127.071 48.4871ZM116.043 74.5836H118.043V72.5836H116.043V74.5836ZM112.712 74.5836V72.5836H110.712V74.5836H112.712ZM116.043 90.7847V92.7847H118.043V90.7847H116.043ZM112.712 90.7847H110.712V92.7847H112.712V90.7847ZM112.712 67.2856V65.2856H110.712V67.2856H112.712ZM116.043 67.2856H118.043V65.2856H116.043V67.2856ZM112.712 70.968H110.712V72.968H112.712V70.968ZM116.043 70.968V72.968H118.043V70.968H116.043ZM47.3726 74.5836H49.3726V72.5836H47.3726V74.5836ZM44.0422 74.5836V72.5836H42.0422V74.5836H44.0422ZM47.3726 90.7847V92.7847H49.3726V90.7847H47.3726ZM44.0422 90.7847H42.0422V92.7847H44.0422V90.7847ZM44.0422 67.2856V65.2856H42.0422V67.2856H44.0422ZM47.3726 67.2856H49.3726V65.2856H47.3726V67.2856ZM44.0422 70.968H42.0422V72.968H44.0422V70.968ZM47.3726 70.968V72.968H49.3726V70.968H47.3726ZM69.5175 0.427151L69.8638 3.7463L73.8422 3.33114L73.4958 0.0119973L69.5175 0.427151ZM14.9222 36.7882C27.8502 17.2386 48.5492 4.63977 71.7154 2.20865L71.2979 -1.7695C46.935 0.787195 25.1687 14.0417 11.5857 34.5819L14.9222 36.7882ZM17.136 35.8617L14.3602 34.0188L12.1478 37.3513L14.9236 39.1941L17.136 35.8617ZM71.6443 1.54964C48.274 4.0019 27.394 16.7181 14.3616 36.4247L17.698 38.6311C30.0756 19.9148 49.8884 7.85446 72.0617 5.5278L71.6443 1.54964ZM122.527 105.794H37.3258V109.794H122.527V105.794ZM120.527 52.3734V107.794H124.527V52.3734H120.527ZM37.3258 54.3734H122.527V50.3734H37.3258V54.3734ZM39.3258 107.794V52.3734H35.3258V107.794H39.3258ZM87.3715 80.6739L78.669 87.7056L81.1829 90.8169L89.8855 83.7851L87.3715 80.6739ZM117.407 102.901L89.8851 80.6736L87.3719 83.7854L114.894 106.013L117.407 102.901ZM43.7057 106.457H116.15V102.457H43.7057V106.457ZM69.969 80.6752L42.4491 102.901L44.9623 106.013L72.4822 83.7871L69.969 80.6752ZM81.1829 87.7056L72.4826 80.6755L69.9686 83.7868L78.669 90.8169L81.1829 87.7056ZM92.5387 81.6415L120.454 59.0864L117.94 55.9751L90.0248 78.5302L92.5387 81.6415ZM120.453 101.075L92.5384 78.5299L90.0252 81.6417L117.94 104.187L120.453 101.075ZM117.197 57.5307V102.631H121.197V57.5307H117.197ZM42.4517 57.266L78.669 86.5298L81.1829 83.4185L44.9657 54.1547L42.4517 57.266ZM116.144 53.7104H43.7087V57.7104H116.144V53.7104ZM81.1829 86.5298L117.401 57.266L114.887 54.1547L78.669 83.4185L81.1829 86.5298ZM67.3158 78.5314L39.3995 101.077L41.9127 104.189L69.8291 81.6432L67.3158 78.5314ZM39.3991 59.0863L67.3155 81.643L69.8294 78.5317L41.9131 55.9751L39.3991 59.0863ZM42.6561 102.633V57.5307H38.6561V102.633H42.6561ZM5.33035 79.8686C5.33035 70.7319 6.95495 61.8139 10.1565 53.3577L6.41565 51.9414C3.0411 60.8545 1.33035 70.2527 1.33035 79.8686H5.33035ZM37.8876 141.627C17.501 127.665 5.33035 104.578 5.33035 79.8686H1.33035C1.33035 105.897 14.152 130.219 35.6273 144.927L37.8876 141.627ZM36.5297 147.16L38.4096 144.404L35.1053 142.15L33.2255 144.905L36.5297 147.16ZM-2 79.8686C-2 106.999 11.3639 132.351 33.7474 147.683L36.0078 144.383C14.7131 129.797 2 105.68 2 79.8686H-2ZM3.30165 50.7583C-0.216976 60.0502 -2 69.846 -2 79.8686H2C2 70.3253 3.69686 61.0098 7.04243 52.1748L3.30165 50.7583ZM8.99632 50.7799L5.88228 49.5969L4.46179 53.3362L7.57584 54.5191L8.99632 50.7799ZM45.5601 150.712C56.3142 155.959 67.8828 158.62 79.9285 158.62V154.62C68.4861 154.62 57.5179 152.095 47.3141 147.117L45.5601 150.712ZM46.777 152.789L48.2357 149.789L44.6385 148.039L43.1798 151.039L46.777 152.789ZM79.9285 157.957C67.9771 157.957 56.5179 155.319 45.8555 150.116L44.1013 153.711C55.314 159.183 67.3737 161.957 79.9285 161.957V157.957ZM148.933 116.186C135.399 141.955 108.96 157.957 79.9285 157.957V161.957C110.451 161.957 138.251 145.127 152.475 118.046L148.933 116.186ZM146.824 117.33L149.771 118.885L151.637 115.347L148.691 113.792L146.824 117.33ZM79.9285 158.62C109.21 158.62 135.882 142.473 149.528 116.491L145.987 114.631C133.03 139.301 107.719 154.62 79.9285 154.62V158.62ZM101.052 0.535779C98.8192 -0.0598465 96.5274 -0.566712 94.2405 -0.971027L93.5441 2.96789C95.7192 3.35244 97.8994 3.83466 100.021 4.40064L101.052 0.535779ZM101.613 6.20641L102.47 2.98187L98.6038 1.95455L97.7468 5.17909L101.613 6.20641ZM92.9674 6.25444C95.0482 6.62167 97.133 7.08346 99.1644 7.62521L100.195 3.7603C98.0536 3.18916 95.8569 2.70257 93.6626 2.31531L92.9674 6.25444ZM91.9224 0.652396L91.3451 3.93884L95.2848 4.63091L95.8621 1.34446L91.9224 0.652396ZM142.692 30.2402L140.028 32.2427L142.432 35.44L145.096 33.4374L142.692 30.2402ZM133.669 23.3189C136.801 26.3072 139.702 29.5773 142.293 33.0375L145.495 30.6401C142.771 27.0025 139.723 23.5662 136.43 20.4248L133.669 23.3189ZM134.203 25.6659L136.499 23.2496L133.599 20.4942L131.303 22.9105L134.203 25.6659ZM142.831 32.6425C140.218 29.1533 137.292 25.8556 134.134 22.8414L131.372 25.735C134.371 28.5965 137.149 31.7283 139.629 35.0402L142.831 32.6425ZM125.807 11.8492C122.041 9.29372 118.037 7.04078 113.907 5.15225L112.243 8.79006C116.171 10.5856 119.979 12.7288 123.561 15.1592L125.807 11.8492ZM124.474 17.3871L126.341 14.6238L123.027 12.3846L121.16 15.148L124.474 17.3871ZM110.861 11.8254C114.619 13.5445 118.265 15.5957 121.694 17.9225L123.94 14.6126C120.326 12.1605 116.486 9.99971 112.525 8.18789L110.861 11.8254ZM111.255 6.14231L109.873 9.17782L113.513 10.8355L114.895 7.8L111.255 6.14231ZM156.036 70.9013L159.332 70.4304L158.767 66.4706L155.47 66.9415L156.036 70.9013ZM158.527 79.868C158.526 76.1085 158.259 72.3313 157.733 68.6395L153.773 69.2033C154.272 72.7071 154.526 76.2962 154.527 79.8689L158.527 79.868ZM158.505 81.7301C158.519 81.1121 158.527 80.4915 158.527 79.8684H154.527C154.527 80.4593 154.519 81.0494 154.506 81.6387L158.505 81.7301ZM159.882 79.7649L156.553 79.685L156.457 83.6838L159.786 83.7637L159.882 79.7649ZM157.857 79.8686C157.857 80.4862 157.85 81.1012 157.835 81.7153L161.833 81.8134C161.849 81.1648 161.857 80.517 161.857 79.8686H157.857ZM157.069 68.7328C157.591 72.3911 157.856 76.1382 157.857 79.869L161.857 79.8681C161.856 75.9505 161.578 72.0149 161.029 68.1682L157.069 68.7328ZM150.051 41.3566L147.092 42.8897L148.933 46.4411L151.891 44.9079L150.051 41.3566ZM157.979 54.8393C156.594 50.5057 154.835 46.2589 152.748 42.215L149.194 44.0495C151.178 47.8949 152.852 51.9352 154.168 56.0565L157.979 54.8393ZM153.511 58.3693L156.684 57.3525L155.463 53.5433L152.291 54.5601L153.511 58.3693ZM146.236 45.5827C148.135 49.2626 149.736 53.1293 150.996 57.0732L154.806 55.8562C153.479 51.7002 151.792 47.6268 149.79 43.7481L146.236 45.5827ZM157.394 99.7848L154.189 98.8756L153.098 102.724L156.303 103.633L157.394 99.7848ZM156.453 94.701C156.036 96.8726 155.521 99.048 154.924 101.166L158.773 102.252C159.402 100.024 159.943 97.7382 160.381 95.4552L156.453 94.701ZM154.768 96.4114L158.038 97.0419L158.796 93.1143L155.525 92.4838L154.768 96.4114ZM155.568 101.343C156.172 99.2074 156.69 97.015 157.111 94.8247L153.183 94.0705C152.784 96.1492 152.291 98.2305 151.719 100.256L155.568 101.343ZM24.8386 113.66C18.6121 103.506 15.3206 91.8215 15.3206 79.8686H11.3206C11.3206 92.557 14.815 104.965 21.4287 115.751L24.8386 113.66ZM21.3445 118.155L24.1821 116.408L22.0851 113.002L19.2475 114.749L21.3445 118.155ZM7.99022 79.8687C7.99022 93.1739 11.6553 106.187 18.591 117.497L22.001 115.406C15.4524 104.727 11.9902 92.4383 11.9902 79.8687H7.99022ZM19.0894 41.439C11.8279 52.9413 7.99022 66.2311 7.99022 79.8687H11.9902C11.9902 66.9846 15.6149 54.4356 22.4717 43.5744L19.0894 41.439ZM24.6661 42.6016L21.8513 40.8174L19.7099 44.196L22.5247 45.9801L24.6661 42.6016ZM15.3206 79.8686C15.3206 67.6175 18.7673 55.6852 25.2866 45.3585L21.9042 43.2232C14.9802 54.1909 11.3206 66.8639 11.3206 79.8686H15.3206ZM116.665 135.546L118.589 138.27L121.856 135.963L119.933 133.238L116.665 135.546ZM79.9275 148.609C94.1689 148.609 107.841 144.256 119.455 136.024L117.142 132.76C106.205 140.513 93.3406 144.609 79.9275 144.609V148.609ZM32.4781 129.474C45.3209 141.81 62.1759 148.609 79.9275 148.609V144.609C63.2129 144.609 47.3498 138.212 35.249 126.589L32.4781 129.474ZM33.0043 131.823L35.3086 129.414L32.4184 126.649L30.1142 129.057L33.0043 131.823ZM79.9275 147.946C62.3493 147.946 45.6683 141.219 32.9447 128.998L30.1738 131.883C43.6395 144.817 61.3123 151.946 79.9275 151.946V147.946ZM119.066 135.485C107.563 143.638 94.0333 147.946 79.9275 147.946V151.946C94.8616 151.946 109.199 147.381 121.379 138.748L119.066 135.485ZM139.48 39.4734C138.502 38.03 137.455 36.6011 136.369 35.2241L133.229 37.702C134.256 39.004 135.246 40.3548 136.169 41.7171L139.48 39.4734ZM136.192 44.123L138.949 42.2493L136.7 38.9412L133.944 40.815L136.192 44.123ZM130.617 39.7733C131.594 41.0109 132.535 42.2952 133.412 43.5899L136.724 41.3481C135.792 39.9705 134.793 38.6073 133.757 37.2947L130.617 39.7733ZM133.556 34.896L130.945 36.9669L133.43 40.1011L136.041 38.0302L133.556 34.896ZM148.026 96.0004L144.808 95.1417L143.777 99.0065L146.995 99.8652L148.026 96.0004ZM147.396 87.8881C147.019 91.0927 146.408 94.3002 145.578 97.4183L149.443 98.4472C150.322 95.144 150.969 91.7491 151.369 88.3562L147.396 87.8881ZM145.84 89.7172L149.148 90.1083L149.618 86.136L146.31 85.7449L145.84 89.7172ZM146.225 97.5885C147.063 94.4378 147.681 91.2009 148.062 87.9649L144.089 87.4972C143.73 90.5445 143.149 93.5938 142.359 96.5598L146.225 97.5885ZM138.031 51.5705C139.377 54.3339 140.532 57.2138 141.465 60.1279L145.274 58.9085C144.283 55.8117 143.056 52.7541 141.628 49.8195L138.031 51.5705ZM141.943 47.4351L138.951 48.8984L140.708 52.4917L143.7 51.0284L141.943 47.4351ZM148.445 57.8906C147.406 54.641 146.119 51.4332 144.619 48.3556L141.024 50.1079C142.44 53.0135 143.655 56.0429 144.636 59.1089L148.445 57.8906ZM143.981 61.4224L147.152 60.404L145.929 56.5956L142.758 57.614L143.981 61.4224ZM145.944 70.7314L149.229 70.1774L148.564 66.2331L145.279 66.7871L145.944 70.7314ZM148.515 78.1789C148.435 74.9135 148.123 71.6334 147.584 68.4277L143.639 69.0907C144.146 72.1075 144.441 75.1985 144.516 78.2763L148.515 78.1789ZM149.795 76.1468L146.466 76.2282L146.564 80.227L149.893 80.1456L149.795 76.1468ZM146.924 68.536C147.457 71.71 147.766 74.9599 147.844 78.1945L151.843 78.0979C151.761 74.6748 151.433 71.2361 150.869 67.8745L146.924 68.536ZM145.04 105.538L141.978 104.224L140.401 107.9L143.463 109.214L145.04 105.538ZM141.391 117.292C143.17 114.368 144.75 111.297 146.09 108.163L142.413 106.589C141.147 109.549 139.654 112.451 137.973 115.213L141.391 117.292ZM135.795 116.223L138.64 117.96L140.724 114.546L137.88 112.809L135.795 116.223ZM139.35 105.276C138.148 108.09 136.727 110.849 135.129 113.477L138.547 115.555C140.243 112.767 141.751 109.838 143.029 106.848L139.35 105.276ZM132.331 123.148C131.278 124.426 130.167 125.678 129.031 126.869L131.924 129.631C133.129 128.369 134.303 127.044 135.418 125.692L132.331 123.148ZM130.031 123.836L132.599 125.961L135.149 122.879L132.581 120.755L130.031 123.836ZM129.517 127.325C130.666 126.122 131.787 124.858 132.85 123.567L129.763 121.024C128.761 122.239 127.705 123.431 126.623 124.564L129.517 127.325ZM131.861 126.806L129.454 124.5L126.687 127.389L129.094 129.694L131.861 126.806ZM121.21 27.4867L123.199 24.8096L119.988 22.4243L117.999 25.1014L121.21 27.4867ZM89.5538 15.8454C99.9483 17.4076 109.929 21.5747 118.409 27.8974L120.8 24.6907C111.795 17.9765 101.198 13.5504 90.1483 11.8898L89.5538 15.8454ZM80.1341 15.1294C83.2927 15.1396 86.4623 15.3801 89.5535 15.8453L90.1487 11.8898C86.8623 11.3953 83.498 11.1403 80.1471 11.1294L80.1341 15.1294ZM78.1504 9.78653L78.1406 13.1235L82.1406 13.1353L82.1504 9.79831L78.1504 9.78653ZM90.6435 8.59024C87.1978 8.07134 83.6698 7.80324 80.1566 7.79243L80.1443 11.7924C83.4642 11.8026 86.7971 12.0561 90.0478 12.5456L90.6435 8.59024ZM122.789 22.0135C113.345 14.9728 102.232 10.3316 90.6428 8.59015L90.0484 12.5457C100.983 14.1887 111.479 18.5711 120.398 25.2204L122.789 22.0135ZM32.6554 32.861L30.2227 30.5815L27.4876 33.5003L29.9203 35.7798L32.6554 32.861ZM37.1882 26.1333C34.5826 28.217 32.1064 30.5119 29.8256 32.9558L32.75 35.6849C34.8989 33.3823 37.2328 31.2193 39.6864 29.2572L37.1882 26.1333ZM34.7948 26.3327L36.8729 28.9414L40.0016 26.4491L37.9234 23.8404L34.7948 26.3327ZM30.3173 33.4055C32.576 30.9855 35.0295 28.7117 37.6086 26.6483L35.1097 23.5249C32.3791 25.7095 29.7835 28.1151 27.3931 30.6762L30.3173 33.4055ZM47.8635 17.5636L49.3092 20.5699L52.914 18.8364L51.4683 15.8301L47.8635 17.5636ZM64.0636 9.55822C58.8004 10.7503 53.6648 12.5456 48.7964 14.8957L50.5353 18.498C55.1312 16.2794 59.9799 14.5845 64.9472 13.4594L64.0636 9.55822ZM67.1899 14.3249L66.4565 11.0693L62.5543 11.9483L63.2877 15.2039L67.1899 14.3249ZM51.9809 21.5043C56.3502 19.3956 60.96 17.7838 65.6804 16.715L64.7971 12.8138C59.7803 13.9497 54.8836 15.6619 50.2423 17.902L51.9809 21.5043ZM23.9289 88.5065L20.6571 89.1305L21.4065 93.0597L24.6783 92.4356L23.9289 88.5065ZM21.6147 85.8648C21.7846 87.5317 22.0278 89.2065 22.3387 90.8441L26.2685 90.098C25.9792 88.5745 25.7525 87.0134 25.5941 85.4591L21.6147 85.8648ZM20.4944 87.9889L23.8069 87.6517L23.4018 83.6722L20.0893 84.0094L20.4944 87.9889ZM22.9968 90.7222C22.6897 89.1041 22.449 87.447 22.2816 85.7972L18.3021 86.201C18.481 87.9648 18.7382 89.736 19.0669 91.468L22.9968 90.7222ZM20.8482 61.1869C19.5817 65.2003 18.7238 69.365 18.2988 73.5659L22.2785 73.9685C22.6761 70.0388 23.4788 66.1426 24.6628 62.3906L20.8482 61.1869ZM26.5358 60.8892L23.3599 59.8822L22.151 63.6952L25.3268 64.7021L26.5358 60.8892ZM25.5926 74.304C25.9667 70.6014 26.7221 66.9313 27.8384 63.3982L24.0242 62.1931C22.8249 65.9891 22.0143 69.9283 21.6128 73.9018L25.5926 74.304ZM20.0871 75.757L23.4011 76.0927L23.8043 72.1131L20.4902 71.7774L20.0871 75.757ZM31.4138 46.9411C30.4773 48.3207 29.5886 49.7594 28.7712 51.2195L32.2615 53.1735C33.023 51.8132 33.8514 50.4721 34.7234 49.1875L31.4138 46.9411ZM29.1883 47.8422L31.943 49.7175L34.1941 46.4111L31.4394 44.5357L29.1883 47.8422ZM29.3571 51.5408C30.165 50.0977 31.0447 48.674 31.9689 47.3117L28.6588 45.0661C27.6707 46.5225 26.7308 48.0435 25.8668 49.587L29.3571 51.5408ZM31.4964 50.4531L28.592 48.8205L26.6319 52.3073L29.5363 53.9399L31.4964 50.4531ZM79.9276 141.935C84.272 141.935 88.6153 141.479 92.8372 140.579L92.0037 136.667C88.0576 137.508 83.9937 137.935 79.9276 137.935V141.935ZM23.0221 104.39C32.8455 127.193 55.1807 141.935 79.9276 141.935V137.935C56.7861 137.935 35.8903 124.15 26.6957 102.807L23.0221 104.39ZM27.1216 100.44L24.0645 101.763L25.6533 105.434L28.7104 104.111L27.1216 100.44ZM79.9276 134.598C58.1163 134.598 38.4206 121.605 29.7528 101.484L26.0792 103.066C35.3757 124.647 56.5107 138.598 79.9276 138.598V134.598ZM91.3108 133.403C87.5918 134.196 83.7621 134.598 79.9276 134.598V138.598C84.04 138.598 88.1492 138.167 92.1446 137.315L91.3108 133.403ZM94.3769 138.208L93.6841 134.944L89.7713 135.774L90.464 139.038L94.3769 138.208ZM135.907 71.1088L139.178 70.4798L138.422 66.5518L135.152 67.1808L135.907 71.1088ZM138.544 79.8686C138.544 76.1374 138.19 72.4031 137.494 68.7685L133.565 69.5211C134.214 72.9059 134.544 76.3881 134.544 79.8686H138.544ZM111.938 129.047C128.594 118.127 138.544 99.7399 138.544 79.8686H134.544C134.544 98.3874 125.277 115.519 109.745 125.702L111.938 129.047ZM114.339 129.074L112.516 126.281L109.167 128.468L110.99 131.26L114.339 129.074ZM137.874 79.8686C137.874 99.5175 128.043 117.693 111.568 128.495L113.761 131.84C131.361 120.301 141.874 100.87 141.874 79.8686H137.874ZM136.836 68.8927C137.525 72.4829 137.874 76.1768 137.874 79.8685L141.874 79.8687C141.874 75.9266 141.501 71.9801 140.764 68.1389L136.836 68.8927ZM36.8365 38.0983L39.1521 40.4968L42.0299 37.7185L39.7143 35.32L36.8365 38.0983ZM42.2362 30.6425C40.3747 32.0769 38.5745 33.6343 36.8836 35.2729L39.6672 38.1454C41.2501 36.6115 42.9361 35.153 44.6777 33.811L42.2362 30.6425ZM47.0734 33.6556L45.0439 31.0096L41.87 33.4439L43.8995 36.09L47.0734 33.6556ZM41.983 40.5437C43.4752 39.0973 45.0654 37.7219 46.707 36.4572L44.2659 33.2885C42.5043 34.6456 40.7997 36.12 39.199 37.6716L41.983 40.5437ZM84.6265 23.2975L84.7842 19.9638L80.7886 19.7748L80.6309 23.1085L84.6265 23.2975ZM96.2256 23.4478C91.8445 22.176 87.3025 21.4211 82.7229 21.2052L82.5345 25.2008C86.8013 25.402 91.0322 26.1054 95.1105 27.2892L96.2256 23.4478ZM94.6736 21.6079L93.7467 24.8129L97.5893 25.9241L98.5161 22.7191L94.6736 21.6079ZM82.6919 21.8671C87.2183 22.0813 91.7088 22.8271 96.0371 24.0842L97.1527 20.2429C92.5209 18.8977 87.7194 18.1005 82.8809 17.8716L82.6919 21.8671ZM71.4071 23.7471L70.7925 20.4672L66.8609 21.2039L67.4756 24.4839L71.4071 23.7471ZM57.6533 29.9006C61.5391 28.1534 65.6306 26.8681 69.8114 26.081L69.0713 22.15C64.5799 22.9957 60.1863 24.376 56.013 26.2524L57.6533 29.9006ZM53.6448 25.8481L55.0076 28.8934L58.6587 27.2596L57.2959 24.2142L53.6448 25.8481ZM68.4566 18.8701C63.7066 19.7646 59.0627 21.2238 54.6504 23.207L56.2903 26.8554C60.4154 25.0013 64.7574 23.6371 69.1969 22.801L68.4566 18.8701ZM109.58 31.5141L111.227 28.6138L107.749 26.6383L106.101 29.5386L109.58 31.5141ZM119.857 36.9107C116.507 33.7844 112.799 31.0514 108.831 28.789L106.85 32.2638C110.546 34.3714 114.004 36.9193 117.127 39.8347L119.857 36.9107ZM119.297 34.5697L117.027 37.0106L119.956 39.7347L122.226 37.2939L119.297 34.5697ZM108.497 29.3633C112.418 31.5997 116.085 34.3016 119.397 37.3937L122.127 34.47C118.589 31.1666 114.671 28.2797 110.479 25.8888L108.497 29.3633ZM135.091 51.6441C134.019 49.5493 132.814 47.4923 131.508 45.5284L128.177 47.7438C129.399 49.5813 130.527 51.5068 131.529 53.4657L135.091 51.6441ZM131.261 55.8558L134.224 54.3339L132.396 50.7759L129.433 52.2977L131.261 55.8558ZM125.406 49.5946C126.558 51.3265 127.622 53.1421 128.567 54.9882L132.127 53.1653C131.113 51.1838 129.972 49.2373 128.737 47.3796L125.406 49.5946ZM128.731 44.973L125.96 46.824L128.182 50.1502L130.953 48.2991L128.731 44.973ZM116.043 72.5836H112.712V76.5836H116.043V72.5836ZM118.043 90.7847V74.5836H114.043V90.7847H118.043ZM112.712 92.7847H116.043V88.7847H112.712V92.7847ZM110.712 74.5836V90.7847H114.712V74.5836H110.712ZM112.712 69.2856H116.043V65.2856H112.712V69.2856ZM114.712 70.968V67.2856H110.712V70.968H114.712ZM116.043 68.968H112.712V72.968H116.043V68.968ZM114.043 67.2856V70.968H118.043V67.2856H114.043ZM47.3726 72.5836H44.0422V76.5836H47.3726V72.5836ZM49.3726 90.7847V74.5836H45.3726V90.7847H49.3726ZM44.0422 92.7847H47.3726V88.7847H44.0422V92.7847ZM42.0422 74.5836V90.7847H46.0422V74.5836H42.0422ZM44.0422 69.2856H47.3726V65.2856H44.0422V69.2856ZM46.0422 70.968V67.2856H42.0422V70.968H46.0422ZM47.3726 68.968H44.0422V72.968H47.3726V68.968ZM45.3726 67.2856V70.968H49.3726V67.2856H45.3726Z" fill="#FF9419" mask="url(#path-1-inside-1)"/>
<path opacity="0.32" d="M37.3242 107.794H122.525V52.3734H37.3242L37.3242 107.794Z" fill="#FF9419"/>
</svg>
