<svg width="13" height="13" viewBox="0 0 13 13" fill="none" xmlns="http://www.w3.org/2000/svg">
<path fill-rule="evenodd" clip-rule="evenodd" d="M10.1562 0.8125H12.1178C12.6043 0.8125 13 1.20824 13 1.6947V12.1178C13 12.6043 12.6043 13 12.1178 13H0.882197C0.395738 13 0 12.6043 0 12.1178V1.6947C0 1.20824 0.395738 0.8125 0.882197 0.8125H2.84375V0.40625C2.84375 0.181898 3.02565 0 3.25 0C3.47435 0 3.65625 0.181898 3.65625 0.40625V0.8125H6.09375V0.40625C6.09375 0.181898 6.27565 0 6.5 0C6.72435 0 6.90625 0.181898 6.90625 0.40625V0.8125H9.34375V0.40625C9.34375 0.181898 9.52565 0 9.75 0C9.97435 0 10.1562 0.181898 10.1562 0.40625V0.8125ZM12.1178 12.1875C12.1562 12.1875 12.1875 12.1562 12.1875 12.1178V1.6947C12.1875 1.65626 12.1562 1.625 12.1178 1.625H10.1562V2.03125C10.1562 2.2556 9.97435 2.4375 9.75 2.4375C9.52565 2.4375 9.34375 2.2556 9.34375 2.03125V1.625H6.90625V2.03125C6.90625 2.2556 6.72435 2.4375 6.5 2.4375C6.27565 2.4375 6.09375 2.2556 6.09375 2.03125V1.625H3.65625V2.03125C3.65625 2.2556 3.47435 2.4375 3.25 2.4375C3.02565 2.4375 2.84375 2.2556 2.84375 2.03125V1.625H0.882197C0.843756 1.625 0.8125 1.65626 0.8125 1.6947V12.1178C0.8125 12.1562 0.843756 12.1875 0.882197 12.1875H12.1178ZM2.57937 4.33333C2.35145 4.33333 2.16667 4.17165 2.16667 3.97222C2.16667 3.7728 2.35145 3.61111 2.57937 3.61111H10.4206C10.6485 3.61111 10.8333 3.7728 10.8333 3.97222C10.8333 4.17165 10.6485 4.33333 10.4206 4.33333H2.57937ZM1.87778 7.22222H3.17778C3.41709 7.22222 3.61111 7.06053 3.61111 6.86111C3.61111 6.66169 3.41709 6.5 3.17778 6.5H1.87778C1.63847 6.5 1.44444 6.66169 1.44444 6.86111C1.44444 7.06053 1.63847 7.22222 1.87778 7.22222ZM3.17778 8.66667H1.87778C1.63847 8.66667 1.44444 8.50498 1.44444 8.30556C1.44444 8.10613 1.63847 7.94444 1.87778 7.94444H3.17778C3.41709 7.94444 3.61111 8.10613 3.61111 8.30556C3.61111 8.50498 3.41709 8.66667 3.17778 8.66667ZM6.21111 8.66667H7.51111C7.75042 8.66667 7.94444 8.50498 7.94444 8.30556C7.94444 8.10613 7.75042 7.94444 7.51111 7.94444H6.21111C5.9718 7.94444 5.77778 8.10613 5.77778 8.30556C5.77778 8.50498 5.9718 8.66667 6.21111 8.66667ZM11.1222 8.66667H9.82222C9.58291 8.66667 9.38889 8.50498 9.38889 8.30556C9.38889 8.10613 9.58291 7.94444 9.82222 7.94444H11.1222C11.3615 7.94444 11.5556 8.10613 11.5556 8.30556C11.5556 8.50498 11.3615 8.66667 11.1222 8.66667ZM9.82222 10.1111H11.1222C11.3615 10.1111 11.5556 9.94942 11.5556 9.75C11.5556 9.55058 11.3615 9.38889 11.1222 9.38889H9.82222C9.58291 9.38889 9.38889 9.55058 9.38889 9.75C9.38889 9.94942 9.58291 10.1111 9.82222 10.1111ZM7.51111 10.1111H6.21111C5.9718 10.1111 5.77778 9.94942 5.77778 9.75C5.77778 9.55058 5.9718 9.38889 6.21111 9.38889H7.51111C7.75042 9.38889 7.94444 9.55058 7.94444 9.75C7.94444 9.94942 7.75042 10.1111 7.51111 10.1111ZM1.87778 10.1111H3.17778C3.41709 10.1111 3.61111 9.94942 3.61111 9.75C3.61111 9.55058 3.41709 9.38889 3.17778 9.38889H1.87778C1.63847 9.38889 1.44444 9.55058 1.44444 9.75C1.44444 9.94942 1.63847 10.1111 1.87778 10.1111ZM7.51111 7.22222H6.21111C5.9718 7.22222 5.77778 7.06053 5.77778 6.86111C5.77778 6.66169 5.9718 6.5 6.21111 6.5H7.51111C7.75042 6.5 7.94444 6.66169 7.94444 6.86111C7.94444 7.06053 7.75042 7.22222 7.51111 7.22222ZM9.82222 7.22222H11.1222C11.3615 7.22222 11.5556 7.06053 11.5556 6.86111C11.5556 6.66169 11.3615 6.5 11.1222 6.5H9.82222C9.58291 6.5 9.38889 6.66169 9.38889 6.86111C9.38889 7.06053 9.58291 7.22222 9.82222 7.22222Z" fill="white"/>
</svg>
