<svg width="22" height="16" viewBox="0 0 22 16" fill="none" xmlns="http://www.w3.org/2000/svg">
<path fill-rule="evenodd" clip-rule="evenodd" d="M21.9125 8.38887C21.7988 7.8509 21.2171 7.4179 20.163 7.09861C19.2795 6.83181 18.1686 6.67436 16.9439 6.64811L16.8258 1.67078C16.664 1.18092 16.0823 0.782905 15.0982 0.48549C14.1141 0.188074 12.8326 0.0262451 11.4811 0.0262451C10.134 0.0262451 8.86123 0.188074 7.89901 0.48549C7.10736 0.73042 6.15825 1.18529 6.15825 1.96819C6.15825 2.0163 6.16262 2.06442 6.17137 2.11253L6.21948 4.10696C5.89582 4.04573 5.56779 4.01511 5.23539 4.01511C2.34871 4.01511 0 6.36382 0 9.2505C0 12.1416 2.33996 14.4859 5.23101 14.4859C6.4338 14.4859 7.60159 14.0704 8.5332 13.3137C9.35547 13.5062 10.3221 13.6111 11.3455 13.6199C11.5686 14.8314 14.1972 15.3869 16.6465 15.3869C17.9936 15.3869 19.262 15.2207 20.233 14.9233C21.0334 14.6783 21.9738 14.2191 21.9738 13.4362L21.9125 8.38887ZM8.14394 1.32525C9.02744 1.05408 10.2127 0.900997 11.4724 0.900997C12.7189 0.900997 13.9479 1.05408 14.8402 1.32525C15.7936 1.61392 15.9992 1.91133 15.9992 1.97257C15.9992 2.0338 15.7936 2.33122 14.8402 2.61988C13.9523 2.88668 12.7233 3.04414 11.4767 3.04414C10.2696 3.04414 9.12366 2.90418 8.25328 2.6505C7.31292 2.37933 7.04612 2.07754 7.02425 1.98131C7.02425 1.97694 7.01988 1.97257 7.01551 1.96819C7.01551 1.87634 7.30855 1.5833 8.14394 1.32525ZM16.0692 4.14632V3.05289C15.7586 3.22346 15.4306 3.35905 15.0982 3.44652C14.1185 3.74394 12.837 3.90577 11.4855 3.90577C10.1952 3.90577 8.9662 3.75706 8.0171 3.48151C7.68907 3.39404 7.37416 3.27157 7.07237 3.11849L7.10298 4.35189C7.59284 4.53559 8.05646 4.79801 8.46759 5.12605C8.47233 5.12841 8.47835 5.1295 8.48495 5.13069C8.49055 5.1317 8.49657 5.13279 8.50258 5.13479C9.34235 5.34911 10.4008 5.46283 11.4811 5.46283C12.7276 5.46283 13.9567 5.30974 14.8445 5.03857C15.7936 4.7499 15.9992 4.44811 15.9992 4.39125C15.9992 4.30378 16.0211 4.22068 16.0692 4.14632ZM8.16581 12.474C6.38569 14.0966 3.62584 13.9654 2.00755 12.1853C0.389264 10.4052 0.516103 7.64533 2.29622 6.02704C3.10099 5.29662 4.14632 4.88986 5.23101 4.88986C5.66839 4.88986 6.10139 4.95547 6.52127 5.08231C7.08986 5.25726 7.61909 5.5503 8.06958 5.94394C8.80437 6.56939 9.30736 7.42664 9.50418 8.37137C9.56103 8.66004 9.59165 8.95746 9.59165 9.2505C9.59602 10.4795 9.07555 11.6517 8.16581 12.474ZM10.1165 11.1312C9.91531 11.6517 9.63101 12.1372 9.27674 12.5702C9.95467 12.6839 10.6326 12.7408 11.3105 12.7495L11.293 11.3412C11.2843 11.2887 11.2843 11.2406 11.293 11.1881C10.8863 11.1837 10.4926 11.1618 10.1165 11.1312ZM10.4445 8.73002C10.7026 8.74752 10.9694 8.75626 11.2449 8.76064C11.2493 8.79125 11.2581 8.82187 11.2668 8.85249L11.2843 10.3089C10.9694 10.3046 10.6588 10.2915 10.3658 10.2696C10.4314 9.93281 10.4664 9.58728 10.4664 9.24613C10.4664 9.07555 10.4577 8.90497 10.4445 8.73002ZM11.4767 7.89026H11.5117C11.8179 7.54911 12.3559 7.26919 13.1256 7.0505C13.9435 6.81869 14.9714 6.67873 16.0648 6.64811V5.48032C15.7543 5.6509 15.4306 5.78648 15.0895 5.88271C14.1097 6.18012 12.8282 6.34195 11.4767 6.34195C10.8163 6.34195 10.1515 6.29821 9.49543 6.21511C9.84533 6.70935 10.1121 7.26044 10.274 7.84215C10.6501 7.87277 11.0525 7.89026 11.4767 7.89026ZM12.1153 8.54195C12.1897 8.40636 12.5177 8.13957 13.3706 7.90338C14.2278 7.66283 15.3431 7.53161 16.5153 7.53161H16.5503C17.8012 7.53161 19.0258 7.67595 19.9137 7.94712C20.8322 8.22704 21.0553 8.50696 21.0684 8.58132V8.58569C21.064 8.65129 20.8497 8.95308 19.8787 9.24175C18.9821 9.50855 17.7968 9.65289 16.5503 9.65289C15.3913 9.65289 14.2759 9.52167 13.4187 9.28986C12.5964 9.0668 12.2421 8.80875 12.1372 8.66004C12.1372 8.62068 12.1284 8.58132 12.1153 8.54195ZM19.975 14.0835C20.9066 13.7948 21.099 13.493 21.099 13.4318V12.0978C20.8366 12.2684 20.4692 12.3996 20.1499 12.4958C19.1702 12.7932 17.9018 12.9551 16.5503 12.9551C15.3563 12.9551 14.1972 12.8239 13.2787 12.5833C12.9026 12.4915 12.5396 12.3602 12.1897 12.1897L12.2028 13.1781L12.2072 13.4449V13.4537C12.2072 13.5499 12.4871 13.8386 13.3225 14.0966C14.2016 14.3634 15.3781 14.5121 16.6421 14.5121C17.9018 14.5121 19.0827 14.359 19.975 14.0835ZM21.0421 11.0087C21.0421 11.07 20.841 11.3674 19.9006 11.6561C19.004 11.9272 17.8143 12.0759 16.5459 12.0759C14.1666 12.0759 12.5483 11.5467 12.1722 11.1268L12.1547 9.74473C13.1869 10.2827 14.9233 10.5276 16.5503 10.5276C17.8799 10.5276 19.1439 10.3702 20.1193 10.0815C20.4604 9.98529 20.7885 9.85408 21.1034 9.6835V10.7769C21.1015 10.8058 21.0893 10.8373 21.0764 10.8709C21.0599 10.9136 21.0421 10.9598 21.0421 11.0087ZM5.23539 6.35945C3.63897 6.35945 2.34871 7.65408 2.34871 9.24613C2.34871 10.8382 3.64334 12.1328 5.23539 12.1328C6.82744 12.1328 8.12207 10.8382 8.12207 9.24613C8.11769 7.65408 6.82744 6.36382 5.23539 6.35945ZM5.23539 11.2624C4.12445 11.2624 3.22346 10.3614 3.22346 9.2505C3.22346 8.13957 4.12445 7.23857 5.23539 7.23857C6.34632 7.23857 7.24732 8.13957 7.24732 9.2505C7.24732 10.3614 6.34632 11.2624 5.23539 11.2624Z" fill="#4A90E2"/>
</svg>
