<svg width="22" height="22" viewBox="0 0 22 22" fill="none" xmlns="http://www.w3.org/2000/svg">
<path opacity="0.720657" fill-rule="evenodd" clip-rule="evenodd" d="M11 22C17.0751 22 22 17.0751 22 11C22 4.92487 17.0751 0 11 0C4.92487 0 0 4.92487 0 11C0 17.0751 4.92487 22 11 22Z" fill="#444E5B"/>
<path d="M11.6629 11L16.8627 5.80023C17.0458 5.61716 17.0458 5.32035 16.8627 5.1373C16.6796 4.95426 16.3828 4.95423 16.1998 5.1373L11 10.3371L5.80023 5.1373C5.61716 4.95423 5.32035 4.95423 5.1373 5.1373C4.95426 5.32037 4.95423 5.61719 5.1373 5.80023L10.3371 11L5.1373 16.1998C4.95423 16.3829 4.95423 16.6797 5.1373 16.8627C5.22883 16.9542 5.3488 17 5.46878 17C5.58875 17 5.70871 16.9542 5.80025 16.8627L11 11.663L16.1997 16.8627C16.2913 16.9542 16.4112 17 16.5312 17C16.6512 17 16.7712 16.9542 16.8627 16.8627C17.0458 16.6797 17.0458 16.3828 16.8627 16.1998L11.6629 11Z" fill="white"/>
</svg>
