<svg width="14" height="19" viewBox="0 0 14 19" fill="none" xmlns="http://www.w3.org/2000/svg">
<path fill-rule="evenodd" clip-rule="evenodd" d="M4.93003 16.9901C6.04921 18.3904 6.62315 18.5699 6.99816 18.5699C7.37317 18.5699 7.9471 18.3904 9.06628 16.9901C11.0792 14.4715 13.9885 9.0052 13.9885 6.38678C13.9885 1.40413 7.05404 -2.42505 2.19759 1.84189C0.785502 3.08261 0.0078125 4.69668 0.0078125 6.38678C0.0078125 8.993 2.90526 14.4567 4.93003 16.9901ZM1.16984 6.38678C1.16984 3.39393 4.23732 1.15764 6.98 1.15764C9.73982 1.15764 12.8265 3.39393 12.8265 6.38678C12.8265 9.30576 8.38475 16.7797 6.99816 17.3997C6.8959 17.354 6.50153 17.1255 5.70162 16.0914C3.75435 13.5738 1.16984 8.55789 1.16984 6.38678Z" fill="#323438"/>
<path fill-rule="evenodd" clip-rule="evenodd" d="M3.2207 6.65911C3.2207 8.74154 4.91487 10.4357 6.9973 10.4357C9.0797 10.4357 10.7739 8.74154 10.7739 6.65911C10.7739 4.57668 9.07974 2.88251 6.9973 2.88251C4.91487 2.88251 3.2207 4.57668 3.2207 6.65911ZM4.38273 6.65911C4.38273 5.21743 5.55562 4.04454 6.9973 4.04454C8.43899 4.04454 9.61187 5.21743 9.61187 6.65911C9.61187 8.10079 8.43899 9.27368 6.9973 9.27368C5.55562 9.27368 4.38273 8.10079 4.38273 6.65911Z" fill="#323438"/>
</svg>
