<svg width="20" height="18" viewBox="0 0 20 18" fill="none" xmlns="http://www.w3.org/2000/svg"  fill-opacity="0.54">
<path d="M11.7679 7.6288C12.7442 8.60515 12.7442 10.1881 11.7679 11.1644C10.7916 12.1408 9.2086 12.1408 8.23226 11.1644C7.25591 10.1881 7.25591 8.60515 8.23226 7.6288C9.2086 6.65246 10.7916 6.65246 11.7679 7.6288Z" fill="#323438"/>
<path fill-rule="evenodd" clip-rule="evenodd" d="M15.7726 2.52145H17.5C18.8787 2.52145 20 3.6427 20 5.0215V15.0218C20 16.4007 18.8788 17.5219 17.5 17.5219H2.50009C1.12125 17.5219 0 16.4001 0 15.0212L0.00671505 5.02461C0.00790247 3.64884 1.12735 2.52821 2.5025 2.52575L4.22741 2.52268L5.47686 0.0213623H14.522L15.7726 2.52145ZM4.99952 9.39664C4.99952 12.1537 7.24263 14.3968 9.99969 14.3968C12.7568 14.3968 14.9999 12.1537 14.9999 9.39664C14.9999 6.63958 12.7568 4.39646 9.99969 4.39646C7.24263 4.39646 4.99952 6.63958 4.99952 9.39664Z" fill="#323438"/>
</svg>
