<svg width="24" height="24" viewBox="0 0 24 24" fill="none" xmlns="http://www.w3.org/2000/svg">
<g opacity="0.48">
<path fill-rule="evenodd" clip-rule="evenodd" d="M8.95313 0H15.0469C19.9875 0 24 3.97174 24 8.86225V14.8941C24 19.7846 19.9875 23.7563 15.0469 23.7563H8.95313C4.0125 23.7563 0 19.7846 0 14.8941V8.86225C0 3.97177 4.0125 0 8.95313 0Z" fill="#00AAF1"/>
<path fill-rule="evenodd" clip-rule="evenodd" d="M19.48 11.9796C19.48 8.02021 16.1944 4.82229 12.1388 4.82229C11.7263 4.82876 11.3147 4.86268 10.9066 4.92384C10.2284 4.50011 9.44688 4.2718 8.64779 4.26392C6.28626 4.26392 4.38674 6.14211 4.38674 8.42634C4.38495 9.15837 4.58005 9.87734 4.95148 10.5075C4.84954 10.9744 4.7979 11.451 4.79744 11.9289C4.79744 15.8883 8.08305 19.0863 12.1388 19.0863C12.5853 19.0796 13.0311 19.0457 13.4735 18.9847C14.0896 19.2893 14.7569 19.4923 15.4757 19.4923C17.8372 19.4923 19.7367 17.6142 19.7367 15.3299C19.742 14.6911 19.5829 14.0616 19.2747 13.5025C19.4184 13.008 19.4876 12.4947 19.48 11.9797V11.9796ZM15.8864 15.3806C15.504 15.8851 14.9882 16.2719 14.3976 16.4973C13.6586 16.7726 12.8757 16.9102 12.0874 16.9035C11.0093 16.9035 10.1366 16.7004 9.4692 16.3451C8.97179 16.1051 8.54666 15.7373 8.23707 15.2791C7.92904 14.8222 7.775 14.4161 7.775 14.0101C7.76829 13.7537 7.88242 13.5092 8.08302 13.3502C8.28838 13.1472 8.54509 13.0964 8.85312 13.0964C9.09223 13.0852 9.32789 13.1569 9.52048 13.2994C9.69719 13.4724 9.83693 13.6796 9.93118 13.9085C10.0852 14.2131 10.1879 14.4669 10.3419 14.6192C10.5009 14.826 10.7142 14.9842 10.9579 15.0761C11.3012 15.2119 11.6671 15.2808 12.0361 15.2791C12.6521 15.2791 13.1655 15.1776 13.5248 14.9238C13.8842 14.67 14.0896 14.3654 14.0896 14.0101C14.0896 13.7055 13.9869 13.5024 13.7815 13.3502C13.5762 13.1472 13.3195 13.0456 13.0114 12.9441C12.5734 12.8143 12.1276 12.7126 11.6767 12.6395C11.0129 12.5045 10.3606 12.3178 9.72583 12.0811C9.21246 11.8781 8.75044 11.5735 8.44242 11.1674C7.80776 10.3014 7.82877 9.11687 8.49373 8.27406C8.80175 7.86797 9.31512 7.51261 9.93118 7.30956C10.6263 7.07618 11.3543 6.95622 12.0874 6.95427C12.7548 6.95427 13.3195 7.005 13.7815 7.15732C14.2201 7.29792 14.6354 7.50322 15.0137 7.76645C15.3217 8.02021 15.5783 8.27406 15.7324 8.52784C15.872 8.77529 15.9429 9.05576 15.9377 9.34002C15.935 9.6089 15.8239 9.86524 15.6297 10.0507C15.4253 10.2534 15.147 10.3634 14.8596 10.3552C14.603 10.3552 14.3976 10.3045 14.2436 10.1522C14.0896 10.0507 13.9869 9.84763 13.7816 9.59385C13.5762 9.23849 13.3709 8.98467 13.1141 8.78166C12.8574 8.57866 12.4468 8.52784 11.882 8.52784C11.3687 8.52784 10.9066 8.62936 10.5986 8.8324C10.2906 9.03545 10.1366 9.23849 10.1366 9.54308C10.1326 9.69348 10.188 9.83938 10.2906 9.94914C10.3933 10.0507 10.5473 10.203 10.7526 10.2537C10.9498 10.3441 11.1564 10.4122 11.3687 10.4568C11.574 10.5075 11.9334 10.6091 12.3954 10.7106C12.9513 10.8099 13.5 10.9455 14.0382 11.1167C14.4738 11.2416 14.8889 11.4297 15.2703 11.675C15.6297 11.8781 15.8863 12.1827 16.0917 12.538C16.297 12.8934 16.3997 13.2994 16.3997 13.807C16.3997 14.3654 16.2457 14.9238 15.8863 15.3806H15.8864Z" fill="white"/>
<path opacity="0.4" d="M15.0469 0H8.95313C4.0125 0 0 3.96847 0 8.85492V11.7585C0.988511 13.8858 3.86828 16.9292 12.031 12.8561C20.5617 8.59871 21.5385 10.0425 24 11.3128V8.85492C24 3.96851 19.9875 0 15.0469 0Z" fill="url(#paint0_linear)"/>
</g>
<defs>
<linearGradient id="paint0_linear" x1="24.0001" y1="14.863" x2="24.0001" y2="-1.77181e-05" gradientUnits="userSpaceOnUse">
<stop stop-color="white"/>
<stop offset="0.0855" stop-color="white" stop-opacity="0.968"/>
<stop offset="0.2192" stop-color="white" stop-opacity="0.881"/>
<stop offset="0.3843" stop-color="white" stop-opacity="0.738"/>
<stop offset="0.5745" stop-color="white" stop-opacity="0.54"/>
<stop offset="0.7859" stop-color="white" stop-opacity="0.287"/>
<stop offset="1" stop-color="white" stop-opacity="0.01"/>
</linearGradient>
</defs>
</svg>
