<svg width="24" height="24" viewBox="0 0 24 24" fill="none" xmlns="http://www.w3.org/2000/svg">
<g opacity="0.479306">
<path d="M18 24H6C2.68635 23.9999 0.000144963 21.3136 0 18V6C0.000144963 2.68635 2.68635 0.000144963 6 0H18C21.3137 0 24 2.68629 24 6V18C24 21.3137 21.3137 24 18 24Z" fill="#199BDF"/>
<path d="M11.25 6.75H18C19.7969 6.74989 21.2786 5.34202 21.3706 3.5475C21.4625 1.75298 20.1325 0.20103 18.345 0.01725C18.2302 0.010875 18.1166 0 18 0H6C2.68635 0.000144963 0.000144963 2.68635 0 6V18C0.000144968 11.7869 5.03686 6.75014 11.25 6.75Z" fill="#32B4FF"/>
<path d="M18 12C14.6863 12 12 14.6863 12 18C12 21.3137 14.6863 24 18 24C21.3137 24 24 21.3137 24 18V6C24 9.31371 21.3137 12 18 12Z" fill="#0082BE"/>
<path d="M16.9059 6.38703C17.2813 6.23207 17.711 6.2914 18.0303 6.54225C18.3496 6.79311 18.5089 7.19657 18.4472 7.59791C18.0102 10.44 17.2089 15.648 16.7836 18.4125C16.7238 18.8016 16.4649 19.1311 16.101 19.2813C15.7372 19.4316 15.3213 19.3807 15.0044 19.1472C13.4998 18.0387 11.244 16.3767 10.0987 15.5325C9.9198 15.4007 9.80858 15.1963 9.79505 14.9744C9.78153 14.7526 9.86709 14.5361 10.0287 14.3835C11.0781 13.3924 13.1683 11.4184 14.6064 10.0602C14.6766 9.99344 14.6844 9.88424 14.6245 9.80818C14.5645 9.73212 14.4565 9.71424 14.3752 9.76691C12.5313 10.9695 9.70733 12.8112 8.32328 13.7138C7.79893 14.0558 7.15579 14.1638 6.54848 14.0119C5.78637 13.8214 4.6871 13.5465 3.70883 13.302C3.39468 13.2235 3.16638 12.9523 3.14265 12.6294C3.11893 12.3064 3.30513 12.0047 3.60443 11.8812C7.00988 10.4745 13.6743 7.72203 16.9059 6.38703Z" fill="white"/>
</g>
</svg>
