<svg width="24" height="24" viewBox="0 0 24 24" fill="none" xmlns="http://www.w3.org/2000/svg">
<g opacity="0.479306">
<path fill-rule="evenodd" clip-rule="evenodd" d="M18 24H6C4.40865 24.0002 2.88242 23.3681 1.75716 22.2428C0.631904 21.1176 -0.000179019 19.5914 3.80324e-08 18V6C-0.000179019 4.40865 0.631904 2.88242 1.75716 1.75716C2.88242 0.631904 4.40865 -0.000179019 6 3.80324e-08H18C19.5914 -0.000179019 21.1176 0.631904 22.2428 1.75716C23.3681 2.88242 24.0002 4.40865 24 6V18C24.0002 19.5914 23.3681 21.1176 22.2428 22.2428C21.1176 23.3681 19.5914 24.0002 18 24Z" fill="#785AFA"/>
<path fill-rule="evenodd" clip-rule="evenodd" d="M11.25 6.75H18C19.7969 6.74989 21.2786 5.34202 21.3706 3.5475C21.4625 1.75298 20.1325 0.20103 18.345 0.01725C18.2288 0.010875 18.1162 3.80324e-08 18 3.80324e-08H6C4.40865 -0.000179019 2.88242 0.631904 1.75716 1.75716C0.631904 2.88242 -0.000179019 4.40865 3.80324e-08 6V18C3.80324e-08 11.7868 5.0368 6.75 11.25 6.75Z" fill="#9678FF"/>
<path fill-rule="evenodd" clip-rule="evenodd" d="M18 12C14.6863 12 12 14.6863 12 18C12 21.3137 14.6863 24 18 24C21.3137 24 24 21.3137 24 18V6C24.0002 7.59135 23.3681 9.11758 22.2428 10.2428C21.1176 11.3681 19.5914 12.0002 18 12Z" fill="#5F41E1"/>
<path fill-rule="evenodd" clip-rule="evenodd" d="M12.3119 3.67834C16.1407 3.69521 17.8619 4.94321 18.2857 5.33546C19.6994 6.55984 20.4794 9.27634 19.9544 13.5708C19.49 17.3648 16.8457 18.0372 15.9577 18.263C15.8705 18.2851 15.8003 18.303 15.7507 18.3191C14.2319 18.6763 12.67 18.816 11.1119 18.7338L9.40569 20.379C8.89194 20.901 8.52444 21 8.26569 21C7.63194 21 7.50069 20.352 7.50069 19.9113V18.1875C3.71844 17.1234 3.82067 13.3658 3.88301 11.0746C3.88687 10.9329 3.89057 10.7968 3.89319 10.6672C3.93819 8.44384 4.36944 6.65059 5.59569 5.42509C7.79694 3.40571 12.3119 3.67834 12.3119 3.67834ZM15.5027 17.0605C16.2604 16.884 18.3625 16.3942 18.7507 13.2626V13.2618C19.1969 9.67459 18.5857 7.22621 17.3932 6.20321C17.0332 5.87621 15.4807 4.90084 12.2407 4.88696C12.2407 4.88696 8.40444 4.63496 6.54444 6.32134C5.50569 7.34434 5.15694 8.86534 5.11944 10.7227C5.11818 10.7853 5.11673 10.8498 5.11525 10.9161C5.07263 12.8161 4.99767 16.1582 8.28069 17.0696C8.28069 17.0696 8.26944 19.3848 8.26569 19.6158C8.26569 19.7778 8.29194 19.8885 8.38569 19.9113C8.48116 19.9199 8.57484 19.8816 8.63694 19.8086C9.17694 19.2633 10.9169 17.4843 10.9169 17.4843C12.39 17.5872 13.87 17.4612 15.3044 17.1108C15.3512 17.0958 15.4187 17.0801 15.5027 17.0605Z" fill="white"/>
<path d="M12.0006 6.75C13.0947 6.74972 14.144 7.18423 14.9177 7.95788C15.6913 8.73153 16.1258 9.7809 16.1256 10.875C16.1247 10.9741 16.0857 11.069 16.0168 11.1401C15.9094 11.2474 15.748 11.2795 15.6077 11.2215C15.4675 11.1635 15.3759 11.0268 15.3756 10.875C15.3742 9.01161 13.8639 7.50139 12.0006 7.5H11.9668C11.7598 7.49967 11.5921 7.33197 11.5918 7.125C11.591 7.0256 11.6302 6.93004 11.7006 6.85988C11.7712 6.7893 11.867 6.74976 11.9668 6.75H12.0006Z" fill="white"/>
<path d="M12.0006 8.25C12.6968 8.24991 13.3645 8.52644 13.8568 9.01875C14.3491 9.51105 14.6257 10.1788 14.6256 10.875C14.6253 11.0268 14.5336 11.1635 14.3934 11.2215C14.2531 11.2795 14.0917 11.2474 13.9843 11.1401C13.9154 11.069 13.8764 10.9741 13.8756 10.875C13.8753 9.83957 13.036 9.00025 12.0006 9H11.9668C11.867 9.00024 11.7712 8.9607 11.7006 8.89013C11.6302 8.81996 11.591 8.7244 11.5918 8.625C11.5921 8.41803 11.7598 8.25033 11.9668 8.25L12.0006 8.25Z" fill="white"/>
<path d="M15.9637 14.5804C16.1068 14.3532 16.0741 14.0573 15.8849 13.8668C15.426 13.462 14.9286 13.1029 14.3999 12.7946C14.1297 12.6262 13.7777 12.6751 13.5637 12.9109L13.2599 13.2893C12.8774 13.7618 11.7074 13.0534 11.1524 12.4733C10.5712 11.9149 9.86242 10.7464 10.3349 10.3631L10.7137 10.0628C10.9495 9.84797 10.9984 9.49548 10.8299 9.22463C10.5236 8.69474 10.1642 8.19731 9.75742 7.74001C9.56766 7.55037 9.27196 7.51722 9.04492 7.66013C8.75478 7.83102 8.49187 8.04439 8.26492 8.29313C7.98829 8.55338 7.88486 8.9489 7.99867 9.31126C8.5203 10.7675 9.34031 12.0988 10.4062 13.2199C11.5277 14.2842 12.8584 15.1036 14.3137 15.6259C14.6762 15.7411 15.0727 15.6384 15.3337 15.3615C15.5712 15.1246 15.7825 14.8627 15.9637 14.5804Z" fill="white"/>
</g>
</svg>
