<svg width="24" height="24" viewBox="0 0 24 24" fill="none" xmlns="http://www.w3.org/2000/svg">
<path d="M18 24H6C2.68635 23.9999 0.000144963 21.3136 0 18V6C0.000144963 2.68635 2.68635 0.000144963 6 0H18C21.3137 0 24 2.68629 24 6V18C24 21.3137 21.3137 24 18 24Z" fill="#00D264"/>
<path d="M11.25 6.75H18C19.7969 6.74989 21.2786 5.34202 21.3706 3.5475C21.4625 1.75298 20.1325 0.20103 18.345 0.01725C18.2302 0.010875 18.1166 0 18 0H6C2.68635 0.000144963 0.000144963 2.68635 0 6V18C0.000144968 11.7869 5.03686 6.75014 11.25 6.75Z" fill="#00EB78"/>
<path d="M18 12C14.6863 12 12 14.6863 12 18C12 21.3137 14.6863 24 18 24C21.3137 24 24 21.3137 24 18V6C24 9.31371 21.3137 12 18 12Z" fill="#00B950"/>
<path fill-rule="evenodd" clip-rule="evenodd" d="M7.08487 4.81246C3.65108 7.4797 2.73934 12.2857 4.95771 16.0252C4.95771 16.0252 4.27446 18.4166 3.93584 19.6009C3.89855 19.7319 3.93515 19.8728 4.03147 19.9691C4.12778 20.0654 4.2687 20.102 4.39971 20.0647C5.58396 19.7261 7.97534 19.0429 7.97534 19.0429C11.7148 21.2612 16.5209 20.3495 19.1881 16.9157C21.8553 13.4819 21.5498 8.59972 18.4753 5.52522C15.4008 2.45073 10.5187 2.14522 7.08487 4.81246ZM8.72534 17.7416C8.54637 17.6321 8.32976 17.6025 8.12796 17.6599C7.38959 17.871 5.62559 18.375 5.62559 18.375C5.62559 18.375 6.12959 16.611 6.33846 15.8719C6.39594 15.6708 6.36656 15.4548 6.25746 15.2764C4.41606 12.1931 5.15994 8.22104 7.99228 6.01306C10.8246 3.80509 14.8581 4.05288 17.3989 6.59095C19.9396 9.12901 20.1917 13.1622 17.9868 15.9969C15.7818 18.8316 11.8106 19.5797 8.72534 17.7416Z" fill="white"/>
<path d="M8.24256 9.2947C8.48371 12.7655 11.2327 15.5349 14.7016 15.8017H14.7023C15.2446 15.8437 15.7781 15.6464 16.1626 15.2617L16.4243 15C16.5479 14.8763 16.6173 14.7086 16.6174 14.5338V13.9781C16.6174 13.836 16.5371 13.7061 16.4101 13.6425C16.0152 13.4452 15.1579 13.0166 14.7379 12.8066C14.5935 12.7343 14.4191 12.7626 14.3048 12.8767C14.0956 13.086 13.7648 13.4171 13.5773 13.6042C13.4887 13.6928 13.3616 13.7314 13.2387 13.707L13.2353 13.7062C11.7508 13.4093 10.5903 12.2489 10.2934 10.7643L10.2927 10.761C10.2682 10.638 10.3068 10.511 10.3954 10.4223C10.5826 10.2348 10.9137 9.90408 11.1229 9.69483C11.237 9.58057 11.2653 9.40613 11.1931 9.2617C10.9831 8.8417 10.5544 7.98445 10.3572 7.58958C10.2936 7.4625 10.1637 7.38223 10.0216 7.3822H9.54906C9.32216 7.38227 9.10591 7.47847 8.95393 7.64695C8.87856 7.73095 8.79193 7.82695 8.70493 7.9237C8.37411 8.29083 8.20656 8.77656 8.24068 9.26958C8.24143 9.27783 8.24181 9.28608 8.24256 9.2947Z" fill="white"/>
</svg>
