<svg width="163" height="163" viewBox="0 0 163 163" fill="none" xmlns="http://www.w3.org/2000/svg">
<mask id="mask0" mask-type="alpha" maskUnits="userSpaceOnUse" x="0" y="0" width="163" height="163">
<path d="M0 8C0 3.58173 3.58172 0 8 0H163V163H8C3.58173 163 0 159.418 0 155V8Z" fill="#C4C4C4"/>
</mask>
<g mask="url(#mask0)">
<path d="M0 8C0 3.58173 3.58172 0 8 0H163V163H8C3.58173 163 0 159.418 0 155V8Z" fill="#FFF7ED"/>
</g>
<path fill-rule="evenodd" clip-rule="evenodd" d="M110.996 101.516L83.7126 74.3798C86.654 63.5333 78.3564 53 67.1474 53C57.6728 53 50 60.5921 50 69.9802C50 73.8651 51.3096 77.5502 53.7204 80.5432C52.9035 83.2459 52.6233 85.9208 52.9345 88.1458C53.3145 90.8643 54.5272 92.6933 56.3488 93.2961C58.5152 94.0128 60.6624 92.6259 62.2124 90.9513C63.2374 89.8439 64.186 88.4325 64.9983 86.8289C67.1459 87.093 69.3861 86.9669 71.5884 86.3838L75.2112 89.9712C75.5923 90.3485 76.1551 90.4815 76.6668 90.3147L80.8767 88.9442V94.995C80.8767 95.8554 81.6472 96.5173 82.5068 96.3954L87.695 95.6615L86.9539 100.798C86.8312 101.65 87.4983 102.413 88.3676 102.413H95.0233V107.002C95.0233 107.316 95.1285 107.621 95.3226 107.869L97.3436 110.452C97.6143 110.798 98.031 111 98.4724 111H109.984C110.772 111 111.412 110.367 111.412 109.585V102.514C111.412 102.14 111.262 101.781 110.996 101.516ZM57.2539 90.6128C56.5483 90.3794 55.9773 89.2853 55.7637 87.7576C55.5659 86.3427 55.6686 84.6768 56.0483 82.924C57.8381 84.4339 59.8933 85.5471 62.1035 86.2172C60.3471 89.391 58.2846 90.9533 57.2539 90.6128ZM99.1723 108.171H108.555V103.099L81.0911 75.7819C80.7134 75.4062 80.5796 74.8527 80.7442 74.3482C83.7424 65.169 76.8162 55.8293 67.1475 55.8293C59.248 55.8293 52.8564 62.1597 52.8564 69.9802C52.8564 76.5879 57.3891 81.9953 63.3124 83.6183C63.838 82.2631 64.2278 80.8933 64.4777 79.5271C62.8291 79.0776 61.3173 78.2139 60.0753 76.9841C56.1657 73.1125 56.1662 66.8468 60.0753 62.9759C63.9845 59.1049 70.3114 59.1052 74.2203 62.9759C78.1299 66.8475 78.1294 73.1132 74.2203 76.9841C72.3714 78.8149 69.9258 79.838 67.3179 79.881C67.0793 81.2326 66.7055 82.6514 66.1788 84.0985C68.0243 84.22 69.8364 83.9952 71.559 83.4435C72.0693 83.2795 72.6289 83.4135 73.0082 83.789L76.6095 87.3553L81.8589 85.6464C82.7831 85.3458 83.733 86.0289 83.733 86.9903V93.3642L89.1761 92.5942C90.1168 92.4613 90.9264 93.2608 90.7918 94.1948L90.0143 99.5841H96.4512C97.2399 99.5841 97.8794 100.218 97.8794 100.999V106.519L99.1723 108.171ZM67.1474 62.9045C71.0953 62.9045 74.2934 66.0676 74.2934 69.9804C74.2934 73.7259 71.3586 76.7968 67.6237 77.0389C67.6455 76.3598 67.627 75.7058 67.5661 75.0857C67.2856 72.2294 66.1271 70.3241 64.3037 69.7208C63.0032 69.2904 61.4164 69.7714 60.0306 70.6085C59.6593 66.4184 62.9887 62.9045 67.1474 62.9045ZM64.7231 75.3594C64.5655 73.7547 64.0581 72.6223 63.3987 72.4042C63.0649 72.2937 61.9868 72.6227 60.9091 73.4338C61.7617 74.9382 63.1396 76.0888 64.7732 76.6569C64.779 76.2042 64.7633 75.7692 64.7231 75.3594Z" fill="#FF9419"/>
<path d="M83.7126 74.3798L83.2301 74.2489L83.154 74.5293L83.36 74.7343L83.7126 74.3798ZM110.996 101.516L111.348 101.162L111.348 101.162L110.996 101.516ZM53.7204 80.5432L54.199 80.6879L54.2754 80.4352L54.1098 80.2296L53.7204 80.5432ZM52.9345 88.1458L53.4297 88.0765L53.4297 88.0765L52.9345 88.1458ZM56.3488 93.2961L56.1918 93.7707L56.1918 93.7707L56.3488 93.2961ZM62.2124 90.9513L61.8454 90.6116L61.8454 90.6116L62.2124 90.9513ZM64.9983 86.8289L65.0594 86.3326L64.7109 86.2898L64.5523 86.6029L64.9983 86.8289ZM71.5884 86.3838L71.9402 86.0285L71.7369 85.8273L71.4604 85.9005L71.5884 86.3838ZM75.2112 89.9712L74.8594 90.3265L74.8594 90.3265L75.2112 89.9712ZM76.6668 90.3147L76.5121 89.8393L76.5119 89.8393L76.6668 90.3147ZM80.8767 88.9442H81.3767V88.2556L80.7219 88.4688L80.8767 88.9442ZM82.5068 96.3954L82.4368 95.9003L82.4366 95.9003L82.5068 96.3954ZM87.695 95.6615L88.1898 95.7329L88.285 95.073L87.6249 95.1664L87.695 95.6615ZM86.9539 100.798L86.459 100.727L86.459 100.727L86.9539 100.798ZM95.0233 102.413H95.5233V101.913H95.0233V102.413ZM95.3226 107.869L95.7164 107.561L95.7163 107.561L95.3226 107.869ZM97.3436 110.452L96.9498 110.76L96.95 110.76L97.3436 110.452ZM55.7637 87.7576L55.2685 87.8269L55.2685 87.8269L55.7637 87.7576ZM57.2539 90.6128L57.0968 91.0875L57.097 91.0876L57.2539 90.6128ZM56.0483 82.924L56.3707 82.5418L55.7356 82.0059L55.5597 82.8181L56.0483 82.924ZM62.1035 86.2172L62.541 86.4593L62.8405 85.9182L62.2486 85.7387L62.1035 86.2172ZM108.555 108.171V108.671H109.055V108.171H108.555ZM99.1723 108.171L98.7785 108.479L98.9287 108.671H99.1723V108.171ZM108.555 103.099H109.055V102.891L108.908 102.744L108.555 103.099ZM81.0911 75.7819L80.7385 76.1364L80.7385 76.1364L81.0911 75.7819ZM80.7442 74.3482L80.2689 74.193L80.2689 74.193L80.7442 74.3482ZM63.3124 83.6183L63.1803 84.1006L63.6155 84.2198L63.7786 83.7991L63.3124 83.6183ZM64.4777 79.5271L64.9695 79.617L65.0521 79.1654L64.6092 79.0447L64.4777 79.5271ZM60.0753 76.9841L59.7235 77.3394L59.7235 77.3394L60.0753 76.9841ZM60.0753 62.9759L59.7235 62.6206L60.0753 62.9759ZM74.2203 62.9759L74.5721 62.6206L74.5721 62.6206L74.2203 62.9759ZM74.2203 76.9841L74.5721 77.3394L74.5721 77.3394L74.2203 76.9841ZM67.3179 79.881L67.3097 79.3811L66.8972 79.3879L66.8255 79.7941L67.3179 79.881ZM66.1788 84.0985L65.709 83.9275L65.481 84.5536L66.1459 84.5974L66.1788 84.0985ZM71.559 83.4435L71.7115 83.9197L71.712 83.9195L71.559 83.4435ZM73.0082 83.789L73.36 83.4337L73.3599 83.4336L73.0082 83.789ZM76.6095 87.3553L76.2577 87.7105L76.4743 87.9251L76.7643 87.8307L76.6095 87.3553ZM81.8589 85.6464L81.7043 85.1709L81.7042 85.1709L81.8589 85.6464ZM83.733 93.3642H83.233V93.9399L83.803 93.8593L83.733 93.3642ZM89.1761 92.5942L89.1061 92.0992L89.106 92.0992L89.1761 92.5942ZM90.7918 94.1948L91.2866 94.2662L91.2867 94.2661L90.7918 94.1948ZM90.0143 99.5841L89.5194 99.5127L89.437 100.084H90.0143V99.5841ZM97.8794 106.519H97.3794V106.691L97.4856 106.827L97.8794 106.519ZM67.6237 77.0389L67.1239 77.0228L67.1062 77.5734L67.656 77.5378L67.6237 77.0389ZM67.5661 75.0857L68.0637 75.0368L68.0637 75.0368L67.5661 75.0857ZM64.3037 69.7208L64.1466 70.1955L64.1466 70.1955L64.3037 69.7208ZM60.0306 70.6085L59.5326 70.6526L59.6033 71.4507L60.2891 71.0364L60.0306 70.6085ZM63.3987 72.4042L63.2416 72.8789L63.2417 72.8789L63.3987 72.4042ZM64.7231 75.3594L64.2254 75.4082L64.2254 75.4083L64.7231 75.3594ZM60.9091 73.4338L60.6084 73.0342L60.2576 73.2983L60.4741 73.6803L60.9091 73.4338ZM64.7732 76.6569L64.6089 77.1291L65.2642 77.357L65.2731 76.6633L64.7732 76.6569ZM83.36 74.7343L110.643 101.871L111.348 101.162L84.0652 74.0252L83.36 74.7343ZM67.1474 53.5C78.0367 53.5 86.0827 63.7297 83.2301 74.2489L84.1952 74.5106C87.2253 63.3369 78.676 52.5 67.1474 52.5V53.5ZM50.5 69.9802C50.5 60.873 57.9442 53.5 67.1474 53.5V52.5C57.4014 52.5 49.5 60.3112 49.5 69.9802H50.5ZM54.1098 80.2296C51.7705 77.3253 50.5 73.7508 50.5 69.9802H49.5C49.5 73.9795 50.8488 77.7752 53.331 80.8568L54.1098 80.2296ZM53.4297 88.0765C53.1308 85.9398 53.3976 83.3393 54.199 80.6879L53.2418 80.3985C52.4094 83.1524 52.1158 85.9018 52.4393 88.215L53.4297 88.0765ZM56.5059 92.8214C54.9393 92.303 53.7963 90.6991 53.4297 88.0765L52.4393 88.215C52.8327 91.0294 54.1151 93.0836 56.1918 93.7707L56.5059 92.8214ZM61.8454 90.6116C60.3161 92.264 58.3685 93.4376 56.5059 92.8214L56.1918 93.7707C58.662 94.5881 61.0086 92.9879 62.5793 91.2909L61.8454 90.6116ZM64.5523 86.6029C63.7564 88.1741 62.8328 89.545 61.8454 90.6116L62.5793 91.2909C63.642 90.1428 64.6156 88.6909 65.4444 87.0548L64.5523 86.6029ZM71.4604 85.9005C69.3221 86.4667 67.1461 86.5893 65.0594 86.3326L64.9373 87.3251C67.1456 87.5967 69.4501 87.4672 71.7164 86.8672L71.4604 85.9005ZM75.5631 89.6159L71.9402 86.0285L71.2366 86.7391L74.8594 90.3265L75.5631 89.6159ZM76.5119 89.8393C76.1776 89.9483 75.8105 89.8609 75.563 89.6159L74.8594 90.3265C75.3741 90.8361 76.1327 91.0147 76.8218 90.7901L76.5119 89.8393ZM80.7219 88.4688L76.5121 89.8393L76.8216 90.7901L81.0315 89.4196L80.7219 88.4688ZM81.3767 94.995V88.9442H80.3767V94.995H81.3767ZM82.4366 95.9003C81.8728 95.9803 81.3767 95.5461 81.3767 94.995H80.3767C80.3767 96.1648 81.4216 97.0543 82.577 96.8904L82.4366 95.9003ZM87.6249 95.1664L82.4368 95.9003L82.5768 96.8905L87.765 96.1565L87.6249 95.1664ZM87.4488 100.87L88.1898 95.7329L87.2001 95.5901L86.459 100.727L87.4488 100.87ZM88.3676 101.913C87.7978 101.913 87.3703 101.414 87.4488 100.87L86.459 100.727C86.2922 101.885 87.1988 102.913 88.3676 102.913V101.913ZM95.0233 101.913H88.3676V102.913H95.0233V101.913ZM95.5233 107.002V102.413H94.5233V107.002H95.5233ZM95.7163 107.561C95.5909 107.4 95.5233 107.204 95.5233 107.002H94.5233C94.5233 107.428 94.6661 107.841 94.9289 108.177L95.7163 107.561ZM97.7374 110.144L95.7164 107.561L94.9288 108.177L96.9498 110.76L97.7374 110.144ZM98.4724 110.5C98.1838 110.5 97.9126 110.368 97.7373 110.144L96.95 110.76C97.3159 111.228 97.8782 111.5 98.4724 111.5V110.5ZM109.984 110.5H98.4724V111.5H109.984V110.5ZM110.912 109.585C110.912 110.086 110.501 110.5 109.984 110.5V111.5C111.044 111.5 111.912 110.647 111.912 109.585H110.912ZM110.912 102.514V109.585H111.912V102.514H110.912ZM110.643 101.871C110.816 102.042 110.912 102.274 110.912 102.514H111.912C111.912 102.006 111.709 101.52 111.348 101.162L110.643 101.871ZM55.2685 87.8269C55.3809 88.6306 55.5901 89.3445 55.8811 89.9019C56.1653 90.4465 56.5656 90.9118 57.0968 91.0875L57.4109 90.1381C57.2366 90.0804 56.9987 89.882 56.7676 89.4392C56.5432 89.0093 56.3601 88.4124 56.2589 87.6884L55.2685 87.8269ZM55.5597 82.8181C55.1708 84.6128 55.0606 86.3396 55.2685 87.8269L56.2589 87.6884C56.0712 86.3458 56.1663 84.7409 56.537 83.0298L55.5597 82.8181ZM62.2486 85.7387C60.1035 85.0884 58.1086 84.008 56.3707 82.5418L55.7259 83.3061C57.5676 84.8599 59.6831 86.0059 61.9585 86.6957L62.2486 85.7387ZM57.097 91.0876C57.5098 91.2239 57.9618 91.1517 58.3872 90.9794C58.8185 90.8046 59.2741 90.5072 59.733 90.1116C60.6524 89.3192 61.6418 88.0842 62.541 86.4593L61.666 85.9751C60.8089 87.524 59.8888 88.6571 59.0801 89.3541C58.675 89.7033 58.3119 89.9309 58.0117 90.0525C57.7056 90.1766 57.5133 90.1719 57.4107 90.138L57.097 91.0876ZM108.555 107.671H99.1723V108.671H108.555V107.671ZM108.055 103.099V108.171H109.055V103.099H108.055ZM80.7385 76.1364L108.203 103.453L108.908 102.744L81.4437 75.4274L80.7385 76.1364ZM80.2689 74.193C80.0454 74.8777 80.2275 75.6282 80.7385 76.1364L81.4437 75.4274C81.1992 75.1842 81.1137 74.8276 81.2196 74.5034L80.2689 74.193ZM67.1475 56.3293C76.4846 56.3293 83.159 65.3449 80.2689 74.193L81.2195 74.5034C84.3259 64.9931 77.1478 55.3293 67.1475 55.3293V56.3293ZM53.3564 69.9802C53.3564 62.4404 59.5195 56.3293 67.1475 56.3293V55.3293C58.9765 55.3293 52.3564 61.8789 52.3564 69.9802H53.3564ZM63.4446 83.1361C57.7261 81.5693 53.3564 76.3501 53.3564 69.9802H52.3564C52.3564 76.8256 57.052 82.4214 63.1803 84.1006L63.4446 83.1361ZM63.9858 79.4371C63.7418 80.7711 63.3609 82.1105 62.8463 83.4376L63.7786 83.7991C64.3151 82.4158 64.7137 81.0156 64.9695 79.617L63.9858 79.4371ZM59.7235 77.3394C61.0271 78.6301 62.6149 79.5375 64.3462 80.0095L64.6092 79.0447C63.0433 78.6178 61.6075 77.7976 60.4271 76.6288L59.7235 77.3394ZM59.7235 62.6206C55.6169 66.6871 55.6163 73.2721 59.7235 77.3394L60.4271 76.6288C56.7151 72.9529 56.7156 67.0064 60.4271 63.3312L59.7235 62.6206ZM74.5721 62.6206C70.4683 58.5569 63.8276 58.5566 59.7235 62.6206L60.4271 63.3312C64.1415 59.6531 70.1544 59.6534 73.8685 63.3312L74.5721 62.6206ZM74.5721 77.3394C78.6788 73.2729 78.6794 66.6879 74.5721 62.6206L73.8685 63.3312C77.5805 67.0071 77.58 72.9536 73.8685 76.6288L74.5721 77.3394ZM67.3262 80.3809C70.0619 80.3358 72.6309 79.2616 74.5721 77.3394L73.8685 76.6288C72.1119 78.3682 69.7897 79.3402 67.3097 79.3811L67.3262 80.3809ZM66.6486 84.2695C67.1852 82.7953 67.5666 81.3483 67.8103 79.968L66.8255 79.7941C66.592 81.1168 66.2258 82.5075 65.709 83.9275L66.6486 84.2695ZM71.4065 82.9673C69.7439 83.4998 67.9947 83.717 66.2116 83.5996L66.1459 84.5974C68.0538 84.723 69.9288 84.4906 71.7115 83.9197L71.4065 82.9673ZM73.3599 83.4336C72.8478 82.9267 72.0936 82.7466 71.4061 82.9675L71.712 83.9195C72.045 83.8125 72.4099 83.9003 72.6565 84.1443L73.3599 83.4336ZM76.9613 87L73.36 83.4337L72.6564 84.1442L76.2577 87.7105L76.9613 87ZM81.7042 85.1709L76.4547 86.8798L76.7643 87.8307L82.0137 86.1218L81.7042 85.1709ZM84.233 86.9903C84.233 85.6828 82.9455 84.7672 81.7043 85.1709L82.0136 86.1219C82.6207 85.9244 83.233 86.375 83.233 86.9903H84.233ZM84.233 93.3642V86.9903H83.233V93.3642H84.233ZM89.106 92.0992L83.663 92.8692L83.803 93.8593L89.2461 93.0893L89.106 92.0992ZM91.2867 94.2661C91.4699 92.995 90.3695 91.9206 89.1061 92.0992L89.2461 93.0893C89.8641 93.002 90.3829 93.5266 90.2969 94.1234L91.2867 94.2661ZM90.5091 99.6555L91.2866 94.2662L90.2969 94.1234L89.5194 99.5127L90.5091 99.6555ZM96.4512 99.0841H90.0143V100.084H96.4512V99.0841ZM98.3794 100.999C98.3794 99.937 97.5115 99.0841 96.4512 99.0841V100.084C96.9682 100.084 97.3794 100.498 97.3794 100.999H98.3794ZM98.3794 106.519V100.999H97.3794V106.519H98.3794ZM99.5661 107.863L98.2732 106.21L97.4856 106.827L98.7785 108.479L99.5661 107.863ZM74.7934 69.9804C74.7934 65.7867 71.3666 62.4045 67.1474 62.4045V63.4045C70.824 63.4045 73.7934 66.3486 73.7934 69.9804H74.7934ZM67.656 77.5378C71.6487 77.2791 74.7934 73.9947 74.7934 69.9804H73.7934C73.7934 73.4571 71.0685 76.3146 67.5913 76.5399L67.656 77.5378ZM67.0685 75.1345C67.127 75.7308 67.1452 76.3629 67.1239 77.0228L68.1234 77.0549C68.1459 76.3567 68.1269 75.6809 68.0637 75.0368L67.0685 75.1345ZM64.1466 70.1955C65.6953 70.7079 66.7964 72.3638 67.0685 75.1345L68.0637 75.0368C67.7748 72.0949 66.5589 69.9403 64.4608 69.2461L64.1466 70.1955ZM60.2891 71.0364C61.6329 70.2248 63.0561 69.8346 64.1466 70.1955L64.4608 69.2461C62.9503 68.7463 61.1998 69.3181 59.7721 70.1805L60.2891 71.0364ZM67.1474 62.4045C62.7036 62.4045 59.1346 66.1617 59.5326 70.6526L60.5287 70.5643C60.184 66.6751 63.2737 63.4045 67.1474 63.4045V62.4045ZM63.2417 72.8789C63.3698 72.9213 63.5831 73.0983 63.7928 73.5663C63.9932 74.0136 64.1502 74.6414 64.2254 75.4082L65.2207 75.3105C65.1384 74.4727 64.9629 73.732 64.7054 73.1574C64.4571 72.6035 64.087 72.1052 63.5557 71.9295L63.2417 72.8789ZM61.2097 73.8333C61.7124 73.455 62.2102 73.1932 62.6108 73.0407C62.8116 72.9642 62.9792 72.9186 63.1041 72.8973C63.2476 72.873 63.2776 72.8908 63.2416 72.8789L63.5558 71.9295C63.3529 71.8623 63.123 71.8798 62.9368 71.9114C62.732 71.9462 62.5001 72.0128 62.2549 72.1061C61.7636 72.2932 61.1835 72.6015 60.6084 73.0342L61.2097 73.8333ZM64.9374 76.1846C63.4188 75.6565 62.137 74.5863 61.3441 73.1872L60.4741 73.6803C61.3864 75.2901 62.8605 76.521 64.6089 77.1291L64.9374 76.1846ZM64.2254 75.4083C64.2636 75.7968 64.2789 76.2131 64.2732 76.6504L65.2731 76.6633C65.2792 76.1953 65.263 75.7416 65.2207 75.3105L64.2254 75.4083Z" fill="#FFF7ED"/>
</svg>
