<svg width="163" height="163" viewBox="0 0 163 163" fill="none" xmlns="http://www.w3.org/2000/svg">
<mask id="mask0" mask-type="alpha" maskUnits="userSpaceOnUse" x="0" y="0" width="163" height="163">
<path d="M0 8C0 3.58173 3.58172 0 8 0H163V163H8C3.58173 163 0 159.418 0 155V8Z" fill="#C4C4C4"/>
</mask>
<g mask="url(#mask0)">
<path d="M0 8C0 3.58173 3.58172 0 8 0H163V163H8C3.58173 163 0 159.418 0 155V8Z" fill="#FFF7ED"/>
</g>
<path fill-rule="evenodd" clip-rule="evenodd" d="M57.0313 42H101.67C106.284 42 110.038 45.6971 110.037 50.2411V107.888C110.037 112.432 106.284 116.13 101.67 116.13H99.4007C98.7919 116.13 98.2983 115.643 98.2983 115.044C98.2983 114.444 98.7919 113.958 99.4007 113.958H101.67C105.068 113.958 107.832 111.235 107.832 107.888V50.2413C107.832 46.8946 105.068 44.1719 101.67 44.1719H62.7795V52.3486C62.7795 52.9483 62.2859 53.4345 61.6771 53.4345C61.0682 53.4345 60.5746 52.9483 60.5746 52.3486V44.1719H57.0313C56.0243 44.1719 55.2051 44.9789 55.2051 45.9707V112.159C55.2051 113.151 56.0244 113.958 57.0313 113.958H60.5748V57.4163C60.5748 56.8166 61.0684 56.3305 61.6772 56.3305C62.2861 56.3305 62.7797 56.8166 62.7797 57.4163V113.958H94.2558C94.8646 113.958 95.3582 114.444 95.3582 115.044C95.3582 115.643 94.8646 116.13 94.2558 116.13H57.0313C54.8085 116.13 53 114.348 53 112.159V45.9707C53 43.7813 54.8085 42 57.0313 42ZM100.258 48.593H94.3609C93.7521 48.593 93.2585 49.0792 93.2585 49.6789C93.2585 50.2786 93.7521 50.7647 94.3609 50.7647H100.258C100.867 50.7647 101.361 50.2786 101.361 49.6789C101.361 49.0792 100.867 48.593 100.258 48.593ZM70.9332 97.3882H96.8284C97.4374 97.3882 97.9308 97.8744 97.9308 98.474C97.9308 99.0737 97.4372 99.5599 96.8284 99.5599H70.9332C70.3244 99.5599 69.8308 99.0737 69.8308 98.474C69.8308 97.8744 70.3244 97.3882 70.9332 97.3882ZM70.9332 101.643H87.6969C88.3058 101.643 88.7994 102.129 88.7994 102.729C88.7994 103.328 88.3058 103.814 87.6969 103.814H70.9332C70.3244 103.814 69.8308 103.328 69.8308 102.729C69.8308 102.129 70.3244 101.643 70.9332 101.643ZM70.9332 93.1338H96.8284C97.4374 93.1338 97.931 93.6201 97.9308 94.2196C97.9308 94.8193 97.4372 95.3055 96.8284 95.3055H70.9332C70.3244 95.3055 69.8308 94.8193 69.8308 94.2196C69.8308 93.62 70.3244 93.1338 70.9332 93.1338ZM83.8806 59.2323C76.9095 59.2324 71.2383 64.8183 71.2383 71.6844C71.2383 78.544 76.9031 84.1366 83.8806 84.1366C90.8515 84.1366 96.5229 78.5505 96.5229 71.6844C96.5229 64.8183 90.8515 59.2323 83.8806 59.2323ZM78.9057 62.6489C77.6874 64.6717 76.8915 67.4507 76.7416 70.5985H73.502C73.8698 67.1642 75.9608 64.2283 78.9057 62.6489ZM76.7418 72.7704H73.502C73.8698 76.2046 75.9608 79.1406 78.9058 80.7199C77.6875 78.6971 76.8915 75.9181 76.7418 72.7704ZM82.7783 81.6778C80.2835 80.3872 79.1164 75.9652 78.9481 72.7704H82.7783V81.6778ZM78.9481 70.5985H82.7783V61.6911C81.9788 62.1046 81.2089 62.9527 80.569 64.1524C79.6409 65.8918 79.077 68.1496 78.9481 70.5985ZM94.2591 70.5985H91.0193C90.8695 67.4507 90.0736 64.6717 88.8553 62.6489C91.8003 64.2283 93.8912 67.1642 94.2591 70.5985ZM84.9831 72.7704V81.6778C87.164 80.5492 88.6078 76.6733 88.8133 72.7704H84.9831ZM84.9831 70.5985V61.6911C85.7824 62.1047 86.5524 62.9529 87.1924 64.1524C88.1202 65.8918 88.6844 68.1496 88.8133 70.5985H84.9831ZM91.0193 72.7704C90.8694 75.9181 90.0734 78.6971 88.8553 80.7199C91.8003 79.1406 93.8912 76.2046 94.2591 72.7704H91.0193Z" fill="#FF9419"/>
<path d="M110.037 50.2411L109.687 50.2411V50.2411H110.037ZM62.7795 44.1719V43.8219H62.4295V44.1719H62.7795ZM60.5746 44.1719H60.9246V43.8219H60.5746V44.1719ZM60.5748 113.958V114.308H60.9248V113.958H60.5748ZM62.7797 113.958H62.4297V114.308H62.7797V113.958ZM97.9308 94.2196L97.5808 94.2196V94.2196H97.9308ZM83.8806 59.2323L83.8806 58.8823L83.8806 58.8823L83.8806 59.2323ZM76.7416 70.5985V70.9485H77.0753L77.0912 70.6151L76.7416 70.5985ZM78.9057 62.6489L79.2055 62.8295L79.8625 61.7387L78.7402 62.3405L78.9057 62.6489ZM73.502 70.5985L73.154 70.5612L73.1125 70.9485H73.502V70.5985ZM73.502 72.7704V72.4204H73.1125L73.154 72.8076L73.502 72.7704ZM76.7418 72.7704L77.0914 72.7537L77.0755 72.4204H76.7418V72.7704ZM78.9058 80.7199L78.7404 81.0283L79.8626 81.6301L79.2056 80.5393L78.9058 80.7199ZM78.9481 72.7704V72.4204H78.5792L78.5986 72.7888L78.9481 72.7704ZM82.7783 81.6778L82.6175 81.9886L83.1283 82.2529V81.6778H82.7783ZM82.7783 72.7704H83.1283V72.4204H82.7783V72.7704ZM82.7783 70.5985V70.9485H83.1283V70.5985H82.7783ZM78.9481 70.5985L78.5986 70.5801L78.5792 70.9485H78.9481V70.5985ZM82.7783 61.6911H83.1283V61.116L82.6175 61.3802L82.7783 61.6911ZM80.569 64.1524L80.8778 64.3172L80.8778 64.3171L80.569 64.1524ZM91.0193 70.5985L90.6697 70.6151L90.6856 70.9485H91.0193V70.5985ZM94.2591 70.5985V70.9485H94.6486L94.6071 70.5612L94.2591 70.5985ZM88.8553 62.6489L89.0207 62.3405L87.8985 61.7387L88.5555 62.8295L88.8553 62.6489ZM84.9831 81.6778H84.6331V82.253L85.1439 81.9886L84.9831 81.6778ZM84.9831 72.7704V72.4204H84.6331V72.7704H84.9831ZM88.8133 72.7704L89.1628 72.7888L89.1822 72.4204H88.8133V72.7704ZM84.9831 61.6911L85.1439 61.3802L84.6331 61.1159V61.6911H84.9831ZM84.9831 70.5985H84.6331V70.9485H84.9831V70.5985ZM87.1924 64.1524L87.5012 63.9877L87.5012 63.9876L87.1924 64.1524ZM88.8133 70.5985V70.9485H89.1822L89.1628 70.5801L88.8133 70.5985ZM88.8553 80.7199L88.5554 80.5393L87.8986 81.6301L89.0207 81.0283L88.8553 80.7199ZM91.0193 72.7704V72.4204H90.6856L90.6697 72.7537L91.0193 72.7704ZM94.2591 72.7704L94.6071 72.8076L94.6486 72.4204H94.2591V72.7704ZM101.67 41.65H57.0313V42.35H101.67V41.65ZM110.387 50.2412C110.388 45.4988 106.472 41.65 101.67 41.65V42.35C106.096 42.35 109.688 45.8954 109.687 50.2411L110.387 50.2412ZM110.387 107.888V50.2411H109.687V107.888H110.387ZM101.67 116.48C106.472 116.48 110.387 112.631 110.387 107.888H109.687C109.687 112.234 106.096 115.78 101.67 115.78V116.48ZM99.4007 116.48H101.67V115.78H99.4007V116.48ZM97.9483 115.044C97.9483 115.842 98.6036 116.48 99.4007 116.48V115.78C98.9802 115.78 98.6483 115.445 98.6483 115.044H97.9483ZM99.4007 113.608C98.6036 113.608 97.9483 114.246 97.9483 115.044H98.6483C98.6483 114.642 98.9802 114.308 99.4007 114.308V113.608ZM101.67 113.608H99.4007V114.308H101.67V113.608ZM107.482 107.888C107.482 111.037 104.88 113.608 101.67 113.608V114.308C105.256 114.308 108.182 111.433 108.182 107.888H107.482ZM107.482 50.2413V107.888H108.182V50.2413H107.482ZM101.67 44.5219C104.88 44.5219 107.482 47.0929 107.482 50.2413H108.182C108.182 46.6963 105.256 43.8219 101.67 43.8219V44.5219ZM62.7795 44.5219H101.67V43.8219H62.7795V44.5219ZM63.1295 52.3486V44.1719H62.4295V52.3486H63.1295ZM61.6771 53.7845C62.4742 53.7845 63.1295 53.1466 63.1295 52.3486H62.4295C62.4295 52.75 62.0977 53.0845 61.6771 53.0845V53.7845ZM60.2246 52.3486C60.2246 53.1466 60.88 53.7845 61.6771 53.7845V53.0845C61.2565 53.0845 60.9246 52.75 60.9246 52.3486H60.2246ZM60.2246 44.1719V52.3486H60.9246V44.1719H60.2246ZM57.0313 44.5219H60.5746V43.8219H57.0313V44.5219ZM55.5551 45.9707C55.5551 45.1772 56.2126 44.5219 57.0313 44.5219V43.8219C55.836 43.8219 54.8551 44.7807 54.8551 45.9707H55.5551ZM55.5551 112.159V45.9707H54.8551V112.159H55.5551ZM57.0313 113.608C56.2127 113.608 55.5551 112.952 55.5551 112.159H54.8551C54.8551 113.349 55.8361 114.308 57.0313 114.308V113.608ZM60.5748 113.608H57.0313V114.308H60.5748V113.608ZM60.2248 57.4163V113.958H60.9248V57.4163H60.2248ZM61.6772 55.9805C60.8801 55.9805 60.2248 56.6184 60.2248 57.4163H60.9248C60.9248 57.0149 61.2567 56.6805 61.6772 56.6805V55.9805ZM63.1297 57.4163C63.1297 56.6184 62.4744 55.9805 61.6772 55.9805V56.6805C62.0978 56.6805 62.4297 57.0149 62.4297 57.4163H63.1297ZM63.1297 113.958V57.4163H62.4297V113.958H63.1297ZM94.2558 113.608H62.7797V114.308H94.2558V113.608ZM95.7082 115.044C95.7082 114.246 95.0529 113.608 94.2558 113.608V114.308C94.6763 114.308 95.0082 114.642 95.0082 115.044H95.7082ZM94.2558 116.48C95.0529 116.48 95.7082 115.842 95.7082 115.044H95.0082C95.0082 115.445 94.6763 115.78 94.2558 115.78V116.48ZM57.0313 116.48H94.2558V115.78H57.0313V116.48ZM52.65 112.159C52.65 114.547 54.6202 116.48 57.0313 116.48V115.78C54.9967 115.78 53.35 114.15 53.35 112.159H52.65ZM52.65 45.9707V112.159H53.35V45.9707H52.65ZM57.0313 41.65C54.6202 41.65 52.65 43.583 52.65 45.9707H53.35C53.35 43.9796 54.9968 42.35 57.0313 42.35V41.65ZM94.3609 48.943H100.258V48.243H94.3609V48.943ZM93.6085 49.6789C93.6085 49.2774 93.9404 48.943 94.3609 48.943V48.243C93.5638 48.243 92.9085 48.8809 92.9085 49.6789H93.6085ZM94.3609 50.4147C93.9404 50.4147 93.6085 50.0803 93.6085 49.6789H92.9085C92.9085 50.4768 93.5638 51.1147 94.3609 51.1147V50.4147ZM100.258 50.4147H94.3609V51.1147H100.258V50.4147ZM101.011 49.6789C101.011 50.0803 100.679 50.4147 100.258 50.4147V51.1147C101.055 51.1147 101.711 50.4768 101.711 49.6789H101.011ZM100.258 48.943C100.679 48.943 101.011 49.2774 101.011 49.6789H101.711C101.711 48.8809 101.055 48.243 100.258 48.243V48.943ZM96.8284 97.0382H70.9332V97.7382H96.8284V97.0382ZM98.2808 98.474C98.2808 97.6761 97.6257 97.0382 96.8284 97.0382V97.7382C97.2491 97.7382 97.5808 98.0726 97.5808 98.474H98.2808ZM96.8284 99.9099C97.6255 99.9099 98.2808 99.272 98.2808 98.474H97.5808C97.5808 98.8755 97.2489 99.2099 96.8284 99.2099V99.9099ZM70.9332 99.9099H96.8284V99.2099H70.9332V99.9099ZM69.4808 98.474C69.4808 99.272 70.1361 99.9099 70.9332 99.9099V99.2099C70.5127 99.2099 70.1808 98.8755 70.1808 98.474H69.4808ZM70.9332 97.0382C70.1361 97.0382 69.4808 97.6761 69.4808 98.474H70.1808C70.1808 98.0726 70.5127 97.7382 70.9332 97.7382V97.0382ZM87.6969 101.293H70.9332V101.993H87.6969V101.293ZM89.1494 102.729C89.1494 101.931 88.4941 101.293 87.6969 101.293V101.993C88.1175 101.993 88.4494 102.327 88.4494 102.729H89.1494ZM87.6969 104.164C88.4941 104.164 89.1494 103.527 89.1494 102.729H88.4494C88.4494 103.13 88.1175 103.464 87.6969 103.464V104.164ZM70.9332 104.164H87.6969V103.464H70.9332V104.164ZM69.4808 102.729C69.4808 103.527 70.1361 104.164 70.9332 104.164V103.464C70.5127 103.464 70.1808 103.13 70.1808 102.729H69.4808ZM70.9332 101.293C70.1361 101.293 69.4808 101.931 69.4808 102.729H70.1808C70.1808 102.327 70.5127 101.993 70.9332 101.993V101.293ZM96.8284 92.7838H70.9332V93.4838H96.8284V92.7838ZM98.2808 94.2197C98.281 93.4218 97.6256 92.7838 96.8284 92.7838V93.4838C97.2491 93.4838 97.5809 93.8184 97.5808 94.2196L98.2808 94.2197ZM96.8284 95.6555C97.6255 95.6555 98.2808 95.0176 98.2808 94.2196H97.5808C97.5808 94.6211 97.2489 94.9555 96.8284 94.9555V95.6555ZM70.9332 95.6555H96.8284V94.9555H70.9332V95.6555ZM69.4808 94.2196C69.4808 95.0176 70.1361 95.6555 70.9332 95.6555V94.9555C70.5127 94.9555 70.1808 94.6211 70.1808 94.2196H69.4808ZM70.9332 92.7838C70.1361 92.7838 69.4808 93.4217 69.4808 94.2196H70.1808C70.1808 93.8182 70.5127 93.4838 70.9332 93.4838V92.7838ZM71.5883 71.6844C71.5883 65.0166 77.0978 59.5824 83.8806 59.5823L83.8806 58.8823C76.7213 58.8824 70.8883 64.62 70.8883 71.6844H71.5883ZM83.8806 83.7866C77.0916 83.7866 71.5883 78.346 71.5883 71.6844H70.8883C70.8883 78.742 76.7145 84.4866 83.8806 84.4866V83.7866ZM96.1729 71.6844C96.1729 78.3522 90.6632 83.7866 83.8806 83.7866V84.4866C91.0398 84.4866 96.8729 78.7488 96.8729 71.6844H96.1729ZM83.8806 59.5823C90.6632 59.5823 96.1729 65.0166 96.1729 71.6844H96.8729C96.8729 64.62 91.0398 58.8823 83.8806 58.8823V59.5823ZM77.0912 70.6151C77.239 67.5123 78.0232 64.7926 79.2055 62.8295L78.6058 62.4684C77.3516 64.5509 76.5441 67.3891 76.392 70.5818L77.0912 70.6151ZM73.502 70.9485H76.7416V70.2485H73.502V70.9485ZM78.7402 62.3405C75.6983 63.9719 73.5347 67.0065 73.154 70.5612L73.85 70.6357C74.2049 67.3219 76.2233 64.4846 79.0711 62.9574L78.7402 62.3405ZM73.502 73.1204H76.7418V72.4204H73.502V73.1204ZM79.0712 80.4114C76.2233 78.8842 74.2049 76.047 73.85 72.7331L73.154 72.8076C73.5347 76.3623 75.6983 79.397 78.7404 81.0283L79.0712 80.4114ZM76.3921 72.787C76.5441 75.9797 77.3517 78.818 78.606 80.9005L79.2056 80.5393C78.0233 78.5762 77.239 75.8565 77.0914 72.7537L76.3921 72.787ZM78.5986 72.7888C78.6843 74.4153 79.0237 76.3557 79.6631 78.061C80.2974 79.753 81.2532 81.2828 82.6175 81.9886L82.9391 81.3669C81.8087 80.7821 80.9335 79.4556 80.3185 77.8153C79.7085 76.1883 79.3802 74.3202 79.2976 72.7519L78.5986 72.7888ZM82.7783 72.4204H78.9481V73.1204H82.7783V72.4204ZM83.1283 81.6778V72.7704H82.4283V81.6778H83.1283ZM82.7783 70.2485H78.9481V70.9485H82.7783V70.2485ZM82.4283 61.6911V70.5985H83.1283V61.6911H82.4283ZM80.8778 64.3171C81.4991 63.1523 82.2257 62.3709 82.9391 62.0019L82.6175 61.3802C81.7319 61.8382 80.9186 62.7531 80.2602 63.9877L80.8778 64.3171ZM79.2976 70.6169C79.4245 68.2063 79.9792 66.0013 80.8778 64.3172L80.2602 63.9876C79.3026 65.7824 78.7295 68.0928 78.5986 70.5801L79.2976 70.6169ZM91.0193 70.9485H94.2591V70.2485H91.0193V70.9485ZM88.5555 62.8295C89.7378 64.7926 90.5221 67.5123 90.6697 70.6151L91.3689 70.5818C91.217 67.3891 90.4093 64.5509 89.1551 62.4684L88.5555 62.8295ZM94.6071 70.5612C94.2263 67.0065 92.0628 63.9719 89.0207 62.3405L88.6899 62.9574C91.5378 64.4846 93.556 67.3218 93.9111 70.6358L94.6071 70.5612ZM85.3331 81.6778V72.7704H84.6331V81.6778H85.3331ZM88.4638 72.752C88.3628 74.6697 87.9575 76.5747 87.3154 78.131C86.6686 79.6988 85.8044 80.8587 84.8222 81.3669L85.1439 81.9886C86.3427 81.3683 87.2909 80.0259 87.9625 78.3979C88.639 76.7584 89.0583 74.774 89.1628 72.7888L88.4638 72.752ZM84.9831 73.1204H88.8133V72.4204H84.9831V73.1204ZM84.6331 61.6911V70.5985H85.3331V61.6911H84.6331ZM87.5012 63.9876C86.8426 62.7532 86.0293 61.8384 85.1439 61.3802L84.8222 62.0019C85.5355 62.371 86.2622 63.1525 86.8836 64.3171L87.5012 63.9876ZM89.1628 70.5801C89.0319 68.0928 88.4585 65.7824 87.5012 63.9877L86.8836 64.3171C87.7819 66.0013 88.3369 68.2064 88.4638 70.6169L89.1628 70.5801ZM84.9831 70.9485H88.8133V70.2485H84.9831V70.9485ZM89.1551 80.9004C90.4092 78.818 91.2169 75.9797 91.3689 72.787L90.6697 72.7537C90.5219 75.8565 89.7376 78.5762 88.5554 80.5393L89.1551 80.9004ZM93.9111 72.7331C93.556 76.047 91.5378 78.8842 88.6899 80.4114L89.0207 81.0283C92.0628 79.397 94.2263 76.3623 94.6071 72.8076L93.9111 72.7331ZM91.0193 73.1204H94.2591V72.4204H91.0193V73.1204Z" fill="#FFF7ED"/>
</svg>
