<svg width="22" height="22" viewBox="0 0 22 22" fill="none" xmlns="http://www.w3.org/2000/svg">
    <path fill-rule="evenodd" clip-rule="evenodd" d="M12.305 2.10952C9.49459 -0.700895 4.92168 -0.700895 2.11123 2.10952C0.749762 3.47103 0 5.28117 0 7.20647C0 9.13186 0.749762 10.942 2.11123 12.3034C3.51648 13.7086 5.36229 14.4113 7.20814 14.4113C8.75974 14.4113 10.3113 13.9146 11.6012 12.9217L12.3323 13.6525C12.0538 14.1016 12.109 14.7004 12.4984 15.0898L13.9934 16.5848C14.1192 16.7106 14.3233 16.7106 14.4491 16.5847C14.575 16.4589 14.575 16.2549 14.4491 16.129L12.9541 14.6341C12.7513 14.4312 12.7513 14.1013 12.9541 13.8985L13.9 12.9525C13.9983 12.8542 14.1289 12.8001 14.2679 12.8001C14.4068 12.8001 14.5374 12.8542 14.6357 12.9525L17.9242 16.241L16.2427 17.9226L15.2912 16.9711C15.1653 16.8453 14.9613 16.8453 14.8355 16.9711C14.7096 17.097 14.7096 17.301 14.8355 17.4269L19.0664 21.6578C19.2934 21.8848 19.5917 21.9983 19.8899 21.9983C20.1882 21.9983 20.4864 21.8848 20.7135 21.6578L21.6595 20.7118C22.1135 20.2577 22.1135 19.5188 21.6594 19.0646L15.0915 12.4968C14.8715 12.2768 14.579 12.1556 14.2679 12.1556C14.0475 12.1556 13.8365 12.2167 13.6539 12.3305L12.9229 11.5995C13.5097 10.8368 13.94 9.96296 14.1829 9.0305C14.2278 8.85828 14.1246 8.68228 13.9523 8.63742C13.7802 8.59269 13.6041 8.69581 13.5592 8.86803C13.2665 9.99154 12.6753 11.0219 11.8494 11.8478C9.29023 14.4069 5.12621 14.4069 2.56704 11.8478C1.3273 10.608 0.644531 8.95968 0.644531 7.20647C0.644531 5.4533 1.32726 3.80502 2.56695 2.56533C5.12609 0.00615621 9.29014 0.00615621 11.8493 2.56533C13.1896 3.90566 13.8848 5.76006 13.7566 7.65296C13.7446 7.83055 13.8788 7.98425 14.0564 7.99624C14.2336 8.00814 14.3876 7.87408 14.3997 7.69649C14.5405 5.61788 13.7771 3.5815 12.305 2.10952ZM18.3419 20.0219L20.0235 18.3403L21.2037 19.5205C21.4065 19.7233 21.4065 20.0533 21.2037 20.2561L20.2577 21.202C20.0549 21.4049 19.7249 21.4049 19.5221 21.202L18.3419 20.0219ZM19.1509 17.4678L17.4694 19.1493L17.8861 19.566L19.5676 17.8845L19.1509 17.4678ZM16.6984 18.3784L18.38 16.6968L18.6952 17.012L17.0136 18.6936L16.6984 18.3784ZM12.5057 12.0937C12.4401 12.1648 12.3736 12.235 12.3051 12.3035C12.2363 12.3723 12.1662 12.4389 12.0953 12.5043L12.7662 13.1749L13.1765 12.7646L12.5057 12.0937ZM11.184 3.23066C8.99177 1.03844 5.42468 1.03844 3.23228 3.23066C2.69564 3.76725 2.28005 4.39318 1.99714 5.09086C1.93024 5.25578 2.00973 5.44372 2.17469 5.51062C2.33961 5.57744 2.52751 5.49803 2.59445 5.33308C2.84479 4.71575 3.21273 4.16171 3.68805 3.68647C5.62899 1.7454 8.7872 1.74545 10.7283 3.68647C11.6686 4.62676 12.1864 5.87685 12.1864 7.20656C12.1864 8.53627 11.6686 9.78644 10.7283 10.7266C9.78798 11.667 8.53789 12.1848 7.20818 12.1848C5.87847 12.1848 4.62829 11.667 3.68809 10.7266C2.57301 9.6116 2.05923 8.07522 2.27846 6.51145C2.30312 6.33515 2.18028 6.17221 2.00402 6.14751C1.82772 6.12336 1.66482 6.24565 1.64012 6.42195C1.39253 8.18788 1.97282 9.923 3.23228 11.1824C4.2943 12.2444 5.70625 12.8293 7.20814 12.8293C8.71002 12.8293 10.122 12.2444 11.184 11.1824C12.246 10.1204 12.8309 8.70844 12.8309 7.20656C12.8309 5.70467 12.246 4.29268 11.184 3.23066ZM7.20814 9.18656C7.8005 9.18656 8.2824 9.66845 8.2824 10.2608V10.3099C8.2824 10.9023 7.80046 11.3842 7.20814 11.3842C6.61577 11.3842 6.13387 10.9023 6.13387 10.3099V10.2608C6.13387 9.66845 6.61581 9.18656 7.20814 9.18656ZM6.77845 10.2608C6.77845 10.0238 6.97121 9.83109 7.20814 9.83109C7.44507 9.83109 7.63782 10.0238 7.63782 10.2608V10.3099C7.63782 10.5468 7.44507 10.7396 7.20814 10.7396C6.97121 10.7396 6.77845 10.5468 6.77845 10.3099V10.2608ZM7.36979 3.12457C8.65597 3.20441 9.68619 4.23454 9.76598 5.52085C9.83207 6.58536 9.25104 7.56079 8.28532 8.00827C8.28407 8.01132 8.28244 8.01673 8.28236 8.02464C8.28236 8.61701 7.80042 9.0989 7.20809 9.0989C6.61573 9.0989 6.13383 8.61697 6.13383 8.02464C6.13383 7.17884 6.62316 6.40751 7.38036 6.05959C7.53766 5.98736 7.63232 5.82812 7.62154 5.65393C7.60916 5.45412 7.43643 5.28139 7.23658 5.26897C7.11764 5.26141 7.01001 5.29991 6.92459 5.38026C6.83904 5.4607 6.79379 5.56515 6.79379 5.68241C6.79379 6.27478 6.31189 6.75668 5.71953 6.75668C5.12716 6.75668 4.64527 6.27474 4.64527 5.68241C4.64527 4.97798 4.93977 4.29719 5.45316 3.81469C5.93067 3.36586 6.54212 3.1227 7.19174 3.11947C7.2508 3.11918 7.31017 3.12087 7.36979 3.12457ZM5.89462 4.2843C6.28448 3.9179 6.79426 3.73494 7.32978 3.76781C8.2922 3.82758 9.06297 4.59831 9.12269 5.56077C9.17224 6.36025 8.73482 7.09252 8.00821 7.4263C7.78327 7.52973 7.63787 7.76464 7.63787 8.02473C7.63787 8.26166 7.44511 8.45441 7.20818 8.45441C6.97125 8.45441 6.77849 8.26166 6.77849 8.02473C6.77849 7.42991 7.12039 6.88846 7.64955 6.64534C8.05084 6.46101 8.29241 6.0562 8.26495 5.61401C8.23255 5.09215 7.79844 4.658 7.27702 4.62564C7.2536 4.62418 7.23031 4.62341 7.20711 4.62341C6.93649 4.62341 6.6816 4.724 6.48317 4.91057C6.26785 5.11295 6.14926 5.38705 6.14926 5.68237C6.14926 5.9193 5.9565 6.11206 5.71957 6.11206C5.48264 6.11206 5.28988 5.9193 5.28988 5.68237C5.28988 5.1551 5.51031 4.64553 5.89462 4.2843Z" fill="#444E5B"/>
</svg>