<svg width="65" height="65" viewBox="0 0 65 65" fill="none" xmlns="http://www.w3.org/2000/svg">
<g id="business-and-finance copy" opacity="0.8">
<ellipse id="Oval" opacity="0.45" cx="42.6009" cy="20.9044" rx="21.0965" ry="20.9044" fill="#4A90E2"/>
<g id="Combined Shape">
<mask id="path-2-inside-1" fill="white">
<path fill-rule="evenodd" clip-rule="evenodd" d="M58.4356 7.11042C49.663 -1.58033 35.4641 -1.58174 26.69 7.11042C19.2387 14.4918 18.1356 25.8122 23.3713 34.3655C15.1578 39.27 4.78617 47.4182 2.67772 49.5071C-0.894321 53.0451 -0.892357 58.8049 2.68232 62.3461C6.25517 65.8843 12.0657 65.8849 15.6379 62.3461C17.7463 60.2577 25.9671 49.9883 30.9178 41.8529C39.4142 46.9799 50.858 46.0657 58.4357 38.5595C67.1881 29.889 67.1881 15.7808 58.4356 7.11042ZM14.6778 61.3974C11.6335 64.4129 6.68055 64.4123 3.63757 61.3974C0.591344 58.3793 0.589312 53.4709 3.63297 50.4557C5.71101 48.3971 15.9768 40.3389 24.1083 35.4907C24.8629 36.5694 25.7184 37.5993 26.6876 38.5594C27.6497 39.5125 28.6871 40.3631 29.781 41.1169C24.8881 49.172 16.7561 59.3387 14.6778 61.3974ZM27.6486 37.6107C35.8931 45.7781 49.2357 45.7769 57.4789 37.6107C65.703 29.4631 65.703 16.2066 57.4789 8.059C49.2344 -0.108505 35.8918 -0.107298 27.6486 8.059C19.4244 16.2066 19.4244 29.4631 27.6486 37.6107ZM19.6618 9.58723C17.302 13.576 16.0547 18.1568 16.0547 22.8345H17.4092C17.4092 18.3949 18.5924 14.0487 20.8298 10.266L19.6618 9.58723ZM7.60792 56.5147L8.56553 57.4633L16.8422 49.264L15.8846 48.3153L7.60792 56.5147ZM19.0389 47.0906L18.0813 46.142L20.5768 43.6697L21.5344 44.6184L19.0389 47.0906ZM33.8662 58.6832H32.5117V60.025H33.8662V58.6832ZM29.8008 58.6832H31.1553V60.025H29.8008V58.6832ZM28.4443 58.6832H27.0898V60.025H28.4443V58.6832ZM35.2227 58.6832H36.42V60.025H35.2227V58.6832ZM62.9897 61.0191H61.793V62.3609H62.9897V61.0191ZM53.668 61.0191H55.0224V62.3609H53.668V61.0191ZM57.7295 61.0191H56.375V62.3609H57.7295V61.0191ZM59.082 61.0191H60.4365V62.3609H59.082V61.0191ZM43.2334 54.2241H41.8789V55.566H43.2334V54.2241ZM50.0039 54.2241H51.2006V55.566H50.0039V54.2241ZM48.6514 54.2241H47.2969V55.566H48.6514V54.2241ZM44.5859 54.2241H45.9404V55.566H44.5859V54.2241ZM9.26464 4.0672H7.91016V5.40902H9.26464V4.0672ZM13.332 4.0672H14.5287V5.40902H13.332V4.0672ZM6.55761 4.0672H5.20312V5.40902H6.55761V4.0672ZM10.6211 4.0672H11.9756V5.40902H10.6211V4.0672ZM10.4248 29.0275H9.07031V30.3693H10.4248V29.0275ZM6.35938 29.0275H7.71386V30.3693H6.35938V29.0275ZM13.1279 29.0275H11.7734V30.3693H13.1279V29.0275ZM14.4844 29.0275H15.6811V30.3693H14.4844V29.0275ZM11.0209 17.85H9.82422V19.1918H11.0209V17.85ZM1.69531 17.85H3.04979V19.1918H1.69531V17.85ZM5.76073 17.85H4.40625V19.1918H5.76073V17.85ZM7.11719 17.85H8.47167V19.1918H7.11719V17.85ZM23.8174 4.2636C23.0217 5.05145 22.2724 5.89271 21.5898 6.76349L22.66 7.58643C23.3075 6.7596 24.0197 5.96088 24.775 5.21234L23.8174 4.2636ZM57.9102 42.5851C58.7613 41.9329 59.5815 41.2171 60.3486 40.4574L61.3063 41.406C60.4988 42.206 59.635 42.9599 58.7382 43.6465L57.9102 42.5851ZM42.5625 47.7567C47.4044 47.7567 52.0922 46.4018 56.1205 43.8381L56.852 44.9669C52.6054 47.6699 47.6643 49.0986 42.5625 49.0986V47.7567Z"/>
</mask>
<path d="M26.69 7.11042L27.3937 7.82085L27.3937 7.82083L26.69 7.11042ZM58.4356 7.11042L57.7318 7.82083L57.7318 7.82085L58.4356 7.11042ZM23.3713 34.3655L23.884 35.2241L24.7521 34.7057L24.2242 33.8434L23.3713 34.3655ZM2.67772 49.5071L3.38143 50.2176L3.38151 50.2175L2.67772 49.5071ZM2.68232 62.3461L1.97854 63.0566L1.97868 63.0567L2.68232 62.3461ZM15.6379 62.3461L14.9341 61.6357L14.9341 61.6357L15.6379 62.3461ZM30.9178 41.8529L31.4344 40.9968L30.5814 40.482L30.0635 41.3331L30.9178 41.8529ZM58.4357 38.5595L59.1394 39.2699L59.1394 39.2699L58.4357 38.5595ZM3.63757 61.3974L4.34139 60.687L3.63757 61.3974ZM14.6778 61.3974L13.9741 60.6869L13.9741 60.6869L14.6778 61.3974ZM3.63297 50.4557L4.33674 51.1661L4.33675 51.1661L3.63297 50.4557ZM24.1083 35.4907L24.9277 34.9175L24.3948 34.1557L23.5962 34.6318L24.1083 35.4907ZM26.6876 38.5594L27.3913 37.849H27.3913L26.6876 38.5594ZM29.781 41.1169L30.6356 41.6361L31.1257 40.8292L30.3484 40.2935L29.781 41.1169ZM57.4789 37.6107L58.1827 38.3211L58.1827 38.3211L57.4789 37.6107ZM27.6486 37.6107L26.9448 38.3211L26.9448 38.3211L27.6486 37.6107ZM57.4789 8.059L58.1827 7.3486L58.1827 7.34858L57.4789 8.059ZM27.6486 8.059L26.9448 7.34858L26.9448 7.34859L27.6486 8.059ZM16.0547 22.8345H15.0547V23.8345H16.0547V22.8345ZM19.6618 9.58723L20.1643 8.72263L19.3064 8.22406L18.8011 9.07806L19.6618 9.58723ZM17.4092 22.8345V23.8345H18.4092V22.8345H17.4092ZM20.8298 10.266L21.6905 10.7751L22.2035 9.90773L21.3322 9.40139L20.8298 10.266ZM8.56553 57.4633L7.86175 58.1738L8.56553 58.871L9.26931 58.1738L8.56553 57.4633ZM7.60792 56.5147L6.90413 55.8042L6.18702 56.5147L6.90413 57.2251L7.60792 56.5147ZM16.8422 49.264L17.546 49.9744L18.2631 49.264L17.546 48.5535L16.8422 49.264ZM15.8846 48.3153L16.5884 47.6049L15.8846 46.9077L15.1808 47.6049L15.8846 48.3153ZM18.0813 46.142L17.3775 45.4316L16.6604 46.142L17.3775 46.8524L18.0813 46.142ZM19.0389 47.0906L18.3351 47.8011L19.0389 48.4983L19.7427 47.8011L19.0389 47.0906ZM20.5768 43.6697L21.2806 42.9593L20.5768 42.2621L19.873 42.9593L20.5768 43.6697ZM21.5344 44.6184L22.2382 45.3288L22.9553 44.6184L22.2382 43.908L21.5344 44.6184ZM32.5117 58.6832V57.6832H31.5117V58.6832H32.5117ZM33.8662 58.6832H34.8662V57.6832H33.8662V58.6832ZM32.5117 60.025H31.5117V61.025H32.5117V60.025ZM33.8662 60.025V61.025H34.8662V60.025H33.8662ZM31.1553 58.6832H32.1553V57.6832H31.1553V58.6832ZM29.8008 58.6832V57.6832H28.8008V58.6832H29.8008ZM31.1553 60.025V61.025H32.1553V60.025H31.1553ZM29.8008 60.025H28.8008V61.025H29.8008V60.025ZM27.0898 58.6832V57.6832H26.0898V58.6832H27.0898ZM28.4443 58.6832H29.4443V57.6832H28.4443V58.6832ZM27.0898 60.025H26.0898V61.025H27.0898V60.025ZM28.4443 60.025V61.025H29.4443V60.025H28.4443ZM36.42 58.6832H37.42V57.6832H36.42V58.6832ZM35.2227 58.6832V57.6832H34.2227V58.6832H35.2227ZM36.42 60.025V61.025H37.42V60.025H36.42ZM35.2227 60.025H34.2227V61.025H35.2227V60.025ZM61.793 61.0191V60.0191H60.793V61.0191H61.793ZM62.9897 61.0191H63.9897V60.0191H62.9897V61.0191ZM61.793 62.3609H60.793V63.3609H61.793V62.3609ZM62.9897 62.3609V63.3609H63.9897V62.3609H62.9897ZM55.0224 61.0191H56.0224V60.0191H55.0224V61.0191ZM53.668 61.0191V60.0191H52.668V61.0191H53.668ZM55.0224 62.3609V63.3609H56.0224V62.3609H55.0224ZM53.668 62.3609H52.668V63.3609H53.668V62.3609ZM56.375 61.0191V60.0191H55.375V61.0191H56.375ZM57.7295 61.0191H58.7295V60.0191H57.7295V61.0191ZM56.375 62.3609H55.375V63.3609H56.375V62.3609ZM57.7295 62.3609V63.3609H58.7295V62.3609H57.7295ZM60.4365 61.0191H61.4365V60.0191H60.4365V61.0191ZM59.082 61.0191V60.0191H58.082V61.0191H59.082ZM60.4365 62.3609V63.3609H61.4365V62.3609H60.4365ZM59.082 62.3609H58.082V63.3609H59.082V62.3609ZM41.8789 54.2241V53.2241H40.8789V54.2241H41.8789ZM43.2334 54.2241H44.2334V53.2241H43.2334V54.2241ZM41.8789 55.566H40.8789V56.566H41.8789V55.566ZM43.2334 55.566V56.566H44.2334V55.566H43.2334ZM51.2006 54.2241H52.2006V53.2241H51.2006V54.2241ZM50.0039 54.2241V53.2241H49.0039V54.2241H50.0039ZM51.2006 55.566V56.566H52.2006V55.566H51.2006ZM50.0039 55.566H49.0039V56.566H50.0039V55.566ZM47.2969 54.2241V53.2241H46.2969V54.2241H47.2969ZM48.6514 54.2241H49.6514V53.2241H48.6514V54.2241ZM47.2969 55.566H46.2969V56.566H47.2969V55.566ZM48.6514 55.566V56.566H49.6514V55.566H48.6514ZM45.9404 54.2241H46.9404V53.2241H45.9404V54.2241ZM44.5859 54.2241V53.2241H43.5859V54.2241H44.5859ZM45.9404 55.566V56.566H46.9404V55.566H45.9404ZM44.5859 55.566H43.5859V56.566H44.5859V55.566ZM7.91016 4.0672V3.0672H6.91016V4.0672H7.91016ZM9.26464 4.0672H10.2646V3.0672H9.26464V4.0672ZM7.91016 5.40902H6.91016V6.40902H7.91016V5.40902ZM9.26464 5.40902V6.40902H10.2646V5.40902H9.26464ZM14.5287 4.0672H15.5287V3.0672H14.5287V4.0672ZM13.332 4.0672V3.0672H12.332V4.0672H13.332ZM14.5287 5.40902V6.40902H15.5287V5.40902H14.5287ZM13.332 5.40902H12.332V6.40902H13.332V5.40902ZM5.20312 4.0672V3.0672H4.20312V4.0672H5.20312ZM6.55761 4.0672H7.55761V3.0672H6.55761V4.0672ZM5.20312 5.40902H4.20312V6.40902H5.20312V5.40902ZM6.55761 5.40902V6.40902H7.55761V5.40902H6.55761ZM11.9756 4.0672H12.9756V3.0672H11.9756V4.0672ZM10.6211 4.0672V3.0672H9.62109V4.0672H10.6211ZM11.9756 5.40902V6.40902H12.9756V5.40902H11.9756ZM10.6211 5.40902H9.62109V6.40902H10.6211V5.40902ZM9.07031 29.0275V28.0275H8.07031V29.0275H9.07031ZM10.4248 29.0275H11.4248V28.0275H10.4248V29.0275ZM9.07031 30.3693H8.07031V31.3693H9.07031V30.3693ZM10.4248 30.3693V31.3693H11.4248V30.3693H10.4248ZM7.71386 29.0275H8.71386V28.0275H7.71386V29.0275ZM6.35938 29.0275V28.0275H5.35938V29.0275H6.35938ZM7.71386 30.3693V31.3693H8.71386V30.3693H7.71386ZM6.35938 30.3693H5.35938V31.3693H6.35938V30.3693ZM11.7734 29.0275V28.0275H10.7734V29.0275H11.7734ZM13.1279 29.0275H14.1279V28.0275H13.1279V29.0275ZM11.7734 30.3693H10.7734V31.3693H11.7734V30.3693ZM13.1279 30.3693V31.3693H14.1279V30.3693H13.1279ZM15.6811 29.0275H16.6811V28.0275H15.6811V29.0275ZM14.4844 29.0275V28.0275H13.4844V29.0275H14.4844ZM15.6811 30.3693V31.3693H16.6811V30.3693H15.6811ZM14.4844 30.3693H13.4844V31.3693H14.4844V30.3693ZM9.82422 17.85V16.85H8.82422V17.85H9.82422ZM11.0209 17.85H12.0209V16.85H11.0209V17.85ZM9.82422 19.1918H8.82422V20.1918H9.82422V19.1918ZM11.0209 19.1918V20.1918H12.0209V19.1918H11.0209ZM3.04979 17.85H4.04979V16.85H3.04979V17.85ZM1.69531 17.85V16.85H0.695312V17.85H1.69531ZM3.04979 19.1918V20.1918H4.04979V19.1918H3.04979ZM1.69531 19.1918H0.695312V20.1918H1.69531V19.1918ZM4.40625 17.85V16.85H3.40625V17.85H4.40625ZM5.76073 17.85H6.76073V16.85H5.76073V17.85ZM4.40625 19.1918H3.40625V20.1918H4.40625V19.1918ZM5.76073 19.1918V20.1918H6.76073V19.1918H5.76073ZM8.47167 17.85H9.47167V16.85H8.47167V17.85ZM7.11719 17.85V16.85H6.11719V17.85H7.11719ZM8.47167 19.1918V20.1918H9.47167V19.1918H8.47167ZM7.11719 19.1918H6.11719V20.1918H7.11719V19.1918ZM21.5898 6.76349L20.8028 6.1466L20.1802 6.94094L20.9802 7.55619L21.5898 6.76349ZM23.8174 4.2636L24.5212 3.55321L23.8175 2.8561L23.1137 3.55303L23.8174 4.2636ZM22.66 7.58643L22.0503 8.37914L22.8361 8.98341L23.4473 8.20299L22.66 7.58643ZM24.775 5.21234L25.4789 5.9226L26.1957 5.21221L25.4788 4.50195L24.775 5.21234ZM60.3486 40.4574L61.0524 39.7469L60.3488 39.0499L59.645 39.7468L60.3486 40.4574ZM57.9102 42.5851L57.3019 41.7914L56.5013 42.4049L57.1217 43.2002L57.9102 42.5851ZM61.3063 41.406L62.0101 42.1165L62.7272 41.406L62.0101 40.6956L61.3063 41.406ZM58.7382 43.6465L57.9498 44.2616L58.5593 45.0429L59.3461 44.4405L58.7382 43.6465ZM56.1205 43.8381L56.9597 43.2943L56.4204 42.4619L55.5836 42.9944L56.1205 43.8381ZM42.5625 47.7567V46.7567H41.5625V47.7567H42.5625ZM56.852 44.9669L57.389 45.8106L58.2394 45.2692L57.6912 44.4232L56.852 44.9669ZM42.5625 49.0986H41.5625V50.0986H42.5625V49.0986ZM27.3937 7.82083C35.7781 -0.485176 49.3489 -0.483844 57.7318 7.82083L59.1394 6.4C49.977 -2.67682 35.1501 -2.67831 25.9862 6.4L27.3937 7.82083ZM24.2242 33.8434C19.2251 25.6767 20.2796 14.8682 27.3937 7.82085L25.9862 6.39999C18.1978 14.1154 17.0461 25.9477 22.5184 34.8876L24.2242 33.8434ZM3.38151 50.2175C5.41806 48.1999 15.72 40.099 23.884 35.2241L22.8587 33.5069C14.5955 38.441 4.15428 46.6366 1.97392 48.7967L3.38151 50.2175ZM3.3861 61.6357C0.20587 58.4852 0.204954 53.3638 3.38143 50.2176L1.974 48.7966C-1.9936 52.7264 -1.99058 59.1245 1.97854 63.0566L3.3861 61.6357ZM14.9341 61.6357C11.7518 64.7882 6.56921 64.7879 3.38597 61.6356L1.97868 63.0567C5.94113 66.9806 12.3796 66.9815 16.3416 63.0566L14.9341 61.6357ZM30.0635 41.3331C25.1431 49.4187 16.9705 59.6186 14.9341 61.6357L16.3416 63.0566C18.5221 60.8968 26.791 50.558 31.772 42.3728L30.0635 41.3331ZM57.7319 37.8491C50.4931 45.0196 39.5551 45.897 31.4344 40.9968L30.4011 42.7091C39.2732 48.0628 51.2229 47.1119 59.1394 39.2699L57.7319 37.8491ZM57.7318 7.82085C66.0894 16.1 66.0894 29.5699 57.7319 37.8491L59.1394 39.2699C68.2869 30.2082 68.2869 15.4617 59.1394 6.39998L57.7318 7.82085ZM2.93375 62.1078C6.36648 65.5088 11.9475 65.5094 15.3816 62.1078L13.9741 60.6869C11.3196 63.3163 6.99461 63.3157 4.34139 60.687L2.93375 62.1078ZM2.92919 49.7453C-0.51002 53.1523 -0.506793 58.699 2.93375 62.1078L4.34139 60.687C1.68948 58.0596 1.68864 53.7894 4.33674 51.1661L2.92919 49.7453ZM23.5962 34.6318C15.4151 39.5095 5.07942 47.6151 2.92919 49.7453L4.33675 51.1661C6.34261 49.179 16.5384 41.1682 24.6204 36.3496L23.5962 34.6318ZM27.3913 37.849C26.4673 36.9336 25.6501 35.9502 24.9277 34.9175L23.2889 36.0639C24.0757 37.1886 24.9695 38.265 25.9838 39.2698L27.3913 37.849ZM30.3484 40.2935C29.3008 39.5715 28.3094 38.7584 27.3913 37.849L25.9838 39.2698C26.9901 40.2666 28.0734 41.1546 29.2135 41.9403L30.3484 40.2935ZM15.3815 62.1078C16.4759 61.0238 19.0665 57.9158 21.9689 54.1125C24.8839 50.2926 28.1635 45.7059 30.6356 41.6361L28.9263 40.5978C26.5055 44.583 23.2727 49.1072 20.379 52.8992C17.4726 56.7076 14.958 59.7123 13.9741 60.6869L15.3815 62.1078ZM56.7751 36.9002C48.9216 44.6804 36.2071 44.6815 28.3524 36.9002L26.9448 38.3211C35.5791 46.8747 49.5497 46.8734 58.1827 38.3211L56.7751 36.9002ZM56.7751 8.7694C64.6043 16.5258 64.6042 29.144 56.7751 36.9003L58.1827 38.3211C66.8017 29.7822 66.8017 15.8875 58.1827 7.3486L56.7751 8.7694ZM28.3524 8.76941C36.2059 0.989195 48.9204 0.988058 56.7751 8.76941L58.1827 7.34858C49.5484 -1.20507 35.5777 -1.20379 26.9448 7.34858L28.3524 8.76941ZM28.3524 36.9003C20.5232 29.144 20.5232 16.5258 28.3524 8.7694L26.9448 7.34859C18.3257 15.8875 18.3257 29.7822 26.9448 38.3211L28.3524 36.9003ZM17.0547 22.8345C17.0547 18.3342 18.2548 13.9295 20.5225 10.0964L18.8011 9.07806C16.3493 13.2225 15.0547 17.9794 15.0547 22.8345H17.0547ZM17.4092 21.8345H16.0547V23.8345H17.4092V21.8345ZM19.9691 9.7569C17.6396 13.6954 16.4092 18.2176 16.4092 22.8345H18.4092C18.4092 18.5722 19.5452 14.4021 21.6905 10.7751L19.9691 9.7569ZM19.1593 10.4518L20.3273 11.1306L21.3322 9.40139L20.1643 8.72263L19.1593 10.4518ZM9.26931 56.7529L8.3117 55.8042L6.90413 57.2251L7.86175 58.1738L9.26931 56.7529ZM16.1384 48.5535L7.86175 56.7529L9.26931 58.1738L17.546 49.9744L16.1384 48.5535ZM15.1808 49.0257L16.1384 49.9744L17.546 48.5535L16.5884 47.6049L15.1808 49.0257ZM8.3117 57.2251L16.5884 49.0257L15.1808 47.6049L6.90413 55.8042L8.3117 57.2251ZM17.3775 46.8524L18.3351 47.8011L19.7427 46.3802L18.785 45.4316L17.3775 46.8524ZM19.873 42.9593L17.3775 45.4316L18.785 46.8524L21.2806 44.3802L19.873 42.9593ZM22.2382 43.908L21.2806 42.9593L19.873 44.3802L20.8307 45.3288L22.2382 43.908ZM19.7427 47.8011L22.2382 45.3288L20.8307 43.908L18.3351 46.3802L19.7427 47.8011ZM32.5117 59.6832H33.8662V57.6832H32.5117V59.6832ZM33.5117 60.025V58.6832H31.5117V60.025H33.5117ZM33.8662 59.025H32.5117V61.025H33.8662V59.025ZM32.8662 58.6832V60.025H34.8662V58.6832H32.8662ZM31.1553 57.6832H29.8008V59.6832H31.1553V57.6832ZM32.1553 60.025V58.6832H30.1553V60.025H32.1553ZM29.8008 61.025H31.1553V59.025H29.8008V61.025ZM28.8008 58.6832V60.025H30.8008V58.6832H28.8008ZM27.0898 59.6832H28.4443V57.6832H27.0898V59.6832ZM28.0898 60.025V58.6832H26.0898V60.025H28.0898ZM28.4443 59.025H27.0898V61.025H28.4443V59.025ZM27.4443 58.6832V60.025H29.4443V58.6832H27.4443ZM36.42 57.6832H35.2227V59.6832H36.42V57.6832ZM37.42 60.025V58.6832H35.42V60.025H37.42ZM35.2227 61.025H36.42V59.025H35.2227V61.025ZM34.2227 58.6832V60.025H36.2227V58.6832H34.2227ZM61.793 62.0191H62.9897V60.0191H61.793V62.0191ZM62.793 62.3609V61.0191H60.793V62.3609H62.793ZM62.9897 61.3609H61.793V63.3609H62.9897V61.3609ZM61.9897 61.0191V62.3609H63.9897V61.0191H61.9897ZM55.0224 60.0191H53.668V62.0191H55.0224V60.0191ZM56.0224 62.3609V61.0191H54.0224V62.3609H56.0224ZM53.668 63.3609H55.0224V61.3609H53.668V63.3609ZM52.668 61.0191V62.3609H54.668V61.0191H52.668ZM56.375 62.0191H57.7295V60.0191H56.375V62.0191ZM57.375 62.3609V61.0191H55.375V62.3609H57.375ZM57.7295 61.3609H56.375V63.3609H57.7295V61.3609ZM56.7295 61.0191V62.3609H58.7295V61.0191H56.7295ZM60.4365 60.0191H59.082V62.0191H60.4365V60.0191ZM61.4365 62.3609V61.0191H59.4365V62.3609H61.4365ZM59.082 63.3609H60.4365V61.3609H59.082V63.3609ZM58.082 61.0191V62.3609H60.082V61.0191H58.082ZM41.8789 55.2241H43.2334V53.2241H41.8789V55.2241ZM42.8789 55.566V54.2241H40.8789V55.566H42.8789ZM43.2334 54.566H41.8789V56.566H43.2334V54.566ZM42.2334 54.2241V55.566H44.2334V54.2241H42.2334ZM51.2006 53.2241H50.0039V55.2241H51.2006V53.2241ZM52.2006 55.566V54.2241H50.2006V55.566H52.2006ZM50.0039 56.566H51.2006V54.566H50.0039V56.566ZM49.0039 54.2241V55.566H51.0039V54.2241H49.0039ZM47.2969 55.2241H48.6514V53.2241H47.2969V55.2241ZM48.2969 55.566V54.2241H46.2969V55.566H48.2969ZM48.6514 54.566H47.2969V56.566H48.6514V54.566ZM47.6514 54.2241V55.566H49.6514V54.2241H47.6514ZM45.9404 53.2241H44.5859V55.2241H45.9404V53.2241ZM46.9404 55.566V54.2241H44.9404V55.566H46.9404ZM44.5859 56.566H45.9404V54.566H44.5859V56.566ZM43.5859 54.2241V55.566H45.5859V54.2241H43.5859ZM7.91016 5.0672H9.26464V3.0672H7.91016V5.0672ZM8.91016 5.40902V4.0672H6.91016V5.40902H8.91016ZM9.26464 4.40902H7.91016V6.40902H9.26464V4.40902ZM8.26464 4.0672V5.40902H10.2646V4.0672H8.26464ZM14.5287 3.0672H13.332V5.0672H14.5287V3.0672ZM15.5287 5.40902V4.0672H13.5287V5.40902H15.5287ZM13.332 6.40902H14.5287V4.40902H13.332V6.40902ZM12.332 4.0672V5.40902H14.332V4.0672H12.332ZM5.20312 5.0672H6.55761V3.0672H5.20312V5.0672ZM6.20312 5.40902V4.0672H4.20312V5.40902H6.20312ZM6.55761 4.40902H5.20312V6.40902H6.55761V4.40902ZM5.55761 4.0672V5.40902H7.55761V4.0672H5.55761ZM11.9756 3.0672H10.6211V5.0672H11.9756V3.0672ZM12.9756 5.40902V4.0672H10.9756V5.40902H12.9756ZM10.6211 6.40902H11.9756V4.40902H10.6211V6.40902ZM9.62109 4.0672V5.40902H11.6211V4.0672H9.62109ZM9.07031 30.0275H10.4248V28.0275H9.07031V30.0275ZM10.0703 30.3693V29.0275H8.07031V30.3693H10.0703ZM10.4248 29.3693H9.07031V31.3693H10.4248V29.3693ZM9.42479 29.0275V30.3693H11.4248V29.0275H9.42479ZM7.71386 28.0275H6.35938V30.0275H7.71386V28.0275ZM8.71386 30.3693V29.0275H6.71386V30.3693H8.71386ZM6.35938 31.3693H7.71386V29.3693H6.35938V31.3693ZM5.35938 29.0275V30.3693H7.35938V29.0275H5.35938ZM11.7734 30.0275H13.1279V28.0275H11.7734V30.0275ZM12.7734 30.3693V29.0275H10.7734V30.3693H12.7734ZM13.1279 29.3693H11.7734V31.3693H13.1279V29.3693ZM12.1279 29.0275V30.3693H14.1279V29.0275H12.1279ZM15.6811 28.0275H14.4844V30.0275H15.6811V28.0275ZM16.6811 30.3693V29.0275H14.6811V30.3693H16.6811ZM14.4844 31.3693H15.6811V29.3693H14.4844V31.3693ZM13.4844 29.0275V30.3693H15.4844V29.0275H13.4844ZM9.82422 18.85H11.0209V16.85H9.82422V18.85ZM10.8242 19.1918V17.85H8.82422V19.1918H10.8242ZM11.0209 18.1918H9.82422V20.1918H11.0209V18.1918ZM10.0209 17.85V19.1918H12.0209V17.85H10.0209ZM3.04979 16.85H1.69531V18.85H3.04979V16.85ZM4.04979 19.1918V17.85H2.04979V19.1918H4.04979ZM1.69531 20.1918H3.04979V18.1918H1.69531V20.1918ZM0.695312 17.85V19.1918H2.69531V17.85H0.695312ZM4.40625 18.85H5.76073V16.85H4.40625V18.85ZM5.40625 19.1918V17.85H3.40625V19.1918H5.40625ZM5.76073 18.1918H4.40625V20.1918H5.76073V18.1918ZM4.76073 17.85V19.1918H6.76073V17.85H4.76073ZM8.47167 16.85H7.11719V18.85H8.47167V16.85ZM9.47167 19.1918V17.85H7.47167V19.1918H9.47167ZM7.11719 20.1918H8.47167V18.1918H7.11719V20.1918ZM6.11719 17.85V19.1918H8.11719V17.85H6.11719ZM22.3769 7.38038C23.0334 6.54282 23.7549 5.73282 24.521 4.97417L23.1137 3.55303C22.2886 4.37009 21.5114 5.24261 20.8028 6.1466L22.3769 7.38038ZM23.2696 6.79373L22.1995 5.97079L20.9802 7.55619L22.0503 8.37914L23.2696 6.79373ZM24.071 4.50208C23.2868 5.27936 22.5466 6.1093 21.8726 6.96988L23.4473 8.20299C24.0683 7.4099 24.7527 6.64239 25.4789 5.9226L24.071 4.50208ZM23.1136 4.97399L24.0712 5.92273L25.4788 4.50195L24.5212 3.55321L23.1136 4.97399ZM59.645 39.7468C58.9075 40.4771 58.1192 41.165 57.3019 41.7914L58.5184 43.3789C59.4034 42.7007 60.2554 41.957 61.0523 41.1679L59.645 39.7468ZM62.0101 40.6956L61.0524 39.7469L59.6449 41.1678L60.6026 42.1165L62.0101 40.6956ZM59.3461 44.4405C60.277 43.7278 61.1727 42.946 62.0101 42.1165L60.6025 40.6956C59.8248 41.4661 58.993 42.192 58.1303 42.8525L59.3461 44.4405ZM57.1217 43.2002L57.9498 44.2616L59.5267 43.0314L58.6986 41.97L57.1217 43.2002ZM55.5836 42.9944C51.7181 45.4546 47.217 46.7567 42.5625 46.7567V48.7567C47.5917 48.7567 52.4662 47.3491 56.6574 44.6817L55.5836 42.9944ZM57.6912 44.4232L56.9597 43.2943L55.2813 44.3819L56.0128 45.5107L57.6912 44.4232ZM42.5625 50.0986C47.8518 50.0986 52.9796 48.6171 57.389 45.8106L56.315 44.1233C52.2312 46.7227 47.4768 48.0986 42.5625 48.0986V50.0986ZM41.5625 47.7567V49.0986H43.5625V47.7567H41.5625Z" fill="#4A90E2" mask="url(#path-2-inside-1)"/>
</g>
</g>
</svg>
