<svg width="65" height="62" viewBox="0 0 65 62" fill="none" xmlns="http://www.w3.org/2000/svg">
<g id="chat-bubble">
<g id="Combined Shape">
<mask id="path-1-inside-1" fill="white">
<path fill-rule="evenodd" clip-rule="evenodd" d="M37.1189 0H35.7753V1.34394H37.1189V0ZM6.88555 1.00794H5.54188V2.35188H6.88555V1.00794ZM39.4702 7.72762H40.8139V9.07156H39.4702V7.72762ZM5.582 51.135L2.02189 51.1156C0.831162 50.8249 0 49.7706 0 48.5519V22.0785C0 20.6217 1.18807 19.4367 2.64827 19.4367H23.8801V14.139C23.8801 12.8269 24.9481 11.7595 26.2609 11.7595H62.6192C63.932 11.7595 65 12.8269 65 14.139V37.0395C65 38.1372 64.2529 39.0855 63.1836 39.3456L63.0222 39.3649H60.1691V48.1381L49.7629 39.3649H47.3135V48.5518C47.3135 50.0085 46.1275 51.1936 44.6699 51.1936L17.4684 51.135L5.582 61.1493V51.135ZM26.2615 13.1248C25.7018 13.1248 25.2469 13.5799 25.2469 14.1389V19.4366H44.6704C46.1279 19.4366 47.3139 20.6216 47.3139 22.0784V34.6466H47.3146V36.012H47.3139V37.9994H50.2623L58.8035 45.1999V37.9994H62.9299C63.3482 37.8663 63.6344 37.4814 63.6344 37.0393V14.1389C63.6344 13.5798 63.1794 13.1248 62.6197 13.1248H26.2615ZM1.36576 22.0785C1.36576 21.3747 1.94077 20.8021 2.64789 20.8021H44.6695C45.374 20.8021 45.9469 21.3748 45.9469 22.0785V48.5518C45.9469 49.2556 45.3739 49.8282 44.6695 49.8282C16.3904 49.7683 16.4506 49.7685 17.1317 49.7699L16.9691 49.7696L6.94776 58.2124V49.7695H2.27432C1.73599 49.6059 1.36576 49.1148 1.36576 48.5518V22.0785ZM4.70242 46.534H3.35875V47.8779H4.70242V46.534ZM3.35875 43.8461H4.70242V45.19H3.35875V43.8461ZM4.70242 28.0548H3.35875V29.3987H4.70242V28.0548ZM3.35875 25.5348H4.70242V26.8788H3.35875V25.5348ZM4.70242 33.2625H3.35875V34.6065H4.70242V33.2625ZM3.35875 38.6382H4.70242V39.9822H3.35875V38.6382ZM4.70242 41.1582H3.35875V42.5021H4.70242V41.1582ZM3.35875 35.9504H4.70242V37.2944H3.35875V35.9504ZM4.70242 30.7426H3.35875V32.0865H4.70242V30.7426ZM3.35875 22.847H4.70242V24.1909H3.35875V22.847ZM10.2455 22.847H8.90179V24.1909H10.2455V22.847ZM37.119 22.847H38.4627V24.1909H37.119V22.847ZM13.101 22.847H11.7574V24.1909H13.101V22.847ZM14.6118 22.847H15.9555V24.1909H14.6118V22.847ZM7.558 22.847H6.21433V24.1909H7.558V22.847ZM20.1548 22.847H21.4985V24.1909H20.1548V22.847ZM18.811 22.847H17.4674V24.1909H18.811V22.847ZM28.5534 22.847H29.8971V24.1909H28.5534V22.847ZM32.7515 22.847H31.4079V24.1909H32.7515V22.847ZM34.2634 22.847H35.6071V24.1909H34.2634V22.847ZM27.2096 22.847H25.866V24.1909H27.2096V22.847ZM23.0104 22.847H24.3541V24.1909H23.0104V22.847ZM41.1501 22.847H39.8065V24.1909H41.1501V22.847ZM42.6609 22.847H44.0046V24.1909H42.6609V22.847ZM44.0046 28.0548H42.6609V29.3987H44.0046V28.0548ZM42.6609 25.5348H44.0046V26.8788H42.6609V25.5348ZM44.0046 30.7426H42.6609V32.0865H44.0046V30.7426ZM42.6609 33.4306H44.0046V34.7745H42.6609V33.4306ZM44.0046 35.9504H42.6609V37.2944H44.0046V35.9504ZM42.6609 38.6382H44.0046V39.9822H42.6609V38.6382ZM44.0046 43.8461H42.6609V45.19H44.0046V43.8461ZM42.6609 41.1582H44.0046V42.5021H42.6609V41.1582ZM44.0046 46.534H42.6609V47.8779H44.0046V46.534ZM20.1548 46.534H21.4985V47.8779H20.1548V46.534ZM13.101 46.534H11.7574V47.8779H13.101V46.534ZM38.3758 47.8463L36.9727 47.8225L36.996 46.4576L38.399 46.4814L38.3758 47.8463ZM24.3541 46.534H23.0104V47.8779H24.3541V46.534ZM28.5534 46.534H29.8971V47.8779H28.5534V46.534ZM10.2455 46.534H8.90179V47.8779H10.2455V46.534ZM14.6118 46.534H15.9555V47.8779H14.6118V46.534ZM7.558 46.534H6.21433V47.8779H7.558V46.534ZM31.4079 46.534H32.7515V47.8779H31.4079V46.534ZM27.2096 46.534H25.866V47.8779H27.2096V46.534ZM41.1501 46.5359L39.8292 46.534L39.8065 47.876L41.1501 47.8779V46.5359ZM35.6071 46.534H34.2634V47.8779H35.6071V46.534ZM17.4674 46.534H18.811V47.8779H17.4674V46.534ZM50.2199 34.6065H48.7083V35.9504H50.2199V34.6065ZM57.4419 34.6065H58.9536V35.9504H57.4419V34.6065ZM53.0755 34.6065H51.5638V35.9504H53.0755V34.6065ZM54.5864 34.6065H56.098V35.9504H54.5864V34.6065ZM61.64 34.6065H60.2964V35.9504H61.64V34.6065ZM60.2964 23.5189H61.64V24.8629H60.2964V23.5189ZM61.64 26.3748H60.2964V27.7187H61.64V26.3748ZM60.2964 29.0627H61.64V30.4066H60.2964V29.0627ZM61.64 20.6631H60.2964V22.007H61.64V20.6631ZM60.2964 17.9752H61.64V19.3191H60.2964V17.9752ZM61.64 31.9186H60.2964V33.2625H61.64V31.9186ZM60.2964 15.1194H61.64V16.4633H60.2964V15.1194ZM45.1802 15.1194H43.8365V16.4633H45.1802V15.1194ZM54.7545 15.1194H56.0981V16.4633H54.7545V15.1194ZM53.4107 15.1194H52.067V16.4633H53.4107V15.1194ZM38.2946 15.1194H39.6383V16.4633H38.2946V15.1194ZM36.9508 15.1194H35.6072V16.4633H36.9508V15.1194ZM40.9821 15.1194H42.3258V16.4633H40.9821V15.1194ZM58.9537 15.1194H57.6101V16.4633H58.9537V15.1194ZM32.7516 15.1194H34.0953V16.4633H32.7516V15.1194ZM47.8688 15.1194H46.5251V16.4633H47.8688V15.1194ZM30.0653 15.1194H31.409V16.4633H30.0653V15.1194ZM50.7232 15.1194H49.3795V16.4633H50.7232V15.1194ZM27.2097 15.1194H28.5534V16.4633H27.2097V15.1194ZM28.5534 17.4712H27.2097V18.4792H28.5534V17.4712ZM8.90295 34.6065C8.90295 32.3835 10.711 30.5747 12.934 30.5747C15.1569 30.5747 16.965 32.3835 16.965 34.6065C16.965 36.8295 15.1569 38.6383 12.934 38.6383C10.711 38.6383 8.90295 36.8295 8.90295 34.6065ZM10.267 34.6065C10.267 36.0775 11.4637 37.2742 12.9341 37.2742C14.4045 37.2742 15.6013 36.0775 15.6013 34.6065C15.6013 33.1355 14.4045 31.9388 12.9341 31.9388C11.4637 31.9388 10.267 33.1355 10.267 34.6065ZM23.6827 38.6383C25.9056 38.6383 27.7137 36.8295 27.7137 34.6065C27.7137 32.3835 25.9056 30.5747 23.6827 30.5747C21.4597 30.5747 19.6516 32.3835 19.6516 34.6065C19.6516 36.8295 21.4597 38.6383 23.6827 38.6383ZM23.6815 31.9388C25.152 31.9388 26.3487 33.1355 26.3487 34.6065C26.3487 36.0775 25.1519 37.2742 23.6815 37.2742C22.2111 37.2742 21.0144 36.0775 21.0144 34.6065C21.0144 33.1355 22.2111 31.9388 23.6815 31.9388ZM38.4643 34.6063C38.4643 36.8294 36.6562 38.6382 34.4333 38.6382C32.2103 38.6382 30.4023 36.8294 30.4023 34.6063C30.4023 32.3833 32.2104 30.5745 34.4333 30.5745C36.6562 30.5745 38.4643 32.3833 38.4643 34.6063ZM37.1 34.6064C37.1 33.1353 35.9033 31.9387 34.4328 31.9387C32.9624 31.9387 31.7657 33.1353 31.7657 34.6064C31.7657 36.0774 32.9624 37.274 34.4328 37.274C35.9032 37.274 37.1 36.0774 37.1 34.6064ZM53.7468 28.8947C55.9698 28.8947 57.7778 27.0859 57.7778 24.8629C57.7778 22.6398 55.9697 20.831 53.7468 20.831C51.5239 20.831 49.7158 22.6398 49.7158 24.8629C49.7158 27.0859 51.5239 28.8947 53.7468 28.8947ZM53.7473 22.1951C55.2177 22.1951 56.4144 23.3917 56.4144 24.8628C56.4144 26.3338 55.2177 27.5305 53.7473 27.5305C52.2769 27.5305 51.0801 26.3338 51.0801 24.8628C51.0801 23.3917 52.2769 22.1951 53.7473 22.1951ZM46.357 7.72762H45.0133V9.07156H46.357V7.72762ZM42.1577 7.72762H43.5014V9.07156H42.1577V7.72762ZM38.1265 7.72762H36.7828V9.07156H38.1265V7.72762ZM47.7008 7.72762H49.0444V9.07156H47.7008V7.72762ZM2.68746 1.00794H4.03113V2.35188H2.68746V1.00794ZM9.57301 1.00794H8.22935V2.35188H9.57301V1.00794ZM22.5061 7.22372H23.8497V8.56766H22.5061V7.22372ZM21.1623 7.22372H19.8186V8.56766H21.1623V7.22372ZM17.1323 7.22372H18.476V8.56766H17.1323V7.22372ZM28.3853 54.4296H27.0416V55.7736H28.3853V54.4296ZM32.4165 54.4296H33.7602V55.7736H32.4165V54.4296ZM31.0716 54.4296H29.7279V55.7736H31.0716V54.4296ZM59.6251 53.2536H60.9687V54.5976H59.6251V53.2536ZM55.4269 53.2536H54.0832V54.5976H55.4269V53.2536ZM56.7695 53.2536H58.1132V54.5976H56.7695V53.2536ZM30.4003 0H31.744V1.34394H30.4003V0ZM34.4315 0H33.0878V1.34394H34.4315V0ZM57.4395 5.03977H58.7886V3.69834H60.1292V2.34903H58.7886V1.00794H57.4395V2.34903H56.0982V3.69834H57.4395V5.03977ZM7.89724 12.4315H6.54808V11.0904H5.20682V9.74105H6.54808V8.39963H7.89724V9.74105H9.23783V11.0904H7.89724V12.4315ZM45.3452 54.5976V55.9387H44.0046V57.288H45.3452V58.6294H46.6944V57.288H48.0356V55.9387H46.6944V54.5976H45.3452ZM18.4729 56.611V55.2695H19.822V56.611H21.1633V57.9603H19.822V59.3014H18.4729V57.9603H17.1323V56.611H18.4729Z"/>
</mask>
<path d="M35.7753 0V-1H34.7753V0H35.7753ZM37.1189 0H38.1189V-1H37.1189V0ZM35.7753 1.34394H34.7753V2.34394H35.7753V1.34394ZM37.1189 1.34394V2.34394H38.1189V1.34394H37.1189ZM5.54188 1.00794V0.00794399H4.54188V1.00794H5.54188ZM6.88555 1.00794H7.88555V0.00794399H6.88555V1.00794ZM5.54188 2.35188H4.54188V3.35188H5.54188V2.35188ZM6.88555 2.35188V3.35188H7.88555V2.35188H6.88555ZM40.8139 7.72762H41.8139V6.72762H40.8139V7.72762ZM39.4702 7.72762V6.72762H38.4702V7.72762H39.4702ZM40.8139 9.07156V10.0716H41.8139V9.07156H40.8139ZM39.4702 9.07156H38.4702V10.0716H39.4702V9.07156ZM2.02189 51.1156L1.78473 52.0871L1.89892 52.115L2.01647 52.1156L2.02189 51.1156ZM5.582 51.135H6.582V50.1404L5.58743 50.135L5.582 51.135ZM23.8801 19.4367V20.4367H24.8801V19.4367H23.8801ZM63.1836 39.3456L63.3024 40.3385L63.3618 40.3314L63.4199 40.3173L63.1836 39.3456ZM63.0222 39.3649V40.3649H63.0818L63.141 40.3578L63.0222 39.3649ZM60.1691 39.3649V38.3649H59.1691V39.3649H60.1691ZM60.1691 48.1381L59.5245 48.9027L61.1691 50.2892V48.1381H60.1691ZM49.7629 39.3649L50.4075 38.6004L50.1282 38.3649H49.7629V39.3649ZM47.3135 39.3649V38.3649H46.3135V39.3649H47.3135ZM44.6699 51.1936L44.6678 52.1936H44.6699V51.1936ZM17.4684 51.135L17.4706 50.135L17.1042 50.1342L16.8241 50.3702L17.4684 51.135ZM5.582 61.1493H4.582V63.2994L6.22631 61.914L5.582 61.1493ZM25.2469 19.4366H24.2469V20.4366H25.2469V19.4366ZM47.3139 34.6466H46.3139V35.6466H47.3139V34.6466ZM47.3146 34.6466H48.3146V33.6466H47.3146V34.6466ZM47.3146 36.012V37.012H48.3146V36.012H47.3146ZM47.3139 36.012V35.012H46.3139V36.012H47.3139ZM47.3139 37.9994H46.3139V38.9994H47.3139V37.9994ZM50.2623 37.9994L50.9069 37.2348L50.6276 36.9994H50.2623V37.9994ZM58.8035 45.1999L58.1589 45.9644L59.8035 47.3508V45.1999H58.8035ZM58.8035 37.9994V36.9994H57.8035V37.9994H58.8035ZM62.9299 37.9994V38.9994H63.0851L63.233 38.9524L62.9299 37.9994ZM44.6695 49.8282L44.6674 50.8282H44.6695V49.8282ZM17.1317 49.7699L17.1296 50.7699L17.1338 48.7699L17.1317 49.7699ZM16.9691 49.7696L16.9712 48.7696L16.6049 48.7688L16.3248 49.0048L16.9691 49.7696ZM6.94776 58.2124H5.94776V60.3624L7.59206 58.9771L6.94776 58.2124ZM6.94776 49.7695H7.94776V48.7695H6.94776V49.7695ZM2.27432 49.7695L1.98347 50.7263L2.12568 50.7695H2.27432V49.7695ZM3.35875 46.534V45.534H2.35875V46.534H3.35875ZM4.70242 46.534H5.70242V45.534H4.70242V46.534ZM3.35875 47.8779H2.35875V48.8779H3.35875V47.8779ZM4.70242 47.8779V48.8779H5.70242V47.8779H4.70242ZM4.70242 43.8461H5.70242V42.8461H4.70242V43.8461ZM3.35875 43.8461V42.8461H2.35875V43.8461H3.35875ZM4.70242 45.19V46.19H5.70242V45.19H4.70242ZM3.35875 45.19H2.35875V46.19H3.35875V45.19ZM3.35875 28.0548V27.0548H2.35875V28.0548H3.35875ZM4.70242 28.0548H5.70242V27.0548H4.70242V28.0548ZM3.35875 29.3987H2.35875V30.3987H3.35875V29.3987ZM4.70242 29.3987V30.3987H5.70242V29.3987H4.70242ZM4.70242 25.5348H5.70242V24.5348H4.70242V25.5348ZM3.35875 25.5348V24.5348H2.35875V25.5348H3.35875ZM4.70242 26.8788V27.8788H5.70242V26.8788H4.70242ZM3.35875 26.8788H2.35875V27.8788H3.35875V26.8788ZM3.35875 33.2625V32.2625H2.35875V33.2625H3.35875ZM4.70242 33.2625H5.70242V32.2625H4.70242V33.2625ZM3.35875 34.6065H2.35875V35.6065H3.35875V34.6065ZM4.70242 34.6065V35.6065H5.70242V34.6065H4.70242ZM4.70242 38.6382H5.70242V37.6382H4.70242V38.6382ZM3.35875 38.6382V37.6382H2.35875V38.6382H3.35875ZM4.70242 39.9822V40.9822H5.70242V39.9822H4.70242ZM3.35875 39.9822H2.35875V40.9822H3.35875V39.9822ZM3.35875 41.1582V40.1582H2.35875V41.1582H3.35875ZM4.70242 41.1582H5.70242V40.1582H4.70242V41.1582ZM3.35875 42.5021H2.35875V43.5021H3.35875V42.5021ZM4.70242 42.5021V43.5021H5.70242V42.5021H4.70242ZM4.70242 35.9504H5.70242V34.9504H4.70242V35.9504ZM3.35875 35.9504V34.9504H2.35875V35.9504H3.35875ZM4.70242 37.2944V38.2944H5.70242V37.2944H4.70242ZM3.35875 37.2944H2.35875V38.2944H3.35875V37.2944ZM3.35875 30.7426V29.7426H2.35875V30.7426H3.35875ZM4.70242 30.7426H5.70242V29.7426H4.70242V30.7426ZM3.35875 32.0865H2.35875V33.0865H3.35875V32.0865ZM4.70242 32.0865V33.0865H5.70242V32.0865H4.70242ZM4.70242 22.847H5.70242V21.847H4.70242V22.847ZM3.35875 22.847V21.847H2.35875V22.847H3.35875ZM4.70242 24.1909V25.1909H5.70242V24.1909H4.70242ZM3.35875 24.1909H2.35875V25.1909H3.35875V24.1909ZM8.90179 22.847V21.847H7.90179V22.847H8.90179ZM10.2455 22.847H11.2455V21.847H10.2455V22.847ZM8.90179 24.1909H7.90179V25.1909H8.90179V24.1909ZM10.2455 24.1909V25.1909H11.2455V24.1909H10.2455ZM38.4627 22.847H39.4627V21.847H38.4627V22.847ZM37.119 22.847V21.847H36.119V22.847H37.119ZM38.4627 24.1909V25.1909H39.4627V24.1909H38.4627ZM37.119 24.1909H36.119V25.1909H37.119V24.1909ZM11.7574 22.847V21.847H10.7574V22.847H11.7574ZM13.101 22.847H14.101V21.847H13.101V22.847ZM11.7574 24.1909H10.7574V25.1909H11.7574V24.1909ZM13.101 24.1909V25.1909H14.101V24.1909H13.101ZM15.9555 22.847H16.9555V21.847H15.9555V22.847ZM14.6118 22.847V21.847H13.6118V22.847H14.6118ZM15.9555 24.1909V25.1909H16.9555V24.1909H15.9555ZM14.6118 24.1909H13.6118V25.1909H14.6118V24.1909ZM6.21433 22.847V21.847H5.21433V22.847H6.21433ZM7.558 22.847H8.558V21.847H7.558V22.847ZM6.21433 24.1909H5.21433V25.1909H6.21433V24.1909ZM7.558 24.1909V25.1909H8.558V24.1909H7.558ZM21.4985 22.847H22.4985V21.847H21.4985V22.847ZM20.1548 22.847V21.847H19.1548V22.847H20.1548ZM21.4985 24.1909V25.1909H22.4985V24.1909H21.4985ZM20.1548 24.1909H19.1548V25.1909H20.1548V24.1909ZM17.4674 22.847V21.847H16.4674V22.847H17.4674ZM18.811 22.847H19.811V21.847H18.811V22.847ZM17.4674 24.1909H16.4674V25.1909H17.4674V24.1909ZM18.811 24.1909V25.1909H19.811V24.1909H18.811ZM29.8971 22.847H30.8971V21.847H29.8971V22.847ZM28.5534 22.847V21.847H27.5534V22.847H28.5534ZM29.8971 24.1909V25.1909H30.8971V24.1909H29.8971ZM28.5534 24.1909H27.5534V25.1909H28.5534V24.1909ZM31.4079 22.847V21.847H30.4079V22.847H31.4079ZM32.7515 22.847H33.7515V21.847H32.7515V22.847ZM31.4079 24.1909H30.4079V25.1909H31.4079V24.1909ZM32.7515 24.1909V25.1909H33.7515V24.1909H32.7515ZM35.6071 22.847H36.6071V21.847H35.6071V22.847ZM34.2634 22.847V21.847H33.2634V22.847H34.2634ZM35.6071 24.1909V25.1909H36.6071V24.1909H35.6071ZM34.2634 24.1909H33.2634V25.1909H34.2634V24.1909ZM25.866 22.847V21.847H24.866V22.847H25.866ZM27.2096 22.847H28.2096V21.847H27.2096V22.847ZM25.866 24.1909H24.866V25.1909H25.866V24.1909ZM27.2096 24.1909V25.1909H28.2096V24.1909H27.2096ZM24.3541 22.847H25.3541V21.847H24.3541V22.847ZM23.0104 22.847V21.847H22.0104V22.847H23.0104ZM24.3541 24.1909V25.1909H25.3541V24.1909H24.3541ZM23.0104 24.1909H22.0104V25.1909H23.0104V24.1909ZM39.8065 22.847V21.847H38.8065V22.847H39.8065ZM41.1501 22.847H42.1501V21.847H41.1501V22.847ZM39.8065 24.1909H38.8065V25.1909H39.8065V24.1909ZM41.1501 24.1909V25.1909H42.1501V24.1909H41.1501ZM44.0046 22.847H45.0046V21.847H44.0046V22.847ZM42.6609 22.847V21.847H41.6609V22.847H42.6609ZM44.0046 24.1909V25.1909H45.0046V24.1909H44.0046ZM42.6609 24.1909H41.6609V25.1909H42.6609V24.1909ZM42.6609 28.0548V27.0548H41.6609V28.0548H42.6609ZM44.0046 28.0548H45.0046V27.0548H44.0046V28.0548ZM42.6609 29.3987H41.6609V30.3987H42.6609V29.3987ZM44.0046 29.3987V30.3987H45.0046V29.3987H44.0046ZM44.0046 25.5348H45.0046V24.5348H44.0046V25.5348ZM42.6609 25.5348V24.5348H41.6609V25.5348H42.6609ZM44.0046 26.8788V27.8788H45.0046V26.8788H44.0046ZM42.6609 26.8788H41.6609V27.8788H42.6609V26.8788ZM42.6609 30.7426V29.7426H41.6609V30.7426H42.6609ZM44.0046 30.7426H45.0046V29.7426H44.0046V30.7426ZM42.6609 32.0865H41.6609V33.0865H42.6609V32.0865ZM44.0046 32.0865V33.0865H45.0046V32.0865H44.0046ZM44.0046 33.4306H45.0046V32.4306H44.0046V33.4306ZM42.6609 33.4306V32.4306H41.6609V33.4306H42.6609ZM44.0046 34.7745V35.7745H45.0046V34.7745H44.0046ZM42.6609 34.7745H41.6609V35.7745H42.6609V34.7745ZM42.6609 35.9504V34.9504H41.6609V35.9504H42.6609ZM44.0046 35.9504H45.0046V34.9504H44.0046V35.9504ZM42.6609 37.2944H41.6609V38.2944H42.6609V37.2944ZM44.0046 37.2944V38.2944H45.0046V37.2944H44.0046ZM44.0046 38.6382H45.0046V37.6382H44.0046V38.6382ZM42.6609 38.6382V37.6382H41.6609V38.6382H42.6609ZM44.0046 39.9822V40.9822H45.0046V39.9822H44.0046ZM42.6609 39.9822H41.6609V40.9822H42.6609V39.9822ZM42.6609 43.8461V42.8461H41.6609V43.8461H42.6609ZM44.0046 43.8461H45.0046V42.8461H44.0046V43.8461ZM42.6609 45.19H41.6609V46.19H42.6609V45.19ZM44.0046 45.19V46.19H45.0046V45.19H44.0046ZM44.0046 41.1582H45.0046V40.1582H44.0046V41.1582ZM42.6609 41.1582V40.1582H41.6609V41.1582H42.6609ZM44.0046 42.5021V43.5021H45.0046V42.5021H44.0046ZM42.6609 42.5021H41.6609V43.5021H42.6609V42.5021ZM42.6609 46.534V45.534H41.6609V46.534H42.6609ZM44.0046 46.534H45.0046V45.534H44.0046V46.534ZM42.6609 47.8779H41.6609V48.8779H42.6609V47.8779ZM44.0046 47.8779V48.8779H45.0046V47.8779H44.0046ZM21.4985 46.534H22.4985V45.534H21.4985V46.534ZM20.1548 46.534V45.534H19.1548V46.534H20.1548ZM21.4985 47.8779V48.8779H22.4985V47.8779H21.4985ZM20.1548 47.8779H19.1548V48.8779H20.1548V47.8779ZM11.7574 46.534V45.534H10.7574V46.534H11.7574ZM13.101 46.534H14.101V45.534H13.101V46.534ZM11.7574 47.8779H10.7574V48.8779H11.7574V47.8779ZM13.101 47.8779V48.8779H14.101V47.8779H13.101ZM36.9727 47.8225L35.9729 47.8055L35.9559 48.8053L36.9558 48.8223L36.9727 47.8225ZM38.3758 47.8463L38.3588 48.8462L39.3586 48.8631L39.3756 47.8633L38.3758 47.8463ZM36.996 46.4576L37.0129 45.4577L36.0131 45.4407L35.9961 46.4406L36.996 46.4576ZM38.399 46.4814L39.3988 46.4984L39.4159 45.4985L38.416 45.4815L38.399 46.4814ZM23.0104 46.534V45.534H22.0104V46.534H23.0104ZM24.3541 46.534H25.3541V45.534H24.3541V46.534ZM23.0104 47.8779H22.0104V48.8779H23.0104V47.8779ZM24.3541 47.8779V48.8779H25.3541V47.8779H24.3541ZM29.8971 46.534H30.8971V45.534H29.8971V46.534ZM28.5534 46.534V45.534H27.5534V46.534H28.5534ZM29.8971 47.8779V48.8779H30.8971V47.8779H29.8971ZM28.5534 47.8779H27.5534V48.8779H28.5534V47.8779ZM8.90179 46.534V45.534H7.90179V46.534H8.90179ZM10.2455 46.534H11.2455V45.534H10.2455V46.534ZM8.90179 47.8779H7.90179V48.8779H8.90179V47.8779ZM10.2455 47.8779V48.8779H11.2455V47.8779H10.2455ZM15.9555 46.534H16.9555V45.534H15.9555V46.534ZM14.6118 46.534V45.534H13.6118V46.534H14.6118ZM15.9555 47.8779V48.8779H16.9555V47.8779H15.9555ZM14.6118 47.8779H13.6118V48.8779H14.6118V47.8779ZM6.21433 46.534V45.534H5.21433V46.534H6.21433ZM7.558 46.534H8.558V45.534H7.558V46.534ZM6.21433 47.8779H5.21433V48.8779H6.21433V47.8779ZM7.558 47.8779V48.8779H8.558V47.8779H7.558ZM32.7515 46.534H33.7515V45.534H32.7515V46.534ZM31.4079 46.534V45.534H30.4079V46.534H31.4079ZM32.7515 47.8779V48.8779H33.7515V47.8779H32.7515ZM31.4079 47.8779H30.4079V48.8779H31.4079V47.8779ZM25.866 46.534V45.534H24.866V46.534H25.866ZM27.2096 46.534H28.2096V45.534H27.2096V46.534ZM25.866 47.8779H24.866V48.8779H25.866V47.8779ZM27.2096 47.8779V48.8779H28.2096V47.8779H27.2096ZM39.8292 46.534L39.8307 45.534L38.8461 45.5325L38.8294 46.517L39.8292 46.534ZM41.1501 46.5359H42.1501V45.5374L41.1516 45.5359L41.1501 46.5359ZM39.8065 47.876L38.8066 47.859L38.7894 48.8745L39.805 48.876L39.8065 47.876ZM41.1501 47.8779L41.1487 48.8779L42.1501 48.8794V47.8779H41.1501ZM34.2634 46.534V45.534H33.2634V46.534H34.2634ZM35.6071 46.534H36.6071V45.534H35.6071V46.534ZM34.2634 47.8779H33.2634V48.8779H34.2634V47.8779ZM35.6071 47.8779V48.8779H36.6071V47.8779H35.6071ZM18.811 46.534H19.811V45.534H18.811V46.534ZM17.4674 46.534V45.534H16.4674V46.534H17.4674ZM18.811 47.8779V48.8779H19.811V47.8779H18.811ZM17.4674 47.8779H16.4674V48.8779H17.4674V47.8779ZM48.7083 34.6065V33.6065H47.7083V34.6065H48.7083ZM50.2199 34.6065H51.2199V33.6065H50.2199V34.6065ZM48.7083 35.9504H47.7083V36.9504H48.7083V35.9504ZM50.2199 35.9504V36.9504H51.2199V35.9504H50.2199ZM58.9536 34.6065H59.9536V33.6065H58.9536V34.6065ZM57.4419 34.6065V33.6065H56.4419V34.6065H57.4419ZM58.9536 35.9504V36.9504H59.9536V35.9504H58.9536ZM57.4419 35.9504H56.4419V36.9504H57.4419V35.9504ZM51.5638 34.6065V33.6065H50.5638V34.6065H51.5638ZM53.0755 34.6065H54.0755V33.6065H53.0755V34.6065ZM51.5638 35.9504H50.5638V36.9504H51.5638V35.9504ZM53.0755 35.9504V36.9504H54.0755V35.9504H53.0755ZM56.098 34.6065H57.098V33.6065H56.098V34.6065ZM54.5864 34.6065V33.6065H53.5864V34.6065H54.5864ZM56.098 35.9504V36.9504H57.098V35.9504H56.098ZM54.5864 35.9504H53.5864V36.9504H54.5864V35.9504ZM60.2964 34.6065V33.6065H59.2964V34.6065H60.2964ZM61.64 34.6065H62.64V33.6065H61.64V34.6065ZM60.2964 35.9504H59.2964V36.9504H60.2964V35.9504ZM61.64 35.9504V36.9504H62.64V35.9504H61.64ZM61.64 23.5189H62.64V22.5189H61.64V23.5189ZM60.2964 23.5189V22.5189H59.2964V23.5189H60.2964ZM61.64 24.8629V25.8629H62.64V24.8629H61.64ZM60.2964 24.8629H59.2964V25.8629H60.2964V24.8629ZM60.2964 26.3748V25.3748H59.2964V26.3748H60.2964ZM61.64 26.3748H62.64V25.3748H61.64V26.3748ZM60.2964 27.7187H59.2964V28.7187H60.2964V27.7187ZM61.64 27.7187V28.7187H62.64V27.7187H61.64ZM61.64 29.0627H62.64V28.0627H61.64V29.0627ZM60.2964 29.0627V28.0627H59.2964V29.0627H60.2964ZM61.64 30.4066V31.4066H62.64V30.4066H61.64ZM60.2964 30.4066H59.2964V31.4066H60.2964V30.4066ZM60.2964 20.6631V19.6631H59.2964V20.6631H60.2964ZM61.64 20.6631H62.64V19.6631H61.64V20.6631ZM60.2964 22.007H59.2964V23.007H60.2964V22.007ZM61.64 22.007V23.007H62.64V22.007H61.64ZM61.64 17.9752H62.64V16.9752H61.64V17.9752ZM60.2964 17.9752V16.9752H59.2964V17.9752H60.2964ZM61.64 19.3191V20.3191H62.64V19.3191H61.64ZM60.2964 19.3191H59.2964V20.3191H60.2964V19.3191ZM60.2964 31.9186V30.9186H59.2964V31.9186H60.2964ZM61.64 31.9186H62.64V30.9186H61.64V31.9186ZM60.2964 33.2625H59.2964V34.2625H60.2964V33.2625ZM61.64 33.2625V34.2625H62.64V33.2625H61.64ZM61.64 15.1194H62.64V14.1194H61.64V15.1194ZM60.2964 15.1194V14.1194H59.2964V15.1194H60.2964ZM61.64 16.4633V17.4633H62.64V16.4633H61.64ZM60.2964 16.4633H59.2964V17.4633H60.2964V16.4633ZM43.8365 15.1194V14.1194H42.8365V15.1194H43.8365ZM45.1802 15.1194H46.1802V14.1194H45.1802V15.1194ZM43.8365 16.4633H42.8365V17.4633H43.8365V16.4633ZM45.1802 16.4633V17.4633H46.1802V16.4633H45.1802ZM56.0981 15.1194H57.0981V14.1194H56.0981V15.1194ZM54.7545 15.1194V14.1194H53.7545V15.1194H54.7545ZM56.0981 16.4633V17.4633H57.0981V16.4633H56.0981ZM54.7545 16.4633H53.7545V17.4633H54.7545V16.4633ZM52.067 15.1194V14.1194H51.067V15.1194H52.067ZM53.4107 15.1194H54.4107V14.1194H53.4107V15.1194ZM52.067 16.4633H51.067V17.4633H52.067V16.4633ZM53.4107 16.4633V17.4633H54.4107V16.4633H53.4107ZM39.6383 15.1194H40.6383V14.1194H39.6383V15.1194ZM38.2946 15.1194V14.1194H37.2946V15.1194H38.2946ZM39.6383 16.4633V17.4633H40.6383V16.4633H39.6383ZM38.2946 16.4633H37.2946V17.4633H38.2946V16.4633ZM35.6072 15.1194V14.1194H34.6072V15.1194H35.6072ZM36.9508 15.1194H37.9508V14.1194H36.9508V15.1194ZM35.6072 16.4633H34.6072V17.4633H35.6072V16.4633ZM36.9508 16.4633V17.4633H37.9508V16.4633H36.9508ZM42.3258 15.1194H43.3258V14.1194H42.3258V15.1194ZM40.9821 15.1194V14.1194H39.9821V15.1194H40.9821ZM42.3258 16.4633V17.4633H43.3258V16.4633H42.3258ZM40.9821 16.4633H39.9821V17.4633H40.9821V16.4633ZM57.6101 15.1194V14.1194H56.6101V15.1194H57.6101ZM58.9537 15.1194H59.9537V14.1194H58.9537V15.1194ZM57.6101 16.4633H56.6101V17.4633H57.6101V16.4633ZM58.9537 16.4633V17.4633H59.9537V16.4633H58.9537ZM34.0953 15.1194H35.0953V14.1194H34.0953V15.1194ZM32.7516 15.1194V14.1194H31.7516V15.1194H32.7516ZM34.0953 16.4633V17.4633H35.0953V16.4633H34.0953ZM32.7516 16.4633H31.7516V17.4633H32.7516V16.4633ZM46.5251 15.1194V14.1194H45.5251V15.1194H46.5251ZM47.8688 15.1194H48.8688V14.1194H47.8688V15.1194ZM46.5251 16.4633H45.5251V17.4633H46.5251V16.4633ZM47.8688 16.4633V17.4633H48.8688V16.4633H47.8688ZM31.409 15.1194H32.409V14.1194H31.409V15.1194ZM30.0653 15.1194V14.1194H29.0653V15.1194H30.0653ZM31.409 16.4633V17.4633H32.409V16.4633H31.409ZM30.0653 16.4633H29.0653V17.4633H30.0653V16.4633ZM49.3795 15.1194V14.1194H48.3795V15.1194H49.3795ZM50.7232 15.1194H51.7232V14.1194H50.7232V15.1194ZM49.3795 16.4633H48.3795V17.4633H49.3795V16.4633ZM50.7232 16.4633V17.4633H51.7232V16.4633H50.7232ZM28.5534 15.1194H29.5534V14.1194H28.5534V15.1194ZM27.2097 15.1194V14.1194H26.2097V15.1194H27.2097ZM28.5534 16.4633V17.4633H29.5534V16.4633H28.5534ZM27.2097 16.4633H26.2097V17.4633H27.2097V16.4633ZM27.2097 17.4712V16.4712H26.2097V17.4712H27.2097ZM28.5534 17.4712H29.5534V16.4712H28.5534V17.4712ZM27.2097 18.4792H26.2097V19.4792H27.2097V18.4792ZM28.5534 18.4792V19.4792H29.5534V18.4792H28.5534ZM45.0133 7.72762V6.72762H44.0133V7.72762H45.0133ZM46.357 7.72762H47.357V6.72762H46.357V7.72762ZM45.0133 9.07156H44.0133V10.0716H45.0133V9.07156ZM46.357 9.07156V10.0716H47.357V9.07156H46.357ZM43.5014 7.72762H44.5014V6.72762H43.5014V7.72762ZM42.1577 7.72762V6.72762H41.1577V7.72762H42.1577ZM43.5014 9.07156V10.0716H44.5014V9.07156H43.5014ZM42.1577 9.07156H41.1577V10.0716H42.1577V9.07156ZM36.7828 7.72762V6.72762H35.7828V7.72762H36.7828ZM38.1265 7.72762H39.1265V6.72762H38.1265V7.72762ZM36.7828 9.07156H35.7828V10.0716H36.7828V9.07156ZM38.1265 9.07156V10.0716H39.1265V9.07156H38.1265ZM49.0444 7.72762H50.0444V6.72762H49.0444V7.72762ZM47.7008 7.72762V6.72762H46.7008V7.72762H47.7008ZM49.0444 9.07156V10.0716H50.0444V9.07156H49.0444ZM47.7008 9.07156H46.7008V10.0716H47.7008V9.07156ZM4.03113 1.00794H5.03113V0.00794399H4.03113V1.00794ZM2.68746 1.00794V0.00794399H1.68746V1.00794H2.68746ZM4.03113 2.35188V3.35188H5.03113V2.35188H4.03113ZM2.68746 2.35188H1.68746V3.35188H2.68746V2.35188ZM8.22935 1.00794V0.00794399H7.22935V1.00794H8.22935ZM9.57301 1.00794H10.573V0.00794399H9.57301V1.00794ZM8.22935 2.35188H7.22935V3.35188H8.22935V2.35188ZM9.57301 2.35188V3.35188H10.573V2.35188H9.57301ZM23.8497 7.22372H24.8497V6.22372H23.8497V7.22372ZM22.5061 7.22372V6.22372H21.5061V7.22372H22.5061ZM23.8497 8.56766V9.56766H24.8497V8.56766H23.8497ZM22.5061 8.56766H21.5061V9.56766H22.5061V8.56766ZM19.8186 7.22372V6.22372H18.8186V7.22372H19.8186ZM21.1623 7.22372H22.1623V6.22372H21.1623V7.22372ZM19.8186 8.56766H18.8186V9.56766H19.8186V8.56766ZM21.1623 8.56766V9.56766H22.1623V8.56766H21.1623ZM18.476 7.22372H19.476V6.22372H18.476V7.22372ZM17.1323 7.22372V6.22372H16.1323V7.22372H17.1323ZM18.476 8.56766V9.56766H19.476V8.56766H18.476ZM17.1323 8.56766H16.1323V9.56766H17.1323V8.56766ZM27.0416 54.4296V53.4296H26.0416V54.4296H27.0416ZM28.3853 54.4296H29.3853V53.4296H28.3853V54.4296ZM27.0416 55.7736H26.0416V56.7736H27.0416V55.7736ZM28.3853 55.7736V56.7736H29.3853V55.7736H28.3853ZM33.7602 54.4296H34.7602V53.4296H33.7602V54.4296ZM32.4165 54.4296V53.4296H31.4165V54.4296H32.4165ZM33.7602 55.7736V56.7736H34.7602V55.7736H33.7602ZM32.4165 55.7736H31.4165V56.7736H32.4165V55.7736ZM29.7279 54.4296V53.4296H28.7279V54.4296H29.7279ZM31.0716 54.4296H32.0716V53.4296H31.0716V54.4296ZM29.7279 55.7736H28.7279V56.7736H29.7279V55.7736ZM31.0716 55.7736V56.7736H32.0716V55.7736H31.0716ZM60.9687 53.2536H61.9687V52.2536H60.9687V53.2536ZM59.6251 53.2536V52.2536H58.6251V53.2536H59.6251ZM60.9687 54.5976V55.5976H61.9687V54.5976H60.9687ZM59.6251 54.5976H58.6251V55.5976H59.6251V54.5976ZM54.0832 53.2536V52.2536H53.0832V53.2536H54.0832ZM55.4269 53.2536H56.4269V52.2536H55.4269V53.2536ZM54.0832 54.5976H53.0832V55.5976H54.0832V54.5976ZM55.4269 54.5976V55.5976H56.4269V54.5976H55.4269ZM58.1132 53.2536H59.1132V52.2536H58.1132V53.2536ZM56.7695 53.2536V52.2536H55.7695V53.2536H56.7695ZM58.1132 54.5976V55.5976H59.1132V54.5976H58.1132ZM56.7695 54.5976H55.7695V55.5976H56.7695V54.5976ZM31.744 0H32.744V-1H31.744V0ZM30.4003 0V-1H29.4003V0H30.4003ZM31.744 1.34394V2.34394H32.744V1.34394H31.744ZM30.4003 1.34394H29.4003V2.34394H30.4003V1.34394ZM33.0878 0V-1H32.0878V0H33.0878ZM34.4315 0H35.4315V-1H34.4315V0ZM33.0878 1.34394H32.0878V2.34394H33.0878V1.34394ZM34.4315 1.34394V2.34394H35.4315V1.34394H34.4315ZM58.7886 5.03977V6.03977H59.7886V5.03977H58.7886ZM57.4395 5.03977H56.4395V6.03977H57.4395V5.03977ZM58.7886 3.69834V2.69834H57.7886V3.69834H58.7886ZM60.1292 3.69834V4.69834H61.1292V3.69834H60.1292ZM60.1292 2.34903H61.1292V1.34903H60.1292V2.34903ZM58.7886 2.34903H57.7886V3.34903H58.7886V2.34903ZM58.7886 1.00794H59.7886V0.00794399H58.7886V1.00794ZM57.4395 1.00794V0.00794399H56.4395V1.00794H57.4395ZM57.4395 2.34903V3.34903H58.4395V2.34903H57.4395ZM56.0982 2.34903V1.34903H55.0982V2.34903H56.0982ZM56.0982 3.69834H55.0982V4.69834H56.0982V3.69834ZM57.4395 3.69834H58.4395V2.69834H57.4395V3.69834ZM6.54808 12.4315H5.54808V13.4315H6.54808V12.4315ZM7.89724 12.4315V13.4315H8.89724V12.4315H7.89724ZM6.54808 11.0904H7.54808V10.0904H6.54808V11.0904ZM5.20682 11.0904H4.20682V12.0904H5.20682V11.0904ZM5.20682 9.74105V8.74105H4.20682V9.74105H5.20682ZM6.54808 9.74105V10.7411H7.54808V9.74105H6.54808ZM6.54808 8.39963V7.39963H5.54808V8.39963H6.54808ZM7.89724 8.39963H8.89724V7.39963H7.89724V8.39963ZM7.89724 9.74105H6.89724V10.7411H7.89724V9.74105ZM9.23783 9.74105H10.2378V8.74105H9.23783V9.74105ZM9.23783 11.0904V12.0904H10.2378V11.0904H9.23783ZM7.89724 11.0904V10.0904H6.89724V11.0904H7.89724ZM45.3452 55.9387V56.9387H46.3452V55.9387H45.3452ZM45.3452 54.5976V53.5976H44.3452V54.5976H45.3452ZM44.0046 55.9387V54.9387H43.0046V55.9387H44.0046ZM44.0046 57.288H43.0046V58.288H44.0046V57.288ZM45.3452 57.288H46.3452V56.288H45.3452V57.288ZM45.3452 58.6294H44.3452V59.6294H45.3452V58.6294ZM46.6944 58.6294V59.6294H47.6944V58.6294H46.6944ZM46.6944 57.288V56.288H45.6944V57.288H46.6944ZM48.0356 57.288V58.288H49.0356V57.288H48.0356ZM48.0356 55.9387H49.0356V54.9387H48.0356V55.9387ZM46.6944 55.9387H45.6944V56.9387H46.6944V55.9387ZM46.6944 54.5976H47.6944V53.5976H46.6944V54.5976ZM18.4729 55.2695V54.2695H17.4729V55.2695H18.4729ZM18.4729 56.611V57.611H19.4729V56.611H18.4729ZM19.822 55.2695H20.822V54.2695H19.822V55.2695ZM19.822 56.611H18.822V57.611H19.822V56.611ZM21.1633 56.611H22.1633V55.611H21.1633V56.611ZM21.1633 57.9603V58.9603H22.1633V57.9603H21.1633ZM19.822 57.9603V56.9603H18.822V57.9603H19.822ZM19.822 59.3014V60.3014H20.822V59.3014H19.822ZM18.4729 59.3014H17.4729V60.3014H18.4729V59.3014ZM18.4729 57.9603H19.4729V56.9603H18.4729V57.9603ZM17.1323 57.9603H16.1323V58.9603H17.1323V57.9603ZM17.1323 56.611V55.611H16.1323V56.611H17.1323ZM35.7753 1H37.1189V-1H35.7753V1ZM36.7753 1.34394V0H34.7753V1.34394H36.7753ZM37.1189 0.34394H35.7753V2.34394H37.1189V0.34394ZM36.1189 0V1.34394H38.1189V0H36.1189ZM5.54188 2.00794H6.88555V0.00794399H5.54188V2.00794ZM6.54188 2.35188V1.00794H4.54188V2.35188H6.54188ZM6.88555 1.35188H5.54188V3.35188H6.88555V1.35188ZM5.88555 1.00794V2.35188H7.88555V1.00794H5.88555ZM40.8139 6.72762H39.4702V8.72762H40.8139V6.72762ZM41.8139 9.07156V7.72762H39.8139V9.07156H41.8139ZM39.4702 10.0716H40.8139V8.07156H39.4702V10.0716ZM38.4702 7.72762V9.07156H40.4702V7.72762H38.4702ZM2.01647 52.1156L5.57657 52.1349L5.58743 50.135L2.02732 50.1156L2.01647 52.1156ZM-1 48.5519C-1 50.2349 0.149579 51.6879 1.78473 52.0871L2.25906 50.1442C1.51275 49.962 1 49.3062 1 48.5519H-1ZM-1 22.0785V48.5519H1V22.0785H-1ZM2.64827 18.4367C0.638117 18.4367 -1 20.0671 -1 22.0785H1C1 21.1763 1.73802 20.4367 2.64827 20.4367V18.4367ZM23.8801 18.4367H2.64827V20.4367H23.8801V18.4367ZM22.8801 14.139V19.4367H24.8801V14.139H22.8801ZM26.2609 10.7595C24.3963 10.7595 22.8801 12.2741 22.8801 14.139H24.8801C24.8801 13.3797 25.4999 12.7595 26.2609 12.7595V10.7595ZM62.6192 10.7595H26.2609V12.7595H62.6192V10.7595ZM66 14.139C66 12.2741 64.4838 10.7595 62.6192 10.7595V12.7595C63.3802 12.7595 64 13.3797 64 14.139H66ZM66 37.0395V14.139H64V37.0395H66ZM63.4199 40.3173C64.9356 39.9487 66 38.6003 66 37.0395H64C64 37.6741 63.5701 38.2224 62.9473 38.3739L63.4199 40.3173ZM63.141 40.3578L63.3024 40.3385L63.0647 38.3527L62.9033 38.372L63.141 40.3578ZM60.1691 40.3649H63.0222V38.3649H60.1691V40.3649ZM61.1691 48.1381V39.3649H59.1691V48.1381H61.1691ZM49.1183 40.1294L59.5245 48.9027L60.8137 47.3736L50.4075 38.6004L49.1183 40.1294ZM47.3135 40.3649H49.7629V38.3649H47.3135V40.3649ZM48.3135 48.5518V39.3649H46.3135V48.5518H48.3135ZM44.6699 52.1936C46.6791 52.1936 48.3135 50.5615 48.3135 48.5518H46.3135C46.3135 49.4556 45.5758 50.1936 44.6699 50.1936V52.1936ZM17.4663 52.1349L44.6678 52.1936L44.6721 50.1936L17.4706 50.135L17.4663 52.1349ZM6.22631 61.914L18.1127 51.8997L16.8241 50.3702L4.93769 60.3845L6.22631 61.914ZM4.582 51.135V61.1493H6.582V51.135H4.582ZM26.2469 14.1389C26.2469 14.137 26.247 14.1361 26.2471 14.1359C26.2471 14.1356 26.2472 14.1353 26.2474 14.1348C26.2479 14.1338 26.249 14.1317 26.2513 14.1294C26.2536 14.1271 26.2557 14.1259 26.2568 14.1255C26.2573 14.1253 26.2577 14.1252 26.2581 14.1251C26.2584 14.125 26.2595 14.1248 26.2615 14.1248V12.1248C25.1497 12.1248 24.2469 13.0274 24.2469 14.1389H26.2469ZM26.2469 19.4366V14.1389H24.2469V19.4366H26.2469ZM44.6704 18.4366H25.2469V20.4366H44.6704V18.4366ZM48.3139 22.0784C48.3139 20.0687 46.6795 18.4366 44.6704 18.4366V20.4366C45.5763 20.4366 46.3139 21.1746 46.3139 22.0784H48.3139ZM48.3139 34.6466V22.0784H46.3139V34.6466H48.3139ZM47.3146 33.6466H47.3139V35.6466H47.3146V33.6466ZM48.3146 36.012V34.6466H46.3146V36.012H48.3146ZM47.3139 37.012H47.3146V35.012H47.3139V37.012ZM48.3139 37.9994V36.012H46.3139V37.9994H48.3139ZM50.2623 36.9994H47.3139V38.9994H50.2623V36.9994ZM59.448 44.4353L50.9069 37.2348L49.6178 38.764L58.1589 45.9644L59.448 44.4353ZM57.8035 37.9994V45.1999H59.8035V37.9994H57.8035ZM62.9299 36.9994H58.8035V38.9994H62.9299V36.9994ZM62.6344 37.0393C62.6344 37.0415 62.6341 37.0419 62.6342 37.0416C62.6342 37.0415 62.6342 37.0417 62.6338 37.0422C62.6334 37.0428 62.6328 37.0434 62.6319 37.0441C62.6312 37.0446 62.6297 37.0455 62.6268 37.0465L63.233 38.9524C64.0611 38.689 64.6344 37.9224 64.6344 37.0393H62.6344ZM62.6344 14.1389V37.0393H64.6344V14.1389H62.6344ZM62.6197 14.1248C62.6218 14.1248 62.6228 14.125 62.6231 14.1251C62.6235 14.1252 62.6239 14.1253 62.6244 14.1255C62.6255 14.1259 62.6276 14.1271 62.6299 14.1294C62.6322 14.1317 62.6334 14.1338 62.6338 14.1348C62.634 14.1352 62.6341 14.1356 62.6341 14.1359C62.6342 14.1361 62.6344 14.137 62.6344 14.1389H64.6344C64.6344 13.0272 63.7313 12.1248 62.6197 12.1248V14.1248ZM26.2615 14.1248H62.6197V12.1248H26.2615V14.1248ZM2.64789 19.8021C1.3926 19.8021 0.365761 20.8183 0.365761 22.0785H2.36576C2.36576 21.9311 2.48894 21.8021 2.64789 21.8021V19.8021ZM44.6695 19.8021H2.64789V21.8021H44.6695V19.8021ZM46.9469 22.0785C46.9469 20.8219 45.9256 19.8021 44.6695 19.8021V21.8021C44.8223 21.8021 44.9469 21.9277 44.9469 22.0785H46.9469ZM46.9469 48.5518V22.0785H44.9469V48.5518H46.9469ZM44.6695 50.8282C45.9255 50.8282 46.9469 49.8086 46.9469 48.5518H44.9469C44.9469 48.7026 44.8223 48.8282 44.6695 48.8282V50.8282ZM17.1338 48.7699C17.0487 48.7697 16.9733 48.7696 16.9617 48.7696C16.961 48.7696 16.9606 48.7696 16.9605 48.7696C16.9605 48.7696 16.9606 48.7696 16.9607 48.7696C16.962 48.7696 17.958 49.7729 16.9568 50.7696C16.9563 50.7696 16.9559 50.7695 16.9563 50.7695C16.9569 50.7696 16.9586 50.7696 16.9616 50.7696C16.9675 50.7696 16.9782 50.7696 16.9947 50.7696C17.0276 50.7697 17.0832 50.7698 17.1683 50.77C17.5087 50.7707 18.3211 50.7724 20.0384 50.7761C23.4731 50.7833 30.5278 50.7983 44.6674 50.8282L44.6717 48.8282C30.5321 48.7983 23.4773 48.7833 20.0426 48.7761C18.3253 48.7724 17.513 48.7707 17.1725 48.77C17.0874 48.7698 17.0318 48.7697 16.9989 48.7696C16.9825 48.7696 16.9717 48.7696 16.9657 48.7696C16.9628 48.7696 16.961 48.7696 16.9603 48.7696C16.9602 48.7696 16.96 48.7696 16.96 48.7696C16.9598 48.7696 16.9595 48.7696 16.9592 48.7696C15.958 49.7662 16.954 50.7695 16.9553 50.7695C16.9555 50.7695 16.9557 50.7695 16.9558 50.7695C16.9561 50.7695 16.9566 50.7696 16.9574 50.7696C16.969 50.7696 17.0445 50.7697 17.1296 50.7699L17.1338 48.7699ZM16.967 50.7696L17.1296 50.7699L17.1338 48.7699L16.9712 48.7696L16.967 50.7696ZM7.59206 58.9771L17.6134 50.5344L16.3248 49.0048L6.30345 57.4476L7.59206 58.9771ZM5.94776 49.7695V58.2124H7.94776V49.7695H5.94776ZM2.27432 50.7695H6.94776V48.7695H2.27432V50.7695ZM0.365761 48.5518C0.365761 49.5627 1.03123 50.4368 1.98347 50.7263L2.56516 48.8127C2.44074 48.7749 2.36576 48.6669 2.36576 48.5518H0.365761ZM0.365761 22.0785V48.5518H2.36576V22.0785H0.365761ZM3.35875 47.534H4.70242V45.534H3.35875V47.534ZM4.35875 47.8779V46.534H2.35875V47.8779H4.35875ZM4.70242 46.8779H3.35875V48.8779H4.70242V46.8779ZM3.70242 46.534V47.8779H5.70242V46.534H3.70242ZM4.70242 42.8461H3.35875V44.8461H4.70242V42.8461ZM5.70242 45.19V43.8461H3.70242V45.19H5.70242ZM3.35875 46.19H4.70242V44.19H3.35875V46.19ZM2.35875 43.8461V45.19H4.35875V43.8461H2.35875ZM3.35875 29.0548H4.70242V27.0548H3.35875V29.0548ZM4.35875 29.3987V28.0548H2.35875V29.3987H4.35875ZM4.70242 28.3987H3.35875V30.3987H4.70242V28.3987ZM3.70242 28.0548V29.3987H5.70242V28.0548H3.70242ZM4.70242 24.5348H3.35875V26.5348H4.70242V24.5348ZM5.70242 26.8788V25.5348H3.70242V26.8788H5.70242ZM3.35875 27.8788H4.70242V25.8788H3.35875V27.8788ZM2.35875 25.5348V26.8788H4.35875V25.5348H2.35875ZM3.35875 34.2625H4.70242V32.2625H3.35875V34.2625ZM4.35875 34.6065V33.2625H2.35875V34.6065H4.35875ZM4.70242 33.6065H3.35875V35.6065H4.70242V33.6065ZM3.70242 33.2625V34.6065H5.70242V33.2625H3.70242ZM4.70242 37.6382H3.35875V39.6382H4.70242V37.6382ZM5.70242 39.9822V38.6382H3.70242V39.9822H5.70242ZM3.35875 40.9822H4.70242V38.9822H3.35875V40.9822ZM2.35875 38.6382V39.9822H4.35875V38.6382H2.35875ZM3.35875 42.1582H4.70242V40.1582H3.35875V42.1582ZM4.35875 42.5021V41.1582H2.35875V42.5021H4.35875ZM4.70242 41.5021H3.35875V43.5021H4.70242V41.5021ZM3.70242 41.1582V42.5021H5.70242V41.1582H3.70242ZM4.70242 34.9504H3.35875V36.9504H4.70242V34.9504ZM5.70242 37.2944V35.9504H3.70242V37.2944H5.70242ZM3.35875 38.2944H4.70242V36.2944H3.35875V38.2944ZM2.35875 35.9504V37.2944H4.35875V35.9504H2.35875ZM3.35875 31.7426H4.70242V29.7426H3.35875V31.7426ZM4.35875 32.0865V30.7426H2.35875V32.0865H4.35875ZM4.70242 31.0865H3.35875V33.0865H4.70242V31.0865ZM3.70242 30.7426V32.0865H5.70242V30.7426H3.70242ZM4.70242 21.847H3.35875V23.847H4.70242V21.847ZM5.70242 24.1909V22.847H3.70242V24.1909H5.70242ZM3.35875 25.1909H4.70242V23.1909H3.35875V25.1909ZM2.35875 22.847V24.1909H4.35875V22.847H2.35875ZM8.90179 23.847H10.2455V21.847H8.90179V23.847ZM9.90179 24.1909V22.847H7.90179V24.1909H9.90179ZM10.2455 23.1909H8.90179V25.1909H10.2455V23.1909ZM9.24546 22.847V24.1909H11.2455V22.847H9.24546ZM38.4627 21.847H37.119V23.847H38.4627V21.847ZM39.4627 24.1909V22.847H37.4627V24.1909H39.4627ZM37.119 25.1909H38.4627V23.1909H37.119V25.1909ZM36.119 22.847V24.1909H38.119V22.847H36.119ZM11.7574 23.847H13.101V21.847H11.7574V23.847ZM12.7574 24.1909V22.847H10.7574V24.1909H12.7574ZM13.101 23.1909H11.7574V25.1909H13.101V23.1909ZM12.101 22.847V24.1909H14.101V22.847H12.101ZM15.9555 21.847H14.6118V23.847H15.9555V21.847ZM16.9555 24.1909V22.847H14.9555V24.1909H16.9555ZM14.6118 25.1909H15.9555V23.1909H14.6118V25.1909ZM13.6118 22.847V24.1909H15.6118V22.847H13.6118ZM6.21433 23.847H7.558V21.847H6.21433V23.847ZM7.21433 24.1909V22.847H5.21433V24.1909H7.21433ZM7.558 23.1909H6.21433V25.1909H7.558V23.1909ZM6.558 22.847V24.1909H8.558V22.847H6.558ZM21.4985 21.847H20.1548V23.847H21.4985V21.847ZM22.4985 24.1909V22.847H20.4985V24.1909H22.4985ZM20.1548 25.1909H21.4985V23.1909H20.1548V25.1909ZM19.1548 22.847V24.1909H21.1548V22.847H19.1548ZM17.4674 23.847H18.811V21.847H17.4674V23.847ZM18.4674 24.1909V22.847H16.4674V24.1909H18.4674ZM18.811 23.1909H17.4674V25.1909H18.811V23.1909ZM17.811 22.847V24.1909H19.811V22.847H17.811ZM29.8971 21.847H28.5534V23.847H29.8971V21.847ZM30.8971 24.1909V22.847H28.8971V24.1909H30.8971ZM28.5534 25.1909H29.8971V23.1909H28.5534V25.1909ZM27.5534 22.847V24.1909H29.5534V22.847H27.5534ZM31.4079 23.847H32.7515V21.847H31.4079V23.847ZM32.4079 24.1909V22.847H30.4079V24.1909H32.4079ZM32.7515 23.1909H31.4079V25.1909H32.7515V23.1909ZM31.7515 22.847V24.1909H33.7515V22.847H31.7515ZM35.6071 21.847H34.2634V23.847H35.6071V21.847ZM36.6071 24.1909V22.847H34.6071V24.1909H36.6071ZM34.2634 25.1909H35.6071V23.1909H34.2634V25.1909ZM33.2634 22.847V24.1909H35.2634V22.847H33.2634ZM25.866 23.847H27.2096V21.847H25.866V23.847ZM26.866 24.1909V22.847H24.866V24.1909H26.866ZM27.2096 23.1909H25.866V25.1909H27.2096V23.1909ZM26.2096 22.847V24.1909H28.2096V22.847H26.2096ZM24.3541 21.847H23.0104V23.847H24.3541V21.847ZM25.3541 24.1909V22.847H23.3541V24.1909H25.3541ZM23.0104 25.1909H24.3541V23.1909H23.0104V25.1909ZM22.0104 22.847V24.1909H24.0104V22.847H22.0104ZM39.8065 23.847H41.1501V21.847H39.8065V23.847ZM40.8065 24.1909V22.847H38.8065V24.1909H40.8065ZM41.1501 23.1909H39.8065V25.1909H41.1501V23.1909ZM40.1501 22.847V24.1909H42.1501V22.847H40.1501ZM44.0046 21.847H42.6609V23.847H44.0046V21.847ZM45.0046 24.1909V22.847H43.0046V24.1909H45.0046ZM42.6609 25.1909H44.0046V23.1909H42.6609V25.1909ZM41.6609 22.847V24.1909H43.6609V22.847H41.6609ZM42.6609 29.0548H44.0046V27.0548H42.6609V29.0548ZM43.6609 29.3987V28.0548H41.6609V29.3987H43.6609ZM44.0046 28.3987H42.6609V30.3987H44.0046V28.3987ZM43.0046 28.0548V29.3987H45.0046V28.0548H43.0046ZM44.0046 24.5348H42.6609V26.5348H44.0046V24.5348ZM45.0046 26.8788V25.5348H43.0046V26.8788H45.0046ZM42.6609 27.8788H44.0046V25.8788H42.6609V27.8788ZM41.6609 25.5348V26.8788H43.6609V25.5348H41.6609ZM42.6609 31.7426H44.0046V29.7426H42.6609V31.7426ZM43.6609 32.0865V30.7426H41.6609V32.0865H43.6609ZM44.0046 31.0865H42.6609V33.0865H44.0046V31.0865ZM43.0046 30.7426V32.0865H45.0046V30.7426H43.0046ZM44.0046 32.4306H42.6609V34.4306H44.0046V32.4306ZM45.0046 34.7745V33.4306H43.0046V34.7745H45.0046ZM42.6609 35.7745H44.0046V33.7745H42.6609V35.7745ZM41.6609 33.4306V34.7745H43.6609V33.4306H41.6609ZM42.6609 36.9504H44.0046V34.9504H42.6609V36.9504ZM43.6609 37.2944V35.9504H41.6609V37.2944H43.6609ZM44.0046 36.2944H42.6609V38.2944H44.0046V36.2944ZM43.0046 35.9504V37.2944H45.0046V35.9504H43.0046ZM44.0046 37.6382H42.6609V39.6382H44.0046V37.6382ZM45.0046 39.9822V38.6382H43.0046V39.9822H45.0046ZM42.6609 40.9822H44.0046V38.9822H42.6609V40.9822ZM41.6609 38.6382V39.9822H43.6609V38.6382H41.6609ZM42.6609 44.8461H44.0046V42.8461H42.6609V44.8461ZM43.6609 45.19V43.8461H41.6609V45.19H43.6609ZM44.0046 44.19H42.6609V46.19H44.0046V44.19ZM43.0046 43.8461V45.19H45.0046V43.8461H43.0046ZM44.0046 40.1582H42.6609V42.1582H44.0046V40.1582ZM45.0046 42.5021V41.1582H43.0046V42.5021H45.0046ZM42.6609 43.5021H44.0046V41.5021H42.6609V43.5021ZM41.6609 41.1582V42.5021H43.6609V41.1582H41.6609ZM42.6609 47.534H44.0046V45.534H42.6609V47.534ZM43.6609 47.8779V46.534H41.6609V47.8779H43.6609ZM44.0046 46.8779H42.6609V48.8779H44.0046V46.8779ZM43.0046 46.534V47.8779H45.0046V46.534H43.0046ZM21.4985 45.534H20.1548V47.534H21.4985V45.534ZM22.4985 47.8779V46.534H20.4985V47.8779H22.4985ZM20.1548 48.8779H21.4985V46.8779H20.1548V48.8779ZM19.1548 46.534V47.8779H21.1548V46.534H19.1548ZM11.7574 47.534H13.101V45.534H11.7574V47.534ZM12.7574 47.8779V46.534H10.7574V47.8779H12.7574ZM13.101 46.8779H11.7574V48.8779H13.101V46.8779ZM12.101 46.534V47.8779H14.101V46.534H12.101ZM36.9558 48.8223L38.3588 48.8462L38.3927 46.8465L36.9897 46.8226L36.9558 48.8223ZM35.9961 46.4406L35.9729 47.8055L37.9726 47.8395L37.9958 46.4746L35.9961 46.4406ZM38.416 45.4815L37.0129 45.4577L36.979 47.4574L38.382 47.4813L38.416 45.4815ZM39.3756 47.8633L39.3988 46.4984L37.3991 46.4644L37.3759 47.8293L39.3756 47.8633ZM23.0104 47.534H24.3541V45.534H23.0104V47.534ZM24.0104 47.8779V46.534H22.0104V47.8779H24.0104ZM24.3541 46.8779H23.0104V48.8779H24.3541V46.8779ZM23.3541 46.534V47.8779H25.3541V46.534H23.3541ZM29.8971 45.534H28.5534V47.534H29.8971V45.534ZM30.8971 47.8779V46.534H28.8971V47.8779H30.8971ZM28.5534 48.8779H29.8971V46.8779H28.5534V48.8779ZM27.5534 46.534V47.8779H29.5534V46.534H27.5534ZM8.90179 47.534H10.2455V45.534H8.90179V47.534ZM9.90179 47.8779V46.534H7.90179V47.8779H9.90179ZM10.2455 46.8779H8.90179V48.8779H10.2455V46.8779ZM9.24546 46.534V47.8779H11.2455V46.534H9.24546ZM15.9555 45.534H14.6118V47.534H15.9555V45.534ZM16.9555 47.8779V46.534H14.9555V47.8779H16.9555ZM14.6118 48.8779H15.9555V46.8779H14.6118V48.8779ZM13.6118 46.534V47.8779H15.6118V46.534H13.6118ZM6.21433 47.534H7.558V45.534H6.21433V47.534ZM7.21433 47.8779V46.534H5.21433V47.8779H7.21433ZM7.558 46.8779H6.21433V48.8779H7.558V46.8779ZM6.558 46.534V47.8779H8.558V46.534H6.558ZM32.7515 45.534H31.4079V47.534H32.7515V45.534ZM33.7515 47.8779V46.534H31.7515V47.8779H33.7515ZM31.4079 48.8779H32.7515V46.8779H31.4079V48.8779ZM30.4079 46.534V47.8779H32.4079V46.534H30.4079ZM25.866 47.534H27.2096V45.534H25.866V47.534ZM26.866 47.8779V46.534H24.866V47.8779H26.866ZM27.2096 46.8779H25.866V48.8779H27.2096V46.8779ZM26.2096 46.534V47.8779H28.2096V46.534H26.2096ZM39.8278 47.534L41.1487 47.5359L41.1516 45.5359L39.8307 45.534L39.8278 47.534ZM40.8063 47.8929L40.8291 46.5509L38.8294 46.517L38.8066 47.859L40.8063 47.8929ZM41.1516 46.8779L39.8079 46.876L39.805 48.876L41.1487 48.8779L41.1516 46.8779ZM40.1501 46.5359V47.8779H42.1501V46.5359H40.1501ZM34.2634 47.534H35.6071V45.534H34.2634V47.534ZM35.2634 47.8779V46.534H33.2634V47.8779H35.2634ZM35.6071 46.8779H34.2634V48.8779H35.6071V46.8779ZM34.6071 46.534V47.8779H36.6071V46.534H34.6071ZM18.811 45.534H17.4674V47.534H18.811V45.534ZM19.811 47.8779V46.534H17.811V47.8779H19.811ZM17.4674 48.8779H18.811V46.8779H17.4674V48.8779ZM16.4674 46.534V47.8779H18.4674V46.534H16.4674ZM48.7083 35.6065H50.2199V33.6065H48.7083V35.6065ZM49.7083 35.9504V34.6065H47.7083V35.9504H49.7083ZM50.2199 34.9504H48.7083V36.9504H50.2199V34.9504ZM49.2199 34.6065V35.9504H51.2199V34.6065H49.2199ZM58.9536 33.6065H57.4419V35.6065H58.9536V33.6065ZM59.9536 35.9504V34.6065H57.9536V35.9504H59.9536ZM57.4419 36.9504H58.9536V34.9504H57.4419V36.9504ZM56.4419 34.6065V35.9504H58.4419V34.6065H56.4419ZM51.5638 35.6065H53.0755V33.6065H51.5638V35.6065ZM52.5638 35.9504V34.6065H50.5638V35.9504H52.5638ZM53.0755 34.9504H51.5638V36.9504H53.0755V34.9504ZM52.0755 34.6065V35.9504H54.0755V34.6065H52.0755ZM56.098 33.6065H54.5864V35.6065H56.098V33.6065ZM57.098 35.9504V34.6065H55.098V35.9504H57.098ZM54.5864 36.9504H56.098V34.9504H54.5864V36.9504ZM53.5864 34.6065V35.9504H55.5864V34.6065H53.5864ZM60.2964 35.6065H61.64V33.6065H60.2964V35.6065ZM61.2964 35.9504V34.6065H59.2964V35.9504H61.2964ZM61.64 34.9504H60.2964V36.9504H61.64V34.9504ZM60.64 34.6065V35.9504H62.64V34.6065H60.64ZM61.64 22.5189H60.2964V24.5189H61.64V22.5189ZM62.64 24.8629V23.5189H60.64V24.8629H62.64ZM60.2964 25.8629H61.64V23.8629H60.2964V25.8629ZM59.2964 23.5189V24.8629H61.2964V23.5189H59.2964ZM60.2964 27.3748H61.64V25.3748H60.2964V27.3748ZM61.2964 27.7187V26.3748H59.2964V27.7187H61.2964ZM61.64 26.7187H60.2964V28.7187H61.64V26.7187ZM60.64 26.3748V27.7187H62.64V26.3748H60.64ZM61.64 28.0627H60.2964V30.0627H61.64V28.0627ZM62.64 30.4066V29.0627H60.64V30.4066H62.64ZM60.2964 31.4066H61.64V29.4066H60.2964V31.4066ZM59.2964 29.0627V30.4066H61.2964V29.0627H59.2964ZM60.2964 21.6631H61.64V19.6631H60.2964V21.6631ZM61.2964 22.007V20.6631H59.2964V22.007H61.2964ZM61.64 21.007H60.2964V23.007H61.64V21.007ZM60.64 20.6631V22.007H62.64V20.6631H60.64ZM61.64 16.9752H60.2964V18.9752H61.64V16.9752ZM62.64 19.3191V17.9752H60.64V19.3191H62.64ZM60.2964 20.3191H61.64V18.3191H60.2964V20.3191ZM59.2964 17.9752V19.3191H61.2964V17.9752H59.2964ZM60.2964 32.9186H61.64V30.9186H60.2964V32.9186ZM61.2964 33.2625V31.9186H59.2964V33.2625H61.2964ZM61.64 32.2625H60.2964V34.2625H61.64V32.2625ZM60.64 31.9186V33.2625H62.64V31.9186H60.64ZM61.64 14.1194H60.2964V16.1194H61.64V14.1194ZM62.64 16.4633V15.1194H60.64V16.4633H62.64ZM60.2964 17.4633H61.64V15.4633H60.2964V17.4633ZM59.2964 15.1194V16.4633H61.2964V15.1194H59.2964ZM43.8365 16.1194H45.1802V14.1194H43.8365V16.1194ZM44.8365 16.4633V15.1194H42.8365V16.4633H44.8365ZM45.1802 15.4633H43.8365V17.4633H45.1802V15.4633ZM44.1802 15.1194V16.4633H46.1802V15.1194H44.1802ZM56.0981 14.1194H54.7545V16.1194H56.0981V14.1194ZM57.0981 16.4633V15.1194H55.0981V16.4633H57.0981ZM54.7545 17.4633H56.0981V15.4633H54.7545V17.4633ZM53.7545 15.1194V16.4633H55.7545V15.1194H53.7545ZM52.067 16.1194H53.4107V14.1194H52.067V16.1194ZM53.067 16.4633V15.1194H51.067V16.4633H53.067ZM53.4107 15.4633H52.067V17.4633H53.4107V15.4633ZM52.4107 15.1194V16.4633H54.4107V15.1194H52.4107ZM39.6383 14.1194H38.2946V16.1194H39.6383V14.1194ZM40.6383 16.4633V15.1194H38.6383V16.4633H40.6383ZM38.2946 17.4633H39.6383V15.4633H38.2946V17.4633ZM37.2946 15.1194V16.4633H39.2946V15.1194H37.2946ZM35.6072 16.1194H36.9508V14.1194H35.6072V16.1194ZM36.6072 16.4633V15.1194H34.6072V16.4633H36.6072ZM36.9508 15.4633H35.6072V17.4633H36.9508V15.4633ZM35.9508 15.1194V16.4633H37.9508V15.1194H35.9508ZM42.3258 14.1194H40.9821V16.1194H42.3258V14.1194ZM43.3258 16.4633V15.1194H41.3258V16.4633H43.3258ZM40.9821 17.4633H42.3258V15.4633H40.9821V17.4633ZM39.9821 15.1194V16.4633H41.9821V15.1194H39.9821ZM57.6101 16.1194H58.9537V14.1194H57.6101V16.1194ZM58.6101 16.4633V15.1194H56.6101V16.4633H58.6101ZM58.9537 15.4633H57.6101V17.4633H58.9537V15.4633ZM57.9537 15.1194V16.4633H59.9537V15.1194H57.9537ZM34.0953 14.1194H32.7516V16.1194H34.0953V14.1194ZM35.0953 16.4633V15.1194H33.0953V16.4633H35.0953ZM32.7516 17.4633H34.0953V15.4633H32.7516V17.4633ZM31.7516 15.1194V16.4633H33.7516V15.1194H31.7516ZM46.5251 16.1194H47.8688V14.1194H46.5251V16.1194ZM47.5251 16.4633V15.1194H45.5251V16.4633H47.5251ZM47.8688 15.4633H46.5251V17.4633H47.8688V15.4633ZM46.8688 15.1194V16.4633H48.8688V15.1194H46.8688ZM31.409 14.1194H30.0653V16.1194H31.409V14.1194ZM32.409 16.4633V15.1194H30.409V16.4633H32.409ZM30.0653 17.4633H31.409V15.4633H30.0653V17.4633ZM29.0653 15.1194V16.4633H31.0653V15.1194H29.0653ZM49.3795 16.1194H50.7232V14.1194H49.3795V16.1194ZM50.3795 16.4633V15.1194H48.3795V16.4633H50.3795ZM50.7232 15.4633H49.3795V17.4633H50.7232V15.4633ZM49.7232 15.1194V16.4633H51.7232V15.1194H49.7232ZM28.5534 14.1194H27.2097V16.1194H28.5534V14.1194ZM29.5534 16.4633V15.1194H27.5534V16.4633H29.5534ZM27.2097 17.4633H28.5534V15.4633H27.2097V17.4633ZM26.2097 15.1194V16.4633H28.2097V15.1194H26.2097ZM27.2097 18.4712H28.5534V16.4712H27.2097V18.4712ZM28.2097 18.4792V17.4712H26.2097V18.4792H28.2097ZM28.5534 17.4792H27.2097V19.4792H28.5534V17.4792ZM27.5534 17.4712V18.4792H29.5534V17.4712H27.5534ZM12.934 29.5747C10.1584 29.5747 7.90295 31.8315 7.90295 34.6065H9.90295C9.90295 32.9355 11.2635 31.5747 12.934 31.5747V29.5747ZM17.965 34.6065C17.965 31.8314 15.7094 29.5747 12.934 29.5747V31.5747C14.6043 31.5747 15.965 32.9355 15.965 34.6065H17.965ZM12.934 39.6383C15.7094 39.6383 17.965 37.3816 17.965 34.6065H15.965C15.965 36.2775 14.6043 37.6383 12.934 37.6383V39.6383ZM7.90295 34.6065C7.90295 37.3816 10.1585 39.6383 12.934 39.6383V37.6383C11.2636 37.6383 9.90295 36.2775 9.90295 34.6065H7.90295ZM12.9341 36.2742C12.0161 36.2742 11.267 35.5254 11.267 34.6065H9.267C9.267 36.6297 10.9113 38.2742 12.9341 38.2742V36.2742ZM14.6013 34.6065C14.6013 35.5254 13.8521 36.2742 12.9341 36.2742V38.2742C14.9569 38.2742 16.6013 36.6297 16.6013 34.6065H14.6013ZM12.9341 32.9388C13.8521 32.9388 14.6013 33.6876 14.6013 34.6065H16.6013C16.6013 32.5833 14.9569 30.9388 12.9341 30.9388V32.9388ZM11.267 34.6065C11.267 33.6876 12.0161 32.9388 12.9341 32.9388V30.9388C10.9113 30.9388 9.267 32.5833 9.267 34.6065H11.267ZM26.7137 34.6065C26.7137 36.2775 25.3531 37.6383 23.6827 37.6383V39.6383C26.4582 39.6383 28.7137 37.3816 28.7137 34.6065H26.7137ZM23.6827 31.5747C25.353 31.5747 26.7137 32.9355 26.7137 34.6065H28.7137C28.7137 31.8314 26.4581 29.5747 23.6827 29.5747V31.5747ZM20.6516 34.6065C20.6516 32.9355 22.0123 31.5747 23.6827 31.5747V29.5747C20.9072 29.5747 18.6516 31.8314 18.6516 34.6065H20.6516ZM23.6827 37.6383C22.0122 37.6383 20.6516 36.2775 20.6516 34.6065H18.6516C18.6516 37.3816 20.9071 39.6383 23.6827 39.6383V37.6383ZM27.3487 34.6065C27.3487 32.5833 25.7044 30.9388 23.6815 30.9388V32.9388C24.5996 32.9388 25.3487 33.6876 25.3487 34.6065H27.3487ZM23.6815 38.2742C25.7043 38.2742 27.3487 36.6297 27.3487 34.6065H25.3487C25.3487 35.5254 24.5995 36.2742 23.6815 36.2742V38.2742ZM20.0144 34.6065C20.0144 36.6297 21.6587 38.2742 23.6815 38.2742V36.2742C22.7635 36.2742 22.0144 35.5254 22.0144 34.6065H20.0144ZM23.6815 30.9388C21.6587 30.9388 20.0144 32.5833 20.0144 34.6065H22.0144C22.0144 33.6876 22.7635 32.9388 23.6815 32.9388V30.9388ZM34.4333 39.6382C37.2088 39.6382 39.4643 37.3814 39.4643 34.6063H37.4643C37.4643 36.2773 36.1037 37.6382 34.4333 37.6382V39.6382ZM29.4023 34.6063C29.4023 37.3814 31.6577 39.6382 34.4333 39.6382V37.6382C32.7628 37.6382 31.4023 36.2773 31.4023 34.6063H29.4023ZM34.4333 29.5745C31.6578 29.5745 29.4023 31.8313 29.4023 34.6063H31.4023C31.4023 32.9354 32.7629 31.5745 34.4333 31.5745V29.5745ZM39.4643 34.6063C39.4643 31.8313 37.2087 29.5745 34.4333 29.5745V31.5745C36.1036 31.5745 37.4643 32.9354 37.4643 34.6063H39.4643ZM34.4328 32.9387C35.3509 32.9387 36.1 33.6875 36.1 34.6064H38.1C38.1 32.5832 36.4557 30.9387 34.4328 30.9387V32.9387ZM32.7657 34.6064C32.7657 33.6875 33.5148 32.9387 34.4328 32.9387V30.9387C32.41 30.9387 30.7657 32.5832 30.7657 34.6064H32.7657ZM34.4328 36.274C33.5148 36.274 32.7657 35.5252 32.7657 34.6064H30.7657C30.7657 36.6296 32.41 38.274 34.4328 38.274V36.274ZM36.1 34.6064C36.1 35.5252 35.3508 36.274 34.4328 36.274V38.274C36.4556 38.274 38.1 36.6296 38.1 34.6064H36.1ZM56.7778 24.8629C56.7778 26.5339 55.4172 27.8947 53.7468 27.8947V29.8947C56.5223 29.8947 58.7778 27.6379 58.7778 24.8629H56.7778ZM53.7468 21.831C55.4172 21.831 56.7778 23.1919 56.7778 24.8629H58.7778C58.7778 22.0878 56.5222 19.831 53.7468 19.831V21.831ZM50.7158 24.8629C50.7158 23.1919 52.0764 21.831 53.7468 21.831V19.831C50.9713 19.831 48.7158 22.0878 48.7158 24.8629H50.7158ZM53.7468 27.8947C52.0764 27.8947 50.7158 26.5338 50.7158 24.8629H48.7158C48.7158 27.6379 50.9713 29.8947 53.7468 29.8947V27.8947ZM57.4144 24.8628C57.4144 22.8396 55.7701 21.1951 53.7473 21.1951V23.1951C54.6653 23.1951 55.4144 23.9439 55.4144 24.8628H57.4144ZM53.7473 28.5305C55.7701 28.5305 57.4144 26.886 57.4144 24.8628H55.4144C55.4144 25.7816 54.6653 26.5305 53.7473 26.5305V28.5305ZM50.0801 24.8628C50.0801 26.886 51.7245 28.5305 53.7473 28.5305V26.5305C52.8293 26.5305 52.0801 25.7816 52.0801 24.8628H50.0801ZM53.7473 21.1951C51.7245 21.1951 50.0801 22.8396 50.0801 24.8628H52.0801C52.0801 23.9439 52.8293 23.1951 53.7473 23.1951V21.1951ZM45.0133 8.72762H46.357V6.72762H45.0133V8.72762ZM46.0133 9.07156V7.72762H44.0133V9.07156H46.0133ZM46.357 8.07156H45.0133V10.0716H46.357V8.07156ZM45.357 7.72762V9.07156H47.357V7.72762H45.357ZM43.5014 6.72762H42.1577V8.72762H43.5014V6.72762ZM44.5014 9.07156V7.72762H42.5014V9.07156H44.5014ZM42.1577 10.0716H43.5014V8.07156H42.1577V10.0716ZM41.1577 7.72762V9.07156H43.1577V7.72762H41.1577ZM36.7828 8.72762H38.1265V6.72762H36.7828V8.72762ZM37.7828 9.07156V7.72762H35.7828V9.07156H37.7828ZM38.1265 8.07156H36.7828V10.0716H38.1265V8.07156ZM37.1265 7.72762V9.07156H39.1265V7.72762H37.1265ZM49.0444 6.72762H47.7008V8.72762H49.0444V6.72762ZM50.0444 9.07156V7.72762H48.0444V9.07156H50.0444ZM47.7008 10.0716H49.0444V8.07156H47.7008V10.0716ZM46.7008 7.72762V9.07156H48.7008V7.72762H46.7008ZM4.03113 0.00794399H2.68746V2.00794H4.03113V0.00794399ZM5.03113 2.35188V1.00794H3.03113V2.35188H5.03113ZM2.68746 3.35188H4.03113V1.35188H2.68746V3.35188ZM1.68746 1.00794V2.35188H3.68746V1.00794H1.68746ZM8.22935 2.00794H9.57301V0.00794399H8.22935V2.00794ZM9.22935 2.35188V1.00794H7.22935V2.35188H9.22935ZM9.57301 1.35188H8.22935V3.35188H9.57301V1.35188ZM8.57301 1.00794V2.35188H10.573V1.00794H8.57301ZM23.8497 6.22372H22.5061V8.22372H23.8497V6.22372ZM24.8497 8.56766V7.22372H22.8497V8.56766H24.8497ZM22.5061 9.56766H23.8497V7.56766H22.5061V9.56766ZM21.5061 7.22372V8.56766H23.5061V7.22372H21.5061ZM19.8186 8.22372H21.1623V6.22372H19.8186V8.22372ZM20.8186 8.56766V7.22372H18.8186V8.56766H20.8186ZM21.1623 7.56766H19.8186V9.56766H21.1623V7.56766ZM20.1623 7.22372V8.56766H22.1623V7.22372H20.1623ZM18.476 6.22372H17.1323V8.22372H18.476V6.22372ZM19.476 8.56766V7.22372H17.476V8.56766H19.476ZM17.1323 9.56766H18.476V7.56766H17.1323V9.56766ZM16.1323 7.22372V8.56766H18.1323V7.22372H16.1323ZM27.0416 55.4296H28.3853V53.4296H27.0416V55.4296ZM28.0416 55.7736V54.4296H26.0416V55.7736H28.0416ZM28.3853 54.7736H27.0416V56.7736H28.3853V54.7736ZM27.3853 54.4296V55.7736H29.3853V54.4296H27.3853ZM33.7602 53.4296H32.4165V55.4296H33.7602V53.4296ZM34.7602 55.7736V54.4296H32.7602V55.7736H34.7602ZM32.4165 56.7736H33.7602V54.7736H32.4165V56.7736ZM31.4165 54.4296V55.7736H33.4165V54.4296H31.4165ZM29.7279 55.4296H31.0716V53.4296H29.7279V55.4296ZM30.7279 55.7736V54.4296H28.7279V55.7736H30.7279ZM31.0716 54.7736H29.7279V56.7736H31.0716V54.7736ZM30.0716 54.4296V55.7736H32.0716V54.4296H30.0716ZM60.9687 52.2536H59.6251V54.2536H60.9687V52.2536ZM61.9687 54.5976V53.2536H59.9687V54.5976H61.9687ZM59.6251 55.5976H60.9687V53.5976H59.6251V55.5976ZM58.6251 53.2536V54.5976H60.6251V53.2536H58.6251ZM54.0832 54.2536H55.4269V52.2536H54.0832V54.2536ZM55.0832 54.5976V53.2536H53.0832V54.5976H55.0832ZM55.4269 53.5976H54.0832V55.5976H55.4269V53.5976ZM54.4269 53.2536V54.5976H56.4269V53.2536H54.4269ZM58.1132 52.2536H56.7695V54.2536H58.1132V52.2536ZM59.1132 54.5976V53.2536H57.1132V54.5976H59.1132ZM56.7695 55.5976H58.1132V53.5976H56.7695V55.5976ZM55.7695 53.2536V54.5976H57.7695V53.2536H55.7695ZM31.744 -1H30.4003V1H31.744V-1ZM32.744 1.34394V0H30.744V1.34394H32.744ZM30.4003 2.34394H31.744V0.34394H30.4003V2.34394ZM29.4003 0V1.34394H31.4003V0H29.4003ZM33.0878 1H34.4315V-1H33.0878V1ZM34.0878 1.34394V0H32.0878V1.34394H34.0878ZM34.4315 0.34394H33.0878V2.34394H34.4315V0.34394ZM33.4315 0V1.34394H35.4315V0H33.4315ZM58.7886 4.03977H57.4395V6.03977H58.7886V4.03977ZM57.7886 3.69834V5.03977H59.7886V3.69834H57.7886ZM60.1292 2.69834H58.7886V4.69834H60.1292V2.69834ZM59.1292 2.34903V3.69834H61.1292V2.34903H59.1292ZM58.7886 3.34903H60.1292V1.34903H58.7886V3.34903ZM57.7886 1.00794V2.34903H59.7886V1.00794H57.7886ZM57.4395 2.00794H58.7886V0.00794399H57.4395V2.00794ZM58.4395 2.34903V1.00794H56.4395V2.34903H58.4395ZM56.0982 3.34903H57.4395V1.34903H56.0982V3.34903ZM57.0982 3.69834V2.34903H55.0982V3.69834H57.0982ZM57.4395 2.69834H56.0982V4.69834H57.4395V2.69834ZM58.4395 5.03977V3.69834H56.4395V5.03977H58.4395ZM6.54808 13.4315H7.89724V11.4315H6.54808V13.4315ZM5.54808 11.0904V12.4315H7.54808V11.0904H5.54808ZM5.20682 12.0904H6.54808V10.0904H5.20682V12.0904ZM4.20682 9.74105V11.0904H6.20682V9.74105H4.20682ZM6.54808 8.74105H5.20682V10.7411H6.54808V8.74105ZM5.54808 8.39963V9.74105H7.54808V8.39963H5.54808ZM7.89724 7.39963H6.54808V9.39963H7.89724V7.39963ZM8.89724 9.74105V8.39963H6.89724V9.74105H8.89724ZM9.23783 8.74105H7.89724V10.7411H9.23783V8.74105ZM10.2378 11.0904V9.74105H8.23783V11.0904H10.2378ZM7.89724 12.0904H9.23783V10.0904H7.89724V12.0904ZM8.89724 12.4315V11.0904H6.89724V12.4315H8.89724ZM46.3452 55.9387V54.5976H44.3452V55.9387H46.3452ZM44.0046 56.9387H45.3452V54.9387H44.0046V56.9387ZM45.0046 57.288V55.9387H43.0046V57.288H45.0046ZM45.3452 56.288H44.0046V58.288H45.3452V56.288ZM46.3452 58.6294V57.288H44.3452V58.6294H46.3452ZM46.6944 57.6294H45.3452V59.6294H46.6944V57.6294ZM45.6944 57.288V58.6294H47.6944V57.288H45.6944ZM48.0356 56.288H46.6944V58.288H48.0356V56.288ZM47.0356 55.9387V57.288H49.0356V55.9387H47.0356ZM46.6944 56.9387H48.0356V54.9387H46.6944V56.9387ZM45.6944 54.5976V55.9387H47.6944V54.5976H45.6944ZM45.3452 55.5976H46.6944V53.5976H45.3452V55.5976ZM17.4729 55.2695V56.611H19.4729V55.2695H17.4729ZM19.822 54.2695H18.4729V56.2695H19.822V54.2695ZM20.822 56.611V55.2695H18.822V56.611H20.822ZM21.1633 55.611H19.822V57.611H21.1633V55.611ZM22.1633 57.9603V56.611H20.1633V57.9603H22.1633ZM19.822 58.9603H21.1633V56.9603H19.822V58.9603ZM20.822 59.3014V57.9603H18.822V59.3014H20.822ZM18.4729 60.3014H19.822V58.3014H18.4729V60.3014ZM17.4729 57.9603V59.3014H19.4729V57.9603H17.4729ZM17.1323 58.9603H18.4729V56.9603H17.1323V58.9603ZM16.1323 56.611V57.9603H18.1323V56.611H16.1323ZM18.4729 55.611H17.1323V57.611H18.4729V55.611Z" fill="#FF9419" mask="url(#path-1-inside-1)"/>
</g>
<path id="Path Copy 9" opacity="0.45" d="M12.9324 37.2741C11.4619 37.2741 10.2652 36.0775 10.2652 34.6065C10.2652 33.1354 11.462 31.9388 12.9324 31.9388C14.4028 31.9388 15.5995 33.1354 15.5995 34.6065C15.5995 36.0775 14.4028 37.2741 12.9324 37.2741Z" fill="#FF9419"/>
<path id="Path Copy 7" opacity="0.45" d="M23.6822 31.9388C25.1527 31.9388 26.3494 33.1354 26.3494 34.6065C26.3494 36.0775 25.1526 37.2741 23.6822 37.2741C22.2118 37.2741 21.0151 36.0775 21.0151 34.6065C21.0151 33.1354 22.2118 31.9388 23.6822 31.9388Z" fill="#FF9419"/>
<path id="Path Copy 8" opacity="0.45" d="M34.4309 31.9388C35.9014 31.9388 37.0981 33.1354 37.0981 34.6065C37.0981 36.0775 35.9013 37.2741 34.4309 37.2741C32.9605 37.2741 31.7638 36.0775 31.7638 34.6065C31.7638 33.1354 32.9605 31.9388 34.4309 31.9388Z" fill="#FF9419"/>
</g>
</svg>
