<svg width="65" height="65" viewBox="0 0 65 65" fill="none" xmlns="http://www.w3.org/2000/svg">
<g id="key-to-success">
<g id="Combined Shape">
<mask id="path-1-inside-1" fill="white">
<path fill-rule="evenodd" clip-rule="evenodd" d="M3.00756 31.5725C0.0826727 35.0116 0.841689 41.1268 2.79401 45.47C4.17818 48.5491 6.21189 51.1221 8.5301 52.7485C8.61047 54.9978 9.27043 57.2527 10.5905 59.2663C14.4491 65.1529 22.3142 66.759 28.1544 62.9038C33.1445 59.6087 35.0446 53.3605 33.1003 47.9537L63.6705 27.7696C65.0314 26.8711 65.4099 25.0287 64.5146 23.6627C63.6228 22.3028 61.793 21.909 60.4226 22.8153L58.1272 24.3308L51.9752 14.9464L47.6092 17.8294L53.7611 27.2136L51.0782 28.9849L47.3156 23.2456L42.9496 26.1286L46.7121 31.8677L29.8616 42.9933C26.7603 40.0662 22.4737 38.9546 18.4618 39.8394C17.3006 36.7509 15.5362 34.1945 13.5805 32.4105C16.1026 30.8011 17.7002 27.9905 17.7002 24.9099C17.7002 20.0126 13.7299 16.028 8.8501 16.028C7.67183 16.028 6.71334 15.0662 6.71334 13.8836C6.71334 12.7015 7.67176 11.7395 8.8501 11.7395C10.028 11.7395 10.9865 12.7014 10.9865 13.8836V14.5631H17.7002V13.8836C17.7002 10.2707 15.5119 7.02906 12.2068 5.66935V0H5.49343V5.66908C2.18801 7.0258 0 10.2674 0 13.8837C0 18.781 3.97031 22.7655 8.8501 22.7655C10.028 22.7655 10.9865 23.7274 10.9865 24.9099C10.9865 26.0921 10.0281 27.054 8.8501 27.054C7.67183 27.054 6.71334 26.0922 6.71334 24.9099V24.2304H0V24.9099C0 27.5107 1.13859 29.9169 3.00756 31.5725ZM49.4844 18.2175L51.5877 16.8289L56.9949 25.0779L54.8917 26.4665L49.4844 18.2175ZM46.9275 25.1281L44.8242 26.5167L47.8422 31.1206L49.9454 29.7319L46.9275 25.1281ZM61.1686 23.9506C61.9042 23.4645 62.8997 23.6698 63.3847 24.4098C63.9278 25.2386 63.5705 26.2097 62.9274 26.6341L32.5658 46.6805C32.3327 46.2032 32.0786 45.7321 31.78 45.2767C31.4837 44.8244 31.1615 44.3955 30.8164 43.9906C33.4163 42.2742 36.6894 40.1144 40.1396 37.8377C48.4103 32.3801 57.6984 26.2511 61.1686 23.9506ZM27.4105 61.7684C32.6283 58.323 34.0806 51.2601 30.6479 46.024C27.2015 40.7661 20.1773 39.3303 14.9598 42.7747C11.7416 44.8998 9.96162 48.4016 9.87109 52.0017C10.6278 52.4648 11.3752 52.7879 12.0983 52.9682C12.1051 52.7535 12.1226 52.5379 12.1668 52.3232C12.5363 50.5275 14.1068 49.338 15.8147 49.338C18.1826 49.338 19.9451 51.5177 19.4683 53.8355C19.1016 55.6211 17.5385 56.821 15.8207 56.821C14.3335 56.821 12.9253 55.9369 12.3414 54.4171C11.5598 54.2861 10.7576 54.0163 9.95011 53.6091C10.1484 55.3109 10.7219 56.9929 11.7225 58.5191C15.1689 63.777 22.1931 65.2129 27.4105 61.7684ZM15.2046 52.7764C14.6609 53.0225 14.0696 53.1347 13.4501 53.1387C13.4459 52.959 13.456 52.7783 13.493 52.5979C13.727 51.4618 14.721 50.6971 15.8149 50.6971C16.2801 50.6971 16.7166 50.8448 17.0943 51.0889C16.5914 51.8586 15.9629 52.4332 15.2046 52.7764ZM18.1421 53.5606C18.2396 53.0858 18.1903 52.6043 18.0081 52.1665C17.3971 52.989 16.6341 53.62 15.761 54.0152C15.1776 54.2794 14.559 54.4329 13.918 54.4864C14.365 55.0938 15.0612 55.4619 15.8205 55.4619C16.9165 55.4619 17.9087 54.6939 18.1421 53.5606ZM17.1525 40.2102C16.1235 40.5573 15.1342 41.0307 14.2124 41.6392C10.8753 43.8428 8.92104 47.3689 8.56923 51.0798C6.75253 49.5862 5.16103 47.4358 4.02623 44.9111C2.30311 41.0769 1.47008 35.3799 4.09658 32.3981C4.53554 32.6796 4.99921 32.929 5.49118 33.1322V38.8653H12.2045V33.1319C12.2197 33.1256 12.2344 33.1186 12.2491 33.1115C12.262 33.1053 12.2749 33.0991 12.2881 33.0935C14.4527 34.9208 16.1211 37.5133 17.1525 40.2102ZM8.84748 28.4131C7.15408 28.4131 5.73842 27.197 5.42236 25.5895H1.38244C1.56207 27.5791 2.52523 29.3892 4.0065 30.6512C4.31545 30.4247 4.63802 30.2186 4.98943 30.0595C6.00039 29.6023 7.11657 29.4619 8.30574 29.6428L8.10275 30.9865C7.17568 30.8465 6.31544 30.95 5.54613 31.2984C5.4612 31.3368 5.38122 31.3842 5.30123 31.4316C5.2709 31.4496 5.24056 31.4676 5.20995 31.4851C5.84488 31.8404 6.39951 32.0287 6.68926 32.127L6.6893 32.1271L6.68936 32.1271C6.75605 32.1497 6.8087 32.1676 6.84506 32.1816V37.5066H10.85V32.182L11.3033 32.0227C14.3181 30.9633 16.3434 28.1051 16.3434 24.91C16.3434 20.7619 12.9808 17.3872 8.84748 17.3872C6.92265 17.3872 5.35654 15.8155 5.35654 13.8837C5.35654 11.952 6.92265 10.3806 8.84748 10.3806C10.5405 10.3806 11.9562 11.5967 12.2723 13.2042H16.3127C15.8661 8.26116 11.5476 6.85149 10.9241 6.64797C10.8801 6.63359 10.8544 6.62523 10.85 6.62207V1.35915H6.84499V6.62241C6.84054 6.6257 6.81407 6.63508 6.7684 6.65126C6.10216 6.88735 1.35156 8.57077 1.35156 13.8837C1.35156 18.0318 4.71419 21.4065 8.84748 21.4065C10.7723 21.4065 12.3381 22.9783 12.3381 24.91C12.3381 26.8417 10.7723 28.4131 8.84748 28.4131ZM20.0224 21.607C19.8931 21.1564 19.7339 20.7078 19.5484 20.2739L18.3281 20.7993C18.4915 21.1825 18.6322 21.5784 18.7464 21.9762L20.0224 21.607ZM18.9453 23.28L20.3436 23.0594C20.4214 23.5538 20.4691 24.0588 20.4856 24.5598L19.0707 24.607C19.0562 24.1642 19.0138 23.7176 18.9453 23.28ZM54.3857 35.8918L43.1055 43.3485L43.8503 44.4833L55.1305 37.0266L54.3857 35.8918ZM36.1623 49.0594C36.3652 49.9615 36.4812 50.8866 36.5068 51.8094L35.1267 51.8451C35.1031 51.0041 34.9976 50.1611 34.8125 49.3396L36.1623 49.0594ZM35.6468 57.4166C35.8805 56.7658 36.0724 56.089 36.2166 55.4045C36.2667 55.1655 36.3114 54.9262 36.35 54.6868L34.9898 54.4761C34.9545 54.6951 34.9138 54.914 34.8678 55.1322C34.736 55.7571 34.5612 56.375 34.3477 56.9688L35.6468 57.4166ZM31.7305 61.345L32.7399 62.2143C33.3447 61.5094 33.8858 60.7442 34.349 59.94L33.1959 59.2739C32.774 60.0061 32.281 60.7029 31.7305 61.345ZM30.6815 50.6073L29.3443 50.8233C29.8664 54.0447 28.4449 57.2824 25.7227 59.0718L26.4673 60.2025C29.6343 58.1203 31.2886 54.354 30.6815 50.6073ZM37.8945 46.7912L41.2918 44.5454L42.0366 45.6802L38.6393 47.926L37.8945 46.7912ZM18.0633 31.881L16.9414 31.0273C17.0703 30.851 17.1948 30.6715 17.3134 30.4882L18.4817 31.2743C18.348 31.4807 18.2085 31.6831 18.0633 31.881ZM19.7138 28.752L18.4911 28.3214C18.3573 28.7048 18.1988 29.083 18.0195 29.4457L19.1803 30.0238C19.383 29.6134 19.5623 29.1856 19.7138 28.752ZM18.9844 25.8452L20.3333 25.9666C20.2903 26.4456 20.2173 26.9254 20.116 27.3928L18.793 27.1042C18.8822 26.6919 18.9467 26.2682 18.9844 25.8452ZM34.286 38.1763L39.8906 34.2828L39.1201 33.1656L33.5155 37.0591L34.286 38.1763ZM42.3283 30.9062L43.0988 32.0234L41.0284 33.4617L40.2579 32.3446L42.3283 30.9062ZM31.5733 16.8691H28.8008V18.2619H31.5733V16.8691ZM34.1953 16.8691H36.9678V18.2619H34.1953V16.8691ZM41.4343 16.8691H39.5859V18.2619H41.4343V16.8691ZM49.75 6.96431H52.5225V8.35717H49.75V6.96431ZM62.5358 6.96431H60.6875V8.35717H62.5358V6.96431ZM55.1406 6.96431H57.9131V8.35717H55.1406V6.96431ZM36.3483 3.55954H34.5V4.9524H36.3483V3.55954ZM23.7227 3.55954H26.4952V4.9524H23.7227V3.55954ZM31.8858 3.55954H29.1133V4.9524H31.8858V3.55954Z"/>
</mask>
<path d="M2.79401 45.47L1.88192 45.88L1.88193 45.88L2.79401 45.47ZM3.00756 31.5725L3.76932 32.2203L4.40425 31.4738L3.67064 30.8239L3.00756 31.5725ZM8.5301 52.7485L9.52947 52.7128L9.5117 52.2157L9.10444 51.9299L8.5301 52.7485ZM10.5905 59.2663L11.4268 58.7181L11.4268 58.7181L10.5905 59.2663ZM28.1544 62.9038L28.7054 63.7384L28.7055 63.7383L28.1544 62.9038ZM33.1003 47.9537L32.5493 47.1192L31.8933 47.5524L32.1593 48.2921L33.1003 47.9537ZM63.6705 27.7696L64.2215 28.6041L64.2216 28.6041L63.6705 27.7696ZM64.5146 23.6627L65.351 23.1145L65.3508 23.1143L64.5146 23.6627ZM60.4226 22.8153L60.9736 23.6498L60.9742 23.6494L60.4226 22.8153ZM58.1272 24.3308L57.2909 24.879L57.841 25.7181L58.6782 25.1653L58.1272 24.3308ZM51.9752 14.9464L52.8115 14.3981L52.2614 13.559L51.4242 14.1119L51.9752 14.9464ZM47.6092 17.8294L47.0581 16.9949L46.2264 17.5441L46.7729 18.3776L47.6092 17.8294ZM53.7611 27.2136L54.3121 28.0481L55.1438 27.4989L54.5974 26.6653L53.7611 27.2136ZM51.0782 28.9849L50.2419 29.5332L50.792 30.3722L51.6292 29.8195L51.0782 28.9849ZM47.3156 23.2456L48.1519 22.6973L47.6018 21.8583L46.7646 22.4111L47.3156 23.2456ZM42.9496 26.1286L42.3986 25.2941L41.5668 25.8433L42.1133 26.6769L42.9496 26.1286ZM46.7121 31.8677L47.2631 32.7022L48.0949 32.153L47.5484 31.3195L46.7121 31.8677ZM29.8616 42.9933L29.1752 43.7205L29.7514 44.2643L30.4126 43.8278L29.8616 42.9933ZM18.4618 39.8394L17.5258 40.1913L17.8308 41.0026L18.6772 40.8159L18.4618 39.8394ZM13.5805 32.4105L13.0426 31.5675L11.9423 32.2696L12.9066 33.1492L13.5805 32.4105ZM10.9865 14.5631H9.98652V15.5631H10.9865V14.5631ZM17.7002 14.5631V15.5631H18.7002V14.5631H17.7002ZM12.2068 5.66935H11.2068V6.33927L11.8263 6.59415L12.2068 5.66935ZM12.2068 0H13.2068V-1H12.2068V0ZM5.49343 0V-1H4.49343V0H5.49343ZM5.49343 5.66908L5.87314 6.59418L6.49343 6.33958V5.66908H5.49343ZM6.71334 24.2304H7.71334V23.2304H6.71334V24.2304ZM0 24.2304V23.2304H-1V24.2304H0ZM51.5877 16.8289L52.424 16.2807L51.874 15.4416L51.0367 15.9944L51.5877 16.8289ZM49.4844 18.2175L48.9334 17.383L48.1016 17.9322L48.648 18.7658L49.4844 18.2175ZM56.9949 25.0779L57.5459 25.9124L58.3777 25.3632L57.8313 24.5297L56.9949 25.0779ZM54.8917 26.4665L54.0553 27.0148L54.6054 27.8539L55.4427 27.301L54.8917 26.4665ZM44.8242 26.5167L44.2733 25.6822L43.4414 26.2314L43.9879 27.065L44.8242 26.5167ZM46.9275 25.1281L47.7639 24.5799L47.2138 23.7408L46.3766 24.2936L46.9275 25.1281ZM47.8422 31.1206L47.0059 31.6688L47.5559 32.5079L48.3932 31.9551L47.8422 31.1206ZM49.9454 29.7319L50.4964 30.5664L51.3282 30.0173L50.7818 29.1837L49.9454 29.7319ZM63.3847 24.4098L64.2211 23.8616L64.221 23.8616L63.3847 24.4098ZM61.1686 23.9506L60.6173 23.1162L60.6161 23.1171L61.1686 23.9506ZM62.9274 26.6341L62.3766 25.7995L62.3764 25.7996L62.9274 26.6341ZM32.5658 46.6805L31.6672 47.1193L32.1668 48.1422L33.1168 47.515L32.5658 46.6805ZM31.78 45.2767L30.9436 45.8248L30.9437 45.8249L31.78 45.2767ZM30.8164 43.9906L30.2655 43.1561L29.3221 43.7788L30.0553 44.6392L30.8164 43.9906ZM40.1396 37.8377L40.6904 38.6723L40.1396 37.8377ZM30.6479 46.024L29.8116 46.5722L29.8116 46.5723L30.6479 46.024ZM27.4105 61.7684L27.9615 62.6029L27.9616 62.6029L27.4105 61.7684ZM14.9598 42.7747L14.4088 41.9402L14.4087 41.9402L14.9598 42.7747ZM9.87109 52.0017L8.87141 51.9765L8.8569 52.5534L9.34905 52.8546L9.87109 52.0017ZM12.0983 52.9682L11.8563 53.9385L13.0588 54.2384L13.0978 52.9997L12.0983 52.9682ZM12.1668 52.3232L11.1873 52.1216L11.1873 52.1218L12.1668 52.3232ZM19.4683 53.8355L18.4888 53.634L18.4887 53.6343L19.4683 53.8355ZM12.3414 54.4171L13.2749 54.0584L13.07 53.5252L12.5066 53.4308L12.3414 54.4171ZM9.95011 53.6091L10.4004 52.7162L8.74189 51.8798L8.95683 53.7248L9.95011 53.6091ZM11.7225 58.5191L12.5588 57.9709L12.5588 57.9709L11.7225 58.5191ZM13.4501 53.1387L12.4504 53.1621L12.4733 54.145L13.4566 54.1387L13.4501 53.1387ZM15.2046 52.7764L14.7922 51.8654L14.7922 51.8654L15.2046 52.7764ZM13.493 52.5979L12.5136 52.3963L12.5135 52.3968L13.493 52.5979ZM17.0943 51.0889L17.9314 51.6359L18.4812 50.7946L17.637 50.2491L17.0943 51.0889ZM18.0081 52.1665L18.9312 51.7822L18.2548 50.1574L17.2053 51.5702L18.0081 52.1665ZM18.1421 53.5606L19.1215 53.7623L19.1216 53.7618L18.1421 53.5606ZM15.761 54.0152L15.3486 53.1042L15.3486 53.1042L15.761 54.0152ZM13.918 54.4864L13.8348 53.4899L12.0524 53.6386L13.1126 55.0791L13.918 54.4864ZM14.2124 41.6392L13.6614 40.8047L13.6613 40.8047L14.2124 41.6392ZM17.1525 40.2102L17.4721 41.1577L18.4583 40.8251L18.0865 39.853L17.1525 40.2102ZM8.56923 51.0798L7.93414 51.8523L9.38722 53.047L9.56476 51.1742L8.56923 51.0798ZM4.02623 44.9111L3.11411 45.321L3.11413 45.3211L4.02623 44.9111ZM4.09658 32.3981L4.63644 31.5563L3.9137 31.0928L3.34617 31.7371L4.09658 32.3981ZM5.49118 33.1322H6.49118V32.4633L5.87289 32.2079L5.49118 33.1322ZM5.49118 38.8653H4.49118V39.8653H5.49118V38.8653ZM12.2045 38.8653V39.8653H13.2045V38.8653H12.2045ZM12.2045 33.1319L11.8232 32.2074L11.2045 32.4626V33.1319H12.2045ZM12.2491 33.1115L11.8166 32.2099L11.8165 32.2099L12.2491 33.1115ZM12.2881 33.0935L12.9332 32.3294L12.4622 31.9317L11.8953 32.1739L12.2881 33.0935ZM5.42236 25.5895L6.40357 25.3966L6.24489 24.5895H5.42236V25.5895ZM1.38244 25.5895V24.5895H0.288083L0.386489 25.6794L1.38244 25.5895ZM4.0065 30.6512L3.35798 31.4124L3.96002 31.9253L4.59783 31.4576L4.0065 30.6512ZM4.98943 30.0595L4.57733 29.1484L4.57703 29.1485L4.98943 30.0595ZM8.30574 29.6428L9.29452 29.7921L9.44375 28.8043L8.45607 28.6541L8.30574 29.6428ZM8.10275 30.9865L7.95345 31.9753L8.94217 32.1246L9.09153 31.1359L8.10275 30.9865ZM5.54613 31.2984L5.95838 32.2095L5.95866 32.2093L5.54613 31.2984ZM5.30123 31.4316L5.81101 32.2919L5.81104 32.2919L5.30123 31.4316ZM5.20995 31.4851L4.71383 30.6168L3.17842 31.4941L4.72162 32.3577L5.20995 31.4851ZM6.68926 32.127L6.36778 33.074L6.39098 33.0818L6.41454 33.0886L6.68926 32.127ZM6.6893 32.1271L7.0607 31.1986L7.01321 31.1796L6.96403 31.1655L6.6893 32.1271ZM6.68936 32.1271L6.31797 33.0556L6.34273 33.0655L6.36798 33.074L6.68936 32.1271ZM6.84506 32.1816H7.84506V31.496L7.20549 31.2489L6.84506 32.1816ZM6.84506 37.5066H5.84506V38.5066H6.84506V37.5066ZM10.85 37.5066V38.5066H11.85V37.5066H10.85ZM10.85 32.182L10.5185 31.2385L9.85004 31.4734V32.182H10.85ZM11.3033 32.0227L10.9717 31.0793L10.9717 31.0793L11.3033 32.0227ZM12.2723 13.2042L11.291 13.3971L11.4497 14.2042H12.2723V13.2042ZM16.3127 13.2042V14.2042H17.4071L17.3086 13.1142L16.3127 13.2042ZM10.9241 6.64797L11.2344 5.69734L11.2344 5.69734L10.9241 6.64797ZM10.85 6.62207H9.84997V7.14043L10.2735 7.43922L10.85 6.62207ZM10.85 1.35915H11.85V0.359145H10.85V1.35915ZM6.84499 1.35915V0.359145H5.84499V1.35915H6.84499ZM6.84499 6.62241L7.43932 7.42664L7.84499 7.12684V6.62241H6.84499ZM6.7684 6.65126L6.4344 5.70869H6.4344L6.7684 6.65126ZM19.5484 20.2739L20.468 19.8809L20.074 18.9588L19.1529 19.3554L19.5484 20.2739ZM20.0224 21.607L20.3004 22.5677L21.2589 22.2903L20.9836 21.3311L20.0224 21.607ZM18.3281 20.7993L17.9326 19.8809L17.0174 20.275L17.4083 21.1916L18.3281 20.7993ZM18.7464 21.9762L17.7851 22.252L18.0615 23.2154L19.0243 22.9368L18.7464 21.9762ZM20.3436 23.0594L21.3315 22.904L21.176 21.9156L20.1877 22.0716L20.3436 23.0594ZM18.9453 23.28L18.7894 22.2922L17.803 22.4479L17.9573 23.4346L18.9453 23.28ZM20.4856 24.5598L20.5189 25.5592L21.5179 25.5259L21.4851 24.5269L20.4856 24.5598ZM19.0707 24.607L18.0713 24.6397L18.104 25.6398L19.1041 25.6064L19.0707 24.607ZM43.1055 43.3485L42.554 42.5143L41.7225 43.0639L42.2695 43.8972L43.1055 43.3485ZM54.3857 35.8918L55.2217 35.3431L54.6712 34.5043L53.8343 35.0576L54.3857 35.8918ZM43.8503 44.4833L43.0142 45.032L43.5648 45.8708L44.4017 45.3175L43.8503 44.4833ZM55.1305 37.0266L55.682 37.8608L56.5134 37.3111L55.9665 36.4779L55.1305 37.0266ZM36.5068 51.8094L36.5326 52.8091L37.5342 52.7832L37.5064 51.7817L36.5068 51.8094ZM36.1623 49.0594L37.1379 48.8399L36.9221 47.8803L35.959 48.0802L36.1623 49.0594ZM35.1267 51.8451L34.1271 51.8731L34.1551 52.8705L35.1525 52.8447L35.1267 51.8451ZM34.8125 49.3396L34.6092 48.3605L33.6134 48.5672L33.837 49.5594L34.8125 49.3396ZM36.2166 55.4045L37.1951 55.6106L37.1953 55.6098L36.2166 55.4045ZM35.6468 57.4166L35.3209 58.362L36.2543 58.6838L36.5879 57.7546L35.6468 57.4166ZM36.35 54.6868L37.3373 54.8461L37.4976 53.8527L36.5031 53.6986L36.35 54.6868ZM34.9898 54.4761L35.1428 53.4879L34.1608 53.3358L34.0025 54.3168L34.9898 54.4761ZM34.8678 55.1322L35.8462 55.3386L35.8463 55.3384L34.8678 55.1322ZM34.3477 56.9688L33.4066 56.6305L33.0638 57.584L34.0218 57.9142L34.3477 56.9688ZM32.7399 62.2143L32.0873 62.9721L32.8465 63.6258L33.4988 62.8655L32.7399 62.2143ZM31.7305 61.345L30.9713 60.6941L30.3219 61.4516L31.0779 62.1027L31.7305 61.345ZM34.349 59.94L35.2155 60.4391L35.7139 59.5737L34.8492 59.0741L34.349 59.94ZM33.1959 59.2739L33.6961 58.408L32.8293 57.9071L32.3294 58.7746L33.1959 59.2739ZM29.3443 50.8233L29.1848 49.8361L28.1971 49.9957L28.3572 50.9833L29.3443 50.8233ZM30.6815 50.6073L31.6686 50.4473L31.5087 49.4606L30.522 49.6201L30.6815 50.6073ZM25.7227 59.0718L25.1734 58.2362L24.337 58.786L24.8875 59.6219L25.7227 59.0718ZM26.4673 60.2025L25.6321 60.7525L26.1817 61.587L27.0167 61.0381L26.4673 60.2025ZM41.2918 44.5454L42.1279 43.9967L41.5773 43.1579L40.7404 43.7112L41.2918 44.5454ZM37.8945 46.7912L37.3431 45.957L36.5116 46.5066L37.0585 47.3399L37.8945 46.7912ZM42.0366 45.6802L42.5881 46.5144L43.4196 45.9648L42.8727 45.1315L42.0366 45.6802ZM38.6393 47.926L37.8033 48.4747L38.3538 49.3135L39.1908 48.7602L38.6393 47.926ZM16.9414 31.0273L16.1342 30.4371L15.5552 31.229L16.3358 31.823L16.9414 31.0273ZM18.0633 31.881L17.4577 32.6768L18.2673 33.293L18.8694 32.4728L18.0633 31.881ZM17.3134 30.4882L17.8716 29.6585L17.0268 29.09L16.4737 29.945L17.3134 30.4882ZM18.4817 31.2743L19.3209 31.8182L19.8554 30.9934L19.04 30.4447L18.4817 31.2743ZM18.4911 28.3214L18.8233 27.3782L17.8773 27.045L17.5469 27.992L18.4911 28.3214ZM19.7138 28.752L20.6579 29.082L20.987 28.1402L20.0461 27.8088L19.7138 28.752ZM18.0195 29.4457L17.1231 29.0025L16.6812 29.8964L17.5737 30.3408L18.0195 29.4457ZM19.1803 30.0238L18.7345 30.9189L19.6326 31.3662L20.0769 30.4666L19.1803 30.0238ZM20.3333 25.9666L21.3293 26.0559L21.4185 25.0603L20.4229 24.9707L20.3333 25.9666ZM18.9844 25.8452L19.074 24.8493L18.0772 24.7595L17.9883 25.7564L18.9844 25.8452ZM20.116 27.3928L19.9029 28.3699L20.8814 28.5833L21.0934 27.6045L20.116 27.3928ZM18.793 27.1042L17.8156 26.8927L17.6044 27.8685L18.5798 28.0812L18.793 27.1042ZM39.8906 34.2828L40.4612 35.104L41.2797 34.5354L40.7138 33.715L39.8906 34.2828ZM34.286 38.1763L33.4628 38.7441L34.0325 39.57L34.8565 38.9975L34.286 38.1763ZM39.1201 33.1656L39.9433 32.5979L39.3736 31.7719L38.5496 32.3444L39.1201 33.1656ZM33.5155 37.0591L32.9449 36.2379L32.1264 36.8065L32.6923 37.6269L33.5155 37.0591ZM43.0988 32.0234L43.6694 32.8446L44.4879 32.276L43.922 31.4556L43.0988 32.0234ZM42.3283 30.9062L43.1515 30.3385L42.5818 29.5125L41.7578 30.085L42.3283 30.9062ZM41.0284 33.4617L40.2052 34.0295L40.7749 34.8554L41.5989 34.283L41.0284 33.4617ZM40.2579 32.3446L39.6873 31.5233L38.8688 32.0919L39.4347 32.9123L40.2579 32.3446ZM28.8008 16.8691V15.8691H27.8008V16.8691H28.8008ZM31.5733 16.8691H32.5733V15.8691H31.5733V16.8691ZM28.8008 18.2619H27.8008V19.2619H28.8008V18.2619ZM31.5733 18.2619V19.2619H32.5733V18.2619H31.5733ZM36.9678 16.8691H37.9678V15.8691H36.9678V16.8691ZM34.1953 16.8691V15.8691H33.1953V16.8691H34.1953ZM36.9678 18.2619V19.2619H37.9678V18.2619H36.9678ZM34.1953 18.2619H33.1953V19.2619H34.1953V18.2619ZM39.5859 16.8691V15.8691H38.5859V16.8691H39.5859ZM41.4343 16.8691H42.4343V15.8691H41.4343V16.8691ZM39.5859 18.2619H38.5859V19.2619H39.5859V18.2619ZM41.4343 18.2619V19.2619H42.4343V18.2619H41.4343ZM52.5225 6.96431H53.5225V5.96431H52.5225V6.96431ZM49.75 6.96431V5.96431H48.75V6.96431H49.75ZM52.5225 8.35717V9.35717H53.5225V8.35717H52.5225ZM49.75 8.35717H48.75V9.35717H49.75V8.35717ZM60.6875 6.96431V5.96431H59.6875V6.96431H60.6875ZM62.5358 6.96431H63.5358V5.96431H62.5358V6.96431ZM60.6875 8.35717H59.6875V9.35717H60.6875V8.35717ZM62.5358 8.35717V9.35717H63.5358V8.35717H62.5358ZM57.9131 6.96431H58.9131V5.96431H57.9131V6.96431ZM55.1406 6.96431V5.96431H54.1406V6.96431H55.1406ZM57.9131 8.35717V9.35717H58.9131V8.35717H57.9131ZM55.1406 8.35717H54.1406V9.35717H55.1406V8.35717ZM34.5 3.55954V2.55954H33.5V3.55954H34.5ZM36.3483 3.55954H37.3483V2.55954H36.3483V3.55954ZM34.5 4.9524H33.5V5.9524H34.5V4.9524ZM36.3483 4.9524V5.9524H37.3483V4.9524H36.3483ZM26.4952 3.55954H27.4952V2.55954H26.4952V3.55954ZM23.7227 3.55954V2.55954H22.7227V3.55954H23.7227ZM26.4952 4.9524V5.9524H27.4952V4.9524H26.4952ZM23.7227 4.9524H22.7227V5.9524H23.7227V4.9524ZM29.1133 3.55954V2.55954H28.1133V3.55954H29.1133ZM31.8858 3.55954H32.8858V2.55954H31.8858V3.55954ZM29.1133 4.9524H28.1133V5.9524H29.1133V4.9524ZM31.8858 4.9524V5.9524H32.8858V4.9524H31.8858ZM3.70609 45.06C2.77668 42.9924 2.13558 40.5074 2.07146 38.155C2.00703 35.7909 2.52563 33.6827 3.76932 32.2203L2.2458 30.9246C0.564604 32.9014 0.000272365 35.5703 0.0722033 38.2095C0.144451 40.8602 0.859017 43.6044 1.88192 45.88L3.70609 45.06ZM9.10444 51.9299C6.95838 50.4243 5.03003 48.0051 3.70609 45.06L1.88193 45.88C3.32633 49.0931 5.46539 51.82 7.95577 53.5672L9.10444 51.9299ZM11.4268 58.7181C10.2124 56.8655 9.60368 54.7898 9.52947 52.7128L7.53074 52.7843C7.61727 55.2058 8.32851 57.6398 9.75417 59.8146L11.4268 58.7181ZM27.6035 62.0692C22.225 65.6197 14.9818 64.1414 11.4268 58.7181L9.75415 59.8146C13.9165 66.1643 22.4035 67.8983 28.7054 63.7384L27.6035 62.0692ZM32.1593 48.2921C33.9524 53.2786 32.1964 59.0364 27.6034 62.0693L28.7055 63.7383C34.0927 60.1809 36.1367 53.4424 34.0413 47.6153L32.1593 48.2921ZM63.1196 26.9351L32.5493 47.1192L33.6513 48.7882L64.2215 28.6041L63.1196 26.9351ZM63.6782 24.2108C64.2724 25.1174 64.0192 26.3411 63.1195 26.9351L64.2216 28.6041C66.0435 27.4011 66.5473 24.9399 65.351 23.1145L63.6782 24.2108ZM60.9742 23.6494C61.8771 23.0523 63.0866 23.3086 63.6784 24.2111L65.3508 23.1143C64.1591 21.2969 61.709 20.7657 59.871 21.9812L60.9742 23.6494ZM58.6782 25.1653L60.9736 23.6498L59.8716 21.9807L57.5762 23.4963L58.6782 25.1653ZM51.1389 15.4946L57.2909 24.879L58.9635 23.7825L52.8115 14.3981L51.1389 15.4946ZM48.1602 18.6639L52.5262 15.7809L51.4242 14.1119L47.0581 16.9949L48.1602 18.6639ZM54.5974 26.6653L48.4455 17.2811L46.7729 18.3776L52.9248 27.7618L54.5974 26.6653ZM51.6292 29.8195L54.3121 28.0481L53.2101 26.3791L50.5273 28.1504L51.6292 29.8195ZM46.4793 23.7939L50.2419 29.5332L51.9145 28.4367L48.1519 22.6973L46.4793 23.7939ZM43.5006 26.9631L47.8666 24.0801L46.7646 22.4111L42.3986 25.2941L43.5006 26.9631ZM47.5484 31.3195L43.7859 25.5803L42.1133 26.6769L45.8758 32.416L47.5484 31.3195ZM30.4126 43.8278L47.2631 32.7022L46.1611 31.0332L29.3106 42.1587L30.4126 43.8278ZM18.6772 40.8159C22.3719 40.0011 26.3193 41.0251 29.1752 43.7205L30.548 42.266C27.2012 39.1074 22.5754 37.9081 18.2464 38.8629L18.6772 40.8159ZM12.9066 33.1492C14.7374 34.8193 16.4161 37.24 17.5258 40.1913L19.3978 39.4875C18.1851 36.2619 16.335 33.5696 14.2544 31.6717L12.9066 33.1492ZM16.7002 24.9099C16.7002 27.6417 15.2831 30.1378 13.0426 31.5675L14.1184 33.2534C16.9221 31.4644 18.7002 28.3393 18.7002 24.9099H16.7002ZM8.8501 17.028C13.1742 17.028 16.7002 20.5615 16.7002 24.9099H18.7002C18.7002 19.4637 14.2855 15.028 8.8501 15.028V17.028ZM5.71334 13.8836C5.71334 15.6151 7.11619 17.028 8.8501 17.028V15.028C8.22746 15.028 7.71334 14.5173 7.71334 13.8836H5.71334ZM8.8501 10.7395C7.11618 10.7395 5.71334 12.1525 5.71334 13.8836H7.71334C7.71334 13.2505 8.22733 12.7395 8.8501 12.7395V10.7395ZM11.9865 13.8836C11.9865 12.1525 10.5837 10.7395 8.8501 10.7395V12.7395C9.47239 12.7395 9.98652 13.2503 9.98652 13.8836H11.9865ZM11.9865 14.5631V13.8836H9.98652V14.5631H11.9865ZM17.7002 13.5631H10.9865V15.5631H17.7002V13.5631ZM16.7002 13.8836V14.5631H18.7002V13.8836H16.7002ZM11.8263 6.59415C14.7572 7.79991 16.7002 10.6767 16.7002 13.8836H18.7002C18.7002 9.86467 16.2666 6.25821 12.5872 4.74455L11.8263 6.59415ZM11.2068 0V5.66935H13.2068V0H11.2068ZM5.49343 1H12.2068V-1H5.49343V1ZM6.49343 5.66908V0H4.49343V5.66908H6.49343ZM1 13.8837C1 10.6731 2.94298 7.79688 5.87314 6.59418L5.11371 4.74397C1.43305 6.25472 -1 9.86181 -1 13.8837H1ZM8.8501 21.7655C4.52597 21.7655 1 18.2321 1 13.8837H-1C-1 19.3299 3.41466 23.7655 8.8501 23.7655V21.7655ZM11.9865 24.9099C11.9865 23.1786 10.5838 21.7655 8.8501 21.7655V23.7655C9.47229 23.7655 9.98652 24.2762 9.98652 24.9099H11.9865ZM8.8501 28.054C10.5838 28.054 11.9865 26.641 11.9865 24.9099H9.98652C9.98652 25.5432 9.47242 26.054 8.8501 26.054V28.054ZM5.71334 24.9099C5.71334 26.6412 7.11629 28.054 8.8501 28.054V26.054C8.22736 26.054 7.71334 25.5431 7.71334 24.9099H5.71334ZM5.71334 24.2304V24.9099H7.71334V24.2304H5.71334ZM0 25.2304H6.71334V23.2304H0V25.2304ZM1 24.9099V24.2304H-1V24.9099H1ZM3.67064 30.8239C2.00945 29.3524 1 27.2159 1 24.9099H-1C-1 27.8055 0.267735 30.4814 2.34448 32.321L3.67064 30.8239ZM51.0367 15.9944L48.9334 17.383L50.0353 19.0521L52.1386 17.6635L51.0367 15.9944ZM57.8313 24.5297L52.424 16.2807L50.7514 17.3772L56.1586 25.6261L57.8313 24.5297ZM55.4427 27.301L57.5459 25.9124L56.4439 24.2434L54.3407 25.632L55.4427 27.301ZM48.648 18.7658L54.0553 27.0148L55.728 25.9183L50.3207 17.6693L48.648 18.7658ZM45.3752 27.3513L47.4785 25.9627L46.3766 24.2936L44.2733 25.6822L45.3752 27.3513ZM48.6785 30.5723L45.6605 25.9685L43.9879 27.065L47.0059 31.6688L48.6785 30.5723ZM49.3945 28.8974L47.2912 30.2861L48.3932 31.9551L50.4964 30.5664L49.3945 28.8974ZM46.0912 25.6764L49.1091 30.2802L50.7818 29.1837L47.7639 24.5799L46.0912 25.6764ZM64.221 23.8616C63.4332 22.6597 61.816 22.3242 60.6173 23.1162L61.7199 24.7849C61.9924 24.6048 62.3661 24.68 62.5483 24.958L64.221 23.8616ZM63.4782 27.4687C64.5074 26.7896 65.1125 25.222 64.2211 23.8616L62.5483 24.9579C62.6557 25.1218 62.6692 25.2802 62.6319 25.4266C62.59 25.5909 62.4855 25.7276 62.3766 25.7995L63.4782 27.4687ZM33.1168 47.515L63.4784 27.4686L62.3764 25.7996L32.0148 45.846L33.1168 47.515ZM30.9437 45.8249C31.212 46.2341 31.4456 46.6655 31.6672 47.1193L33.4643 46.2416C33.2198 45.7408 32.9453 45.2302 32.6163 44.7284L30.9437 45.8249ZM30.0553 44.6392C30.3735 45.0127 30.6706 45.4081 30.9436 45.8248L32.6164 44.7285C32.2968 44.2408 31.9494 43.7784 31.5775 43.342L30.0553 44.6392ZM39.5889 37.003C36.1387 39.2797 32.8654 41.4396 30.2655 43.1561L31.3673 44.8251C33.9671 43.1089 37.2402 40.9491 40.6904 38.6723L39.5889 37.003ZM60.6161 23.1171C57.147 25.4169 47.8602 31.545 39.5889 37.003L40.6904 38.6723C48.9604 33.2152 58.2498 27.0854 61.7212 24.784L60.6161 23.1171ZM29.8116 46.5723C32.9429 51.3486 31.6164 57.7928 26.8595 60.9339L27.9616 62.6029C33.6401 58.8532 35.2183 51.1716 31.4842 45.4758L29.8116 46.5723ZM15.5107 43.6093C20.2664 40.4697 26.6687 41.7775 29.8116 46.5722L31.4843 45.4758C27.7342 39.7548 20.0881 38.1909 14.4088 41.9402L15.5107 43.6093ZM10.8708 52.0268C10.9535 48.7364 12.5795 45.5448 15.5108 43.6092L14.4087 41.9402C10.9036 44.2548 8.96972 48.0668 8.87141 51.9765L10.8708 52.0268ZM12.3403 51.9979C11.7314 51.8461 11.0777 51.5677 10.3931 51.1488L9.34905 52.8546C10.178 53.3619 11.0191 53.7297 11.8563 53.9385L12.3403 51.9979ZM11.1873 52.1218C11.1274 52.4131 11.1066 52.6908 11.0988 52.9367L13.0978 52.9997C13.1036 52.8162 13.1179 52.6627 13.1463 52.5245L11.1873 52.1218ZM15.8147 48.338C13.6481 48.338 11.6556 49.8456 11.1873 52.1216L13.1462 52.5247C13.4169 51.2093 14.5654 50.338 15.8147 50.338V48.338ZM20.4478 54.037C21.0511 51.104 18.8211 48.338 15.8147 48.338V50.338C17.5441 50.338 18.8391 51.9314 18.4888 53.634L20.4478 54.037ZM15.8207 57.821C18.0005 57.821 19.9831 56.2997 20.4478 54.0367L18.4887 53.6343C18.2201 54.9424 17.0766 55.821 15.8207 55.821V57.821ZM11.4079 54.7757C12.1459 56.6966 13.9356 57.821 15.8207 57.821V55.821C14.7315 55.821 13.7047 55.1772 13.2749 54.0584L11.4079 54.7757ZM9.49982 54.502C10.386 54.9489 11.2838 55.2538 12.1761 55.4033L12.5066 53.4308C11.8358 53.3184 11.1292 53.0838 10.4004 52.7162L9.49982 54.502ZM12.5588 57.9709C11.6481 56.5817 11.1247 55.0493 10.9434 53.4934L8.95683 53.7248C9.17207 55.5724 9.79576 57.4041 10.8862 59.0674L12.5588 57.9709ZM26.8596 60.9338C22.104 64.0734 15.7017 62.7656 12.5588 57.9709L10.8861 59.0673C14.6362 64.7883 22.2822 66.3523 27.9615 62.6029L26.8596 60.9338ZM13.4566 54.1387C14.1932 54.1339 14.9264 54 15.6169 53.6875L14.7922 51.8654C14.3955 52.045 13.946 52.1355 13.4436 52.1387L13.4566 54.1387ZM12.5135 52.3968C12.4572 52.6708 12.445 52.9303 12.4504 53.1621L14.4498 53.1153C14.4469 52.9877 14.4548 52.8858 14.4726 52.799L12.5135 52.3968ZM15.8149 49.6971C14.2581 49.6971 12.8456 50.784 12.5136 52.3963L14.4725 52.7996C14.6084 52.1396 15.1839 51.6971 15.8149 51.6971V49.6971ZM17.637 50.2491C17.1191 49.9143 16.4967 49.6971 15.8149 49.6971V51.6971C16.0634 51.6971 16.3141 51.7754 16.5515 51.9288L17.637 50.2491ZM15.6169 53.6875C16.577 53.2529 17.3429 52.5366 17.9314 51.6359L16.2571 50.5419C15.8399 51.1805 15.3488 51.6135 14.7922 51.8654L15.6169 53.6875ZM17.0849 52.5509C17.1908 52.8054 17.2193 53.0829 17.1625 53.3595L19.1216 53.7618C19.2598 53.0886 19.1898 52.4033 18.9312 51.7822L17.0849 52.5509ZM16.1734 54.9262C17.2143 54.455 18.1075 53.7097 18.8108 52.7629L17.2053 51.5702C16.6868 52.2682 16.054 52.7849 15.3486 53.1042L16.1734 54.9262ZM14.0011 55.4829C14.7483 55.4206 15.4792 55.2406 16.1735 54.9262L15.3486 53.1042C14.8761 53.3182 14.3698 53.4452 13.8348 53.4899L14.0011 55.4829ZM15.8205 54.4619C15.3924 54.4619 14.9899 54.2559 14.7234 53.8937L13.1126 55.0791C13.74 55.9318 14.73 56.4619 15.8205 56.4619V54.4619ZM17.1626 53.359C17.027 54.0177 16.4519 54.4619 15.8205 54.4619V56.4619C17.381 56.4619 18.7905 55.3702 19.1215 53.7623L17.1626 53.359ZM14.7633 42.4738C15.6093 41.9153 16.5202 41.4788 17.4721 41.1577L16.8329 39.2627C15.7268 39.6358 14.6591 40.146 13.6614 40.8047L14.7633 42.4738ZM9.56476 51.1742C9.88955 47.7484 11.6921 44.5018 14.7634 42.4737L13.6613 40.8047C10.0585 43.1838 7.95254 46.9894 7.57369 50.9854L9.56476 51.1742ZM3.11413 45.3211C4.30212 47.9641 5.98092 50.2464 7.93414 51.8523L9.20431 50.3074C7.52414 48.926 6.01994 46.9075 4.93833 44.5011L3.11413 45.3211ZM3.34617 31.7371C1.79046 33.5033 1.33069 35.9777 1.43117 38.3768C1.53251 40.7964 2.2075 43.3037 3.11411 45.321L4.93835 44.5012C4.12184 42.6843 3.51875 40.426 3.42942 38.2931C3.33923 36.1397 3.77621 34.2747 4.84699 33.059L3.34617 31.7371ZM5.87289 32.2079C5.443 32.0304 5.03206 31.81 4.63644 31.5563L3.55672 33.2398C4.03901 33.5491 4.55541 33.8277 5.10947 34.0565L5.87289 32.2079ZM6.49118 38.8653V33.1322H4.49118V38.8653H6.49118ZM12.2045 37.8653H5.49118V39.8653H12.2045V37.8653ZM11.2045 33.1319V38.8653H13.2045V33.1319H11.2045ZM11.8165 32.2099C11.8126 32.2118 11.8105 32.2128 11.8087 32.2136C11.8071 32.2144 11.8068 32.2146 11.8073 32.2143C11.8081 32.214 11.814 32.2112 11.8232 32.2074L12.5858 34.0563C12.6311 34.0376 12.6708 34.0183 12.6816 34.0131L11.8165 32.2099ZM11.8953 32.1739C11.8588 32.1895 11.8264 32.2052 11.8166 32.2099L12.6815 34.0132C12.6849 34.0116 12.6869 34.0106 12.6887 34.0097C12.6895 34.0094 12.6901 34.0091 12.6905 34.0089C12.6909 34.0087 12.691 34.0086 12.691 34.0086C12.691 34.0087 12.6901 34.0091 12.6884 34.0098C12.6868 34.0106 12.6842 34.0117 12.6809 34.0131L11.8953 32.1739ZM18.0865 39.853C17.0078 37.0322 15.2522 34.287 12.9332 32.3294L11.6431 33.8576C13.6533 35.5546 15.2345 37.9944 16.2184 40.5674L18.0865 39.853ZM4.44114 25.7824C4.84703 27.8468 6.66397 29.4131 8.84748 29.4131V27.4131C7.64419 27.4131 6.62981 26.5473 6.40357 25.3966L4.44114 25.7824ZM1.38244 26.5895H5.42236V24.5895H1.38244V26.5895ZM4.65502 29.89C3.36906 28.7944 2.53404 27.2235 2.37839 25.4996L0.386489 25.6794C0.590101 27.9346 1.68139 29.984 3.35798 31.4124L4.65502 29.89ZM4.57703 29.1485C4.14077 29.346 3.75672 29.5943 3.41516 29.8448L4.59783 31.4576C4.87418 31.255 5.13526 31.0912 5.40182 30.9705L4.57703 29.1485ZM8.45607 28.6541C7.09257 28.4468 5.77912 28.6048 4.57733 29.1484L5.40153 30.9706C6.22166 30.5997 7.14057 30.4771 8.15541 30.6314L8.45607 28.6541ZM9.09153 31.1359L9.29452 29.7921L7.31696 29.4934L7.11397 30.8371L9.09153 31.1359ZM5.95866 32.2093C6.53157 31.9499 7.19362 31.8606 7.95345 31.9753L8.25205 29.9977C7.15773 29.8325 6.09931 29.9501 5.1336 30.3875L5.95866 32.2093ZM5.81104 32.2919C5.89889 32.2399 5.93196 32.2214 5.95838 32.2095L5.13388 30.3873C4.99044 30.4522 4.86355 30.5286 4.79142 30.5713L5.81104 32.2919ZM5.70608 32.3533C5.74469 32.3313 5.7818 32.3092 5.81101 32.2919L4.79145 30.5713C4.75999 30.59 4.73644 30.6039 4.71383 30.6168L5.70608 32.3533ZM7.01075 31.1801C6.73253 31.0857 6.24976 30.921 5.69829 30.6124L4.72162 32.3577C5.44 32.7597 6.06649 32.9717 6.36778 33.074L7.01075 31.1801ZM6.96403 31.1655L6.96399 31.1655L6.41454 33.0886L6.41458 33.0886L6.96403 31.1655ZM7.06075 31.1986L7.0607 31.1986L6.31791 33.0555L6.31797 33.0556L7.06075 31.1986ZM7.20549 31.2489C7.14493 31.2255 7.06822 31.1996 7.01075 31.1801L6.36798 33.074C6.40229 33.0857 6.42835 33.0945 6.4502 33.1021C6.46077 33.1058 6.46888 33.1087 6.47511 33.1109C6.47816 33.112 6.48047 33.1129 6.48215 33.1135C6.48297 33.1138 6.48359 33.114 6.48401 33.1142C6.48444 33.1144 6.48464 33.1144 6.48462 33.1144L7.20549 31.2489ZM7.84506 37.5066V32.1816H5.84506V37.5066H7.84506ZM10.85 36.5066H6.84506V38.5066H10.85V36.5066ZM9.85004 32.182V37.5066H11.85V32.182H9.85004ZM10.9717 31.0793L10.5185 31.2385L11.1816 33.1254L11.6348 32.9661L10.9717 31.0793ZM15.3434 24.91C15.3434 27.6806 13.5862 30.1605 10.9717 31.0793L11.6348 32.9661C15.05 31.766 17.3434 28.5297 17.3434 24.91H15.3434ZM8.84748 18.3872C12.4251 18.3872 15.3434 21.3108 15.3434 24.91H17.3434C17.3434 20.213 13.5364 16.3872 8.84748 16.3872V18.3872ZM4.35654 13.8837C4.35654 16.3644 6.36699 18.3872 8.84748 18.3872V16.3872C7.47831 16.3872 6.35654 15.2666 6.35654 13.8837H4.35654ZM8.84748 9.38062C6.36712 9.38062 4.35654 11.403 4.35654 13.8837H6.35654C6.35654 12.501 7.47818 11.3806 8.84748 11.3806V9.38062ZM13.2535 13.0113C12.8476 10.947 11.0307 9.38062 8.84748 9.38062V11.3806C10.0504 11.3806 11.0648 12.2464 11.291 13.3971L13.2535 13.0113ZM16.3127 12.2042H12.2723V14.2042H16.3127V12.2042ZM10.6138 7.59861C11.2261 7.79847 14.9314 9.02872 15.3167 13.2942L17.3086 13.1142C16.8009 7.4936 11.8691 5.90451 11.2344 5.69734L10.6138 7.59861ZM10.2735 7.43922C10.352 7.49454 10.4215 7.52589 10.4347 7.532C10.4606 7.54391 10.4821 7.55247 10.4935 7.55692C10.5168 7.56601 10.5373 7.57313 10.5474 7.5766C10.5689 7.58397 10.5951 7.5925 10.6138 7.59861L11.2344 5.69734C11.223 5.69362 11.2146 5.69086 11.2075 5.68852C11.2041 5.6874 11.2015 5.68655 11.1996 5.68591C11.1977 5.68525 11.1969 5.68499 11.197 5.68502C11.1971 5.68506 11.1976 5.68522 11.1984 5.6855C11.1991 5.68578 11.2004 5.68624 11.2022 5.68685C11.2051 5.68791 11.2119 5.69037 11.221 5.69393C11.2287 5.69693 11.2471 5.70421 11.2705 5.715C11.2826 5.72054 11.3012 5.7294 11.3235 5.74139C11.3435 5.75209 11.3816 5.77329 11.4264 5.80493L10.2735 7.43922ZM9.84997 1.35915V6.62207H11.85V1.35915H9.84997ZM6.84499 2.35915H10.85V0.359145H6.84499V2.35915ZM7.84499 6.62241V1.35915H5.84499V6.62241H7.84499ZM7.10241 7.59383C7.12207 7.58687 7.1485 7.57753 7.16995 7.56957C7.18004 7.56583 7.20011 7.55832 7.22269 7.5489C7.2337 7.5443 7.25461 7.53541 7.27978 7.52316C7.29171 7.51736 7.3614 7.48422 7.43932 7.42664L6.25066 5.81819C6.29551 5.78504 6.33364 5.76279 6.353 5.75189C6.37493 5.73952 6.39319 5.73036 6.40481 5.72471C6.4275 5.71367 6.44525 5.70617 6.45244 5.70317C6.46739 5.69693 6.47715 5.6934 6.47435 5.69443C6.47004 5.69603 6.4604 5.69948 6.4344 5.70869L7.10241 7.59383ZM2.35156 13.8837C2.35156 9.31172 6.41567 7.83719 7.10241 7.59383L6.4344 5.70869C5.78866 5.93752 0.351562 7.82982 0.351562 13.8837H2.35156ZM8.84748 20.4065C5.26985 20.4065 2.35156 17.4829 2.35156 13.8837H0.351562C0.351562 18.5808 4.15853 22.4065 8.84748 22.4065V20.4065ZM13.3381 24.91C13.3381 22.4295 11.3281 20.4065 8.84748 20.4065V22.4065C10.2165 22.4065 11.3381 23.527 11.3381 24.91H13.3381ZM8.84748 29.4131C11.328 29.4131 13.3381 27.3906 13.3381 24.91H11.3381C11.3381 26.2928 10.2167 27.4131 8.84748 27.4131V29.4131ZM18.6289 20.6668C18.7979 21.0624 18.9433 21.4719 19.0613 21.8829L20.9836 21.3311C20.8429 20.841 20.6698 20.3533 20.468 19.8809L18.6289 20.6668ZM18.7236 21.7178L19.9439 21.1923L19.1529 19.3554L17.9326 19.8809L18.7236 21.7178ZM19.7076 21.7004C19.582 21.2628 19.4275 20.828 19.248 20.4071L17.4083 21.1916C17.5556 21.5371 17.6825 21.8941 17.7851 22.252L19.7076 21.7004ZM19.7445 20.6464L18.4684 21.0156L19.0243 22.9368L20.3004 22.5677L19.7445 20.6464ZM20.1877 22.0716L18.7894 22.2922L19.1012 24.2678L20.4995 24.0471L20.1877 22.0716ZM21.4851 24.5269C21.4672 23.985 21.4157 23.4392 21.3315 22.904L19.3558 23.2148C19.4271 23.6685 19.471 24.1325 19.4861 24.5927L21.4851 24.5269ZM19.1041 25.6064L20.5189 25.5592L20.4523 23.5603L19.0374 23.6075L19.1041 25.6064ZM17.9573 23.4346C18.0195 23.8323 18.0581 24.2383 18.0713 24.6397L20.0702 24.5742C20.0543 24.0901 20.008 23.6028 19.9333 23.1255L17.9573 23.4346ZM43.6569 44.1827L54.9372 36.726L53.8343 35.0576L42.554 42.5143L43.6569 44.1827ZM44.6863 43.9346L43.9415 42.7998L42.2695 43.8972L43.0142 45.032L44.6863 43.9346ZM54.5791 36.1924L43.2988 43.6491L44.4017 45.3175L55.682 37.8608L54.5791 36.1924ZM53.5497 36.4405L54.2945 37.5753L55.9665 36.4779L55.2217 35.3431L53.5497 36.4405ZM37.5064 51.7817C37.479 50.7941 37.355 49.8048 37.1379 48.8399L35.1867 49.2788C35.3755 50.1181 35.4834 50.979 35.5072 51.8372L37.5064 51.7817ZM35.1525 52.8447L36.5326 52.8091L36.481 50.8097L35.1009 50.8454L35.1525 52.8447ZM33.837 49.5594C34.0078 50.3178 34.1053 51.0965 34.1271 51.8731L36.1263 51.817C36.1009 50.9117 35.9874 50.0045 35.788 49.1198L33.837 49.5594ZM35.959 48.0802L34.6092 48.3605L35.0158 50.3187L36.3656 50.0385L35.959 48.0802ZM35.2381 55.1984C35.1033 55.8382 34.9238 56.471 34.7056 57.0787L36.5879 57.7546C36.8371 57.0606 37.0415 56.3397 37.1951 55.6106L35.2381 55.1984ZM35.3628 54.5275C35.3268 54.7506 35.285 54.9746 35.2379 55.1993L37.1953 55.6098C37.2484 55.3564 37.296 55.1017 37.3373 54.8461L35.3628 54.5275ZM34.8367 55.4644L36.197 55.6751L36.5031 53.6986L35.1428 53.4879L34.8367 55.4644ZM35.8463 55.3384C35.8955 55.1046 35.9391 54.8701 35.977 54.6354L34.0025 54.3168C33.9698 54.5201 33.932 54.7233 33.8893 54.926L35.8463 55.3384ZM35.2887 57.3072C35.518 56.6695 35.7052 56.0074 35.8462 55.3386L33.8893 54.9259C33.7668 55.5067 33.6044 56.0805 33.4066 56.6305L35.2887 57.3072ZM35.9726 56.4712L34.6735 56.0234L34.0218 57.9142L35.3209 58.362L35.9726 56.4712ZM33.3925 61.4566L32.383 60.5873L31.0779 62.1027L32.0873 62.9721L33.3925 61.4566ZM33.4824 59.441C33.0502 60.1914 32.5451 60.9056 31.981 61.5632L33.4988 62.8655C34.1443 62.1132 34.7214 61.2971 35.2155 60.4391L33.4824 59.441ZM32.6956 60.1397L33.8487 60.8059L34.8492 59.0741L33.6961 58.408L32.6956 60.1397ZM32.4896 61.9959C33.0805 61.3067 33.6094 60.5592 34.0624 59.7731L32.3294 58.7746C31.9385 59.4531 31.4814 60.0991 30.9713 60.6941L32.4896 61.9959ZM29.5038 51.8105L30.841 51.5944L30.522 49.6201L29.1848 49.8361L29.5038 51.8105ZM26.2719 59.9075C29.3244 57.901 30.9165 54.273 30.3314 50.6633L28.3572 50.9833C28.8164 53.8165 27.5654 56.6638 25.1734 58.2362L26.2719 59.9075ZM27.3024 59.6525L26.5578 58.5218L24.8875 59.6219L25.6321 60.7525L27.3024 59.6525ZM29.6944 50.7672C30.2385 54.1255 28.755 57.5017 25.9179 59.3669L27.0167 61.0381C30.5136 58.739 32.3386 54.5825 31.6686 50.4473L29.6944 50.7672ZM40.7404 43.7112L37.3431 45.957L38.446 47.6254L41.8433 45.3796L40.7404 43.7112ZM42.8727 45.1315L42.1279 43.9967L40.4558 45.0941L41.2006 46.2289L42.8727 45.1315ZM39.1908 48.7602L42.5881 46.5144L41.4852 44.846L38.0879 47.0918L39.1908 48.7602ZM37.0585 47.3399L37.8033 48.4747L39.4753 47.3773L38.7305 46.2425L37.0585 47.3399ZM16.3358 31.823L17.4577 32.6768L18.6689 31.0853L17.547 30.2315L16.3358 31.823ZM16.4737 29.945C16.3667 30.1104 16.2533 30.2742 16.1342 30.4371L17.7487 31.6175C17.8873 31.4278 18.0228 31.2326 18.153 31.0313L16.4737 29.945ZM19.04 30.4447L17.8716 29.6585L16.7551 31.3178L17.9234 32.104L19.04 30.4447ZM18.8694 32.4728C19.0265 32.2587 19.177 32.0402 19.3209 31.8182L17.6425 30.7305C17.519 30.9211 17.3905 31.1076 17.2571 31.2893L18.8694 32.4728ZM18.1589 29.2646L19.3816 29.6952L20.0461 27.8088L18.8233 27.3782L18.1589 29.2646ZM18.916 29.8888C19.1137 29.4888 19.2881 29.0726 19.4353 28.6508L17.5469 27.992C17.4266 28.3369 17.2839 28.6772 17.1231 29.0025L18.916 29.8888ZM19.6261 29.1286L18.4653 28.5506L17.5737 30.3408L18.7345 30.9189L19.6261 29.1286ZM18.7698 28.4221C18.6317 28.8175 18.4681 29.2075 18.2837 29.5809L20.0769 30.4666C20.2978 30.0192 20.493 29.5537 20.6579 29.082L18.7698 28.4221ZM20.4229 24.9707L19.074 24.8493L18.8947 26.8412L20.2436 26.9626L20.4229 24.9707ZM21.0934 27.6045C21.2034 27.0964 21.2827 26.5758 21.3293 26.0559L19.3372 25.8774C19.298 26.3155 19.2311 26.7544 19.1387 27.1812L21.0934 27.6045ZM18.5798 28.0812L19.9029 28.3699L20.3292 26.4158L19.0061 26.1272L18.5798 28.0812ZM17.9883 25.7564C17.9543 26.1383 17.896 26.521 17.8156 26.8927L19.7703 27.3157C19.8684 26.8628 19.9391 26.3981 19.9804 25.934L17.9883 25.7564ZM39.3201 33.4615L33.7155 37.355L34.8565 38.9975L40.4612 35.104L39.3201 33.4615ZM38.2969 33.7334L39.0674 34.8505L40.7138 33.715L39.9433 32.5979L38.2969 33.7334ZM34.086 37.8804L39.6906 33.9869L38.5496 32.3444L32.9449 36.2379L34.086 37.8804ZM35.1092 37.6085L34.3386 36.4914L32.6923 37.6269L33.4628 38.7441L35.1092 37.6085ZM43.922 31.4556L43.1515 30.3385L41.5051 31.474L42.2756 32.5912L43.922 31.4556ZM41.5989 34.283L43.6694 32.8446L42.5283 31.2021L40.4579 32.6404L41.5989 34.283ZM39.4347 32.9123L40.2052 34.0295L41.8516 32.8939L41.0811 31.7768L39.4347 32.9123ZM41.7578 30.085L39.6873 31.5233L40.8284 33.1658L42.8988 31.7275L41.7578 30.085ZM28.8008 17.8691H31.5733V15.8691H28.8008V17.8691ZM29.8008 18.2619V16.8691H27.8008V18.2619H29.8008ZM31.5733 17.2619H28.8008V19.2619H31.5733V17.2619ZM30.5733 16.8691V18.2619H32.5733V16.8691H30.5733ZM36.9678 15.8691H34.1953V17.8691H36.9678V15.8691ZM37.9678 18.2619V16.8691H35.9678V18.2619H37.9678ZM34.1953 19.2619H36.9678V17.2619H34.1953V19.2619ZM33.1953 16.8691V18.2619H35.1953V16.8691H33.1953ZM39.5859 17.8691H41.4343V15.8691H39.5859V17.8691ZM40.5859 18.2619V16.8691H38.5859V18.2619H40.5859ZM41.4343 17.2619H39.5859V19.2619H41.4343V17.2619ZM40.4343 16.8691V18.2619H42.4343V16.8691H40.4343ZM52.5225 5.96431H49.75V7.96431H52.5225V5.96431ZM53.5225 8.35717V6.96431H51.5225V8.35717H53.5225ZM49.75 9.35717H52.5225V7.35717H49.75V9.35717ZM48.75 6.96431V8.35717H50.75V6.96431H48.75ZM60.6875 7.96431H62.5358V5.96431H60.6875V7.96431ZM61.6875 8.35717V6.96431H59.6875V8.35717H61.6875ZM62.5358 7.35717H60.6875V9.35717H62.5358V7.35717ZM61.5358 6.96431V8.35717H63.5358V6.96431H61.5358ZM57.9131 5.96431H55.1406V7.96431H57.9131V5.96431ZM58.9131 8.35717V6.96431H56.9131V8.35717H58.9131ZM55.1406 9.35717H57.9131V7.35717H55.1406V9.35717ZM54.1406 6.96431V8.35717H56.1406V6.96431H54.1406ZM34.5 4.55954H36.3483V2.55954H34.5V4.55954ZM35.5 4.9524V3.55954H33.5V4.9524H35.5ZM36.3483 3.9524H34.5V5.9524H36.3483V3.9524ZM35.3483 3.55954V4.9524H37.3483V3.55954H35.3483ZM26.4952 2.55954H23.7227V4.55954H26.4952V2.55954ZM27.4952 4.9524V3.55954H25.4952V4.9524H27.4952ZM23.7227 5.9524H26.4952V3.9524H23.7227V5.9524ZM22.7227 3.55954V4.9524H24.7227V3.55954H22.7227ZM29.1133 4.55954H31.8858V2.55954H29.1133V4.55954ZM30.1133 4.9524V3.55954H28.1133V4.9524H30.1133ZM31.8858 3.9524H29.1133V5.9524H31.8858V3.9524ZM30.8858 3.55954V4.9524H32.8858V3.55954H30.8858Z" fill="#FF9419" mask="url(#path-1-inside-1)"/>
</g>
<path id="Path Copy 6" opacity="0.44608" d="M30.6479 46.024C34.0806 51.2601 32.6283 58.323 27.4105 61.7684C22.1931 65.2129 15.1689 63.777 11.7225 58.5191C10.7219 56.9929 10.1484 55.3109 9.95011 53.6091C10.7576 54.0163 11.5598 54.2861 12.3414 54.4171C12.9253 55.9369 14.3335 56.821 15.8207 56.821C17.5385 56.821 19.1016 55.6211 19.4683 53.8355C19.9451 51.5177 18.1826 49.338 15.8147 49.338C14.1068 49.338 12.5363 50.5275 12.1668 52.3232C12.1226 52.5379 12.1051 52.7535 12.0983 52.9682C11.3752 52.7879 10.6278 52.4648 9.87109 52.0017C9.96162 48.4016 11.7416 44.8998 14.9598 42.7747C20.1773 39.3303 27.2015 40.7661 30.6479 46.024Z" fill="#FF9419"/>
</g>
</svg>
