<svg width="63" height="63" viewBox="0 0 63 63" fill="none" xmlns="http://www.w3.org/2000/svg">
<g id="seo-and-web">
<g id="Combined Shape">
<mask id="path-1-inside-1" fill="white">
<path fill-rule="evenodd" clip-rule="evenodd" d="M0 31.5C0 14.1308 14.1308 0 31.5 0C48.8692 0 63 14.1308 63 31.5C63 48.8692 48.8692 63 31.5 63C14.1308 63 0 48.8692 0 31.5ZM7.875 31.5C7.875 44.527 18.473 55.125 31.5 55.125C44.527 55.125 55.125 44.527 55.125 31.5C55.125 18.473 44.527 7.875 31.5 7.875C18.473 7.875 7.875 18.473 7.875 31.5ZM48.65 13.4217C44.3249 9.31658 38.5364 6.74526 32.1562 6.5791V1.3291C39.9835 1.4975 47.0832 4.65655 52.3605 9.71105L48.65 13.4217ZM14.3492 13.4218C18.6743 9.31658 24.4628 6.74526 30.8431 6.5791V1.3291C23.0157 1.4975 15.9159 4.65668 10.6387 9.71132L14.3492 13.4218ZM13.4208 14.3498C9.31567 18.6749 6.74422 24.4634 6.57812 30.8437H1.32812C1.49652 23.0163 4.65564 15.9166 9.71027 10.6394L13.4208 14.3498ZM13.4207 48.65C9.31561 44.3249 6.74429 38.5364 6.57812 32.1562H1.32812C1.49652 39.9835 4.65557 47.0832 9.71014 52.3606L13.4207 48.65ZM14.3492 49.5779C18.6743 53.6831 24.4629 56.2546 30.8433 56.4208V61.6708C23.0158 61.5024 15.916 58.3432 10.6387 53.2886L14.3492 49.5779ZM48.6502 49.5781C44.3251 53.6834 38.5366 56.2547 32.1562 56.4208V61.6708C39.9836 61.5024 47.0834 58.3433 52.3607 53.2886L48.6502 49.5781ZM49.5781 48.6501C53.6832 44.325 56.2547 38.5366 56.4208 32.1562H61.6708C61.5024 39.9837 58.3433 47.0834 53.2886 52.3606L49.5781 48.6501ZM49.5781 14.3498C53.6834 18.6749 56.2548 24.4635 56.421 30.8439H61.671C61.5026 23.0164 58.3434 15.9165 53.2886 10.6392L49.5781 14.3498ZM37.5093 11.3764C36.8633 11.1832 36.2 11.0195 35.537 10.8896L35.2852 12.1778C35.9062 12.2993 36.5278 12.4527 37.1331 12.6338L37.5093 11.3764ZM50.7324 27.2775L52.0148 26.9968C52.1586 27.6541 52.2724 28.328 52.3528 28.9989L51.0493 29.1546C50.9744 28.5253 50.8677 27.8941 50.7324 27.2775ZM33.5277 10.5968C32.8586 10.5327 32.1764 10.5 31.5 10.5V11.8125C32.1345 11.8125 32.7747 11.8429 33.4021 11.9035L33.5277 10.5968ZM47.709 20.3377L48.7888 19.5911C49.1731 20.1473 49.5342 20.7276 49.8616 21.3163L48.7145 21.9546C48.4078 21.4028 48.0695 20.8587 47.709 20.3377ZM50.7622 23.1365L49.5586 23.6607C49.8114 24.241 50.0386 24.8402 50.2334 25.441L51.4818 25.036C51.2739 24.3952 51.0317 23.7559 50.7622 23.1365ZM39.4244 12.0525C40.047 12.3072 40.6664 12.5966 41.265 12.9119L40.653 14.0731C40.0915 13.7771 39.5113 13.5063 38.9277 13.2676L39.4244 12.0525ZM44.6555 15.1422C44.131 14.7192 43.5789 14.3164 43.0146 13.9451L42.293 15.0416C42.8223 15.3896 43.3398 15.7674 43.8313 16.1638L44.6555 15.1422ZM46.1736 16.4902C46.6558 16.9619 47.1207 17.4625 47.5559 17.978L46.553 18.8246C46.1447 18.3408 45.7083 17.871 45.2559 17.4291L46.1736 16.4902ZM52.4954 31.0243L51.1836 31.0544C51.1867 31.2021 51.1884 31.3502 51.1881 31.4986L52.5006 31.5011C52.5009 31.3418 52.4992 31.1829 52.4954 31.0243ZM19.9847 49.0549C19.4204 48.6835 18.8683 48.2807 18.3438 47.8578L19.1679 46.8362C19.6595 47.2326 20.177 47.6104 20.7063 47.9584L19.9847 49.0549ZM13.1387 41.6837C13.4661 42.2724 13.8273 42.8527 14.2115 43.409L15.2914 42.6623C14.9309 42.1413 14.5925 41.5973 14.2859 41.0454L13.1387 41.6837ZM16.8257 46.5097C16.3435 46.038 15.8785 45.5375 15.4434 45.0219L16.4462 44.1753C16.8545 44.6591 17.2909 45.129 17.7434 45.5708L16.8257 46.5097ZM11.8125 31.5012L10.5 31.4986C10.4997 31.6579 10.5014 31.8169 10.5052 31.9755L11.817 31.9454C11.8139 31.7976 11.8122 31.6496 11.8125 31.5012ZM10.6484 34.0009L11.9519 33.8452C12.027 34.4746 12.1337 35.1058 12.2689 35.7224L10.9865 36.003C10.8426 35.3458 10.7289 34.672 10.6484 34.0009ZM12.766 37.5588L11.5176 37.9639C11.7255 38.6048 11.9678 39.244 12.2373 39.8634L13.4409 39.3392C13.188 38.7589 12.9608 38.1596 12.766 37.5588ZM31.5003 52.5C30.8239 52.5 30.1417 52.4673 29.4727 52.4032L29.5983 51.0964C30.2256 51.157 30.8659 51.1875 31.5003 51.1875V52.5ZM21.7344 50.088C22.3329 50.4033 22.9524 50.6927 23.575 50.9474L24.0716 49.7323C23.4881 49.4936 22.9078 49.2228 22.3464 48.9268L21.7344 50.088ZM27.4625 52.1103C26.7995 51.9805 26.1362 51.8168 25.4902 51.6236L25.8665 50.3662C26.4717 50.5473 27.0934 50.7007 27.7144 50.8222L27.4625 52.1103ZM30.4306 19.6477C29.3428 18.798 28.1164 18.2314 26.7854 17.9639L26.5265 19.2507C27.6557 19.4776 28.6971 19.9592 29.6225 20.6821C35.1419 24.9961 32.1224 33.9728 25.0374 33.9728C23.3677 33.9728 21.7873 33.4273 20.4671 32.3956C17.238 29.8715 16.6645 25.1913 19.1879 21.9619C20.2344 20.6238 21.6517 19.708 23.2869 19.3138L22.9792 18.0379C21.0531 18.5022 19.3846 19.5795 18.1538 21.1538C15.1847 24.9532 15.8599 30.4602 19.659 33.4299C21.2121 34.6437 23.0722 35.2852 25.0374 35.2852C33.3695 35.2853 36.9273 24.7259 30.4306 19.6477ZM19.0967 27.973C18.9249 27.2577 18.8823 26.5262 18.9704 25.7979L20.2732 25.9555C20.2041 26.5281 20.2377 27.1037 20.3726 27.6667L19.0967 27.973ZM21.276 31.3615C22.3632 32.211 23.6642 32.6602 25.0382 32.6602V31.3477C23.9599 31.3477 22.9384 30.9949 22.0844 30.3275C21.4634 29.8417 20.9854 29.2328 20.6639 28.5173L19.4668 29.055C19.8709 29.9542 20.4964 30.7517 21.276 31.3615ZM46.1524 38.1743L38.5105 32.3552L39.5608 31.0113L36.2567 28.4289C36.9207 24.4488 35.4446 20.2344 32.0479 17.5796C30.0288 16.0018 27.6102 15.1677 25.0532 15.1677C21.5248 15.1677 18.2568 16.7603 16.0868 19.5372C12.2258 24.477 13.1038 31.6371 18.044 35.4984C20.063 37.0762 22.4816 37.9103 25.0384 37.9103C26.6366 37.9103 28.1802 37.5804 29.5938 36.9648L32.8932 39.5432L33.9535 38.1865L41.6019 44.0097C43.2184 45.2737 45.5417 44.9777 46.7959 43.373C48.0501 41.7682 47.7794 39.4453 46.1524 38.1743ZM18.8526 34.4638C14.4828 31.0486 13.7061 24.7149 17.1216 20.3451C19.041 17.8886 21.9323 16.48 25.0536 16.48C27.3149 16.48 29.4542 17.2176 31.2402 18.6138C38.7043 24.4473 34.6256 36.5975 25.0389 36.5975C22.7779 36.5975 20.6386 35.8599 18.8526 34.4638ZM30.877 36.3025L32.6656 37.7004L37.7169 31.2369L35.9167 29.8301C35.0708 32.6373 33.2425 34.8867 30.877 36.3025ZM45.7603 42.5647C44.9439 43.6096 43.4459 43.7865 42.4025 42.9707L34.7617 37.1529L37.7024 33.3904L45.3495 39.2133C46.3894 40.0256 46.5733 41.5243 45.7603 42.5647ZM32.4883 43.4824H34.1598V44.7949H32.4883V43.4824ZM30.4164 43.4824H25.0371V44.7949H30.4164V43.4824ZM38.6387 23.0632H40.3101V24.3757H38.6387V23.0632ZM47.7601 23.0632H42.3809V24.3757H47.7601V23.0632ZM8.13672 4.42969H10.3056V5.74219H8.13672V4.42969ZM6.755 4.42969H2.51562V5.74219H6.755V4.42969Z"/>
</mask>
<path d="M32.1562 6.5791H31.1562V7.5534L32.1302 7.57876L32.1562 6.5791ZM48.65 13.4217L47.9616 14.147L48.6682 14.8177L49.3571 14.1288L48.65 13.4217ZM32.1562 1.3291L32.1778 0.329333L31.1562 0.307357V1.3291H32.1562ZM52.3605 9.71105L53.0677 10.4182L53.7902 9.69564L53.0522 8.98887L52.3605 9.71105ZM30.8431 6.5791L30.8691 7.57876L31.8431 7.5534V6.5791H30.8431ZM14.3492 13.4218L13.6421 14.1289L14.331 14.8178L15.0376 14.1471L14.3492 13.4218ZM30.8431 1.3291H31.8431V0.307357L30.8216 0.329333L30.8431 1.3291ZM10.6387 9.71132L9.94696 8.98914L9.20906 9.69592L9.93157 10.4184L10.6387 9.71132ZM6.57812 30.8437V31.8437H7.55243L7.57779 30.8697L6.57812 30.8437ZM13.4208 14.3498L14.1461 15.0383L14.8168 14.3316L14.1279 13.6427L13.4208 14.3498ZM1.32812 30.8437L0.328356 30.8222L0.30638 31.8437H1.32812V30.8437ZM9.71027 10.6394L10.4174 9.93229L9.69487 9.2098L8.9881 9.94769L9.71027 10.6394ZM6.57812 32.1562L7.57779 32.1302L7.55242 31.1562H6.57812V32.1562ZM13.4207 48.65L14.1278 49.3571L14.8167 48.6682L14.146 47.9616L13.4207 48.65ZM1.32812 32.1562V31.1562H0.30638L0.328356 32.1778L1.32812 32.1562ZM9.71014 52.3606L8.98795 53.0523L9.69473 53.7903L10.4173 53.0677L9.71014 52.3606ZM30.8433 56.4208H31.8433V55.4465L30.8693 55.4211L30.8433 56.4208ZM14.3492 49.5779L15.0376 48.8526L14.331 48.1819L13.642 48.8708L14.3492 49.5779ZM30.8433 61.6708L30.8218 62.6706L31.8433 62.6925V61.6708H30.8433ZM10.6387 53.2886L9.93155 52.5815L9.20907 53.304L9.94696 54.0108L10.6387 53.2886ZM32.1562 56.4208L32.1302 55.4212L31.1562 55.4465V56.4208H32.1562ZM48.6502 49.5781L49.3573 48.871L48.6684 48.1821L47.9617 48.8528L48.6502 49.5781ZM32.1562 61.6708H31.1562V62.6926L32.1778 62.6706L32.1562 61.6708ZM52.3607 53.2886L53.0524 54.0108L53.7903 53.304L53.0678 52.5815L52.3607 53.2886ZM56.4208 32.1562V31.1562H55.4465L55.4211 32.1302L56.4208 32.1562ZM49.5781 48.6501L48.8528 47.9617L48.1821 48.6683L48.871 49.3572L49.5781 48.6501ZM61.6708 32.1562L62.6705 32.1778L62.6925 31.1562H61.6708V32.1562ZM53.2886 52.3606L52.5815 53.0677L53.304 53.7902L54.0108 53.0523L53.2886 52.3606ZM56.421 30.8439L55.4213 30.8699L55.4467 31.8439H56.421V30.8439ZM49.5781 14.3498L48.871 13.6427L48.1821 14.3316L48.8528 15.0382L49.5781 14.3498ZM61.671 30.8439V31.8439H62.6927L62.6707 30.8223L61.671 30.8439ZM53.2886 10.6392L54.0108 9.94745L53.304 9.20954L52.5815 9.93207L53.2886 10.6392ZM35.537 10.8896L35.7292 9.90828L34.7476 9.7161L34.5556 10.6978L35.537 10.8896ZM37.5093 11.3764L38.4674 11.663L38.7541 10.7049L37.7958 10.4183L37.5093 11.3764ZM35.2852 12.1778L34.3037 11.9859L34.1119 12.9672L35.0932 13.1592L35.2852 12.1778ZM37.1331 12.6338L36.8465 13.5918L37.8045 13.8784L38.0911 12.9204L37.1331 12.6338ZM52.0148 26.9968L52.9917 26.783L52.7779 25.8061L51.801 26.02L52.0148 26.9968ZM50.7324 27.2775L50.5186 26.3006L49.5413 26.5145L49.7556 27.4918L50.7324 27.2775ZM52.3528 28.9989L52.4715 29.9919L53.4647 29.8732L53.3457 28.8799L52.3528 28.9989ZM51.0493 29.1546L50.0563 29.2729L50.1746 30.2663L51.1679 30.1476L51.0493 29.1546ZM31.5 10.5V9.5H30.5V10.5H31.5ZM33.5277 10.5968L34.5231 10.6925L34.6188 9.69678L33.6231 9.60136L33.5277 10.5968ZM31.5 11.8125H30.5V12.8125H31.5V11.8125ZM33.4021 11.9035L33.306 12.8989L34.3018 12.995L34.3975 11.9992L33.4021 11.9035ZM48.7888 19.5911L49.6116 19.0227L49.043 18.1996L48.2201 18.7685L48.7888 19.5911ZM47.709 20.3377L47.1403 19.5151L46.3175 20.084L46.8866 20.9067L47.709 20.3377ZM49.8616 21.3163L50.3479 22.1901L51.2215 21.704L50.7355 20.8302L49.8616 21.3163ZM48.7145 21.9546L47.8404 22.4404L48.3264 23.315L49.2007 22.8284L48.7145 21.9546ZM49.5586 23.6607L49.1593 22.7439L48.2423 23.1432L48.6418 24.0601L49.5586 23.6607ZM50.7622 23.1365L51.6791 22.7375L51.28 21.8202L50.3628 22.2197L50.7622 23.1365ZM50.2334 25.441L49.2822 25.7495L49.5907 26.7009L50.542 26.3922L50.2334 25.441ZM51.4818 25.036L51.7904 25.9872L52.7416 25.6786L52.433 24.7274L51.4818 25.036ZM41.265 12.9119L42.1496 13.3782L42.616 12.4933L41.7311 12.0272L41.265 12.9119ZM39.4244 12.0525L39.8031 11.127L38.8772 10.7481L38.4987 11.6741L39.4244 12.0525ZM40.653 14.0731L40.1865 14.9577L41.0713 15.4242L41.5376 14.5394L40.653 14.0731ZM38.9277 13.2676L38.0021 12.8893L37.6239 13.8146L38.5491 14.1931L38.9277 13.2676ZM43.0146 13.9451L43.5643 13.1097L42.729 12.56L42.1792 13.3953L43.0146 13.9451ZM44.6555 15.1422L45.4338 15.7701L46.0619 14.9916L45.2832 14.3637L44.6555 15.1422ZM42.293 15.0416L41.4576 14.4919L40.9077 15.3276L41.7436 15.8772L42.293 15.0416ZM43.8313 16.1638L43.2036 16.9422L43.9819 17.5698L44.6096 16.7917L43.8313 16.1638ZM47.5559 17.978L48.201 18.7421L48.965 18.0971L48.3201 17.333L47.5559 17.978ZM46.1736 16.4902L46.8728 15.7754L46.1577 15.0758L45.4584 15.7912L46.1736 16.4902ZM46.553 18.8246L45.7887 19.4695L46.4338 20.234L47.1981 19.5888L46.553 18.8246ZM45.2559 17.4291L44.5407 16.7301L43.8414 17.4456L44.5572 18.1446L45.2559 17.4291ZM51.1836 31.0544L51.1606 30.0547L50.1625 30.0776L50.1838 31.0757L51.1836 31.0544ZM52.4954 31.0243L53.4952 31.0003L53.4712 30.0016L52.4725 30.0245L52.4954 31.0243ZM51.1881 31.4986L50.1881 31.4963L50.1858 32.4966L51.1861 32.4986L51.1881 31.4986ZM52.5006 31.5011L52.4986 32.5011L53.4985 32.5031L53.5006 31.5032L52.5006 31.5011ZM18.3438 47.8578L17.5655 47.2299L16.9374 48.0084L17.7161 48.6362L18.3438 47.8578ZM19.9847 49.0549L19.435 49.8902L20.2703 50.44L20.82 49.6046L19.9847 49.0549ZM19.1679 46.8362L19.7957 46.0578L19.0174 45.4302L18.3896 46.2083L19.1679 46.8362ZM20.7063 47.9584L21.5417 48.5081L22.0916 47.6724L21.2557 47.1228L20.7063 47.9584ZM14.2115 43.409L13.3887 43.9773L13.9573 44.8004L14.7802 44.2315L14.2115 43.409ZM13.1387 41.6837L12.6524 40.8099L11.7787 41.2961L12.2648 42.1699L13.1387 41.6837ZM15.2914 42.6623L15.8601 43.4849L16.6829 42.916L16.1137 42.0934L15.2914 42.6623ZM14.2859 41.0454L15.16 40.5597L14.6739 39.6851L13.7996 40.1716L14.2859 41.0454ZM15.4434 45.0219L14.7983 44.2578L14.0342 44.9028L14.6792 45.6669L15.4434 45.0219ZM16.8257 46.5097L16.1264 47.2246L16.8415 47.9241L17.5408 47.2087L16.8257 46.5097ZM16.4462 44.1753L17.2105 43.5304L16.5655 42.7659L15.8012 43.4112L16.4462 44.1753ZM17.7434 45.5708L18.4585 46.2698L19.1578 45.5543L18.442 44.8553L17.7434 45.5708ZM10.5 31.4986L10.502 30.4986L9.5021 30.4967L9.50004 31.4966L10.5 31.4986ZM11.8125 31.5012L12.8125 31.5034L12.8147 30.5032L11.8145 30.5012L11.8125 31.5012ZM10.5052 31.9755L9.50545 31.9995L9.52941 32.9981L10.5281 32.9752L10.5052 31.9755ZM11.817 31.9454L11.84 32.9451L12.8381 32.9222L12.8168 31.924L11.817 31.9454ZM11.9519 33.8452L12.9449 33.7269L12.8265 32.7336L11.8333 32.8523L11.9519 33.8452ZM10.6484 34.0009L10.5298 33.008L9.53645 33.1267L9.65555 34.12L10.6484 34.0009ZM12.2689 35.7224L12.4827 36.6992L13.4599 36.4853L13.2456 35.5082L12.2689 35.7224ZM10.9865 36.003L10.0096 36.2168L10.2234 37.1937L11.2003 36.9799L10.9865 36.003ZM11.5176 37.9639L11.209 37.0127L10.2577 37.3213L10.5664 38.2725L11.5176 37.9639ZM12.766 37.5588L13.7172 37.2504L13.4087 36.299L12.4574 36.6077L12.766 37.5588ZM12.2373 39.8634L11.3203 40.2624L11.7195 41.1797L12.6366 40.7802L12.2373 39.8634ZM13.4409 39.3392L13.8402 40.256L14.7571 39.8566L14.3576 38.9397L13.4409 39.3392ZM29.4727 52.4032L28.4772 52.3075L28.3815 53.3032L29.3773 53.3986L29.4727 52.4032ZM31.5003 52.5V53.5H32.5003V52.5H31.5003ZM29.5983 51.0964L29.6944 50.1011L28.6986 50.0049L28.6028 51.0008L29.5983 51.0964ZM31.5003 51.1875H32.5003V50.1875H31.5003V51.1875ZM23.575 50.9474L23.1962 51.8729L24.1221 52.2518L24.5006 51.3258L23.575 50.9474ZM21.7344 50.088L20.8497 49.6217L20.3834 50.5066L21.2683 50.9727L21.7344 50.088ZM24.0716 49.7323L24.9973 50.1106L25.3755 49.1853L24.4503 48.8068L24.0716 49.7323ZM22.3464 48.9268L22.8128 48.0422L21.9281 47.5757L21.4617 48.4605L22.3464 48.9268ZM25.4902 51.6236L24.5322 51.3369L24.2455 52.2951L25.2037 52.5817L25.4902 51.6236ZM27.4625 52.1103L27.2704 53.0917L28.252 53.2839L28.4439 52.3022L27.4625 52.1103ZM25.8665 50.3662L26.1531 49.4082L25.1951 49.1216L24.9084 50.0796L25.8665 50.3662ZM27.7144 50.8222L28.6958 51.0141L28.8877 50.0327L27.9064 49.8408L27.7144 50.8222ZM26.7854 17.9639L26.9824 16.9835L26.0022 16.7864L25.805 17.7666L26.7854 17.9639ZM30.4306 19.6477L31.0465 18.8599L31.0462 18.8597L30.4306 19.6477ZM26.5265 19.2507L25.5461 19.0535L25.3488 20.0341L26.3295 20.2311L26.5265 19.2507ZM29.6225 20.6821L30.2384 19.8942L30.2381 19.8941L29.6225 20.6821ZM20.4671 32.3956L19.8512 33.1834L19.8513 33.1835L20.4671 32.3956ZM19.1879 21.9619L18.4002 21.3459L18.3999 21.3462L19.1879 21.9619ZM23.2869 19.3138L23.5212 20.286L24.4935 20.0517L24.259 19.0794L23.2869 19.3138ZM22.9792 18.0379L23.9514 17.8035L23.717 16.8314L22.7449 17.0657L22.9792 18.0379ZM18.1538 21.1538L17.366 20.5378L17.3659 20.538L18.1538 21.1538ZM19.659 33.4299L19.0431 34.2178L19.0432 34.2178L19.659 33.4299ZM25.0374 35.2852L25.0375 34.2852H25.0374V35.2852ZM18.9704 25.7979L19.0906 24.8051L18.0978 24.6849L17.9776 25.6777L18.9704 25.7979ZM19.0967 27.973L18.1243 28.2065L18.3578 29.1788L19.3301 28.9454L19.0967 27.973ZM20.2732 25.9555L21.266 26.0755L21.3859 25.0829L20.3934 24.9628L20.2732 25.9555ZM20.3726 27.6667L20.6061 28.639L21.578 28.4057L21.3451 27.4336L20.3726 27.6667ZM25.0382 32.6602V33.6602H26.0382V32.6602H25.0382ZM21.276 31.3615L20.6599 32.1492L20.6603 32.1495L21.276 31.3615ZM25.0382 31.3477H26.0382V30.3477H25.0382V31.3477ZM22.0844 30.3275L21.4683 31.1151L21.4686 31.1154L22.0844 30.3275ZM20.6639 28.5173L21.5761 28.1076L21.1664 27.1954L20.2542 27.6051L20.6639 28.5173ZM19.4668 29.055L19.0571 28.1428L18.1446 28.5526L18.5547 29.4649L19.4668 29.055ZM38.5105 32.3552L37.7226 31.7395L37.0991 32.5374L37.9047 33.1508L38.5105 32.3552ZM46.1524 38.1743L46.7681 37.3862L46.7583 37.3787L46.1524 38.1743ZM39.5608 31.0113L40.3487 31.6271L40.9645 30.8392L40.1766 30.2234L39.5608 31.0113ZM36.2567 28.4289L35.2703 28.2643L35.1725 28.8507L35.6409 29.2168L36.2567 28.4289ZM32.0479 17.5796L32.6637 16.7917L32.6637 16.7917L32.0479 17.5796ZM16.0868 19.5372L16.8746 20.153L16.8747 20.1529L16.0868 19.5372ZM18.044 35.4984L17.4281 36.2862L17.4282 36.2863L18.044 35.4984ZM29.5938 36.9648L30.2096 36.1769L29.7405 35.8103L29.1946 36.048L29.5938 36.9648ZM32.8932 39.5432L32.2774 40.3311L33.0653 40.9469L33.6811 40.159L32.8932 39.5432ZM33.9535 38.1865L34.5593 37.3908L33.7736 36.7927L33.1656 37.5707L33.9535 38.1865ZM41.6019 44.0097L42.218 43.2219L42.2077 43.2141L41.6019 44.0097ZM46.7959 43.373L47.5838 43.9888L47.5838 43.9888L46.7959 43.373ZM17.1216 20.3451L17.9095 20.9609L17.9096 20.9608L17.1216 20.3451ZM18.8526 34.4638L19.4684 33.6759L19.4684 33.6759L18.8526 34.4638ZM31.2402 18.6138L30.6244 19.4016L30.6244 19.4017L31.2402 18.6138ZM32.6656 37.7004L32.0498 38.4883L32.8377 39.1041L33.4535 38.3162L32.6656 37.7004ZM30.877 36.3025L30.3634 35.4445L29.1128 36.193L30.2612 37.0905L30.877 36.3025ZM37.7169 31.2369L38.5048 31.8527L39.1205 31.0648L38.3326 30.449L37.7169 31.2369ZM35.9167 29.8301L36.5325 29.0422L35.3809 28.1422L34.9592 29.5416L35.9167 29.8301ZM42.4025 42.9707L43.0185 42.1828L43.0083 42.1751L42.4025 42.9707ZM45.7603 42.5647L44.9724 41.949L44.9723 41.949L45.7603 42.5647ZM34.7617 37.1529L33.9738 36.5371L33.3502 37.335L34.1559 37.9485L34.7617 37.1529ZM37.7024 33.3904L38.3082 32.5948L37.5226 31.9966L36.9145 32.7746L37.7024 33.3904ZM45.3495 39.2133L45.9652 38.4252L45.9553 38.4177L45.3495 39.2133ZM34.1598 43.4824H35.1598V42.4824H34.1598V43.4824ZM32.4883 43.4824V42.4824H31.4883V43.4824H32.4883ZM34.1598 44.7949V45.7949H35.1598V44.7949H34.1598ZM32.4883 44.7949H31.4883V45.7949H32.4883V44.7949ZM25.0371 43.4824V42.4824H24.0371V43.4824H25.0371ZM30.4164 43.4824H31.4164V42.4824H30.4164V43.4824ZM25.0371 44.7949H24.0371V45.7949H25.0371V44.7949ZM30.4164 44.7949V45.7949H31.4164V44.7949H30.4164ZM40.3101 23.0632H41.3101V22.0632H40.3101V23.0632ZM38.6387 23.0632V22.0632H37.6387V23.0632H38.6387ZM40.3101 24.3757V25.3757H41.3101V24.3757H40.3101ZM38.6387 24.3757H37.6387V25.3757H38.6387V24.3757ZM42.3809 23.0632V22.0632H41.3809V23.0632H42.3809ZM47.7601 23.0632H48.7601V22.0632H47.7601V23.0632ZM42.3809 24.3757H41.3809V25.3757H42.3809V24.3757ZM47.7601 24.3757V25.3757H48.7601V24.3757H47.7601ZM10.3056 4.42969H11.3056V3.42969H10.3056V4.42969ZM8.13672 4.42969V3.42969H7.13672V4.42969H8.13672ZM10.3056 5.74219V6.74219H11.3056V5.74219H10.3056ZM8.13672 5.74219H7.13672V6.74219H8.13672V5.74219ZM2.51562 4.42969V3.42969H1.51562V4.42969H2.51562ZM6.755 4.42969H7.755V3.42969H6.755V4.42969ZM2.51562 5.74219H1.51562V6.74219H2.51562V5.74219ZM6.755 5.74219V6.74219H7.755V5.74219H6.755ZM31.5 -1C13.5786 -1 -1 13.5786 -1 31.5H1C1 14.6831 14.6831 1 31.5 1V-1ZM64 31.5C64 13.5786 49.4215 -1 31.5 -1V1C48.3169 1 62 14.6831 62 31.5H64ZM31.5 64C49.4215 64 64 49.4215 64 31.5H62C62 48.3169 48.3169 62 31.5 62V64ZM-1 31.5C-1 49.4215 13.5786 64 31.5 64V62C14.6831 62 1 48.3169 1 31.5H-1ZM31.5 54.125C19.0253 54.125 8.875 43.9747 8.875 31.5H6.875C6.875 45.0792 17.9208 56.125 31.5 56.125V54.125ZM54.125 31.5C54.125 43.9747 43.9747 54.125 31.5 54.125V56.125C45.0792 56.125 56.125 45.0792 56.125 31.5H54.125ZM31.5 8.875C43.9747 8.875 54.125 19.0253 54.125 31.5H56.125C56.125 17.9208 45.0792 6.875 31.5 6.875V8.875ZM8.875 31.5C8.875 19.0253 19.0253 8.875 31.5 8.875V6.875C17.9208 6.875 6.875 17.9208 6.875 31.5H8.875ZM32.1302 7.57876C38.2533 7.73823 43.8084 10.2051 47.9616 14.147L49.3384 12.6964C44.8414 8.4281 38.8196 5.7523 32.1823 5.57944L32.1302 7.57876ZM31.1562 1.3291V6.5791H33.1562V1.3291H31.1562ZM53.0522 8.98887C47.6017 3.76844 40.2656 0.503331 32.1778 0.329333L32.1347 2.32887C39.7015 2.49166 46.5648 5.54466 51.6688 10.4332L53.0522 8.98887ZM49.3571 14.1288L53.0677 10.4182L51.6534 9.00395L47.9429 12.7146L49.3571 14.1288ZM30.8171 5.57944C24.1796 5.7523 18.1577 8.4281 13.6607 12.6965L15.0376 14.1471C19.1908 10.2051 24.7459 7.73823 30.8691 7.57876L30.8171 5.57944ZM29.8431 1.3291V6.5791H31.8431V1.3291H29.8431ZM11.3304 10.4335C16.4344 5.54479 23.2978 2.49166 30.8646 2.32887L30.8216 0.329333C22.7337 0.503331 15.3974 3.76858 9.94696 8.98914L11.3304 10.4335ZM15.0563 12.7147L11.3458 9.00421L9.93157 10.4184L13.6421 14.1289L15.0563 12.7147ZM7.57779 30.8697C7.73719 24.7465 10.2041 19.1914 14.1461 15.0383L12.6955 13.6614C8.4272 18.1584 5.75125 24.1802 5.57846 30.8177L7.57779 30.8697ZM1.32812 31.8437H6.57812V29.8437H1.32812V31.8437ZM8.9881 9.94769C3.76754 15.3982 0.502355 22.7343 0.328356 30.8222L2.32789 30.8652C2.49068 23.2984 5.54375 16.4351 10.4324 11.3311L8.9881 9.94769ZM14.1279 13.6427L10.4174 9.93229L9.00317 11.3465L12.7137 15.057L14.1279 13.6427ZM5.57846 32.1823C5.75132 38.8196 8.42713 44.8414 12.6954 49.3384L14.146 47.9616C10.2041 43.8084 7.73725 38.2533 7.57779 32.1302L5.57846 32.1823ZM1.32812 33.1562H6.57812V31.1562H1.32812V33.1562ZM10.4323 51.6689C5.54368 46.5647 2.49068 39.7014 2.32789 32.1347L0.328356 32.1778C0.502355 40.2655 3.76747 47.6016 8.98795 53.0523L10.4323 51.6689ZM12.7136 47.9429L9.00303 51.6535L10.4173 53.0677L14.1278 49.3571L12.7136 47.9429ZM30.8693 55.4211C24.7461 55.2617 19.1908 52.7947 15.0376 48.8526L13.6607 50.3032C18.1578 54.5716 24.1797 57.2476 30.8173 57.4205L30.8693 55.4211ZM31.8433 61.6708V56.4208H29.8433V61.6708H31.8433ZM9.94696 54.0108C15.3975 59.2313 22.7338 62.4966 30.8218 62.6706L30.8648 60.671C23.2978 60.5082 16.4344 57.4551 11.3304 52.5664L9.94696 54.0108ZM13.642 48.8708L9.93155 52.5815L11.3458 53.9957L15.0563 50.285L13.642 48.8708ZM32.1823 57.4205C38.8197 57.2476 44.8416 54.5718 49.3386 50.3034L47.9617 48.8528C43.8086 52.7949 38.2534 55.2617 32.1302 55.4212L32.1823 57.4205ZM33.1562 61.6708V56.4208H31.1562V61.6708H33.1562ZM51.669 52.5665C46.565 57.4552 39.7016 60.5083 32.1347 60.6711L32.1778 62.6706C40.2656 62.4966 47.6019 59.2314 53.0524 54.0108L51.669 52.5665ZM47.9431 50.2852L51.6536 53.9957L53.0678 52.5815L49.3573 48.871L47.9431 50.2852ZM55.4211 32.1302C55.2617 38.2534 52.7948 43.8085 48.8528 47.9617L50.3034 49.3385C54.5717 44.8415 57.2477 38.8197 57.4204 32.1823L55.4211 32.1302ZM61.6708 31.1562H56.4208V33.1562H61.6708V31.1562ZM54.0108 53.0523C59.2314 47.6019 62.4965 40.2657 62.6705 32.1778L60.671 32.1347C60.5082 39.7016 57.4552 46.5649 52.5665 51.6689L54.0108 53.0523ZM48.871 49.3572L52.5815 53.0677L53.9957 51.6535L50.2852 47.943L48.871 49.3572ZM57.4206 30.8178C57.2478 24.1804 54.5718 18.1584 50.3034 13.6614L48.8528 15.0382C52.7949 19.1914 55.2618 24.7467 55.4213 30.8699L57.4206 30.8178ZM61.671 29.8439H56.421V31.8439H61.671V29.8439ZM52.5665 11.3309C57.4553 16.435 60.5084 23.2985 60.6712 30.8654L62.6707 30.8223C62.4967 22.7344 59.2315 15.3981 54.0108 9.94745L52.5665 11.3309ZM50.2852 15.0569L53.9957 11.3463L52.5815 9.93207L48.871 13.6427L50.2852 15.0569ZM35.3449 11.871C35.9761 11.9946 36.6078 12.1506 37.2228 12.3345L37.7958 10.4183C37.1188 10.2158 36.424 10.0443 35.7292 9.90828L35.3449 11.871ZM36.2666 12.3697L36.5184 11.0815L34.5556 10.6978L34.3037 11.9859L36.2666 12.3697ZM37.4197 11.6757C36.7833 11.4853 36.13 11.3241 35.4771 11.1964L35.0932 13.1592C35.6823 13.2744 36.2724 13.4201 36.8465 13.5918L37.4197 11.6757ZM36.5513 11.0897L36.1751 12.3471L38.0911 12.9204L38.4674 11.663L36.5513 11.0897ZM51.801 26.02L50.5186 26.3006L50.9462 28.2544L52.2286 27.9737L51.801 26.02ZM53.3457 28.8799C53.2615 28.1773 53.1424 27.4717 52.9917 26.783L51.0379 27.2106C51.1749 27.8364 51.2833 28.4787 51.3599 29.1179L53.3457 28.8799ZM51.1679 30.1476L52.4715 29.9919L52.2342 28.006L50.9307 28.1617L51.1679 30.1476ZM49.7556 27.4918C49.884 28.0767 49.9852 28.6759 50.0563 29.2729L52.0423 29.0364C51.9635 28.3747 51.8514 27.7114 51.7092 27.0632L49.7556 27.4918ZM31.5 11.5C32.1446 11.5 32.795 11.5312 33.4323 11.5922L33.6231 9.60136C32.9223 9.5342 32.2082 9.5 31.5 9.5V11.5ZM32.5 11.8125V10.5H30.5V11.8125H32.5ZM33.4982 10.9081C32.8384 10.8444 32.166 10.8125 31.5 10.8125V12.8125C32.1029 12.8125 32.711 12.8415 33.306 12.8989L33.4982 10.9081ZM32.5323 10.5011L32.4067 11.8078L34.3975 11.9992L34.5231 10.6925L32.5323 10.5011ZM48.2201 18.7685L47.1403 19.5151L48.2777 21.1602L49.3576 20.4136L48.2201 18.7685ZM50.7355 20.8302C50.3922 20.2129 50.014 19.6051 49.6116 19.0227L47.9661 20.1594C48.3322 20.6895 48.6762 21.2423 48.9877 21.8023L50.7355 20.8302ZM49.2007 22.8284L50.3479 22.1901L49.3754 20.4425L48.2282 21.0808L49.2007 22.8284ZM46.8866 20.9067C47.2286 21.4009 47.5497 21.9172 47.8404 22.4404L49.5886 21.4689C49.266 20.8883 48.9103 20.3165 48.5313 19.7687L46.8866 20.9067ZM49.9579 24.5775L51.1615 24.0533L50.3628 22.2197L49.1593 22.7439L49.9579 24.5775ZM51.1846 25.1325C50.9798 24.5008 50.7411 23.8712 50.4754 23.2612L48.6418 24.0601C48.8818 24.6108 49.0974 25.1796 49.2822 25.7495L51.1846 25.1325ZM51.1732 24.0848L49.9248 24.4898L50.542 26.3922L51.7904 25.9872L51.1732 24.0848ZM49.8452 23.5354C50.1019 24.1255 50.3327 24.7345 50.5306 25.3446L52.433 24.7274C52.2151 24.0558 51.9614 23.3864 51.6791 22.7375L49.8452 23.5354ZM41.7311 12.0272C41.1043 11.697 40.4557 11.394 39.8031 11.127L39.0457 12.978C39.6382 13.2205 40.2285 13.4962 40.7989 13.7967L41.7311 12.0272ZM41.5376 14.5394L42.1496 13.3782L40.3803 12.4457L39.7683 13.6069L41.5376 14.5394ZM38.5491 14.1931C39.1027 14.4197 39.6537 14.6768 40.1865 14.9577L41.1194 13.1886C40.5294 12.8775 39.9198 12.593 39.3064 12.3421L38.5491 14.1931ZM38.4987 11.6741L38.0021 12.8893L39.8534 13.6459L40.35 12.4308L38.4987 11.6741ZM42.4648 14.7804C43.0023 15.1341 43.5284 15.5179 44.0278 15.9207L45.2832 14.3637C44.7336 13.9206 44.1555 13.4988 43.5643 13.1097L42.4648 14.7804ZM43.1283 15.5913L43.8499 14.4948L42.1792 13.3953L41.4576 14.4919L43.1283 15.5913ZM44.4591 15.3854C43.9426 14.9688 43.3989 14.5719 42.8423 14.206L41.7436 15.8772C42.2457 16.2073 42.7371 16.566 43.2036 16.9422L44.4591 15.3854ZM43.8772 14.5143L43.0531 15.5359L44.6096 16.7917L45.4338 15.7701L43.8772 14.5143ZM48.3201 17.333C47.8645 16.7932 47.3779 16.2694 46.8728 15.7754L45.4743 17.2051C45.9337 17.6545 46.377 18.1317 46.7917 18.623L48.3201 17.333ZM47.1981 19.5888L48.201 18.7421L46.9108 17.2139L45.9079 18.0605L47.1981 19.5888ZM44.5572 18.1446C44.9864 18.5637 45.401 19.01 45.7887 19.4695L47.3173 18.1798C46.8885 17.6716 46.4303 17.1782 45.9545 16.7137L44.5572 18.1446ZM45.4584 15.7912L44.5407 16.7301L45.971 18.1281L46.8887 17.1892L45.4584 15.7912ZM51.2065 32.0541L52.5184 32.024L52.4725 30.0245L51.1606 30.0547L51.2065 32.0541ZM52.1881 31.5008C52.1884 31.3436 52.1867 31.1876 52.1834 31.0331L50.1838 31.0757C50.1868 31.2166 50.1884 31.3568 50.1881 31.4963L52.1881 31.5008ZM52.5025 30.5011L51.19 30.4986L51.1861 32.4986L52.4986 32.5011L52.5025 30.5011ZM51.4957 31.0483C51.4993 31.1978 51.5009 31.348 51.5006 31.4991L53.5006 31.5032C53.5009 31.3357 53.4992 31.168 53.4952 31.0003L51.4957 31.0483ZM17.7161 48.6362C18.2657 49.0794 18.8438 49.5012 19.435 49.8902L20.5344 48.2196C19.997 47.8659 19.4709 47.482 18.9714 47.0793L17.7161 48.6362ZM18.3896 46.2083L17.5655 47.2299L19.122 48.4857L19.9462 47.4641L18.3896 46.2083ZM21.2557 47.1228C20.7536 46.7927 20.2622 46.434 19.7957 46.0578L18.5402 47.6146C19.0567 48.0311 19.6004 48.428 20.157 48.794L21.2557 47.1228ZM20.82 49.6046L21.5417 48.5081L19.871 47.4086L19.1494 48.5052L20.82 49.6046ZM15.0343 42.8406C14.6682 42.3106 14.3241 41.7577 14.0126 41.1976L12.2648 42.1699C12.6082 42.7871 12.9864 43.3949 13.3887 43.9773L15.0343 42.8406ZM14.7227 41.8398L13.6428 42.5864L14.7802 44.2315L15.8601 43.4849L14.7227 41.8398ZM13.4118 41.5312C13.7344 42.1117 14.09 42.6836 14.469 43.2313L16.1137 42.0934C15.7718 41.5991 15.4507 41.0828 15.16 40.5597L13.4118 41.5312ZM13.6249 42.5576L14.7721 41.9192L13.7996 40.1716L12.6524 40.8099L13.6249 42.5576ZM14.6792 45.6669C15.1348 46.2067 15.6214 46.7305 16.1264 47.2246L17.525 45.7949C17.0656 45.3455 16.6222 44.8682 16.2075 44.3769L14.6792 45.6669ZM15.8012 43.4112L14.7983 44.2578L16.0884 45.786L17.0913 44.9394L15.8012 43.4112ZM18.442 44.8553C18.0128 44.4362 17.5983 43.99 17.2105 43.5304L15.682 44.8202C16.1107 45.3283 16.569 45.8217 17.0447 46.2863L18.442 44.8553ZM17.5408 47.2087L18.4585 46.2698L17.0282 44.8718L16.1105 45.8107L17.5408 47.2087ZM10.4981 32.4986L11.8106 32.5012L11.8145 30.5012L10.502 30.4986L10.4981 32.4986ZM11.5049 31.9515C11.5013 31.802 11.4997 31.6517 11.5 31.5007L9.50004 31.4966C9.4997 31.6641 9.50142 31.8317 9.50545 31.9995L11.5049 31.9515ZM11.794 30.9456L10.4822 30.9757L10.5281 32.9752L11.84 32.9451L11.794 30.9456ZM10.8125 31.499C10.8122 31.6562 10.8139 31.8121 10.8172 31.9667L12.8168 31.924C12.8138 31.7831 12.8122 31.643 12.8125 31.5034L10.8125 31.499ZM11.8333 32.8523L10.5298 33.008L10.7671 34.9939L12.0706 34.8382L11.8333 32.8523ZM13.2456 35.5082C13.1174 34.9232 13.0161 34.3239 12.9449 33.7269L10.959 33.9636C11.0378 34.6252 11.1499 35.2884 11.2921 35.9365L13.2456 35.5082ZM11.2003 36.9799L12.4827 36.6992L12.055 34.7455L10.7727 35.0262L11.2003 36.9799ZM9.65555 34.12C9.7398 34.8226 9.85885 35.5281 10.0096 36.2168L11.9633 35.7892C11.8264 35.1635 11.718 34.5213 11.6413 33.8819L9.65555 34.12ZM11.8262 38.9151L13.0746 38.51L12.4574 36.6077L11.209 37.0127L11.8262 38.9151ZM13.1542 39.4644C12.8975 38.8745 12.6667 38.2654 12.4688 37.6552L10.5664 38.2725C10.7843 38.9442 11.038 39.6136 11.3203 40.2624L13.1542 39.4644ZM13.0415 38.4224L11.838 38.9466L12.6366 40.7802L13.8402 40.256L13.0415 38.4224ZM11.8147 37.8673C12.0196 38.4991 12.2583 39.1287 12.5241 39.7386L14.3576 38.9397C14.1177 38.389 13.902 37.8202 13.7172 37.2504L11.8147 37.8673ZM29.3773 53.3986C30.0781 53.4658 30.7921 53.5 31.5003 53.5V51.5C30.8558 51.5 30.2054 51.4688 29.5681 51.4077L29.3773 53.3986ZM28.6028 51.0008L28.4772 52.3075L30.4681 52.4988L30.5937 51.1921L28.6028 51.0008ZM31.5003 50.1875C30.8975 50.1875 30.2893 50.1585 29.6944 50.1011L29.5022 52.0918C30.162 52.1555 30.8343 52.1875 31.5003 52.1875V50.1875ZM32.5003 52.5V51.1875H30.5003V52.5H32.5003ZM23.9537 50.0219C23.3612 49.7794 22.7709 49.5037 22.2005 49.2033L21.2683 50.9727C21.895 51.3029 22.5436 51.6059 23.1962 51.8729L23.9537 50.0219ZM23.1459 49.354L22.6493 50.5691L24.5006 51.3258L24.9973 50.1106L23.1459 49.354ZM21.88 49.8113C22.47 50.1224 23.0795 50.4069 23.6929 50.6578L24.4503 48.8068C23.8966 48.5802 23.3456 48.3232 22.8128 48.0422L21.88 49.8113ZM22.619 50.5542L23.231 49.393L21.4617 48.4605L20.8497 49.6217L22.619 50.5542ZM25.2037 52.5817C25.8808 52.7841 26.5756 52.9557 27.2704 53.0917L27.6547 51.129C27.0235 51.0054 26.3917 50.8494 25.7768 50.6655L25.2037 52.5817ZM24.9084 50.0796L24.5322 51.3369L26.4483 51.9102L26.8245 50.6529L24.9084 50.0796ZM27.9064 49.8408C27.3173 49.7255 26.7272 49.5799 26.1531 49.4082L25.5799 51.3243C26.2163 51.5146 26.8695 51.6759 27.5224 51.8036L27.9064 49.8408ZM28.4439 52.3022L28.6958 51.0141L26.733 50.6303L26.4811 51.9184L28.4439 52.3022ZM26.5883 18.9443C27.7641 19.1806 28.8477 19.6801 29.815 20.4358L31.0462 18.8597C29.8379 17.9158 28.4687 17.2822 26.9824 16.9835L26.5883 18.9443ZM27.5068 19.4479L27.7657 18.1611L25.805 17.7666L25.5461 19.0535L27.5068 19.4479ZM30.2381 19.8941C29.1926 19.0773 28.0085 18.5285 26.7234 18.2703L26.3295 20.2311C27.3029 20.4267 28.2016 20.8411 29.0069 21.4702L30.2381 19.8941ZM25.0374 34.9728C33.084 34.9728 36.4985 24.7872 30.2384 19.8942L29.0067 21.47C33.7853 25.205 31.1607 32.9728 25.0374 32.9728V34.9728ZM19.8513 33.1835C21.3467 34.3522 23.1436 34.9728 25.0374 34.9728V32.9728C23.5917 32.9728 22.2279 32.5025 21.0828 31.6077L19.8513 33.1835ZM18.3999 21.3462C15.5365 25.0106 16.1871 30.3193 19.8512 33.1834L21.0829 31.6077C18.289 29.4238 17.7924 25.3719 19.9759 22.5777L18.3999 21.3462ZM23.0526 18.3417C21.1956 18.7893 19.5841 19.832 18.4002 21.3459L19.9756 22.578C20.8847 21.4156 22.1079 20.6267 23.5212 20.286L23.0526 18.3417ZM22.0071 18.2723L22.3148 19.5482L24.259 19.0794L23.9514 17.8035L22.0071 18.2723ZM18.9416 21.7697C20.0347 20.3716 21.5088 19.421 23.2136 19.01L22.7449 17.0657C20.5973 17.5834 18.7346 18.7874 17.366 20.5378L18.9416 21.7697ZM20.2748 32.6421C16.9108 30.0124 16.3127 25.1338 18.9418 21.7695L17.3659 20.538C14.0567 24.7726 14.8089 30.9079 19.0431 34.2178L20.2748 32.6421ZM25.0374 34.2852C23.2961 34.2852 21.6525 33.7188 20.2747 32.642L19.0432 34.2178C20.7717 35.5687 22.8484 36.2852 25.0374 36.2852V34.2852ZM29.8148 20.4356C35.5703 24.9344 32.4084 34.2853 25.0375 34.2852L25.0374 36.2852C34.3306 36.2853 38.2844 24.5174 31.0465 18.8599L29.8148 20.4356ZM17.9776 25.6777C17.8751 26.5248 17.9249 27.3761 18.1243 28.2065L20.069 27.7395C19.9249 27.1394 19.8894 26.5276 19.9631 25.918L17.9776 25.6777ZM20.3934 24.9628L19.0906 24.8051L18.8502 26.7906L20.1531 26.9483L20.3934 24.9628ZM21.3451 27.4336C21.2376 26.9854 21.2112 26.5293 21.266 26.0755L19.2805 25.8356C19.1969 26.5269 19.2377 27.222 19.4001 27.8997L21.3451 27.4336ZM19.3301 28.9454L20.6061 28.639L20.1391 26.6943L18.8632 27.0006L19.3301 28.9454ZM25.0382 31.6602C23.8885 31.6602 22.804 31.2863 21.8917 30.5735L20.6603 32.1495C21.9225 33.1357 23.44 33.6602 25.0382 33.6602V31.6602ZM24.0382 31.3477V32.6602H26.0382V31.3477H24.0382ZM21.4686 31.1154C22.4975 31.9195 23.7355 32.3477 25.0382 32.3477V30.3477C24.1843 30.3477 23.3793 30.0704 22.7003 29.5396L21.4686 31.1154ZM19.7517 28.9271C20.1402 29.7918 20.7203 30.53 21.4683 31.1151L22.7006 29.5398C22.2066 29.1534 21.8305 28.6739 21.5761 28.1076L19.7517 28.9271ZM19.8765 29.9672L21.0736 29.4296L20.2542 27.6051L19.0571 28.1428L19.8765 29.9672ZM21.8921 30.5738C21.2399 30.0637 20.7162 29.3957 20.3789 28.6451L18.5547 29.4649C19.0256 30.5127 19.7529 31.4398 20.6599 32.1492L21.8921 30.5738ZM37.9047 33.1508L45.5466 38.9699L46.7583 37.3787L39.1164 31.5596L37.9047 33.1508ZM38.7729 30.3955L37.7226 31.7395L39.2985 32.971L40.3487 31.6271L38.7729 30.3955ZM35.6409 29.2168L38.945 31.7992L40.1766 30.2234L36.8725 27.641L35.6409 29.2168ZM31.4321 18.3675C34.5278 20.7871 35.8767 24.6299 35.2703 28.2643L37.243 28.5935C37.9648 24.2677 36.3614 19.6818 32.6637 16.7917L31.4321 18.3675ZM25.0532 16.1677C27.3865 16.1677 29.5885 16.9268 31.4322 18.3676L32.6637 16.7917C30.4692 15.0768 27.834 14.1677 25.0532 14.1677V16.1677ZM16.8747 20.1529C18.8549 17.6189 21.8322 16.1677 25.0532 16.1677V14.1677C21.2175 14.1677 17.6586 15.9017 15.2988 18.9214L16.8747 20.1529ZM18.6598 34.7105C14.1547 31.1893 13.3539 24.6576 16.8746 20.153L15.2989 18.9214C11.0978 24.2963 12.0529 32.0849 17.4281 36.2862L18.6598 34.7105ZM25.0384 36.9103C22.7054 36.9103 20.5034 36.1512 18.6597 34.7104L17.4282 36.2863C19.6227 38.0012 22.2579 38.9103 25.0384 38.9103V36.9103ZM29.1946 36.048C27.9059 36.6091 26.4982 36.9103 25.0384 36.9103V38.9103C26.7751 38.9103 28.4545 38.5516 29.9931 37.8817L29.1946 36.048ZM33.5089 38.7553L30.2096 36.1769L28.9781 37.7527L32.2774 40.3311L33.5089 38.7553ZM33.1656 37.5707L32.1053 38.9274L33.6811 40.159L34.7414 38.8023L33.1656 37.5707ZM42.2077 43.2141L34.5593 37.3908L33.3477 38.9821L40.9962 44.8054L42.2077 43.2141ZM46.008 42.7572C45.0922 43.929 43.3969 44.1439 42.2179 43.222L40.986 44.7975C43.0399 46.4036 45.9913 46.0264 47.5838 43.9888L46.008 42.7572ZM45.5368 38.9624C46.7267 39.8919 46.9234 41.5859 46.008 42.7573L47.5838 43.9888C49.1767 41.9505 48.832 38.9987 46.7681 37.3863L45.5368 38.9624ZM16.3337 19.7293C12.5781 24.5342 13.4319 31.4964 18.2368 35.2517L19.4684 33.6759C15.5337 30.6008 14.8341 24.8955 17.9095 20.9609L16.3337 19.7293ZM25.0536 15.48C21.625 15.48 18.4429 17.03 16.3336 19.7294L17.9096 20.9608C19.6391 18.7473 22.2396 17.48 25.0536 17.48V15.48ZM31.8561 17.8259C29.8946 16.2926 27.5387 15.48 25.0536 15.48V17.48C27.0912 17.48 29.0138 18.1426 30.6244 19.4016L31.8561 17.8259ZM25.0389 37.5975C35.5885 37.5975 40.0599 24.2376 31.856 17.8259L30.6244 19.4017C37.3487 24.657 33.6626 35.5975 25.0389 35.5975V37.5975ZM18.2367 35.2517C20.1982 36.7849 22.5541 37.5975 25.0389 37.5975V35.5975C23.0016 35.5975 21.0791 34.9349 19.4684 33.6759L18.2367 35.2517ZM33.2813 36.9125L31.4927 35.5146L30.2612 37.0905L32.0498 38.4883L33.2813 36.9125ZM36.9289 30.6212L31.8776 37.0846L33.4535 38.3162L38.5048 31.8527L36.9289 30.6212ZM35.3009 30.618L37.1011 32.0249L38.3326 30.449L36.5325 29.0422L35.3009 30.618ZM31.3905 37.1606C33.9637 35.6205 35.9544 33.1711 36.8742 30.1186L34.9592 29.5416C34.1872 32.1035 32.5214 34.1529 30.3634 35.4445L31.3905 37.1606ZM41.7866 43.7585C43.2614 44.9116 45.3889 44.6644 46.5483 43.1804L44.9723 41.949C44.4989 42.5549 43.6304 42.6614 43.0184 42.1829L41.7866 43.7585ZM34.1559 37.9485L41.7967 43.7663L43.0083 42.1751L35.3675 36.3573L34.1559 37.9485ZM36.9145 32.7746L33.9738 36.5371L35.5496 37.7687L38.4903 34.0062L36.9145 32.7746ZM45.9553 38.4177L38.3082 32.5948L37.0966 34.186L44.7437 40.0089L45.9553 38.4177ZM46.5483 43.1804C47.7012 41.705 47.4405 39.5777 45.9651 38.4252L44.7339 40.0013C45.3382 40.4734 45.4454 41.3436 44.9724 41.949L46.5483 43.1804ZM34.1598 42.4824H32.4883V44.4824H34.1598V42.4824ZM35.1598 44.7949V43.4824H33.1598V44.7949H35.1598ZM32.4883 45.7949H34.1598V43.7949H32.4883V45.7949ZM31.4883 43.4824V44.7949H33.4883V43.4824H31.4883ZM25.0371 44.4824H30.4164V42.4824H25.0371V44.4824ZM26.0371 44.7949V43.4824H24.0371V44.7949H26.0371ZM30.4164 43.7949H25.0371V45.7949H30.4164V43.7949ZM29.4164 43.4824V44.7949H31.4164V43.4824H29.4164ZM40.3101 22.0632H38.6387V24.0632H40.3101V22.0632ZM41.3101 24.3757V23.0632H39.3101V24.3757H41.3101ZM38.6387 25.3757H40.3101V23.3757H38.6387V25.3757ZM37.6387 23.0632V24.3757H39.6387V23.0632H37.6387ZM42.3809 24.0632H47.7601V22.0632H42.3809V24.0632ZM43.3809 24.3757V23.0632H41.3809V24.3757H43.3809ZM47.7601 23.3757H42.3809V25.3757H47.7601V23.3757ZM46.7601 23.0632V24.3757H48.7601V23.0632H46.7601ZM10.3056 3.42969H8.13672V5.42969H10.3056V3.42969ZM11.3056 5.74219V4.42969H9.30562V5.74219H11.3056ZM8.13672 6.74219H10.3056V4.74219H8.13672V6.74219ZM7.13672 4.42969V5.74219H9.13672V4.42969H7.13672ZM2.51562 5.42969H6.755V3.42969H2.51562V5.42969ZM3.51562 5.74219V4.42969H1.51562V5.74219H3.51562ZM6.755 4.74219H2.51562V6.74219H6.755V4.74219ZM5.755 4.42969V5.74219H7.755V4.42969H5.755Z" fill="#4A90E2" mask="url(#path-1-inside-1)"/>
</g>
<path id="Path Copy 10" opacity="0.45" d="M18.8526 34.464C14.4828 31.0488 13.7061 24.7151 17.1216 20.3453C19.041 17.8889 21.9323 16.4802 25.0536 16.4802C27.3149 16.4802 29.4542 17.2178 31.2402 18.614C38.7043 24.4476 34.6256 36.5978 25.0389 36.5978C22.7779 36.5978 20.6386 35.8601 18.8526 34.464Z" fill="#4A90E2"/>
</g>
</svg>
