<svg width="65" height="65" viewBox="0 0 65 65" fill="none" xmlns="http://www.w3.org/2000/svg">
<path opacity="0.45" d="M58.7656 59.7048C56.2305 62.028 52.9023 63.4973 49.2392 63.6566V60.7052H47.9126V63.6566C44.2496 63.4972 40.9214 62.028 38.3862 59.7048L40.4689 57.6221L39.531 56.6842L37.4483 58.7669C35.1248 56.2318 33.6554 52.9036 33.4961 49.2406H36.4478V47.914H33.4961C33.6554 44.2509 35.1247 40.9227 37.4482 38.3876L39.531 40.4705L40.4689 39.5326L38.3861 37.4497C40.9212 35.1264 44.2495 33.657 47.9126 33.4977V36.449H49.2392V33.4977C52.9023 33.657 56.2307 35.1263 58.7658 37.4497L56.6829 39.5326L57.6208 40.4705L59.7037 38.3876C62.027 40.9227 63.4964 44.2509 63.6557 47.914H60.704V49.2406H63.6557C63.4964 52.9035 62.027 56.2318 59.7035 58.7669L57.6209 56.6842L56.6829 57.6221L58.7656 59.7048Z" fill="#FF9419"/>
<mask id="path-2-inside-1" fill="white">
<path fill-rule="evenodd" clip-rule="evenodd" d="M50.9398 32.3268C58.8798 33.4762 65 40.324 65 48.5773C65 57.6328 57.6327 65 48.5768 65C43.2922 65 38.5859 62.4886 35.5798 58.5995H2.31498C1.03866 58.5995 0 57.5609 0 56.2846V13.2786C0 11.9987 1.03866 10.9572 2.31498 10.9572H9.55175V7.64373H13.4757C13.8145 3.37201 17.399 0 21.7566 0C26.1139 0 29.6984 3.37201 30.0371 7.64366H33.9614V10.9571H41.1962C42.4761 10.9571 43.5177 11.9987 43.5177 13.2786V32.9553C44.3883 32.6726 45.29 32.4604 46.2171 32.3264V28.8653H43.9488V24.8857H53.2077V28.8653H50.9398V32.3268ZM45.2773 26.2121V27.5386H46.2191H50.9417H51.8832V26.2121H45.2773ZM49.6163 28.8652V32.1904C49.2733 32.169 48.9283 32.1544 48.58 32.1544C48.2327 32.1544 47.8889 32.1689 47.5469 32.1902V28.8652H49.6163ZM14.7727 8.97039H10.875V13.9319H32.6316V8.97039H28.7335V8.30712C28.7335 4.45803 25.602 1.32666 21.7532 1.32666C17.9041 1.32666 14.7727 4.45803 14.7727 8.30712V8.97039ZM2.31655 57.273C1.77149 57.273 1.32812 56.8296 1.32812 56.2846V13.2786C1.32812 12.7299 1.77149 12.2836 2.31655 12.2836H9.55332V15.2583H33.963V12.2836H41.1978C41.7465 12.2836 42.1927 12.7299 42.1927 13.2786V33.4466C37.1613 35.578 33.4093 40.1502 32.4184 45.6684H16.6249V46.9949H32.2329C32.1829 47.5159 32.1552 48.0434 32.1552 48.5773C32.1552 51.7693 33.0737 54.7493 34.6557 57.273H2.31655ZM49.2392 63.6566C52.9023 63.4973 56.2305 62.028 58.7656 59.7048L56.6829 57.6221L57.6209 56.6842L59.7035 58.7669C62.027 56.2318 63.4964 52.9035 63.6557 49.2406H60.704V47.914H63.6557C63.4964 44.2509 62.027 40.9227 59.7037 38.3876L57.6208 40.4704L56.6829 39.5325L58.7658 37.4497C56.2307 35.1263 52.9023 33.657 49.2392 33.4977V36.449H47.9126V33.4977C44.2495 33.657 40.9212 35.1264 38.3861 37.4497L40.4689 39.5325L39.531 40.4704L37.4482 38.3876C35.1247 40.9227 33.6554 44.2509 33.4961 47.914H36.4478V49.2406H33.4961C33.6554 52.9036 35.1248 56.2318 37.4483 58.7669L39.531 56.6842L40.4689 57.6221L38.3862 59.7048C40.9214 62.028 44.2496 63.4972 47.9126 63.6566V60.7052H49.2392V63.6566ZM15.875 10.9574H17.8447V12.2838H15.875V10.9574ZM57.8906 33.4729C60.1648 34.8807 62.1261 36.8171 63.5618 39.0731L64.6811 38.3606C63.1386 35.9374 61.0318 33.8573 58.5889 32.3452L57.8906 33.4729ZM57.0118 31.4691L56.423 32.6577C55.9214 32.4093 55.4006 32.182 54.875 31.9818L55.3472 30.7421C55.912 30.9575 56.4723 31.2019 57.0118 31.4691ZM51.7978 48.5773C51.7978 47.0313 50.7013 45.7384 49.2455 45.4309V40.0014H47.9189V45.4299C46.4614 45.736 45.3633 47.0301 45.3633 48.5773C45.3633 50.3511 46.8064 51.7942 48.5806 51.7942C49.1856 51.7942 49.7457 51.6163 50.2296 51.3248L54.3774 55.7877L55.3491 54.8848L51.2052 50.4261C51.5756 49.9021 51.7978 49.2664 51.7978 48.5773ZM48.5821 50.4676C47.5396 50.4676 46.6914 49.6198 46.6914 48.5773C46.6914 47.5348 47.5396 46.6866 48.5821 46.6866C49.6246 46.6866 50.4728 47.5348 50.4728 48.5773C50.4728 49.6197 49.6246 50.4676 48.5821 50.4676ZM14.957 61.0646H31.9595V62.391H14.957V61.0646ZM12.8346 61.0646H8.55469V62.391H12.8346V61.0646ZM45.3594 17.137H46.6858V22.7568H45.3594V17.137ZM46.6858 13.2627H45.3594V15.4923H46.6858V13.2627ZM27.6317 10.9574H19.4375V12.2838H27.6317V10.9574ZM38.6461 19.9904H16.625V21.3169H38.6461V19.9904ZM31.0122 24.6776H27.6328V26.004H31.0122V24.6776ZM16.625 24.6776H25.6723V26.004H16.625V24.6776ZM38.6461 32.8291H16.625V34.1555H38.6461V32.8291ZM26.8789 37.5163H29.7058V38.8427H26.8789V37.5163ZM24.9593 37.5163H16.625V38.8427H24.9593V37.5163ZM27.0977 50.3561H30.8494V51.6825H27.0977V50.3561ZM24.6844 50.3561H16.625V51.6825H24.6844V50.3561ZM12.4459 5.8249C12.8992 4.12562 13.8158 2.57882 15.0967 1.35175L14.1789 0.393741C12.7225 1.78894 11.6799 3.54881 11.1641 5.4829L12.4459 5.8249ZM31.0699 5.82492L32.3518 5.48292C31.8932 3.76455 31.0068 2.16339 29.788 0.85208L28.8164 1.75497C29.8878 2.90791 30.6673 4.31536 31.0699 5.82492ZM21.7551 8.756C23.2419 8.756 24.4516 7.54639 24.4516 6.05925C24.4516 4.57237 23.242 3.36276 21.7551 3.36276C20.2682 3.36276 19.0586 4.57237 19.0586 6.05925C19.0586 7.54639 20.2682 8.756 21.7551 8.756ZM21.7567 4.6894C22.5119 4.6894 23.1266 5.30405 23.1266 6.05934C23.1266 6.8149 22.512 7.42962 21.7567 7.42962C21.0015 7.42962 20.3867 6.81496 20.3867 6.05934C20.3867 5.30405 21.0014 4.6894 21.7567 4.6894ZM6.08594 19.7845H12.5111V26.2092H6.08594V19.7845ZM12.5111 32.6236H6.08594V39.0486H12.5111V32.6236ZM6.08594 45.463H12.5111V51.8881H6.08594V45.463Z"/>
</mask>
<path d="M50.9398 32.3268H49.9398V33.1925L50.7965 33.3165L50.9398 32.3268ZM35.5798 58.5995L36.371 57.988L36.0707 57.5995H35.5798V58.5995ZM9.55175 10.9572V11.9572H10.5518V10.9572H9.55175ZM9.55175 7.64373V6.64373H8.55175V7.64373H9.55175ZM13.4757 7.64373V8.64373H14.3996L14.4726 7.72278L13.4757 7.64373ZM30.0371 7.64366L29.0403 7.72271L29.1133 8.64366H30.0371V7.64366ZM33.9614 7.64366H34.9614V6.64366H33.9614V7.64366ZM33.9614 10.9571H32.9614V11.9571H33.9614V10.9571ZM43.5177 32.9553H42.5177V34.3313L43.8265 33.9064L43.5177 32.9553ZM46.2171 32.3264L46.3601 33.3161L47.2171 33.1923V32.3264H46.2171ZM46.2171 28.8653H47.2171V27.8653H46.2171V28.8653ZM43.9488 28.8653H42.9488V29.8653H43.9488V28.8653ZM43.9488 24.8857V23.8857H42.9488V24.8857H43.9488ZM53.2077 24.8857H54.2077V23.8857H53.2077V24.8857ZM53.2077 28.8653V29.8653H54.2077V28.8653H53.2077ZM50.9398 28.8653V27.8653H49.9398V28.8653H50.9398ZM45.2773 27.5386H44.2773V28.5386H45.2773V27.5386ZM45.2773 26.2121V25.2121H44.2773V26.2121H45.2773ZM51.8832 27.5386V28.5386H52.8832V27.5386H51.8832ZM51.8832 26.2121H52.8832V25.2121H51.8832V26.2121ZM49.6163 32.1904L49.5539 33.1885L50.6163 33.255V32.1904H49.6163ZM49.6163 28.8652H50.6163V27.8652H49.6163V28.8652ZM47.5469 32.1902H46.5469V33.2545L47.6091 33.1883L47.5469 32.1902ZM47.5469 28.8652V27.8652H46.5469V28.8652H47.5469ZM10.875 8.97039V7.97039H9.875V8.97039H10.875ZM14.7727 8.97039V9.97039H15.7727V8.97039H14.7727ZM10.875 13.9319H9.875V14.9319H10.875V13.9319ZM32.6316 13.9319V14.9319H33.6316V13.9319H32.6316ZM32.6316 8.97039H33.6316V7.97039H32.6316V8.97039ZM28.7335 8.97039H27.7335V9.97039H28.7335V8.97039ZM9.55332 12.2836H10.5533V11.2836H9.55332V12.2836ZM9.55332 15.2583H8.55332V16.2583H9.55332V15.2583ZM33.963 15.2583V16.2583H34.963V15.2583H33.963ZM33.963 12.2836V11.2836H32.963V12.2836H33.963ZM42.1927 33.4466L42.5828 34.3674L43.1927 34.109V33.4466H42.1927ZM32.4184 45.6684V46.6684H33.2548L33.4027 45.8451L32.4184 45.6684ZM16.6249 45.6684V44.6684H15.6249V45.6684H16.6249ZM16.6249 46.9949H15.6249V47.9949H16.6249V46.9949ZM32.2329 46.9949L33.2283 47.0905L33.3335 45.9949H32.2329V46.9949ZM34.6557 57.273V58.273H36.4628L35.503 56.7419L34.6557 57.273ZM58.7656 59.7048L59.4413 60.442L60.2113 59.7363L59.4727 58.9976L58.7656 59.7048ZM49.2392 63.6566H48.2392V64.701L49.2826 64.6556L49.2392 63.6566ZM56.6829 57.6221L55.9758 56.915L55.2687 57.6221L55.9758 58.3292L56.6829 57.6221ZM57.6209 56.6842L58.328 55.9771L57.6209 55.27L56.9138 55.9771L57.6209 56.6842ZM59.7035 58.7669L58.9964 59.474L59.735 60.2125L60.4407 59.4425L59.7035 58.7669ZM63.6557 49.2406L64.6548 49.284L64.7002 48.2406H63.6557V49.2406ZM60.704 49.2406H59.704V50.2406H60.704V49.2406ZM60.704 47.914V46.914H59.704V47.914H60.704ZM63.6557 47.914V48.914H64.7002L64.6548 47.8706L63.6557 47.914ZM59.7037 38.3876L60.4409 37.7119L59.7351 36.9419L58.9966 37.6805L59.7037 38.3876ZM57.6208 40.4704L56.9137 41.1776L57.6208 41.8846L58.3279 41.1776L57.6208 40.4704ZM56.6829 39.5325L55.9758 38.8254L55.2687 39.5325L55.9758 40.2397L56.6829 39.5325ZM58.7658 37.4497L59.4729 38.1568L60.2115 37.4182L59.4414 36.7125L58.7658 37.4497ZM49.2392 33.4977L49.2826 32.4986L48.2392 32.4533V33.4977H49.2392ZM49.2392 36.449V37.449H50.2392V36.449H49.2392ZM47.9126 36.449H46.9126V37.449H47.9126V36.449ZM47.9126 33.4977H48.9126V32.4533L47.8692 32.4986L47.9126 33.4977ZM38.3861 37.4497L37.7104 36.7125L36.9404 37.4182L37.679 38.1568L38.3861 37.4497ZM40.4689 39.5325L41.176 40.2397L41.8832 39.5325L41.176 38.8254L40.4689 39.5325ZM39.531 40.4704L38.8239 41.1776L39.531 41.8846L40.2381 41.1776L39.531 40.4704ZM37.4482 38.3876L38.1553 37.6805L37.4167 36.9419L36.7109 37.7119L37.4482 38.3876ZM33.4961 47.914L32.497 47.8706L32.4517 48.914H33.4961V47.914ZM36.4478 47.914H37.4478V46.914H36.4478V47.914ZM36.4478 49.2406V50.2406H37.4478V49.2406H36.4478ZM33.4961 49.2406V48.2406H32.4517L32.497 49.284L33.4961 49.2406ZM37.4483 58.7669L36.7111 59.4425L37.4168 60.2125L38.1554 59.474L37.4483 58.7669ZM39.531 56.6842L40.2381 55.9771L39.531 55.27L38.8239 55.9771L39.531 56.6842ZM40.4689 57.6221L41.176 58.3292L41.8831 57.6221L41.176 56.915L40.4689 57.6221ZM38.3862 59.7048L37.6791 58.9976L36.9405 59.7363L37.7106 60.442L38.3862 59.7048ZM47.9126 63.6566L47.8692 64.6556L48.9126 64.701V63.6566H47.9126ZM47.9126 60.7052V59.7052H46.9126V60.7052H47.9126ZM49.2392 60.7052H50.2392V59.7052H49.2392V60.7052ZM17.8447 10.9574H18.8447V9.95736H17.8447V10.9574ZM15.875 10.9574V9.95736H14.875V10.9574H15.875ZM17.8447 12.2838V13.2838H18.8447V12.2838H17.8447ZM15.875 12.2838H14.875V13.2838H15.875V12.2838ZM63.5618 39.0731L62.7182 39.61L63.2551 40.4537L64.0988 39.9167L63.5618 39.0731ZM57.8906 33.4729L57.0404 32.9464L56.5139 33.7968L57.3643 34.3232L57.8906 33.4729ZM64.6811 38.3606L65.2181 39.2042L66.0617 38.6672L65.5247 37.8236L64.6811 38.3606ZM58.5889 32.3452L59.1152 31.4949L58.2651 30.9687L57.7387 31.8188L58.5889 32.3452ZM56.423 32.6577L55.9793 33.5538L56.8753 33.9975L57.3191 33.1016L56.423 32.6577ZM57.0118 31.4691L57.9079 31.913L58.3519 31.0168L57.4556 30.573L57.0118 31.4691ZM54.875 31.9818L53.9405 31.6259L53.5845 32.5604L54.5191 32.9163L54.875 31.9818ZM55.3472 30.7421L55.7035 29.8077L54.7688 29.4512L54.4127 30.3861L55.3472 30.7421ZM49.2455 45.4309H48.2455V46.2418L49.0388 46.4093L49.2455 45.4309ZM49.2455 40.0014H50.2455V39.0014H49.2455V40.0014ZM47.9189 40.0014V39.0014H46.9189V40.0014H47.9189ZM47.9189 45.4299L48.1244 46.4085L48.9189 46.2417V45.4299H47.9189ZM50.2296 51.3248L50.9621 50.644L50.4092 50.0491L49.7136 50.4682L50.2296 51.3248ZM54.3774 55.7877L53.6449 56.4685L54.3256 57.2009L55.0581 56.5202L54.3774 55.7877ZM55.3491 54.8848L56.0298 55.6174L56.7624 54.9366L56.0815 54.204L55.3491 54.8848ZM51.2052 50.4261L50.3886 49.8489L49.9198 50.5121L50.4727 51.1069L51.2052 50.4261ZM31.9595 61.0646H32.9595V60.0646H31.9595V61.0646ZM14.957 61.0646V60.0646H13.957V61.0646H14.957ZM31.9595 62.391V63.391H32.9595V62.391H31.9595ZM14.957 62.391H13.957V63.391H14.957V62.391ZM8.55469 61.0646V60.0646H7.55469V61.0646H8.55469ZM12.8346 61.0646H13.8346V60.0646H12.8346V61.0646ZM8.55469 62.391H7.55469V63.391H8.55469V62.391ZM12.8346 62.391V63.391H13.8346V62.391H12.8346ZM46.6858 17.137H47.6858V16.137H46.6858V17.137ZM45.3594 17.137V16.137H44.3594V17.137H45.3594ZM46.6858 22.7568V23.7568H47.6858V22.7568H46.6858ZM45.3594 22.7568H44.3594V23.7568H45.3594V22.7568ZM45.3594 13.2627V12.2627H44.3594V13.2627H45.3594ZM46.6858 13.2627H47.6858V12.2627H46.6858V13.2627ZM45.3594 15.4923H44.3594V16.4923H45.3594V15.4923ZM46.6858 15.4923V16.4923H47.6858V15.4923H46.6858ZM19.4375 10.9574V9.95736H18.4375V10.9574H19.4375ZM27.6317 10.9574H28.6317V9.95736H27.6317V10.9574ZM19.4375 12.2838H18.4375V13.2838H19.4375V12.2838ZM27.6317 12.2838V13.2838H28.6317V12.2838H27.6317ZM16.625 19.9904V18.9904H15.625V19.9904H16.625ZM38.6461 19.9904H39.6461V18.9904H38.6461V19.9904ZM16.625 21.3169H15.625V22.3169H16.625V21.3169ZM38.6461 21.3169V22.3169H39.6461V21.3169H38.6461ZM27.6328 24.6776V23.6776H26.6328V24.6776H27.6328ZM31.0122 24.6776H32.0122V23.6776H31.0122V24.6776ZM27.6328 26.004H26.6328V27.004H27.6328V26.004ZM31.0122 26.004V27.004H32.0122V26.004H31.0122ZM25.6723 24.6776H26.6723V23.6776H25.6723V24.6776ZM16.625 24.6776V23.6776H15.625V24.6776H16.625ZM25.6723 26.004V27.004H26.6723V26.004H25.6723ZM16.625 26.004H15.625V27.004H16.625V26.004ZM16.625 32.8291V31.8291H15.625V32.8291H16.625ZM38.6461 32.8291H39.6461V31.8291H38.6461V32.8291ZM16.625 34.1555H15.625V35.1555H16.625V34.1555ZM38.6461 34.1555V35.1555H39.6461V34.1555H38.6461ZM29.7058 37.5163H30.7058V36.5163H29.7058V37.5163ZM26.8789 37.5163V36.5163H25.8789V37.5163H26.8789ZM29.7058 38.8427V39.8427H30.7058V38.8427H29.7058ZM26.8789 38.8427H25.8789V39.8427H26.8789V38.8427ZM16.625 37.5163V36.5163H15.625V37.5163H16.625ZM24.9593 37.5163H25.9593V36.5163H24.9593V37.5163ZM16.625 38.8427H15.625V39.8427H16.625V38.8427ZM24.9593 38.8427V39.8427H25.9593V38.8427H24.9593ZM30.8494 50.3561H31.8494V49.3561H30.8494V50.3561ZM27.0977 50.3561V49.3561H26.0977V50.3561H27.0977ZM30.8494 51.6825V52.6825H31.8494V51.6825H30.8494ZM27.0977 51.6825H26.0977V52.6825H27.0977V51.6825ZM16.625 50.3561V49.3561H15.625V50.3561H16.625ZM24.6844 50.3561H25.6844V49.3561H24.6844V50.3561ZM16.625 51.6825H15.625V52.6825H16.625V51.6825ZM24.6844 51.6825V52.6825H25.6844V51.6825H24.6844ZM15.0967 1.35175L15.7885 2.07385L16.5106 1.38206L15.8188 0.659954L15.0967 1.35175ZM12.4459 5.8249L12.1881 6.7911L13.1543 7.04889L13.4121 6.08269L12.4459 5.8249ZM14.1789 0.393741L14.901 -0.298051L14.2092 -1.02012L13.4871 -0.328382L14.1789 0.393741ZM11.1641 5.4829L10.1978 5.22518L9.94014 6.19133L10.9063 6.4491L11.1641 5.4829ZM32.3518 5.48292L32.6096 6.44913L33.5758 6.19133L33.318 5.22507L32.3518 5.48292ZM31.0699 5.82492L30.1037 6.08261L30.3614 7.04892L31.3277 6.79112L31.0699 5.82492ZM29.788 0.85208L30.5205 0.171291L29.8398 -0.56112L29.1073 0.119536L29.788 0.85208ZM28.8164 1.75497L28.1357 1.02243L27.4031 1.70314L28.0839 2.43569L28.8164 1.75497ZM12.5111 19.7845H13.5111V18.7845H12.5111V19.7845ZM6.08594 19.7845V18.7845H5.08594V19.7845H6.08594ZM12.5111 26.2092V27.2092H13.5111V26.2092H12.5111ZM6.08594 26.2092H5.08594V27.2092H6.08594V26.2092ZM6.08594 32.6236V31.6236H5.08594V32.6236H6.08594ZM12.5111 32.6236H13.5111V31.6236H12.5111V32.6236ZM6.08594 39.0486H5.08594V40.0486H6.08594V39.0486ZM12.5111 39.0486V40.0486H13.5111V39.0486H12.5111ZM12.5111 45.463H13.5111V44.463H12.5111V45.463ZM6.08594 45.463V44.463H5.08594V45.463H6.08594ZM12.5111 51.8881V52.8881H13.5111V51.8881H12.5111ZM6.08594 51.8881H5.08594V52.8881H6.08594V51.8881ZM66 48.5773C66 39.8191 59.5069 32.5565 51.083 31.3371L50.7965 33.3165C58.2527 34.3958 64 40.829 64 48.5773H66ZM48.5768 66C58.1849 66 66 58.1851 66 48.5773H64C64 57.0805 57.0804 64 48.5768 64V66ZM34.7886 59.2111C37.9749 63.3333 42.9679 66 48.5768 66V64C43.6165 64 39.1968 61.6439 36.371 57.988L34.7886 59.2111ZM2.31498 59.5995H35.5798V57.5995H2.31498V59.5995ZM-1 56.2846C-1 58.1132 0.48639 59.5995 2.31498 59.5995V57.5995C1.59093 57.5995 1 57.0086 1 56.2846H-1ZM-1 13.2786V56.2846H1V13.2786H-1ZM2.31498 9.95717C0.48375 9.95717 -1 11.4491 -1 13.2786H1C1 12.5484 1.59357 11.9572 2.31498 11.9572V9.95717ZM9.55175 9.95717H2.31498V11.9572H9.55175V9.95717ZM8.55175 7.64373V10.9572H10.5518V7.64373H8.55175ZM13.4757 6.64373H9.55175V8.64373H13.4757V6.64373ZM21.7566 -1C16.8729 -1 12.8585 2.7774 12.4788 7.56468L14.4726 7.72278C14.7704 3.96662 17.9251 1 21.7566 1V-1ZM31.034 7.56461C30.6544 2.77743 26.64 -1 21.7566 -1V1C25.5878 1 28.7424 3.9666 29.0403 7.72271L31.034 7.56461ZM33.9614 6.64366H30.0371V8.64366H33.9614V6.64366ZM34.9614 10.9571V7.64366H32.9614V10.9571H34.9614ZM41.1962 9.9571H33.9614V11.9571H41.1962V9.9571ZM44.5177 13.2786C44.5177 11.4464 43.0284 9.9571 41.1962 9.9571V11.9571C41.9238 11.9571 42.5177 12.551 42.5177 13.2786H44.5177ZM44.5177 32.9553V13.2786H42.5177V32.9553H44.5177ZM46.0741 31.3367C45.0898 31.4789 44.1327 31.7042 43.2089 32.0041L43.8265 33.9064C44.644 33.641 45.4903 33.4418 46.3601 33.3161L46.0741 31.3367ZM45.2171 28.8653V32.3264H47.2171V28.8653H45.2171ZM43.9488 29.8653H46.2171V27.8653H43.9488V29.8653ZM42.9488 24.8857V28.8653H44.9488V24.8857H42.9488ZM53.2077 23.8857H43.9488V25.8857H53.2077V23.8857ZM54.2077 28.8653V24.8857H52.2077V28.8653H54.2077ZM50.9398 29.8653H53.2077V27.8653H50.9398V29.8653ZM51.9398 32.3268V28.8653H49.9398V32.3268H51.9398ZM46.2773 27.5386V26.2121H44.2773V27.5386H46.2773ZM46.2191 26.5386H45.2773V28.5386H46.2191V26.5386ZM50.9417 26.5386H46.2191V28.5386H50.9417V26.5386ZM51.8832 26.5386H50.9417V28.5386H51.8832V26.5386ZM50.8832 26.2121V27.5386H52.8832V26.2121H50.8832ZM45.2773 27.2121H51.8832V25.2121H45.2773V27.2121ZM50.6163 32.1904V28.8652H48.6163V32.1904H50.6163ZM48.58 33.1544C48.9009 33.1544 49.2237 33.1678 49.5539 33.1885L49.6788 31.1924C49.3228 31.1701 48.9558 31.1544 48.58 31.1544V33.1544ZM47.6091 33.1883C47.9383 33.1678 48.2601 33.1544 48.58 33.1544V31.1544C48.2053 31.1544 47.8394 31.1701 47.4846 31.1922L47.6091 33.1883ZM46.5469 28.8652V32.1902H48.5469V28.8652H46.5469ZM49.6163 27.8652H47.5469V29.8652H49.6163V27.8652ZM10.875 9.97039H14.7727V7.97039H10.875V9.97039ZM11.875 13.9319V8.97039H9.875V13.9319H11.875ZM32.6316 12.9319H10.875V14.9319H32.6316V12.9319ZM31.6316 8.97039V13.9319H33.6316V8.97039H31.6316ZM28.7335 9.97039H32.6316V7.97039H28.7335V9.97039ZM27.7335 8.30712V8.97039H29.7335V8.30712H27.7335ZM21.7532 2.32666C25.0498 2.32666 27.7335 5.01031 27.7335 8.30712H29.7335C29.7335 3.90576 26.1543 0.32666 21.7532 0.32666V2.32666ZM15.7727 8.30712C15.7727 5.01033 18.4564 2.32666 21.7532 2.32666V0.32666C17.3518 0.32666 13.7727 3.90574 13.7727 8.30712H15.7727ZM15.7727 8.97039V8.30712H13.7727V8.97039H15.7727ZM0.328125 56.2846C0.328125 57.3819 1.21921 58.273 2.31655 58.273V56.273C2.31637 56.273 2.31714 56.273 2.31853 56.2733C2.31987 56.2735 2.32115 56.274 2.32224 56.2744C2.32428 56.2753 2.32499 56.276 2.32504 56.2761C2.32509 56.2761 2.32583 56.2768 2.32669 56.2789C2.32716 56.28 2.32757 56.2813 2.32784 56.2826C2.32813 56.284 2.32812 56.2848 2.32812 56.2846H0.328125ZM0.328125 13.2786V56.2846H2.32812V13.2786H0.328125ZM2.31655 11.2836C1.21305 11.2836 0.328125 12.1838 0.328125 13.2786H2.32812C2.32812 13.2775 2.32822 13.2774 2.3281 13.278C2.32799 13.2785 2.32781 13.2791 2.32761 13.2796C2.32726 13.2804 2.32711 13.2804 2.32735 13.2802C2.32759 13.2799 2.32689 13.2807 2.32441 13.2818C2.3231 13.2824 2.32151 13.2829 2.3198 13.2832C2.31802 13.2836 2.31682 13.2836 2.31655 13.2836V11.2836ZM9.55332 11.2836H2.31655V13.2836H9.55332V11.2836ZM10.5533 15.2583V12.2836H8.55332V15.2583H10.5533ZM33.963 14.2583H9.55332V16.2583H33.963V14.2583ZM32.963 12.2836V15.2583H34.963V12.2836H32.963ZM41.1978 11.2836H33.963V13.2836H41.1978V11.2836ZM43.1927 13.2786C43.1927 12.1776 42.2987 11.2836 41.1978 11.2836V13.2836C41.1984 13.2836 41.1981 13.2837 41.1971 13.2835C41.1962 13.2833 41.1954 13.283 41.1946 13.2827C41.1934 13.2822 41.1934 13.2819 41.1939 13.2825C41.1945 13.283 41.1942 13.283 41.1937 13.2817C41.1934 13.281 41.1931 13.2801 41.1929 13.2792C41.1927 13.2783 41.1927 13.2779 41.1927 13.2786H43.1927ZM43.1927 33.4466V13.2786H41.1927V33.4466H43.1927ZM33.4027 45.8451C34.3328 40.6655 37.8565 36.3695 42.5828 34.3674L41.8027 32.5258C36.466 34.7865 32.4859 39.6348 31.4342 45.4916L33.4027 45.8451ZM16.6249 46.6684H32.4184V44.6684H16.6249V46.6684ZM17.6249 46.9949V45.6684H15.6249V46.9949H17.6249ZM32.2329 45.9949H16.6249V47.9949H32.2329V45.9949ZM33.1552 48.5773C33.1552 48.078 33.1811 47.5826 33.2283 47.0905L31.2375 46.8993C31.1847 47.4493 31.1552 48.0088 31.1552 48.5773H33.1552ZM35.503 56.7419C34.0171 54.3715 33.1552 51.5747 33.1552 48.5773H31.1552C31.1552 51.9639 32.1303 55.1271 33.8084 57.8041L35.503 56.7419ZM2.31655 58.273H34.6557V56.273H2.31655V58.273ZM58.09 58.9675C55.7215 61.1381 52.6148 62.5089 49.1958 62.6575L49.2826 64.6556C53.1897 64.4857 56.7396 62.9179 59.4413 60.442L58.09 58.9675ZM55.9758 58.3292L58.0585 60.4119L59.4727 58.9976L57.39 56.915L55.9758 58.3292ZM56.9138 55.9771L55.9758 56.915L57.3901 58.3292L58.328 57.3913L56.9138 55.9771ZM60.4106 58.0597L58.328 55.9771L56.9138 57.3913L58.9964 59.474L60.4106 58.0597ZM62.6567 49.1971C62.508 52.616 61.1371 55.7227 58.9663 58.0912L60.4407 59.4425C62.9168 56.7409 64.4848 53.191 64.6548 49.284L62.6567 49.1971ZM60.704 50.2406H63.6557V48.2406H60.704V50.2406ZM59.704 47.914V49.2406H61.704V47.914H59.704ZM63.6557 46.914H60.704V48.914H63.6557V46.914ZM58.9664 39.0633C61.1372 41.4317 62.508 44.5384 62.6567 47.9575L64.6548 47.8706C64.4848 43.9635 62.9169 40.4136 60.4409 37.7119L58.9664 39.0633ZM58.3279 41.1776L60.4108 39.0947L58.9966 37.6805L56.9137 39.7633L58.3279 41.1776ZM55.9758 40.2397L56.9137 41.1776L58.3279 39.7633L57.39 38.8254L55.9758 40.2397ZM58.0587 36.7426L55.9758 38.8254L57.39 40.2397L59.4729 38.1568L58.0587 36.7426ZM49.1957 34.4968C52.6149 34.6455 55.7216 36.0162 58.0901 38.1869L59.4414 36.7125C56.7397 34.2364 53.1898 32.6686 49.2826 32.4986L49.1957 34.4968ZM50.2392 36.449V33.4977H48.2392V36.449H50.2392ZM47.9126 37.449H49.2392V35.449H47.9126V37.449ZM46.9126 33.4977V36.449H48.9126V33.4977H46.9126ZM39.0617 38.1869C41.4302 36.0163 44.537 34.6455 47.9561 34.4968L47.8692 32.4986C43.962 32.6686 40.4121 34.2365 37.7104 36.7125L39.0617 38.1869ZM41.176 38.8254L39.0932 36.7426L37.679 38.1568L39.7618 40.2397L41.176 38.8254ZM40.2381 41.1776L41.176 40.2397L39.7618 38.8254L38.8239 39.7633L40.2381 41.1776ZM36.7411 39.0947L38.8239 41.1776L40.2381 39.7633L38.1553 37.6805L36.7411 39.0947ZM34.4951 47.9575C34.6439 44.5384 36.0146 41.4317 38.1854 39.0633L36.7109 37.7119C34.2348 40.4136 32.667 43.9635 32.497 47.8706L34.4951 47.9575ZM36.4478 46.914H33.4961V48.914H36.4478V46.914ZM37.4478 49.2406V47.914H35.4478V49.2406H37.4478ZM33.4961 50.2406H36.4478V48.2406H33.4961V50.2406ZM38.1855 58.0912C36.0147 55.7227 34.6439 52.6161 34.4951 49.1971L32.497 49.284C32.667 53.1911 34.235 56.7409 36.7111 59.4425L38.1855 58.0912ZM38.8239 55.9771L36.7412 58.0597L38.1554 59.474L40.2381 57.3913L38.8239 55.9771ZM41.176 56.915L40.2381 55.9771L38.8239 57.3913L39.7618 58.3292L41.176 56.915ZM39.0933 60.4119L41.176 58.3292L39.7618 56.915L37.6791 58.9976L39.0933 60.4119ZM47.9561 62.6575C44.5371 62.5088 41.4304 61.1381 39.0618 58.9675L37.7106 60.442C40.4123 62.9179 43.9621 64.4857 47.8692 64.6556L47.9561 62.6575ZM46.9126 60.7052V63.6566H48.9126V60.7052H46.9126ZM49.2392 59.7052H47.9126V61.7052H49.2392V59.7052ZM50.2392 63.6566V60.7052H48.2392V63.6566H50.2392ZM17.8447 9.95736H15.875V11.9574H17.8447V9.95736ZM18.8447 12.2838V10.9574H16.8447V12.2838H18.8447ZM15.875 13.2838H17.8447V11.2838H15.875V13.2838ZM14.875 10.9574V12.2838H16.875V10.9574H14.875ZM64.4055 38.5362C62.8889 36.1531 60.819 34.1096 58.417 32.6226L57.3643 34.3232C59.5105 35.6518 61.3634 37.4811 62.7182 39.61L64.4055 38.5362ZM64.1441 37.517L63.0248 38.2295L64.0988 39.9167L65.2181 39.2042L64.1441 37.517ZM58.0626 33.1955C60.3775 34.6284 62.3759 36.6015 63.8375 38.8976L65.5247 37.8236C63.9013 35.2734 61.6861 33.0862 59.1152 31.4949L58.0626 33.1955ZM58.7408 33.9994L59.4391 32.8717L57.7387 31.8188L57.0404 32.9464L58.7408 33.9994ZM57.3191 33.1016L57.9079 31.913L56.1158 31.0252L55.527 32.2138L57.3191 33.1016ZM54.5191 32.9163C55.0151 33.1052 55.5065 33.3197 55.9793 33.5538L56.8668 31.7615C56.3362 31.4988 55.7861 31.2587 55.2309 31.0473L54.5191 32.9163ZM54.4127 30.3861L53.9405 31.6259L55.8095 32.3378L56.2817 31.098L54.4127 30.3861ZM57.4556 30.573C56.8871 30.2915 56.2976 30.0343 55.7035 29.8077L54.9909 31.6764C55.5263 31.8806 56.0574 32.1124 56.5681 32.3653L57.4556 30.573ZM49.0388 46.4093C50.0434 46.6215 50.7978 47.5153 50.7978 48.5773H52.7978C52.7978 46.5473 51.3591 44.8552 49.4521 44.4525L49.0388 46.4093ZM48.2455 40.0014V45.4309H50.2455V40.0014H48.2455ZM47.9189 41.0014H49.2455V39.0014H47.9189V41.0014ZM48.9189 45.4299V40.0014H46.9189V45.4299H48.9189ZM46.3633 48.5773C46.3633 47.5143 47.1189 46.6197 48.1244 46.4085L47.7134 44.4512C45.8038 44.8523 44.3633 46.5459 44.3633 48.5773H46.3633ZM48.5806 50.7942C47.3586 50.7942 46.3633 49.7987 46.3633 48.5773H44.3633C44.3633 50.9034 46.2542 52.7942 48.5806 52.7942V50.7942ZM49.7136 50.4682C49.3685 50.6761 48.985 50.7942 48.5806 50.7942V52.7942C49.3862 52.7942 50.1229 52.5565 50.7457 52.1813L49.7136 50.4682ZM55.1099 55.1069L50.9621 50.644L49.4971 52.0055L53.6449 56.4685L55.1099 55.1069ZM54.6683 54.1523L53.6967 55.0552L55.0581 56.5202L56.0298 55.6174L54.6683 54.1523ZM50.4727 51.1069L54.6166 55.5656L56.0815 54.204L51.9377 49.7454L50.4727 51.1069ZM50.7978 48.5773C50.7978 49.0469 50.6473 49.4829 50.3886 49.8489L52.0218 51.0034C52.5039 50.3212 52.7978 49.486 52.7978 48.5773H50.7978ZM45.6914 48.5773C45.6914 50.1723 46.9876 51.4676 48.5821 51.4676V49.4676C48.0916 49.4676 47.6914 49.0673 47.6914 48.5773H45.6914ZM48.5821 45.6866C46.9873 45.6866 45.6914 46.9825 45.6914 48.5773H47.6914C47.6914 48.0871 48.0919 47.6866 48.5821 47.6866V45.6866ZM51.4728 48.5773C51.4728 46.9825 50.1769 45.6866 48.5821 45.6866V47.6866C49.0724 47.6866 49.4728 48.0871 49.4728 48.5773H51.4728ZM48.5821 51.4676C50.1767 51.4676 51.4728 50.1722 51.4728 48.5773H49.4728C49.4728 49.0672 49.0726 49.4676 48.5821 49.4676V51.4676ZM31.9595 60.0646H14.957V62.0646H31.9595V60.0646ZM32.9595 62.391V61.0646H30.9595V62.391H32.9595ZM14.957 63.391H31.9595V61.391H14.957V63.391ZM13.957 61.0646V62.391H15.957V61.0646H13.957ZM8.55469 62.0646H12.8346V60.0646H8.55469V62.0646ZM9.55469 62.391V61.0646H7.55469V62.391H9.55469ZM12.8346 61.391H8.55469V63.391H12.8346V61.391ZM11.8346 61.0646V62.391H13.8346V61.0646H11.8346ZM46.6858 16.137H45.3594V18.137H46.6858V16.137ZM47.6858 22.7568V17.137H45.6858V22.7568H47.6858ZM45.3594 23.7568H46.6858V21.7568H45.3594V23.7568ZM44.3594 17.137V22.7568H46.3594V17.137H44.3594ZM45.3594 14.2627H46.6858V12.2627H45.3594V14.2627ZM46.3594 15.4923V13.2627H44.3594V15.4923H46.3594ZM46.6858 14.4923H45.3594V16.4923H46.6858V14.4923ZM45.6858 13.2627V15.4923H47.6858V13.2627H45.6858ZM19.4375 11.9574H27.6317V9.95736H19.4375V11.9574ZM20.4375 12.2838V10.9574H18.4375V12.2838H20.4375ZM27.6317 11.2838H19.4375V13.2838H27.6317V11.2838ZM26.6317 10.9574V12.2838H28.6317V10.9574H26.6317ZM16.625 20.9904H38.6461V18.9904H16.625V20.9904ZM17.625 21.3169V19.9904H15.625V21.3169H17.625ZM38.6461 20.3169H16.625V22.3169H38.6461V20.3169ZM37.6461 19.9904V21.3169H39.6461V19.9904H37.6461ZM27.6328 25.6776H31.0122V23.6776H27.6328V25.6776ZM28.6328 26.004V24.6776H26.6328V26.004H28.6328ZM31.0122 25.004H27.6328V27.004H31.0122V25.004ZM30.0122 24.6776V26.004H32.0122V24.6776H30.0122ZM25.6723 23.6776H16.625V25.6776H25.6723V23.6776ZM26.6723 26.004V24.6776H24.6723V26.004H26.6723ZM16.625 27.004H25.6723V25.004H16.625V27.004ZM15.625 24.6776V26.004H17.625V24.6776H15.625ZM16.625 33.8291H38.6461V31.8291H16.625V33.8291ZM17.625 34.1555V32.8291H15.625V34.1555H17.625ZM38.6461 33.1555H16.625V35.1555H38.6461V33.1555ZM37.6461 32.8291V34.1555H39.6461V32.8291H37.6461ZM29.7058 36.5163H26.8789V38.5163H29.7058V36.5163ZM30.7058 38.8427V37.5163H28.7058V38.8427H30.7058ZM26.8789 39.8427H29.7058V37.8427H26.8789V39.8427ZM25.8789 37.5163V38.8427H27.8789V37.5163H25.8789ZM16.625 38.5163H24.9593V36.5163H16.625V38.5163ZM17.625 38.8427V37.5163H15.625V38.8427H17.625ZM24.9593 37.8427H16.625V39.8427H24.9593V37.8427ZM23.9593 37.5163V38.8427H25.9593V37.5163H23.9593ZM30.8494 49.3561H27.0977V51.3561H30.8494V49.3561ZM31.8494 51.6825V50.3561H29.8494V51.6825H31.8494ZM27.0977 52.6825H30.8494V50.6825H27.0977V52.6825ZM26.0977 50.3561V51.6825H28.0977V50.3561H26.0977ZM16.625 51.3561H24.6844V49.3561H16.625V51.3561ZM17.625 51.6825V50.3561H15.625V51.6825H17.625ZM24.6844 50.6825H16.625V52.6825H24.6844V50.6825ZM23.6844 50.3561V51.6825H25.6844V50.3561H23.6844ZM14.4049 0.629643C12.9929 1.98231 11.9807 3.68928 11.4797 5.56711L13.4121 6.08269C13.8178 4.56196 14.6387 3.17534 15.7885 2.07385L14.4049 0.629643ZM13.4568 1.08553L14.3746 2.04354L15.8188 0.659954L14.901 -0.298051L13.4568 1.08553ZM12.1303 5.74062C12.5986 3.98495 13.5455 2.38533 14.8707 1.11586L13.4871 -0.328382C11.8994 1.19255 10.7613 3.11268 10.1978 5.22518L12.1303 5.74062ZM12.7037 4.8587L11.4219 4.5167L10.9063 6.4491L12.1881 6.7911L12.7037 4.8587ZM32.094 4.51672L30.8121 4.85871L31.3277 6.79112L32.6096 6.44913L32.094 4.51672ZM29.0556 1.53287C30.1638 2.72522 30.9694 4.18142 31.3856 5.74078L33.318 5.22507C32.8169 3.34768 31.8498 1.60155 30.5205 0.171291L29.0556 1.53287ZM29.4971 2.48751L30.4688 1.58462L29.1073 0.119536L28.1357 1.02243L29.4971 2.48751ZM32.0361 5.56722C31.591 3.89832 30.7307 2.34594 29.549 1.07425L28.0839 2.43569C29.0449 3.46987 29.7436 4.7324 30.1037 6.08261L32.0361 5.56722ZM23.4516 6.05925C23.4516 6.99415 22.6896 7.756 21.7551 7.756V9.756C23.7943 9.756 25.4516 8.09864 25.4516 6.05925H23.4516ZM21.7551 4.36276C22.6897 4.36276 23.4516 5.12467 23.4516 6.05925H25.4516C25.4516 4.02007 23.7943 2.36276 21.7551 2.36276V4.36276ZM20.0586 6.05925C20.0586 5.12467 20.8205 4.36276 21.7551 4.36276V2.36276C19.716 2.36276 18.0586 4.02007 18.0586 6.05925H20.0586ZM21.7551 7.756C20.8206 7.756 20.0586 6.99416 20.0586 6.05925H18.0586C18.0586 8.09863 19.7159 9.756 21.7551 9.756V7.756ZM24.1266 6.05934C24.1266 4.75172 23.0641 3.6894 21.7567 3.6894V5.6894C21.9597 5.6894 22.1266 5.85638 22.1266 6.05934H24.1266ZM21.7567 8.42962C23.0644 8.42962 24.1266 7.367 24.1266 6.05934H22.1266C22.1266 6.26279 21.9595 6.42962 21.7567 6.42962V8.42962ZM19.3867 6.05934C19.3867 7.36713 20.4491 8.42962 21.7567 8.42962V6.42962C21.5539 6.42962 21.3867 6.26279 21.3867 6.05934H19.3867ZM21.7567 3.6894C20.4491 3.6894 19.3867 4.75175 19.3867 6.05934H21.3867C21.3867 5.85635 21.5537 5.6894 21.7567 5.6894V3.6894ZM12.5111 18.7845H6.08594V20.7845H12.5111V18.7845ZM13.5111 26.2092V19.7845H11.5111V26.2092H13.5111ZM6.08594 27.2092H12.5111V25.2092H6.08594V27.2092ZM5.08594 19.7845V26.2092H7.08594V19.7845H5.08594ZM6.08594 33.6236H12.5111V31.6236H6.08594V33.6236ZM7.08594 39.0486V32.6236H5.08594V39.0486H7.08594ZM12.5111 38.0486H6.08594V40.0486H12.5111V38.0486ZM11.5111 32.6236V39.0486H13.5111V32.6236H11.5111ZM12.5111 44.463H6.08594V46.463H12.5111V44.463ZM13.5111 51.8881V45.463H11.5111V51.8881H13.5111ZM6.08594 52.8881H12.5111V50.8881H6.08594V52.8881ZM5.08594 45.463V51.8881H7.08594V45.463H5.08594Z" fill="#FF9419" mask="url(#path-2-inside-1)"/>
</svg>
