<svg width="12" height="16" viewBox="0 0 12 16" fill="none" xmlns="http://www.w3.org/2000/svg">
<path fill-rule="evenodd" clip-rule="evenodd" d="M4.2249 14.5629C5.1842 15.7632 5.67615 15.9171 5.99758 15.9171C6.31902 15.9171 6.81096 15.7632 7.77026 14.5629C9.4956 12.4042 11.9893 7.71874 11.9893 5.47438C11.9893 1.20354 6.04549 -2.07861 1.88281 1.57876C0.67245 2.64224 0.00585938 4.02572 0.00585938 5.47438C0.00585938 7.70828 2.48939 12.3915 4.2249 14.5629ZM1.00189 5.47438C1.00189 2.90908 3.63115 0.99226 5.98202 0.99226C8.34758 0.99226 10.9933 2.90908 10.9933 5.47438C10.9933 7.97637 7.18609 14.3826 5.99758 14.914C5.90993 14.8748 5.57191 14.679 4.88627 13.7926C3.21717 11.6347 1.00189 7.33533 1.00189 5.47438Z" fill="white"/>
<path fill-rule="evenodd" clip-rule="evenodd" d="M2.75977 5.70779C2.75977 7.49273 4.21191 8.94488 5.99685 8.94488C7.78176 8.94488 9.23394 7.49273 9.23394 5.70779C9.23394 3.92285 7.78179 2.4707 5.99685 2.4707C4.21191 2.4707 2.75977 3.92285 2.75977 5.70779ZM3.75579 5.70779C3.75579 4.47206 4.76113 3.46673 5.99685 3.46673C7.23258 3.46673 8.23791 4.47206 8.23791 5.70779C8.23791 6.94352 7.23258 7.94885 5.99685 7.94885C4.76113 7.94885 3.75579 6.94352 3.75579 5.70779Z" fill="white"/>
</svg>
