<svg width="87" height="66" viewBox="0 0 87 66" fill="none" xmlns="http://www.w3.org/2000/svg">
<path fill-rule="evenodd" clip-rule="evenodd" d="M78.9167 1H36.1151C35.3327 1 34.6984 1.63428 34.6984 2.4167C34.6984 3.19913 35.3327 3.8334 36.1151 3.8334H78.9167C81.2628 3.83598 83.1641 5.73731 83.1667 8.08351V47.7512C83.1641 50.0974 81.2628 51.9987 78.9167 52.0013H39.8865C39.9331 51.5352 39.9583 51.0627 39.9583 50.5846C39.9566 50.0594 39.9258 49.5348 39.866 49.013C40.3489 48.7825 40.6589 48.2982 40.6665 47.7638C40.6733 48.5404 41.305 49.1679 42.0832 49.1679C44.4293 49.1653 46.3306 47.264 46.3332 44.9178V10.9169C46.3306 8.57071 44.4293 6.66938 42.0832 6.6668H10.9165C8.57035 6.66938 6.66906 8.57071 6.66649 10.9169L6.66436 45.2816C6.49528 46.3939 6.79039 47.5269 7.48065 48.4153C8.02189 48.9327 8.752 49.2048 9.49982 49.1679C10.2822 49.1746 10.9219 48.5457 10.9286 47.7633C10.9353 46.9809 10.3064 46.3412 9.52405 46.3345C9.49217 46.0674 9.49982 10.9169 9.49982 10.9169C9.50052 10.1348 10.1344 9.50091 10.9165 9.50021H42.0832C42.8653 9.50091 43.4991 10.1348 43.4998 10.9169V44.9178C43.4991 45.6999 42.8653 46.3338 42.0832 46.3345C41.3084 46.3345 40.6788 46.9565 40.6667 47.7284V37.8343C40.6579 32.5204 36.4641 28.157 31.1549 27.9379C34.3001 25.8793 35.7197 21.9992 34.6456 18.3968C33.5716 14.7945 30.259 12.3254 26.5 12.3254C22.741 12.3254 19.4284 14.7945 18.3544 18.3968C17.2803 21.9992 18.6999 25.8793 21.8451 27.9379C16.5359 28.157 12.3421 32.5204 12.3333 37.8343V39.251C12.3333 40.0334 12.9676 40.6677 13.75 40.6677C14.5324 40.6677 15.1667 40.0334 15.1667 39.251V37.8343C15.1713 33.9241 18.3399 30.7554 22.25 30.7507H30.75C34.6601 30.7554 37.8287 33.9241 37.8333 37.8343V43.1589C34.5151 37.7622 28.0148 35.2281 21.9196 36.9551C15.8244 38.682 11.6193 44.2493 11.625 50.5846C11.625 51.0627 11.6502 51.5352 11.6968 52.0013H8.08333C5.73719 51.9987 3.83591 50.0974 3.83333 47.7512V8.08351C3.83591 5.73731 5.73719 3.83598 8.08333 3.8334H23.9075C24.6899 3.8334 25.3242 3.19913 25.3242 2.4167C25.3242 1.63428 24.6899 1 23.9075 1H8.08333C4.17323 1.00461 1.00461 4.17331 1 8.08351V47.7512C1.00461 51.6614 4.17323 54.8301 8.08333 54.8347H12.2129C12.2242 54.8347 12.2345 54.8316 12.2448 54.8285C12.2542 54.8257 12.2636 54.8228 12.2738 54.8224C14.1257 60.7275 19.5963 64.7472 25.7849 64.75C31.9735 64.7528 37.4477 60.7382 39.305 54.8347H78.9167C82.8268 54.8301 85.9954 51.6614 86 47.7512V8.08351C85.9954 4.17331 82.8268 1.00461 78.9167 1ZM26.4997 15.1669C29.6293 15.1669 32.1664 17.704 32.1664 20.8337C32.1664 23.9634 29.6293 26.5005 26.4997 26.5005C23.3701 26.5005 20.8331 23.9634 20.8331 20.8337C20.8363 17.7054 23.3715 15.1702 26.4997 15.1669ZM14.4581 50.5846C14.4581 56.844 19.5322 61.9182 25.7914 61.9182C32.0477 61.911 37.1176 56.841 37.1248 50.5846C37.1248 44.3252 32.0506 39.251 25.7914 39.251C19.5322 39.251 14.4581 44.3252 14.4581 50.5846ZM29.3332 3.8334H31.8649C32.6473 3.8334 33.2816 3.19913 33.2816 2.4167C33.2816 1.63428 32.6473 1 31.8649 1H29.3332C28.5508 1 27.9165 1.63428 27.9165 2.4167C27.9165 3.19913 28.5508 3.8334 29.3332 3.8334ZM74.6665 6.6668H55.8278C55.0454 6.6668 54.4111 7.30108 54.4111 8.08351C54.4111 8.86593 55.0454 9.50021 55.8278 9.50021H74.6665C75.4489 9.50021 76.0831 8.86593 76.0831 8.08351C76.0831 7.30108 75.4489 6.6668 74.6665 6.6668ZM52.0002 9.50021H50.5836C49.8012 9.50021 49.1669 8.86593 49.1669 8.08351C49.1669 7.30108 49.8012 6.6668 50.5836 6.6668H52.0002C52.7826 6.6668 53.4169 7.30108 53.4169 8.08351C53.4169 8.86593 52.7826 9.50021 52.0002 9.50021ZM78.9164 12.3334H76.7914C76.009 12.3334 75.3748 12.9677 75.3748 13.7501C75.3748 14.5326 76.009 15.1668 76.7914 15.1668H78.9164C79.6988 15.1668 80.3331 14.5326 80.3331 13.7501C80.3331 12.9677 79.6988 12.3334 78.9164 12.3334ZM72.0602 15.1668H50.5836C49.8012 15.1668 49.1669 14.5326 49.1669 13.7501C49.1669 12.9677 49.8012 12.3334 50.5836 12.3334H72.0602C72.8426 12.3334 73.4769 12.9677 73.4769 13.7501C73.4769 14.5326 72.8426 15.1668 72.0602 15.1668ZM50.5836 32.1678H78.9169C79.6993 32.1678 80.3336 31.5335 80.3336 30.7511C80.3336 29.9686 79.6993 29.3344 78.9169 29.3344H50.5836C49.8012 29.3344 49.1669 29.9686 49.1669 30.7511C49.1669 31.5335 49.8012 32.1678 50.5836 32.1678ZM77.4995 18.0006H66.1662C64.6021 18.0024 63.3346 19.2699 63.3328 20.834V23.6674C63.3346 25.2315 64.6021 26.499 66.1662 26.5008H77.4995C79.0636 26.499 80.331 25.2315 80.3328 23.6674V20.834C80.331 19.2699 79.0636 18.0024 77.4995 18.0006ZM66.1664 23.6672V20.8338H77.4997L77.5018 23.6672H66.1664ZM52.0002 26.5008C50.4362 26.499 49.1687 25.2315 49.1669 23.6674V20.834C49.1687 19.2699 50.4362 18.0024 52.0002 18.0006H57.6669C59.231 18.0024 60.4985 19.2699 60.5002 20.834V23.6674C60.4985 25.2315 59.231 26.499 57.6669 26.5008H52.0002ZM57.6666 20.8338H52V23.6672H57.6688L57.6666 20.8338ZM54.8336 36.4177C54.8336 37.2001 54.1993 37.8344 53.4169 37.8344H50.5836C49.8012 37.8344 49.1669 37.2001 49.1669 36.4177C49.1669 35.6353 49.8012 35.001 50.5836 35.001H53.4169C54.1993 35.001 54.8336 35.6353 54.8336 36.4177ZM78.9167 35.001H57.6667C56.8843 35.001 56.25 35.6353 56.25 36.4177C56.25 37.2001 56.8843 37.8344 57.6667 37.8344H78.9167C79.6991 37.8344 80.3334 37.2001 80.3334 36.4177C80.3334 35.6353 79.6991 35.001 78.9167 35.001ZM54.8336 42.0845C54.8336 42.8669 54.1993 43.5012 53.4169 43.5012H50.5836C49.8012 43.5012 49.1669 42.8669 49.1669 42.0845C49.1669 41.3021 49.8012 40.6678 50.5836 40.6678H53.4169C54.1993 40.6678 54.8336 41.3021 54.8336 42.0845ZM78.9167 40.6678H57.6667C56.8843 40.6678 56.25 41.3021 56.25 42.0845C56.25 42.8669 56.8843 43.5012 57.6667 43.5012H78.9167C79.6991 43.5012 80.3334 42.8669 80.3334 42.0845C80.3334 41.3021 79.6991 40.6678 78.9167 40.6678ZM54.8336 47.7515C54.8336 48.5339 54.1993 49.1682 53.4169 49.1682H50.5836C49.8012 49.1682 49.1669 48.5339 49.1669 47.7515C49.1669 46.9691 49.8012 46.3348 50.5836 46.3348H53.4169C54.1993 46.3348 54.8336 46.9691 54.8336 47.7515ZM78.9167 46.3348H57.6667C56.8843 46.3348 56.25 46.9691 56.25 47.7515C56.25 48.5339 56.8843 49.1682 57.6667 49.1682H78.9167C79.6991 49.1682 80.3334 48.5339 80.3334 47.7515C80.3334 46.9691 79.6991 46.3348 78.9167 46.3348ZM23.6671 52.8312L31.1655 45.3327C31.7214 44.7958 32.605 44.8035 33.1514 45.35C33.6979 45.8965 33.7056 46.7801 33.1687 47.3359L24.6687 55.8362C24.4031 56.1019 24.0428 56.2512 23.6671 56.2512C23.2914 56.2512 22.9311 56.1019 22.6655 55.8362L18.4155 51.586C17.8786 51.0302 17.8863 50.1466 18.4328 49.6001C18.9792 49.0536 19.8628 49.0459 20.4187 49.5828L23.6671 52.8312Z" fill="#FF9419"/>
<path d="M78.9167 1L78.9173 0.5H78.9167V1ZM78.9167 3.8334L78.9172 3.3334H78.9167V3.8334ZM83.1667 8.08351H83.6667V8.08296L83.1667 8.08351ZM83.1667 47.7512L83.6667 47.7517V47.7512H83.1667ZM78.9167 52.0013V52.5013H78.9172L78.9167 52.0013ZM39.8865 52.0013L39.389 51.9515L39.334 52.5013H39.8865V52.0013ZM39.9583 50.5846H40.4583L40.4583 50.5829L39.9583 50.5846ZM39.866 49.013L39.6506 48.5618L39.3286 48.7155L39.3692 49.07L39.866 49.013ZM40.6665 47.7638L41.1665 47.7594L40.1666 47.7566L40.6665 47.7638ZM42.0832 49.1679V49.6679H42.0837L42.0832 49.1679ZM46.3332 44.9178L46.8332 44.9183V44.9178H46.3332ZM46.3332 10.9169H46.8332V10.9164L46.3332 10.9169ZM42.0832 6.6668L42.0837 6.1668H42.0832V6.6668ZM10.9165 6.6668V6.1668L10.9159 6.16681L10.9165 6.6668ZM6.66649 10.9169L6.16649 10.9164V10.9169L6.66649 10.9169ZM6.66436 45.2816L7.15868 45.3567L7.16436 45.3194L7.16436 45.2816L6.66436 45.2816ZM7.48065 48.4153L7.0858 48.7221L7.10846 48.7512L7.13515 48.7768L7.48065 48.4153ZM9.49982 49.1679L9.5041 48.6679L9.48962 48.6678L9.47516 48.6685L9.49982 49.1679ZM10.9286 47.7633L10.4286 47.759L10.9286 47.7633ZM9.52405 46.3345L9.02757 46.3937L9.07973 46.8307L9.51977 46.8345L9.52405 46.3345ZM9.49982 10.9169L8.99982 10.9165V10.9168L9.49982 10.9169ZM10.9165 9.50021V9.00021H10.916L10.9165 9.50021ZM42.0832 9.50021L42.0836 9.00021H42.0832V9.50021ZM43.4998 10.9169H43.9998V10.9165L43.4998 10.9169ZM43.4998 44.9178L43.9998 44.9182V44.9178H43.4998ZM42.0832 46.3345V46.8345H42.0836L42.0832 46.3345ZM40.6667 47.7284H40.1667L41.1666 47.7363L40.6667 47.7284ZM40.6667 37.8343H41.1667V37.8334L40.6667 37.8343ZM31.1549 27.9379L30.8811 27.5195L29.5768 28.3732L31.1343 28.4375L31.1549 27.9379ZM34.6456 18.3968L35.1248 18.254L34.6456 18.3968ZM21.8451 27.9379L21.8657 28.4375L23.4232 28.3732L22.1189 27.5195L21.8451 27.9379ZM12.3333 37.8343L11.8333 37.8334V37.8343H12.3333ZM15.1667 37.8343L14.6667 37.8337V37.8343H15.1667ZM22.25 30.7507V30.2507H22.2494L22.25 30.7507ZM30.75 30.7507L30.7506 30.2507H30.75V30.7507ZM37.8333 37.8343H38.3333V37.8337L37.8333 37.8343ZM37.8333 43.1589L37.4074 43.4208L38.3333 44.9267V43.1589H37.8333ZM21.9196 36.9551L22.0559 37.4361L21.9196 36.9551ZM11.625 50.5846H12.125V50.5841L11.625 50.5846ZM11.6968 52.0013V52.5013H12.2493L12.1943 51.9515L11.6968 52.0013ZM8.08333 52.0013L8.08278 52.5013H8.08333V52.0013ZM3.83333 47.7512H3.33333L3.33333 47.7517L3.83333 47.7512ZM3.83333 8.08351L3.33333 8.08296V8.08351H3.83333ZM8.08333 3.8334V3.3334L8.08278 3.33341L8.08333 3.8334ZM8.08333 1V0.5L8.08274 0.5L8.08333 1ZM1 8.08351L0.5 8.08292V8.08351H1ZM1 47.7512H0.5L0.5 47.7518L1 47.7512ZM8.08333 54.8347L8.08274 55.3347H8.08333V54.8347ZM12.2738 54.8224L12.7509 54.6727L12.6356 54.3051L12.2507 54.3229L12.2738 54.8224ZM25.7849 64.75L25.7846 65.25L25.7849 64.75ZM39.305 54.8347V54.3347H38.9381L38.828 54.6846L39.305 54.8347ZM78.9167 54.8347V55.3347H78.9173L78.9167 54.8347ZM86 47.7512L86.5 47.7518V47.7512H86ZM86 8.08351H86.5V8.08292L86 8.08351ZM26.4997 15.1669V14.6669H26.4992L26.4997 15.1669ZM20.8331 20.8337L20.3331 20.8332V20.8337H20.8331ZM25.7914 61.9182V62.4182H25.792L25.7914 61.9182ZM37.1248 50.5846L37.6248 50.5852V50.5846H37.1248ZM66.1662 18.0006V17.5006H66.1656L66.1662 18.0006ZM77.4995 18.0006L77.5001 17.5006H77.4995V18.0006ZM63.3328 20.834L62.8328 20.8334V20.834H63.3328ZM63.3328 23.6674H62.8328V23.668L63.3328 23.6674ZM66.1662 26.5008L66.1656 27.0008H66.1662V26.5008ZM77.4995 26.5008V27.0008H77.5001L77.4995 26.5008ZM80.3328 23.6674L80.8328 23.668V23.6674H80.3328ZM80.3328 20.834H80.8328V20.8334L80.3328 20.834ZM66.1664 20.8338V20.3338H65.6664V20.8338H66.1664ZM66.1664 23.6672H65.6664V24.1672H66.1664V23.6672ZM77.4997 20.8338L77.9997 20.8335L77.9993 20.3338H77.4997V20.8338ZM77.5018 23.6672V24.1672H78.0022L78.0018 23.6669L77.5018 23.6672ZM49.1669 23.6674H48.6669V23.668L49.1669 23.6674ZM52.0002 26.5008L51.9997 27.0008H52.0002V26.5008ZM49.1669 20.834L48.6669 20.8334V20.834H49.1669ZM52.0002 18.0006V17.5006H51.9997L52.0002 18.0006ZM57.6669 18.0006L57.6675 17.5006H57.6669V18.0006ZM60.5002 20.834H61.0002V20.8334L60.5002 20.834ZM60.5002 23.6674L61.0002 23.668V23.6674H60.5002ZM57.6669 26.5008V27.0008H57.6675L57.6669 26.5008ZM52 20.8338V20.3338H51.5V20.8338H52ZM57.6666 20.8338L58.1666 20.8335L58.1663 20.3338H57.6666V20.8338ZM52 23.6672H51.5V24.1672H52V23.6672ZM57.6688 23.6672V24.1672H58.1691L58.1688 23.6669L57.6688 23.6672ZM31.1655 45.3327L30.8181 44.973L30.812 44.9792L31.1655 45.3327ZM23.6671 52.8312L23.3135 53.1847L23.6671 53.5383L24.0207 53.1847L23.6671 52.8312ZM33.1514 45.35L33.505 44.9964L33.1514 45.35ZM33.1687 47.3359L33.5223 47.6895L33.5283 47.6833L33.1687 47.3359ZM24.6687 55.8362L24.3151 55.4826L24.315 55.4827L24.6687 55.8362ZM22.6655 55.8362L23.0192 55.4827L23.0191 55.4826L22.6655 55.8362ZM18.4155 51.586L18.0558 51.9334L18.062 51.9396L18.4155 51.586ZM18.4328 49.6001L18.7863 49.9536L18.4328 49.6001ZM20.4187 49.5828L20.7723 49.2292L20.766 49.2232L20.4187 49.5828ZM36.1151 1.5H78.9167V0.5H36.1151V1.5ZM35.1984 2.4167C35.1984 1.91041 35.6088 1.5 36.1151 1.5V0.5C35.0565 0.5 34.1984 1.35815 34.1984 2.4167H35.1984ZM36.1151 3.3334C35.6088 3.3334 35.1984 2.923 35.1984 2.4167H34.1984C34.1984 3.47526 35.0565 4.3334 36.1151 4.3334V3.3334ZM78.9167 3.3334H36.1151V4.3334H78.9167V3.3334ZM83.6667 8.08296C83.6638 5.46106 81.5391 3.33628 78.9172 3.33341L78.9161 4.3334C80.9865 4.33568 82.6644 6.01356 82.6667 8.08406L83.6667 8.08296ZM83.6667 47.7512V8.08351H82.6667V47.7512H83.6667ZM78.9172 52.5013C81.5391 52.4984 83.6638 50.3736 83.6667 47.7517L82.6667 47.7506C82.6644 49.8211 80.9865 51.499 78.9161 51.5013L78.9172 52.5013ZM39.8865 52.5013H78.9167V51.5013H39.8865V52.5013ZM39.4583 50.5846C39.4583 51.0451 39.434 51.501 39.389 51.9515L40.384 52.051C40.4322 51.5694 40.4583 51.0803 40.4583 50.5846H39.4583ZM39.3692 49.07C39.4269 49.5734 39.4567 50.0796 39.4583 50.5862L40.4583 50.5829C40.4565 50.0393 40.4246 49.4962 40.3627 48.9561L39.3692 49.07ZM40.1666 47.7566C40.1617 48.101 39.9619 48.4132 39.6506 48.5618L40.0813 49.4643C40.736 49.1518 41.1561 48.4953 41.1665 47.7709L40.1666 47.7566ZM42.0832 48.6679C41.5797 48.6679 41.1709 48.2619 41.1665 47.7594L40.1666 47.7681C40.1757 48.8189 41.0303 49.6679 42.0832 49.6679V48.6679ZM45.8332 44.9172C45.8309 46.9877 44.153 48.6656 42.0826 48.6679L42.0837 49.6679C44.7056 49.665 46.8303 47.5402 46.8332 44.9183L45.8332 44.9172ZM45.8332 10.9169V44.9178H46.8332V10.9169H45.8332ZM42.0826 7.1668C44.153 7.16908 45.8309 8.84696 45.8332 10.9175L46.8332 10.9164C46.8303 8.29446 44.7056 6.16968 42.0837 6.16681L42.0826 7.1668ZM10.9165 7.1668H42.0832V6.1668H10.9165V7.1668ZM7.16649 10.9175C7.16876 8.84696 8.84662 7.16908 10.917 7.1668L10.9159 6.16681C8.29407 6.16968 6.16937 8.29446 6.16649 10.9164L7.16649 10.9175ZM7.16436 45.2816L7.16649 10.9169L6.16649 10.9169L6.16436 45.2815L7.16436 45.2816ZM7.87549 48.1086C7.26935 47.3284 7.0102 46.3335 7.15868 45.3567L6.17004 45.2064C5.98035 46.4543 6.31143 47.7253 7.0858 48.7221L7.87549 48.1086ZM9.47516 48.6685C8.86443 48.6986 8.26816 48.4764 7.82614 48.0539L7.13515 48.7768C7.77561 49.389 8.63957 49.711 9.52449 49.6673L9.47516 48.6685ZM10.4286 47.759C10.4243 48.2653 10.0104 48.6722 9.5041 48.6679L9.49555 49.6679C10.5541 49.6769 11.4195 48.8261 11.4286 47.7676L10.4286 47.759ZM9.51977 46.8345C10.026 46.8388 10.4329 47.2527 10.4286 47.759L11.4286 47.7676C11.4376 46.709 10.5869 45.8435 9.52832 45.8345L9.51977 46.8345ZM9.49982 10.9169C8.99982 10.9168 8.99982 10.9169 8.99982 10.9172C8.99982 10.9175 8.99982 10.9179 8.99982 10.9184C8.99982 10.9195 8.99982 10.9211 8.99982 10.9232C8.99982 10.9275 8.99982 10.9338 8.99982 10.9423C8.99981 10.9592 8.99981 10.9844 8.9998 11.0177C8.99979 11.0842 8.99977 11.1829 8.99974 11.3116C8.9997 11.5692 8.99963 11.9469 8.99956 12.4277C8.99941 13.3894 8.99923 14.7635 8.99912 16.4133C8.99891 19.7129 8.99894 24.1151 8.99998 28.5257C9.00102 32.9362 9.00305 37.3552 9.00681 40.6884C9.0087 42.3549 9.01101 43.7502 9.01386 44.7374C9.01528 45.2309 9.01683 45.6228 9.01853 45.8958C9.01938 46.0322 9.02027 46.1397 9.02121 46.2156C9.02168 46.2533 9.02217 46.2846 9.02271 46.3081C9.0229 46.3164 9.02349 46.3595 9.02757 46.3937L10.0205 46.2752C10.0236 46.3011 10.0232 46.3188 10.0225 46.2852C10.022 46.2669 10.0216 46.2398 10.0211 46.2032C10.0202 46.1304 10.0194 46.0254 10.0185 45.8896C10.0168 45.6183 10.0153 45.2277 10.0139 44.7345C10.011 43.7483 10.0087 42.3536 10.0068 40.6873C10.003 37.3546 10.001 32.9359 9.99998 28.5254C9.99895 24.115 9.99891 19.7129 9.99912 16.4134C9.99923 14.7636 9.99941 13.3895 9.99956 12.4279C9.99963 11.9471 9.99969 11.5693 9.99974 11.3118C9.99977 11.1831 9.99979 11.0844 9.9998 11.0179C9.99981 10.9846 9.99981 10.9594 9.99982 10.9425C9.99982 10.934 9.99982 10.9277 9.99982 10.9234C9.99982 10.9213 9.99982 10.9197 9.99982 10.9186C9.99982 10.9181 9.99982 10.9177 9.99982 10.9174C9.99982 10.9172 9.99982 10.917 9.49982 10.9169ZM10.916 9.00021C9.85812 9.00116 9.00077 9.85855 8.99982 10.9165L9.99982 10.9174C10.0003 10.411 10.4106 10.0007 10.9169 10.0002L10.916 9.00021ZM42.0832 9.00021H10.9165V10.0002H42.0832V9.00021ZM43.9998 10.9165C43.9989 9.85855 43.1415 9.00116 42.0836 9.00021L42.0827 10.0002C42.589 10.0007 42.9994 10.411 42.9998 10.9174L43.9998 10.9165ZM43.9998 44.9178V10.9169H42.9998V44.9178H43.9998ZM42.0836 46.8345C43.1415 46.8335 43.9989 45.9761 43.9998 44.9182L42.9998 44.9173C42.9994 45.4237 42.589 45.834 42.0827 45.8345L42.0836 46.8345ZM41.1666 47.7363C41.1745 47.237 41.5819 46.8345 42.0832 46.8345V45.8345C41.0348 45.8345 40.1832 46.676 40.1667 47.7205L41.1666 47.7363ZM40.1667 37.8343V47.7284H41.1667V37.8343H40.1667ZM31.1343 28.4375C36.1759 28.6455 40.1583 32.7891 40.1667 37.8351L41.1667 37.8334C41.1575 32.2518 36.7523 27.6685 31.1755 27.4383L31.1343 28.4375ZM34.1665 18.5397C35.1774 21.9302 33.8413 25.582 30.8811 27.5195L31.4287 28.3562C34.7589 26.1766 36.262 22.0682 35.1248 18.254L34.1665 18.5397ZM26.5 12.8254C30.0379 12.8254 33.1556 15.1492 34.1665 18.5397L35.1248 18.254C33.9876 14.4397 30.4801 11.8254 26.5 11.8254V12.8254ZM18.8335 18.5397C19.8444 15.1492 22.9621 12.8254 26.5 12.8254V11.8254C22.5199 11.8254 19.0124 14.4397 17.8752 18.254L18.8335 18.5397ZM22.1189 27.5195C19.1587 25.582 17.8226 21.9302 18.8335 18.5397L17.8752 18.254C16.738 22.0682 18.2411 26.1766 21.5713 28.3562L22.1189 27.5195ZM12.8333 37.8351C12.8417 32.7891 16.8241 28.6455 21.8657 28.4375L21.8245 27.4383C16.2477 27.6685 11.8425 32.2518 11.8333 37.8334L12.8333 37.8351ZM12.8333 39.251V37.8343H11.8333V39.251H12.8333ZM13.75 40.1677C13.2438 40.1677 12.8333 39.7573 12.8333 39.251H11.8333C11.8333 40.3095 12.6914 41.1677 13.75 41.1677V40.1677ZM14.6667 39.251C14.6667 39.7573 14.2562 40.1677 13.75 40.1677V41.1677C14.8086 41.1677 15.6667 40.3095 15.6667 39.251H14.6667ZM14.6667 37.8343V39.251H15.6667V37.8343H14.6667ZM22.2494 30.2507C18.0636 30.2557 14.6716 33.6478 14.6667 37.8337L15.6667 37.8349C15.6709 34.2003 18.6162 31.255 22.2506 31.2507L22.2494 30.2507ZM30.75 30.2507H22.25V31.2507H30.75V30.2507ZM38.3333 37.8337C38.3284 33.6478 34.9364 30.2557 30.7506 30.2507L30.7494 31.2507C34.3838 31.255 37.3291 34.2003 37.3333 37.8349L38.3333 37.8337ZM38.3333 43.1589V37.8343H37.3333V43.1589H38.3333ZM22.0559 37.4361C27.9357 35.7702 34.2064 38.2148 37.4074 43.4208L38.2593 42.8971C34.8238 37.3097 28.0938 34.686 21.7833 36.474L22.0559 37.4361ZM12.125 50.5841C12.1195 44.4727 16.1761 39.1021 22.0559 37.4361L21.7833 36.474C15.4728 38.262 11.1191 44.026 11.125 50.585L12.125 50.5841ZM12.1943 51.9515C12.1493 51.501 12.125 51.0451 12.125 50.5846H11.125C11.125 51.0803 11.1511 51.5694 11.1993 52.051L12.1943 51.9515ZM8.08333 52.5013H11.6968V51.5013H8.08333V52.5013ZM3.33333 47.7517C3.33621 50.3736 5.46092 52.4984 8.08278 52.5013L8.08388 51.5013C6.01347 51.499 4.33561 49.8211 4.33333 47.7506L3.33333 47.7517ZM3.33333 8.08351V47.7512H4.33333V8.08351H3.33333ZM8.08278 3.33341C5.46092 3.33628 3.33621 5.46106 3.33333 8.08296L4.33333 8.08406C4.33561 6.01356 6.01347 4.33568 8.08388 4.3334L8.08278 3.33341ZM23.9075 3.3334H8.08333V4.3334H23.9075V3.3334ZM24.8242 2.4167C24.8242 2.92299 24.4137 3.3334 23.9075 3.3334V4.3334C24.9661 4.3334 25.8242 3.47526 25.8242 2.4167H24.8242ZM23.9075 1.5C24.4137 1.5 24.8242 1.91041 24.8242 2.4167H25.8242C25.8242 1.35815 24.9661 0.5 23.9075 0.5V1.5ZM8.08333 1.5H23.9075V0.5H8.08333V1.5ZM1.5 8.0841C1.50428 4.44957 4.44951 1.50428 8.08392 1.5L8.08274 0.5C3.89694 0.504931 0.504931 3.89705 0.5 8.08292L1.5 8.0841ZM1.5 47.7512V8.08351H0.5V47.7512H1.5ZM8.08392 54.3347C4.44951 54.3304 1.50428 51.3851 1.5 47.7506L0.5 47.7518C0.504931 51.9376 3.89694 55.3298 8.08274 55.3347L8.08392 54.3347ZM12.2129 54.3347H8.08333V55.3347H12.2129V54.3347ZM12.1007 54.3497C12.0926 54.3522 12.1055 54.348 12.1218 54.3444C12.1409 54.3402 12.1727 54.3347 12.2129 54.3347V55.3347C12.3092 55.3347 12.3882 55.3075 12.389 55.3073L12.1007 54.3497ZM12.2507 54.3229C12.169 54.3267 12.1016 54.3494 12.1007 54.3497L12.389 55.3073C12.3961 55.3051 12.3858 55.3084 12.3726 55.3115C12.3573 55.315 12.3308 55.3203 12.297 55.3218L12.2507 54.3229ZM25.7851 64.25C19.8149 64.2473 14.5375 60.3695 12.7509 54.6727L11.7967 54.972C13.714 61.0855 19.3776 65.2471 25.7846 65.25L25.7851 64.25ZM38.828 54.6846C37.0363 60.3798 31.7553 64.2527 25.7851 64.25L25.7846 65.25C32.1917 65.2529 37.8591 61.0966 39.7819 54.9847L38.828 54.6846ZM78.9167 54.3347H39.305V55.3347H78.9167V54.3347ZM85.5 47.7506C85.4957 51.3851 82.5505 54.3304 78.9161 54.3347L78.9173 55.3347C83.1031 55.3298 86.4951 51.9376 86.5 47.7518L85.5 47.7506ZM85.5 8.08351V47.7512H86.5V8.08351H85.5ZM78.9161 1.5C82.5505 1.50428 85.4957 4.44956 85.5 8.0841L86.5 8.08292C86.4951 3.89705 83.1031 0.504931 78.9173 0.5L78.9161 1.5ZM32.6664 20.8337C32.6664 17.4279 29.9055 14.6669 26.4997 14.6669V15.6669C29.3532 15.6669 31.6664 17.9802 31.6664 20.8337H32.6664ZM26.4997 27.0005C29.9055 27.0005 32.6664 24.2396 32.6664 20.8337H31.6664C31.6664 23.6873 29.3532 26.0005 26.4997 26.0005V27.0005ZM20.3331 20.8337C20.3331 24.2396 23.094 27.0005 26.4997 27.0005V26.0005C23.6463 26.0005 21.3331 23.6873 21.3331 20.8337H20.3331ZM26.4992 14.6669C23.0952 14.6705 20.3366 17.4292 20.3331 20.8332L21.3331 20.8343C21.336 17.9816 23.6477 15.6699 26.5002 15.6669L26.4992 14.6669ZM25.7914 61.4182C19.8083 61.4182 14.9581 56.5678 14.9581 50.5846H13.9581C13.9581 57.1201 19.256 62.4182 25.7914 62.4182V61.4182ZM36.6248 50.584C36.6179 56.5647 31.7714 61.4114 25.7908 61.4182L25.792 62.4182C32.324 62.4107 37.6173 57.1173 37.6248 50.5852L36.6248 50.584ZM25.7914 39.751C31.7745 39.751 36.6248 44.6013 36.6248 50.5846H37.6248C37.6248 44.0491 32.3268 38.751 25.7914 38.751V39.751ZM14.9581 50.5846C14.9581 44.6013 19.8083 39.751 25.7914 39.751V38.751C19.256 38.751 13.9581 44.0491 13.9581 50.5846H14.9581ZM31.8649 3.3334H29.3332V4.3334H31.8649V3.3334ZM32.7816 2.4167C32.7816 2.92299 32.3712 3.3334 31.8649 3.3334V4.3334C32.9235 4.3334 33.7816 3.47526 33.7816 2.4167H32.7816ZM31.8649 1.5C32.3712 1.5 32.7816 1.91041 32.7816 2.4167H33.7816C33.7816 1.35815 32.9235 0.5 31.8649 0.5V1.5ZM29.3332 1.5H31.8649V0.5H29.3332V1.5ZM28.4165 2.4167C28.4165 1.91041 28.8269 1.5 29.3332 1.5V0.5C28.2746 0.5 27.4165 1.35815 27.4165 2.4167H28.4165ZM29.3332 3.3334C28.8269 3.3334 28.4165 2.92299 28.4165 2.4167H27.4165C27.4165 3.47526 28.2746 4.3334 29.3332 4.3334V3.3334ZM55.8278 7.1668H74.6665V6.1668H55.8278V7.1668ZM54.9111 8.08351C54.9111 7.57721 55.3215 7.1668 55.8278 7.1668V6.1668C54.7692 6.1668 53.9111 7.02495 53.9111 8.08351H54.9111ZM55.8278 9.00021C55.3215 9.00021 54.9111 8.5898 54.9111 8.08351H53.9111C53.9111 9.14206 54.7692 10.0002 55.8278 10.0002V9.00021ZM74.6665 9.00021H55.8278V10.0002H74.6665V9.00021ZM75.5831 8.08351C75.5831 8.5898 75.1727 9.00021 74.6665 9.00021V10.0002C75.725 10.0002 76.5831 9.14206 76.5831 8.08351H75.5831ZM74.6665 7.1668C75.1727 7.1668 75.5831 7.57721 75.5831 8.08351H76.5831C76.5831 7.02495 75.725 6.1668 74.6665 6.1668V7.1668ZM50.5836 10.0002H52.0002V9.00021H50.5836V10.0002ZM48.6669 8.08351C48.6669 9.14206 49.525 10.0002 50.5836 10.0002V9.00021C50.0773 9.00021 49.6669 8.5898 49.6669 8.08351H48.6669ZM50.5836 6.1668C49.525 6.1668 48.6669 7.02495 48.6669 8.08351H49.6669C49.6669 7.57721 50.0773 7.1668 50.5836 7.1668V6.1668ZM52.0002 6.1668H50.5836V7.1668H52.0002V6.1668ZM53.9169 8.08351C53.9169 7.02495 53.0588 6.1668 52.0002 6.1668V7.1668C52.5065 7.1668 52.9169 7.57721 52.9169 8.08351H53.9169ZM52.0002 10.0002C53.0588 10.0002 53.9169 9.14206 53.9169 8.08351H52.9169C52.9169 8.5898 52.5065 9.00021 52.0002 9.00021V10.0002ZM76.7914 12.8334H78.9164V11.8334H76.7914V12.8334ZM75.8748 13.7501C75.8748 13.2438 76.2852 12.8334 76.7914 12.8334V11.8334C75.7329 11.8334 74.8748 12.6916 74.8748 13.7501H75.8748ZM76.7914 14.6668C76.2852 14.6668 75.8748 14.2564 75.8748 13.7501H74.8748C74.8748 14.8087 75.7329 15.6668 76.7914 15.6668V14.6668ZM78.9164 14.6668H76.7914V15.6668H78.9164V14.6668ZM79.8331 13.7501C79.8331 14.2564 79.4227 14.6668 78.9164 14.6668V15.6668C79.975 15.6668 80.8331 14.8087 80.8331 13.7501H79.8331ZM78.9164 12.8334C79.4227 12.8334 79.8331 13.2439 79.8331 13.7501H80.8331C80.8331 12.6916 79.975 11.8334 78.9164 11.8334V12.8334ZM50.5836 15.6668H72.0602V14.6668H50.5836V15.6668ZM48.6669 13.7501C48.6669 14.8087 49.525 15.6668 50.5836 15.6668V14.6668C50.0773 14.6668 49.6669 14.2564 49.6669 13.7501H48.6669ZM50.5836 11.8334C49.525 11.8334 48.6669 12.6916 48.6669 13.7501H49.6669C49.6669 13.2439 50.0773 12.8334 50.5836 12.8334V11.8334ZM72.0602 11.8334H50.5836V12.8334H72.0602V11.8334ZM73.9769 13.7501C73.9769 12.6916 73.1188 11.8334 72.0602 11.8334V12.8334C72.5665 12.8334 72.9769 13.2438 72.9769 13.7501H73.9769ZM72.0602 15.6668C73.1188 15.6668 73.9769 14.8087 73.9769 13.7501H72.9769C72.9769 14.2564 72.5665 14.6668 72.0602 14.6668V15.6668ZM78.9169 31.6678H50.5836V32.6678H78.9169V31.6678ZM79.8336 30.7511C79.8336 31.2574 79.4232 31.6678 78.9169 31.6678V32.6678C79.9755 32.6678 80.8336 31.8096 80.8336 30.7511H79.8336ZM78.9169 29.8344C79.4232 29.8344 79.8336 30.2448 79.8336 30.7511H80.8336C80.8336 29.6925 79.9755 28.8344 78.9169 28.8344V29.8344ZM50.5836 29.8344H78.9169V28.8344H50.5836V29.8344ZM49.6669 30.7511C49.6669 30.2448 50.0773 29.8344 50.5836 29.8344V28.8344C49.525 28.8344 48.6669 29.6925 48.6669 30.7511H49.6669ZM50.5836 31.6678C50.0773 31.6678 49.6669 31.2574 49.6669 30.7511H48.6669C48.6669 31.8096 49.525 32.6678 50.5836 32.6678V31.6678ZM66.1662 18.5006H77.4995V17.5006H66.1662V18.5006ZM63.8328 20.8346C63.8343 19.5461 64.8784 18.5021 66.1667 18.5006L66.1656 17.5006C64.3258 17.5027 62.8349 18.9936 62.8328 20.8334L63.8328 20.8346ZM63.8328 23.6674V20.834H62.8328V23.6674H63.8328ZM66.1667 26.0008C64.8784 25.9993 63.8343 24.9552 63.8328 23.6668L62.8328 23.668C62.8349 25.5078 64.3258 26.9987 66.1656 27.0008L66.1667 26.0008ZM77.4995 26.0008H66.1662V27.0008H77.4995V26.0008ZM79.8328 23.6668C79.8313 24.9552 78.7873 25.9993 77.4989 26.0008L77.5001 27.0008C79.3398 26.9987 80.8307 25.5077 80.8328 23.668L79.8328 23.6668ZM79.8328 20.834V23.6674H80.8328V20.834H79.8328ZM77.4989 18.5006C78.7873 18.5021 79.8313 19.5461 79.8328 20.8346L80.8328 20.8334C80.8307 18.9936 79.3398 17.5027 77.5001 17.5006L77.4989 18.5006ZM65.6664 20.8338V23.6672H66.6664V20.8338H65.6664ZM77.4997 20.3338H66.1664V21.3338H77.4997V20.3338ZM78.0018 23.6669L77.9997 20.8335L76.9997 20.8342L77.0018 23.6676L78.0018 23.6669ZM66.1664 24.1672H77.5018V23.1672H66.1664V24.1672ZM48.6669 23.668C48.669 25.5078 50.1599 26.9987 51.9997 27.0008L52.0008 26.0008C50.7125 25.9993 49.6684 24.9552 49.6669 23.6668L48.6669 23.668ZM48.6669 20.834V23.6674H49.6669V20.834H48.6669ZM51.9997 17.5006C50.1599 17.5027 48.669 18.9936 48.6669 20.8334L49.6669 20.8346C49.6684 19.5461 50.7125 18.5021 52.0008 18.5006L51.9997 17.5006ZM57.6669 17.5006H52.0002V18.5006H57.6669V17.5006ZM61.0002 20.8334C60.9981 18.9936 59.5073 17.5027 57.6675 17.5006L57.6663 18.5006C58.9547 18.5021 59.9988 19.5461 60.0002 20.8346L61.0002 20.8334ZM61.0002 23.6674V20.834H60.0002V23.6674H61.0002ZM57.6675 27.0008C59.5073 26.9987 60.9981 25.5078 61.0002 23.668L60.0002 23.6668C59.9988 24.9552 58.9547 25.9993 57.6663 26.0008L57.6675 27.0008ZM52.0002 27.0008H57.6669V26.0008H52.0002V27.0008ZM52 21.3338H57.6666V20.3338H52V21.3338ZM52.5 23.6672V20.8338H51.5V23.6672H52.5ZM57.6688 23.1672H52V24.1672H57.6688V23.1672ZM57.1666 20.8342L57.1688 23.6676L58.1688 23.6669L58.1666 20.8335L57.1666 20.8342ZM53.4169 38.3344C54.4755 38.3344 55.3336 37.4763 55.3336 36.4177H54.3336C54.3336 36.924 53.9232 37.3344 53.4169 37.3344V38.3344ZM50.5836 38.3344H53.4169V37.3344H50.5836V38.3344ZM48.6669 36.4177C48.6669 37.4763 49.525 38.3344 50.5836 38.3344V37.3344C50.0773 37.3344 49.6669 36.924 49.6669 36.4177H48.6669ZM50.5836 34.501C49.525 34.501 48.6669 35.3591 48.6669 36.4177H49.6669C49.6669 35.9114 50.0773 35.501 50.5836 35.501V34.501ZM53.4169 34.501H50.5836V35.501H53.4169V34.501ZM55.3336 36.4177C55.3336 35.3591 54.4755 34.501 53.4169 34.501V35.501C53.9232 35.501 54.3336 35.9114 54.3336 36.4177H55.3336ZM57.6667 35.501H78.9167V34.501H57.6667V35.501ZM56.75 36.4177C56.75 35.9114 57.1604 35.501 57.6667 35.501V34.501C56.6081 34.501 55.75 35.3591 55.75 36.4177H56.75ZM57.6667 37.3344C57.1604 37.3344 56.75 36.924 56.75 36.4177H55.75C55.75 37.4763 56.6081 38.3344 57.6667 38.3344V37.3344ZM78.9167 37.3344H57.6667V38.3344H78.9167V37.3344ZM79.8334 36.4177C79.8334 36.924 79.423 37.3344 78.9167 37.3344V38.3344C79.9753 38.3344 80.8334 37.4763 80.8334 36.4177H79.8334ZM78.9167 35.501C79.423 35.501 79.8334 35.9114 79.8334 36.4177H80.8334C80.8334 35.3591 79.9753 34.501 78.9167 34.501V35.501ZM53.4169 44.0012C54.4755 44.0012 55.3336 43.1431 55.3336 42.0845H54.3336C54.3336 42.5908 53.9232 43.0012 53.4169 43.0012V44.0012ZM50.5836 44.0012H53.4169V43.0012H50.5836V44.0012ZM48.6669 42.0845C48.6669 43.1431 49.525 44.0012 50.5836 44.0012V43.0012C50.0773 43.0012 49.6669 42.5908 49.6669 42.0845H48.6669ZM50.5836 40.1678C49.525 40.1678 48.6669 41.026 48.6669 42.0845H49.6669C49.6669 41.5782 50.0773 41.1678 50.5836 41.1678V40.1678ZM53.4169 40.1678H50.5836V41.1678H53.4169V40.1678ZM55.3336 42.0845C55.3336 41.026 54.4755 40.1678 53.4169 40.1678V41.1678C53.9232 41.1678 54.3336 41.5782 54.3336 42.0845H55.3336ZM57.6667 41.1678H78.9167V40.1678H57.6667V41.1678ZM56.75 42.0845C56.75 41.5782 57.1604 41.1678 57.6667 41.1678V40.1678C56.6081 40.1678 55.75 41.026 55.75 42.0845H56.75ZM57.6667 43.0012C57.1604 43.0012 56.75 42.5908 56.75 42.0845H55.75C55.75 43.1431 56.6081 44.0012 57.6667 44.0012V43.0012ZM78.9167 43.0012H57.6667V44.0012H78.9167V43.0012ZM79.8334 42.0845C79.8334 42.5908 79.423 43.0012 78.9167 43.0012V44.0012C79.9753 44.0012 80.8334 43.1431 80.8334 42.0845H79.8334ZM78.9167 41.1678C79.423 41.1678 79.8334 41.5782 79.8334 42.0845H80.8334C80.8334 41.026 79.9753 40.1678 78.9167 40.1678V41.1678ZM53.4169 49.6682C54.4755 49.6682 55.3336 48.81 55.3336 47.7515H54.3336C54.3336 48.2578 53.9232 48.6682 53.4169 48.6682V49.6682ZM50.5836 49.6682H53.4169V48.6682H50.5836V49.6682ZM48.6669 47.7515C48.6669 48.81 49.525 49.6682 50.5836 49.6682V48.6682C50.0773 48.6682 49.6669 48.2578 49.6669 47.7515H48.6669ZM50.5836 45.8348C49.525 45.8348 48.6669 46.6929 48.6669 47.7515H49.6669C49.6669 47.2452 50.0773 46.8348 50.5836 46.8348V45.8348ZM53.4169 45.8348H50.5836V46.8348H53.4169V45.8348ZM55.3336 47.7515C55.3336 46.6929 54.4755 45.8348 53.4169 45.8348V46.8348C53.9232 46.8348 54.3336 47.2452 54.3336 47.7515H55.3336ZM57.6667 46.8348H78.9167V45.8348H57.6667V46.8348ZM56.75 47.7515C56.75 47.2452 57.1604 46.8348 57.6667 46.8348V45.8348C56.6081 45.8348 55.75 46.6929 55.75 47.7515H56.75ZM57.6667 48.6682C57.1604 48.6682 56.75 48.2578 56.75 47.7515H55.75C55.75 48.81 56.6081 49.6682 57.6667 49.6682V48.6682ZM78.9167 48.6682H57.6667V49.6682H78.9167V48.6682ZM79.8334 47.7515C79.8334 48.2578 79.423 48.6682 78.9167 48.6682V49.6682C79.9753 49.6682 80.8334 48.81 80.8334 47.7515H79.8334ZM78.9167 46.8348C79.423 46.8348 79.8334 47.2452 79.8334 47.7515H80.8334C80.8334 46.6929 79.9753 45.8348 78.9167 45.8348V46.8348ZM30.812 44.9792L23.3135 52.4776L24.0207 53.1847L31.5191 45.6863L30.812 44.9792ZM33.505 44.9964C32.7657 44.2571 31.5702 44.2467 30.8182 44.9731L31.5129 45.6924C31.8726 45.345 32.4443 45.3499 32.7979 45.7035L33.505 44.9964ZM33.5283 47.6833C34.2547 46.9312 34.2443 45.7358 33.505 44.9964L32.7979 45.7035C33.1515 46.0571 33.1564 46.6289 32.809 46.9886L33.5283 47.6833ZM25.0222 56.1897L33.5222 47.6895L32.8151 46.9824L24.3151 55.4826L25.0222 56.1897ZM23.6671 56.7512C24.1755 56.7512 24.663 56.5492 25.0224 56.1896L24.315 55.4827C24.1432 55.6546 23.9101 55.7512 23.6671 55.7512V56.7512ZM22.3118 56.1896C22.6712 56.5492 23.1587 56.7512 23.6671 56.7512V55.7512C23.4241 55.7512 23.191 55.6546 23.0192 55.4827L22.3118 56.1896ZM18.062 51.9396L22.312 56.1897L23.0191 55.4826L18.7691 51.2325L18.062 51.9396ZM18.0792 49.2465C17.3399 49.9859 17.3295 51.1813 18.0559 51.9334L18.7752 51.2387C18.4278 50.879 18.4327 50.3072 18.7863 49.9536L18.0792 49.2465ZM20.766 49.2232C20.014 48.4968 18.8185 48.5072 18.0792 49.2465L18.7863 49.9536C19.1399 49.6 19.7116 49.5951 20.0713 49.9425L20.766 49.2232ZM24.0206 52.4776L20.7722 49.2293L20.0651 49.9364L23.3135 53.1847L24.0206 52.4776Z" fill="#FFF7ED"/>
</svg>
