<svg width="68" height="68" viewBox="0 0 68 68" fill="none" xmlns="http://www.w3.org/2000/svg">
<g id="business-and-finance">
<g id="Combined Shape">
<path fill-rule="evenodd" clip-rule="evenodd" d="M53.0116 52.3765L53.0917 52.2958L61.5139 60.769C62.9583 62.2221 65.2956 62.2223 66.7402 60.769C68.1841 59.3163 68.1851 56.964 66.7402 55.511L58.318 47.0379L59.8264 45.5204L56.9362 42.6126C58.0778 38.3709 56.789 34.0779 53.9254 31.1973C53.6342 30.904 53.326 30.6342 53.0115 30.379V1H17.1517L1 17.2498V66.8551H53.0116V52.3765ZM65.7561 56.5013C66.6563 57.407 66.6562 58.8732 65.7561 59.7788C64.8853 60.6541 63.3677 60.6534 62.4983 59.7788L54.0762 51.3055L57.3339 48.0281L65.7561 56.5013ZM51.8965 47.7746L51.8935 47.777C47.8142 50.9078 41.9983 50.5132 38.3663 46.8589C34.3544 42.8049 34.3537 36.2234 38.3653 32.1871C42.3388 28.1892 48.8884 28.1058 52.9409 32.1871C57.3854 36.6585 56.83 44.03 51.8965 47.7746ZM16.7475 3.38733V16.8418H3.37424L16.7475 3.38733ZM51.6196 65.4545H2.39236V18.2424H18.1396V2.40051H51.6196V29.3946C47.0941 26.6896 41.1857 27.369 37.381 31.197C32.8277 35.7779 32.8273 43.2471 37.381 47.8482C40.3982 50.8841 44.7409 51.9289 48.669 50.8835L51.5822 53.8147L51.6196 53.7771V65.4545ZM51.5822 51.8341L50.1422 50.3852C51.0501 50.0069 51.9236 49.5146 52.7345 48.8926L52.7347 48.8927L52.7364 48.8913L52.7377 48.8904L52.7376 48.8902C54.3877 47.6371 55.6515 45.9742 56.4372 44.0908L57.858 45.5202L57.3339 46.0475L57.3329 46.0464L52.1066 51.3044L52.1076 51.3054L51.5822 51.8341ZM19.651 56.6959H44.5668V58.0965H19.651V56.6959ZM15.3954 56.6959H9.44815V58.0965H15.3954V56.6959ZM9.44815 48.8728H33.8204V50.2734H9.44815V48.8728ZM32.3259 41.0499H20.7363V42.4505H32.3259V41.0499ZM9.44815 41.0499H16.1464V42.4505H9.44815V41.0499ZM33.0053 33.2271H9.44815V34.6276H33.0053V33.2271ZM22.4053 25.4042H44.5668V26.8047H22.4053V25.4042ZM17.5233 25.4042H9.44815V26.8047H17.5233V25.4042ZM37.6167 39.5227H39.0088C39.0088 35.7471 42.0619 32.6755 45.8145 32.6755V31.2749C41.2941 31.2748 37.6167 34.9749 37.6167 39.5227ZM64.7567 57.666L60.9097 53.8929L59.938 54.8958L63.785 58.6688L64.7567 57.666ZM58.5845 51.6156L59.821 52.8283L58.8492 53.8311L57.6127 52.6184L58.5845 51.6156ZM57.355 10.9834H55.9628V27.1726H57.355V10.9834ZM55.9628 3.85437H57.355V6.94753H55.9628V3.85437ZM66.8356 51.8328L63.971 48.9508L62.9867 49.941L65.8514 52.823L66.8356 51.8328ZM60.8788 47.8526L62.2419 49.224L63.2262 48.2338L61.863 46.8623L60.8788 47.8526Z" fill="#FF9419"/>
<path d="M53.0917 52.2958L53.1981 52.1901L53.0917 52.083L52.9854 52.1901L53.0917 52.2958ZM53.0116 52.3765L52.9052 52.2707L52.8616 52.3146V52.3765H53.0116ZM61.5139 60.769L61.4075 60.8747L61.5139 60.769ZM66.7402 60.769L66.8466 60.8747L66.7402 60.769ZM66.7402 55.511L66.6338 55.6168L66.6339 55.6168L66.7402 55.511ZM58.318 47.0379L58.2117 46.9321L58.1066 47.0379L58.2117 47.1436L58.318 47.0379ZM59.8264 45.5204L59.9328 45.6261L60.0379 45.5204L59.9328 45.4146L59.8264 45.5204ZM56.9362 42.6126L56.7914 42.5737L56.7689 42.6571L56.8298 42.7184L56.9362 42.6126ZM53.9254 31.1973L53.819 31.303L53.819 31.3031L53.9254 31.1973ZM53.0115 30.379H52.8615V30.4504L52.917 30.4954L53.0115 30.379ZM53.0115 1H53.1615V0.85H53.0115V1ZM17.1517 1V0.85H17.0893L17.0453 0.894256L17.1517 1ZM1 17.2498L0.893613 17.1441L0.85 17.1879V17.2498H1ZM1 66.8551H0.85V67.0051H1V66.8551ZM53.0116 66.8551V67.0051H53.1616V66.8551H53.0116ZM65.7561 59.7788L65.8624 59.8846L65.8625 59.8845L65.7561 59.7788ZM65.7561 56.5013L65.6497 56.607L65.7561 56.5013ZM62.4983 59.7788L62.392 59.8845V59.8845L62.4983 59.7788ZM54.0762 51.3055L53.9698 51.1998L53.8647 51.3055L53.9698 51.4113L54.0762 51.3055ZM57.3339 48.0281L57.4403 47.9223L57.3339 47.8153L57.2275 47.9223L57.3339 48.0281ZM51.8935 47.777L51.9848 47.896L51.9855 47.8955L51.8935 47.777ZM51.8965 47.7746L51.8058 47.6551L51.8045 47.6562L51.8965 47.7746ZM38.3663 46.8589L38.2597 46.9645L38.2599 46.9647L38.3663 46.8589ZM38.3653 32.1871L38.2589 32.0814V32.0814L38.3653 32.1871ZM52.9409 32.1871L52.8345 32.2928L52.8345 32.2929L52.9409 32.1871ZM16.7475 16.8418V16.9918H16.8975V16.8418H16.7475ZM16.7475 3.38733H16.8975V3.02364L16.6411 3.28158L16.7475 3.38733ZM3.37424 16.8418L3.26785 16.7361L3.01365 16.9918H3.37424V16.8418ZM2.39236 65.4545H2.24236V65.6045H2.39236V65.4545ZM51.6196 65.4545V65.6045H51.7696V65.4545H51.6196ZM2.39236 18.2424V18.0924H2.24236V18.2424H2.39236ZM18.1396 18.2424V18.3924H18.2896V18.2424H18.1396ZM18.1396 2.40051V2.25051H17.9896V2.40051H18.1396ZM51.6196 2.40051H51.7696V2.25051H51.6196V2.40051ZM51.6196 29.3946L51.5426 29.5234L51.7696 29.6591V29.3946H51.6196ZM37.381 31.197L37.4874 31.3027L37.4874 31.3027L37.381 31.197ZM37.381 47.8482L37.2744 47.9537L37.2746 47.9539L37.381 47.8482ZM48.669 50.8835L48.7754 50.7778L48.7142 50.7162L48.6304 50.7385L48.669 50.8835ZM51.5822 53.8147L51.4758 53.9204L51.5822 54.0275L51.6886 53.9204L51.5822 53.8147ZM51.6196 53.7771H51.7696V53.4134L51.5132 53.6713L51.6196 53.7771ZM50.1422 50.3852L50.0845 50.2467L49.8785 50.3326L50.0358 50.4909L50.1422 50.3852ZM51.5822 51.8341L51.4758 51.9398L51.5822 52.0469L51.6886 51.9398L51.5822 51.8341ZM52.7345 48.8926L52.8406 48.7865L52.7476 48.6935L52.6432 48.7736L52.7345 48.8926ZM52.7347 48.8927L52.6286 48.9988L52.7261 49.0963L52.8314 49.0074L52.7347 48.8927ZM52.7364 48.8913L52.6513 48.7677L52.6453 48.7719L52.6396 48.7767L52.7364 48.8913ZM52.7377 48.8904L52.8228 49.0139L52.9314 48.9391L52.8712 48.8218L52.7377 48.8904ZM52.7376 48.8902L52.6469 48.7708L52.5467 48.8468L52.6042 48.9587L52.7376 48.8902ZM56.4372 44.0908L56.5436 43.9851L56.3852 43.8258L56.2988 44.0331L56.4372 44.0908ZM57.858 45.5202L57.9644 45.626L58.0695 45.5202L57.9644 45.4145L57.858 45.5202ZM57.3339 46.0475L57.2273 46.153L57.3337 46.2605L57.4403 46.1532L57.3339 46.0475ZM57.3329 46.0464L57.4395 45.9409L57.3332 45.8334L57.2265 45.9407L57.3329 46.0464ZM52.1066 51.3044L52.0002 51.1986L51.895 51.3045L52.0003 51.4103L52.1066 51.3044ZM52.1076 51.3054L52.214 51.4112L52.3193 51.3053L52.2139 51.1996L52.1076 51.3054ZM44.5668 56.6959H44.7168V56.5459H44.5668V56.6959ZM19.651 56.6959V56.5459H19.501V56.6959H19.651ZM44.5668 58.0965V58.2465H44.7168V58.0965H44.5668ZM19.651 58.0965H19.501V58.2465H19.651V58.0965ZM9.44815 56.6959V56.5459H9.29815V56.6959H9.44815ZM15.3954 56.6959H15.5454V56.5459H15.3954V56.6959ZM9.44815 58.0965H9.29815V58.2465H9.44815V58.0965ZM15.3954 58.0965V58.2465H15.5454V58.0965H15.3954ZM33.8204 48.8728H33.9704V48.7228H33.8204V48.8728ZM9.44815 48.8728V48.7228H9.29815V48.8728H9.44815ZM33.8204 50.2734V50.4234H33.9704V50.2734H33.8204ZM9.44815 50.2734H9.29815V50.4234H9.44815V50.2734ZM20.7363 41.0499V40.8999H20.5863V41.0499H20.7363ZM32.3259 41.0499H32.4759V40.8999H32.3259V41.0499ZM20.7363 42.4505H20.5863V42.6005H20.7363V42.4505ZM32.3259 42.4505V42.6005H32.4759V42.4505H32.3259ZM16.1464 41.0499H16.2964V40.8999H16.1464V41.0499ZM9.44815 41.0499V40.8999H9.29815V41.0499H9.44815ZM16.1464 42.4505V42.6005H16.2964V42.4505H16.1464ZM9.44815 42.4505H9.29815V42.6005H9.44815V42.4505ZM9.44815 33.2271V33.077H9.29815V33.2271H9.44815ZM33.0053 33.2271H33.1553V33.077H33.0053V33.2271ZM9.44815 34.6276H9.29815V34.7776H9.44815V34.6276ZM33.0053 34.6276V34.7776H33.1553V34.6276H33.0053ZM44.5668 25.4042H44.7168V25.2542H44.5668V25.4042ZM22.4053 25.4042V25.2542H22.2553V25.4042H22.4053ZM44.5668 26.8047V26.9547H44.7168V26.8047H44.5668ZM22.4053 26.8047H22.2553V26.9547H22.4053V26.8047ZM9.44815 25.4042V25.2542H9.29815V25.4042H9.44815ZM17.5233 25.4042H17.6733V25.2542H17.5233V25.4042ZM9.44815 26.8047H9.29815V26.9547H9.44815V26.8047ZM17.5233 26.8047V26.9547H17.6733V26.8047H17.5233ZM39.0088 39.5227V39.6727H39.1588V39.5227H39.0088ZM37.6167 39.5227H37.4667V39.6727H37.6167V39.5227ZM45.8145 32.6755V32.8255H45.9645V32.6755H45.8145ZM45.8145 31.2749H45.9645V31.1249L45.8145 31.1249L45.8145 31.2749ZM60.9097 53.8929L61.0147 53.7859L60.907 53.6802L60.8019 53.7886L60.9097 53.8929ZM64.7567 57.666L64.8644 57.7704L64.9682 57.6633L64.8617 57.5589L64.7567 57.666ZM59.938 54.8958L59.8302 54.7914L59.7265 54.8984L59.8329 55.0028L59.938 54.8958ZM63.785 58.6688L63.68 58.7759L63.7877 58.8816L63.8927 58.7732L63.785 58.6688ZM59.821 52.8283L59.9287 52.9327L60.0324 52.8256L59.926 52.7212L59.821 52.8283ZM58.5845 51.6156L58.6895 51.5085L58.5817 51.4028L58.4767 51.5112L58.5845 51.6156ZM58.8492 53.8311L58.7442 53.9382L58.8519 54.0438L58.957 53.9355L58.8492 53.8311ZM57.6127 52.6184L57.505 52.514L57.4012 52.6211L57.5077 52.7255L57.6127 52.6184ZM55.9628 10.9834V10.8334H55.8128V10.9834H55.9628ZM57.355 10.9834H57.505V10.8334H57.355V10.9834ZM55.9628 27.1726H55.8128V27.3226H55.9628V27.1726ZM57.355 27.1726V27.3226H57.505V27.1726H57.355ZM57.355 3.85437H57.505V3.70437H57.355V3.85437ZM55.9628 3.85437V3.70437H55.8128V3.85437H55.9628ZM57.355 6.94753V7.09753H57.505V6.94753H57.355ZM55.9628 6.94753H55.8128V7.09753H55.9628V6.94753ZM63.971 48.9508L64.0773 48.8451L63.971 48.738L63.8646 48.8451L63.971 48.9508ZM66.8356 51.8328L66.942 51.9385L67.0471 51.8328L66.942 51.727L66.8356 51.8328ZM62.9867 49.941L62.8803 49.8353L62.7752 49.941L62.8803 50.0468L62.9867 49.941ZM65.8514 52.823L65.745 52.9287L65.8514 53.0358L65.9577 52.9287L65.8514 52.823ZM62.2419 49.224L62.1355 49.3297L62.2419 49.4368L62.3483 49.3297L62.2419 49.224ZM60.8788 47.8526L60.7724 47.7468L60.6673 47.8526L60.7724 47.9583L60.8788 47.8526ZM63.2262 48.2338L63.3325 48.3395L63.4376 48.2338L63.3325 48.128L63.2262 48.2338ZM61.863 46.8623L61.9694 46.7566L61.863 46.6496L61.7566 46.7566L61.863 46.8623ZM52.9854 52.1901L52.9052 52.2707L53.1179 52.4822L53.1981 52.4016L52.9854 52.1901ZM61.6203 60.6632L53.1981 52.1901L52.9854 52.4016L61.4075 60.8747L61.6203 60.6632ZM66.6338 60.6632C65.2479 62.0576 63.006 62.0573 61.6203 60.6632L61.4075 60.8747C62.9105 62.3868 65.3433 62.3871 66.8466 60.8747L66.6338 60.6632ZM66.6339 55.6168C68.0205 57.0112 68.0196 59.269 66.6338 60.6632L66.8466 60.8747C68.3486 59.3636 68.3497 56.9168 66.8466 55.4053L66.6339 55.6168ZM58.2117 47.1436L66.6338 55.6168L66.8466 55.4053L58.4244 46.9321L58.2117 47.1436ZM59.72 45.4146L58.2117 46.9321L58.4244 47.1436L59.9328 45.6261L59.72 45.4146ZM56.8298 42.7184L59.72 45.6261L59.9328 45.4146L57.0426 42.5069L56.8298 42.7184ZM53.819 31.3031C56.6461 34.1469 57.9186 38.3852 56.7914 42.5737L57.0811 42.6516C58.2369 38.3566 56.9319 34.0088 54.0318 31.0916L53.819 31.3031ZM52.917 30.4954C53.2286 30.7484 53.5326 31.0146 53.819 31.303L54.0319 31.0916C53.7358 30.7935 53.4233 30.52 53.106 30.2625L52.917 30.4954ZM52.8615 1V30.379H53.1615V1H52.8615ZM17.1517 1.15H53.0115V0.85H17.1517V1.15ZM1.10639 17.3556L17.2581 1.10574L17.0453 0.894256L0.893613 17.1441L1.10639 17.3556ZM1.15 66.8551V17.2498H0.85V66.8551H1.15ZM53.0116 66.7051H1V67.0051H53.0116V66.7051ZM52.8616 52.3765V66.8551H53.1616V52.3765H52.8616ZM65.8625 59.8845C66.8208 58.9204 66.8209 57.3597 65.8625 56.3956L65.6497 56.607C66.4918 57.4542 66.4917 58.8259 65.6497 59.673L65.8625 59.8845ZM62.392 59.8845C63.32 60.8182 64.933 60.8189 65.8624 59.8846L65.6497 59.673C64.8376 60.4894 63.4155 60.4887 62.6047 59.673L62.392 59.8845ZM53.9698 51.4113L62.392 59.8845L62.6047 59.673L54.1826 51.1998L53.9698 51.4113ZM57.2275 47.9223L53.9698 51.1998L54.1826 51.4113L57.4403 48.1338L57.2275 47.9223ZM65.8625 56.3956L57.4403 47.9223L57.2275 48.1338L65.6497 56.607L65.8625 56.3956ZM51.9855 47.8955L51.9886 47.8931L51.8045 47.6562L51.8014 47.6586L51.9855 47.8955ZM38.2599 46.9647C41.9449 50.6723 47.8455 51.0728 51.9848 47.896L51.8021 47.658C47.7829 50.7427 42.0516 50.3541 38.4727 46.7532L38.2599 46.9647ZM38.2589 32.0814C34.1891 36.1763 34.1901 42.8521 38.2597 46.9645L38.4729 46.7534C34.5187 42.7577 34.5184 36.2705 38.4717 32.2929L38.2589 32.0814ZM53.0474 32.0815C48.9354 27.9402 42.2902 28.0253 38.2589 32.0814L38.4717 32.2929C42.3873 28.3532 48.8414 28.2714 52.8345 32.2928L53.0474 32.0815ZM51.9872 47.8941C56.993 44.0946 57.5558 36.6171 53.0473 32.0814L52.8345 32.2929C57.215 36.6999 56.667 43.9654 51.8058 47.6552L51.9872 47.8941ZM16.8975 16.8418V3.38733H16.5975V16.8418H16.8975ZM3.37424 16.9918H16.7475V16.6918H3.37424V16.9918ZM16.6411 3.28158L3.26785 16.7361L3.48062 16.9476L16.8539 3.49307L16.6411 3.28158ZM2.39236 65.6045H51.6196V65.3045H2.39236V65.6045ZM2.24236 18.2424V65.4545H2.54236V18.2424H2.24236ZM18.1396 18.0924H2.39236V18.3924H18.1396V18.0924ZM17.9896 2.40051V18.2424H18.2896V2.40051H17.9896ZM51.6196 2.25051H18.1396V2.55051H51.6196V2.25051ZM51.7696 29.3946V2.40051H51.4696V29.3946H51.7696ZM37.4874 31.3027C41.2431 27.524 47.0758 26.8534 51.5426 29.5234L51.6965 29.2659C47.1124 26.5258 41.1283 27.214 37.2746 31.0912L37.4874 31.3027ZM37.4876 47.7427C32.9917 43.1999 32.9924 35.825 37.4874 31.3027L37.2747 31.0912C32.663 35.7308 32.663 43.2943 37.2744 47.9537L37.4876 47.7427ZM48.6304 50.7385C44.7522 51.7707 40.4653 50.7389 37.4874 47.7425L37.2746 47.9539C40.331 51.0294 44.7296 52.0871 48.7076 51.0285L48.6304 50.7385ZM51.6886 53.7089L48.7754 50.7778L48.5626 50.9892L51.4758 53.9204L51.6886 53.7089ZM51.5132 53.6713L51.4758 53.7089L51.6886 53.9204L51.726 53.8828L51.5132 53.6713ZM51.7696 65.4545V53.7771H51.4696V65.4545H51.7696ZM50.0358 50.4909L51.4758 51.9398L51.6886 51.7283L50.2486 50.2794L50.0358 50.4909ZM52.6432 48.7736C51.8433 49.3871 50.9812 49.8731 50.0845 50.2467L50.1999 50.5236C51.1189 50.1407 52.0039 49.6421 52.8258 49.0116L52.6432 48.7736ZM52.8407 48.7867L52.8406 48.7865L52.6284 48.9987L52.6286 48.9988L52.8407 48.7867ZM52.6396 48.7767L52.6379 48.7781L52.8314 49.0074L52.8332 49.0059L52.6396 48.7767ZM52.6526 48.7668L52.6513 48.7677L52.8215 49.0148L52.8228 49.0139L52.6526 48.7668ZM52.6042 48.9587L52.6043 48.9589L52.8712 48.8218L52.8711 48.8217L52.6042 48.9587ZM56.2988 44.0331C55.523 45.8926 54.2754 47.5341 52.6469 48.7708L52.8284 49.0097C54.5 47.7402 55.78 46.0557 56.5756 44.1486L56.2988 44.0331ZM57.9644 45.4145L56.5436 43.9851L56.3308 44.1966L57.7516 45.626L57.9644 45.4145ZM57.4403 46.1532L57.9644 45.626L57.7516 45.4145L57.2276 45.9417L57.4403 46.1532ZM57.2263 46.1519L57.2273 46.153L57.4406 45.942L57.4395 45.9409L57.2263 46.1519ZM52.213 51.4101L57.4393 46.1522L57.2265 45.9407L52.0002 51.1986L52.213 51.4101ZM52.2139 51.1996L52.2128 51.1985L52.0003 51.4103L52.0014 51.4113L52.2139 51.1996ZM51.6886 51.9398L52.214 51.4112L52.0013 51.1997L51.4758 51.7283L51.6886 51.9398ZM44.5668 56.5459H19.651V56.8459H44.5668V56.5459ZM44.7168 58.0965V56.6959H44.4168V58.0965H44.7168ZM19.651 58.2465H44.5668V57.9465H19.651V58.2465ZM19.501 56.6959V58.0965H19.801V56.6959H19.501ZM9.44815 56.8459H15.3954V56.5459H9.44815V56.8459ZM9.59815 58.0965V56.6959H9.29815V58.0965H9.59815ZM15.3954 57.9465H9.44815V58.2465H15.3954V57.9465ZM15.2454 56.6959V58.0965H15.5454V56.6959H15.2454ZM33.8204 48.7228H9.44815V49.0228H33.8204V48.7228ZM33.9704 50.2734V48.8728H33.6704V50.2734H33.9704ZM9.44815 50.4234H33.8204V50.1234H9.44815V50.4234ZM9.29815 48.8728V50.2734H9.59815V48.8728H9.29815ZM20.7363 41.1999H32.3259V40.8999H20.7363V41.1999ZM20.8863 42.4505V41.0499H20.5863V42.4505H20.8863ZM32.3259 42.3005H20.7363V42.6005H32.3259V42.3005ZM32.1759 41.0499V42.4505H32.4759V41.0499H32.1759ZM16.1464 40.8999H9.44815V41.1999H16.1464V40.8999ZM16.2964 42.4505V41.0499H15.9964V42.4505H16.2964ZM9.44815 42.6005H16.1464V42.3005H9.44815V42.6005ZM9.29815 41.0499V42.4505H9.59815V41.0499H9.29815ZM9.44815 33.3771H33.0053V33.077H9.44815V33.3771ZM9.59815 34.6276V33.2271H9.29815V34.6276H9.59815ZM33.0053 34.4776H9.44815V34.7776H33.0053V34.4776ZM32.8553 33.2271V34.6276H33.1553V33.2271H32.8553ZM44.5668 25.2542H22.4053V25.5542H44.5668V25.2542ZM44.7168 26.8047V25.4042H44.4168V26.8047H44.7168ZM22.4053 26.9547H44.5668V26.6547H22.4053V26.9547ZM22.2553 25.4042V26.8047H22.5553V25.4042H22.2553ZM9.44815 25.5542H17.5233V25.2542H9.44815V25.5542ZM9.59815 26.8047V25.4042H9.29815V26.8047H9.59815ZM17.5233 26.6547H9.44815V26.9547H17.5233V26.6547ZM17.3733 25.4042V26.8047H17.6733V25.4042H17.3733ZM39.0088 39.3727H37.6167V39.6727H39.0088V39.3727ZM45.8145 32.5255C41.9782 32.5255 38.8588 35.6651 38.8588 39.5227H39.1588C39.1588 35.829 42.1456 32.8255 45.8145 32.8255V32.5255ZM45.6645 31.2749V32.6755H45.9645V31.2749H45.6645ZM37.7667 39.5227C37.7667 35.0569 41.3779 31.4248 45.8145 31.4249L45.8145 31.1249C41.2104 31.1248 37.4667 34.8929 37.4667 39.5227H37.7667ZM60.8046 54L64.6517 57.7731L64.8617 57.5589L61.0147 53.7859L60.8046 54ZM60.0457 55.0001L61.0174 53.9973L60.8019 53.7886L59.8302 54.7914L60.0457 55.0001ZM63.89 58.5617L60.043 54.7887L59.8329 55.0028L63.68 58.7759L63.89 58.5617ZM64.649 57.5616L63.6773 58.5644L63.8927 58.7732L64.8644 57.7704L64.649 57.5616ZM59.926 52.7212L58.6895 51.5085L58.4794 51.7227L59.7159 52.9354L59.926 52.7212ZM58.957 53.9355L59.9287 52.9327L59.7132 52.7239L58.7415 53.7267L58.957 53.9355ZM57.5077 52.7255L58.7442 53.9382L58.9543 53.724L57.7178 52.5113L57.5077 52.7255ZM58.4767 51.5112L57.505 52.514L57.7205 52.7228L58.6922 51.72L58.4767 51.5112ZM55.9628 11.1334H57.355V10.8334H55.9628V11.1334ZM56.1128 27.1726V10.9834H55.8128V27.1726H56.1128ZM57.355 27.0226H55.9628V27.3226H57.355V27.0226ZM57.205 10.9834V27.1726H57.505V10.9834H57.205ZM57.355 3.70437H55.9628V4.00437H57.355V3.70437ZM57.505 6.94753V3.85437H57.205V6.94753H57.505ZM55.9628 7.09753H57.355V6.79753H55.9628V7.09753ZM55.8128 3.85437V6.94753H56.1128V3.85437H55.8128ZM63.8646 49.0566L66.7292 51.9385L66.942 51.727L64.0773 48.8451L63.8646 49.0566ZM63.0931 50.0468L64.0773 49.0566L63.8646 48.8451L62.8803 49.8353L63.0931 50.0468ZM65.9577 52.7172L63.0931 49.8353L62.8803 50.0468L65.745 52.9287L65.9577 52.7172ZM66.7292 51.727L65.745 52.7172L65.9577 52.9287L66.942 51.9385L66.7292 51.727ZM62.3483 49.1183L60.9852 47.7468L60.7724 47.9583L62.1355 49.3297L62.3483 49.1183ZM63.1198 48.128L62.1355 49.1183L62.3483 49.3297L63.3325 48.3395L63.1198 48.128ZM61.7566 46.9681L63.1198 48.3395L63.3325 48.128L61.9694 46.7566L61.7566 46.9681ZM60.9852 47.9583L61.9694 46.9681L61.7566 46.7566L60.7724 47.7468L60.9852 47.9583Z" fill="#FF9419"/>
</g>
</g>
</svg>
