<svg width="82" height="82" viewBox="0 0 82 82" fill="none" xmlns="http://www.w3.org/2000/svg">
<path fill-rule="evenodd" clip-rule="evenodd" d="M60.9571 11.177C60.9571 17.1228 56.12 21.9599 50.1742 21.9599C44.2289 21.9599 39.3918 17.1228 39.3917 11.177C39.3917 5.23157 44.2288 0.394531 50.1742 0.394531C56.12 0.394531 60.9571 5.23157 60.9571 11.177ZM59.255 11.1771C59.255 6.16997 55.1814 2.09682 50.1744 2.09682C45.1674 2.09682 41.0941 6.17006 41.0941 11.1771C41.0941 16.1841 45.1674 20.2577 50.1744 20.2577C55.1814 20.2577 59.255 16.1842 59.255 11.1771ZM73.4141 11.4541C72.496 11.2683 71.551 11.1744 70.6047 11.1744V12.8767C71.4379 12.8767 72.2696 12.9594 73.0766 13.1223L73.4141 11.4541ZM75.6516 12.1027C77.7545 12.9068 79.6633 14.2234 81.1719 15.9103L79.9027 17.0449C78.5744 15.5596 76.8942 14.4001 75.044 13.6928L75.6516 12.1027ZM46.7455 33.34L45.7655 31.9479C45.1271 32.3971 44.5212 32.9025 43.9643 33.4502L45.1578 34.6637C45.6487 34.1812 46.1828 33.7361 46.7455 33.34ZM20.2543 72.0859H14.1044V75.911H0.539551V74.2088H12.4021V44.1355H0.539551V42.4332H14.1044V46.2583H20.2543V49.2185H39.5655L48.8784 59.676L74.8461 51.9901C77.2624 51.252 79.8764 52.5337 80.7944 54.9088C81.6692 57.1858 80.7757 59.713 78.6699 60.9199L45.1153 80.2443L27.9182 70.5316H20.2543V72.0859ZM38.8017 50.9209H20.2544V68.8296H28.3654L45.107 78.2846L77.8223 59.4438C79.1958 58.6566 79.7773 57.0072 79.2062 55.521C78.609 53.975 76.9076 53.1409 75.3367 53.6205L50.0803 61.0905C51.4749 62.9838 51.3225 65.6346 49.6224 67.3346C47.7414 69.2163 44.6781 69.2151 42.7976 67.3346L36.2258 60.7732L37.4286 59.5689L44.0007 66.1306C45.2192 67.3484 47.2011 67.3488 48.4188 66.1311C49.5936 64.9563 49.641 63.072 48.5273 61.841L47.965 61.2155L38.8017 50.9209ZM14.1044 47.9606H18.552V70.3837H14.1044V47.9606ZM11.6867 68.0293C11.6867 65.7969 9.87054 63.9807 7.63864 63.9807C5.40622 63.9807 3.59004 65.7969 3.59004 68.0293C3.59004 70.2612 5.40622 72.0774 7.63864 72.0774C9.87064 72.0774 11.6867 70.2612 11.6867 68.0293ZM5.67436 68.0292C5.67436 66.9463 6.55572 66.0649 7.63863 66.0649C8.72154 66.0649 9.60238 66.9463 9.60238 68.0292C9.60238 69.1121 8.72154 69.993 7.63863 69.993C6.55572 69.993 5.67436 69.1121 5.67436 68.0292ZM40.7055 82.0002L33.1919 77.6844L34.0396 76.2086L41.5532 80.5243L40.7055 82.0002ZM30.4333 74.1189L29.5856 75.5948L31.7868 76.8592L32.6346 75.3833L30.4333 74.1189ZM28.5913 45.5533H37.3979V47.2555H28.5913V45.5533ZM26.654 45.5533H24.0444V47.2555H26.654V45.5533ZM59.0673 75.405L59.9695 76.8485L56.923 78.7526L56.0208 77.3091L59.0673 75.405ZM75.3389 65.1816L61.0828 74.0917L61.985 75.5352L76.2411 66.6251L75.3389 65.1816ZM41.4285 43.5506H39.7262C39.7262 40.3896 40.7482 37.3969 42.6819 34.8955L44.0284 35.937C42.3274 38.1371 41.4285 40.7699 41.4285 43.5506ZM64.6844 43.5506C64.6844 49.4961 59.8474 54.3331 53.9019 54.3331C47.9561 54.3331 43.1191 49.4961 43.1191 43.5506C43.1191 37.6048 47.9561 32.7678 53.9019 32.7678C59.8474 32.7678 64.6844 37.6048 64.6844 43.5506ZM62.9823 43.5507C62.9823 38.5436 58.9091 34.4701 53.902 34.4701C48.895 34.4701 44.8215 38.5437 44.8215 43.5507C44.8215 48.5578 48.8949 52.6309 53.902 52.6309C58.9091 52.6309 62.9823 48.5577 62.9823 43.5507ZM70.6045 36.1326C76.5499 36.1326 81.387 31.2955 81.387 25.3497C81.387 19.4039 76.5499 14.5669 70.6045 14.5669C64.6587 14.5669 59.8216 19.4039 59.8216 25.3497C59.8216 31.2955 64.6587 36.1326 70.6045 36.1326ZM70.6045 16.2692C75.6115 16.2692 79.6848 20.3427 79.6848 25.3497C79.6848 30.3568 75.6116 34.4303 70.6045 34.4303C65.5974 34.4303 61.5239 30.3568 61.5239 25.3498C61.5239 20.3428 65.5975 16.2692 70.6045 16.2692ZM37.9692 13.7568C37.7913 12.9148 37.7011 12.047 37.7011 11.1772H35.9989C35.9989 12.165 36.1015 13.1512 36.3035 14.1083L37.9692 13.7568ZM44.3673 22.2143L43.5719 23.7196C40.4504 22.0701 38.0653 19.3404 36.8564 16.034L38.4547 15.4497C39.5191 18.3597 41.6186 20.7622 44.3673 22.2143ZM11.5338 38.8364H6.17678V40.5386H11.5338V38.8364ZM2.78432 38.8364H4.71979V40.5386H2.78432V38.8364ZM48.7005 13.4888C48.7005 14.3012 49.3616 14.9624 50.1741 14.9624C50.987 14.9624 51.6482 14.3011 51.6482 13.4887C51.6482 12.6763 50.987 12.0151 50.1741 12.0151C48.4228 12.0151 46.9982 10.5904 46.9982 8.83916C46.9982 7.38458 47.9865 6.16841 49.323 5.7934V4.02578H51.0252V5.79349C52.3617 6.16832 53.3504 7.38467 53.3504 8.83924H51.6482C51.6482 8.02642 50.987 7.36518 50.1741 7.36518C49.3617 7.36518 48.7005 8.02633 48.7005 8.83924C48.7005 9.65164 49.3616 10.3129 50.1741 10.3129C51.9254 10.3129 53.3504 11.7375 53.3504 13.4888C53.3504 14.9434 52.3617 16.1594 51.0252 16.5342V18.3283H49.323V16.5342C47.9866 16.1594 46.9982 14.9434 46.9982 13.4888H48.7005ZM70.6044 29.1354C69.7915 29.1354 69.1303 28.4742 69.1303 27.6618H67.4281C67.4281 29.1164 68.4167 30.3324 69.7533 30.7072V32.5013H71.4555V30.7072C72.792 30.3324 73.7803 29.1164 73.7803 27.6618C73.7803 25.9105 72.3557 24.4859 70.6044 24.4859C69.7915 24.4859 69.1303 23.8246 69.1303 23.0118C69.1303 22.1993 69.7916 21.5382 70.6044 21.5382C71.4169 21.5382 72.078 22.1994 72.078 23.0118H73.7803C73.7803 21.5572 72.7919 20.3412 71.4555 19.9664V18.1985H69.7533V19.9664C68.4167 20.3412 67.4281 21.5572 67.4281 23.0118C67.4281 24.7631 68.8531 26.1881 70.6044 26.1881C71.4169 26.1881 72.078 26.8494 72.078 27.6618C72.078 28.4742 71.4169 29.1354 70.6044 29.1354ZM52.4286 45.8619C52.4286 46.6747 53.0897 47.3359 53.9022 47.3359C54.7147 47.3359 55.3758 46.6748 55.3758 45.8619C55.3758 45.0495 54.7147 44.3882 53.9022 44.3882C52.1509 44.3882 50.7263 42.9636 50.7263 41.2123C50.7263 39.7578 51.7146 38.5418 53.0511 38.1669V36.3991H54.7533V38.1669C56.0897 38.5418 57.0781 39.7578 57.0781 41.2123H55.3758C55.3758 40.3999 54.7146 39.7387 53.9022 39.7387C53.0898 39.7387 52.4286 40.3999 52.4286 41.2123C52.4286 42.0247 53.0897 42.686 53.9022 42.686C55.6535 42.686 57.0781 44.1106 57.0781 45.8619C57.0781 47.3165 56.0898 48.5326 54.7533 48.9076V50.7014H53.0511V48.9076C51.7147 48.5326 50.7263 47.3165 50.7263 45.8619H52.4286Z" fill="#FF9419"/>
</svg>
