<svg width="50" height="51" viewBox="0 0 50 51" fill="none" xmlns="http://www.w3.org/2000/svg">
<path fill-rule="evenodd" clip-rule="evenodd" d="M37.3765 6.69351C37.3765 10.3653 34.3894 13.3523 30.7177 13.3523C27.0462 13.3523 24.0591 10.3653 24.0591 6.69351C24.0591 3.02196 27.0461 0.0349121 30.7177 0.0349121C34.3894 0.0349121 37.3765 3.02196 37.3765 6.69351ZM36.3253 6.69351C36.3253 3.60144 33.8097 1.08612 30.7177 1.08612C27.6256 1.08612 25.1103 3.60149 25.1103 6.69351C25.1103 9.78552 27.6256 12.3011 30.7177 12.3011C33.8097 12.3011 36.3253 9.78558 36.3253 6.69351ZM45.0691 6.86464C44.5022 6.74991 43.9185 6.69193 43.3342 6.69193V7.74314C43.8487 7.74314 44.3623 7.79423 44.8607 7.89483L45.0691 6.86464ZM46.4509 7.26505C47.7495 7.76164 48.9282 8.57469 49.8598 9.61638L49.0761 10.3171C48.2558 9.39984 47.2182 8.68381 46.0757 8.24698L46.4509 7.26505ZM28.6004 20.3799L27.9952 19.5202C27.601 19.7976 27.2268 20.1097 26.8829 20.448L27.62 21.1974C27.9231 20.8994 28.2529 20.6245 28.6004 20.3799ZM12.241 44.3069H8.4432V46.6691H0.0664062V45.6179H7.39199V27.0465H0.0664062V25.9953H8.4432V28.3574H12.241V30.1854H24.1664L29.9174 36.6433L45.9535 31.897C47.4456 31.4412 49.0599 32.2327 49.6268 33.6994C50.167 35.1055 49.6152 36.6662 48.3148 37.4115L27.5936 49.345L16.9737 43.347H12.241V44.3069ZM23.6947 31.2366H12.241V42.2959H17.2499L27.5884 48.1347L47.7913 36.4998C48.6395 36.0137 48.9986 34.9951 48.646 34.0774C48.2771 33.1226 47.2265 32.6076 46.2564 32.9037L30.6596 37.5167C31.5208 38.6859 31.4267 40.3229 30.3769 41.3727C29.2153 42.5347 27.3236 42.534 26.1623 41.3727L22.104 37.3208L22.8467 36.5771L26.9053 40.6292C27.6577 41.3812 28.8816 41.3814 29.6336 40.6295C30.3591 39.904 30.3884 38.7403 29.7006 37.9802L29.3534 37.5939L23.6947 31.2366ZM8.4432 29.4086H11.1898V43.2557H8.4432V29.4086ZM6.95011 41.802C6.95011 40.4234 5.82856 39.3018 4.45027 39.3018C3.07167 39.3018 1.95011 40.4234 1.95011 41.802C1.95011 43.1803 3.07167 44.3018 4.45027 44.3018C5.82862 44.3018 6.95011 43.1803 6.95011 41.802ZM3.23733 41.802C3.23733 41.1333 3.7816 40.589 4.45034 40.589C5.11908 40.589 5.66303 41.1333 5.66303 41.802C5.66303 42.4707 5.11908 43.0147 4.45034 43.0147C3.7816 43.0147 3.23733 42.4707 3.23733 41.802ZM24.8704 50.4294L20.2305 47.7642L20.754 46.8528L25.3939 49.518L24.8704 50.4294ZM18.5269 45.5625L18.0034 46.4739L19.3627 47.2547L19.8862 46.3433L18.5269 45.5625ZM17.3894 27.9221H22.8278V28.9733H17.3894V27.9221ZM16.1932 27.9221H14.5817V28.9733H16.1932V27.9221ZM36.2094 46.3568L36.7666 47.2482L34.8852 48.424L34.3281 47.5326L36.2094 46.3568ZM46.2577 40.0435L37.454 45.5458L38.0112 46.4372L46.8149 40.9349L46.2577 40.0435ZM25.3169 26.6854H24.2657C24.2657 24.7333 24.8968 22.8853 26.0909 21.3406L26.9224 21.9837C25.872 23.3423 25.3169 24.9682 25.3169 26.6854ZM39.6783 26.6853C39.6783 30.3569 36.6913 33.3439 33.0197 33.3439C29.348 33.3439 26.3609 30.3569 26.3609 26.6853C26.3609 23.0136 29.348 20.0265 33.0197 20.0265C36.6913 20.0265 39.6783 23.0136 39.6783 26.6853ZM38.6271 26.6853C38.6271 23.5933 36.1118 21.0777 33.0197 21.0777C29.9277 21.0777 27.4121 23.5934 27.4121 26.6854C27.4121 29.7774 29.9277 32.2927 33.0197 32.2927C36.1118 32.2927 38.6271 29.7773 38.6271 26.6853ZM43.3342 22.1045C47.0057 22.1045 49.9928 19.1175 49.9928 15.4457C49.9928 11.774 47.0057 8.78693 43.3342 8.78693C39.6624 8.78693 36.6754 11.774 36.6754 15.4457C36.6754 19.1175 39.6624 22.1045 43.3342 22.1045ZM43.3342 9.83808C46.4262 9.83808 48.9416 12.3537 48.9416 15.4457C48.9416 18.5377 46.4262 21.0533 43.3342 21.0533C40.2421 21.0533 37.7266 18.5378 37.7266 15.4457C37.7266 12.3537 40.2422 9.83808 43.3342 9.83808ZM23.1806 8.28672C23.0708 7.76674 23.0151 7.23088 23.0151 6.69372H21.9639C21.9639 7.30373 22.0273 7.91275 22.152 8.50379L23.1806 8.28672ZM27.1316 13.5094L26.6404 14.4389C24.7128 13.4203 23.2399 11.7347 22.4933 9.69281L23.4804 9.33198C24.1376 11.129 25.4342 12.6126 27.1316 13.5094ZM6.85583 23.7741H3.54768V24.8253H6.85583V23.7741ZM1.45263 23.7741H2.64785V24.8253H1.45263V23.7741ZM29.8076 8.1212C29.8076 8.62289 30.2159 9.03123 30.7177 9.03123C31.2197 9.03123 31.6279 8.62284 31.6279 8.12115C31.6279 7.61946 31.2197 7.21112 30.7177 7.21112C29.6362 7.21112 28.7564 6.33137 28.7564 5.24989C28.7564 4.35163 29.3668 3.6006 30.1921 3.36902V2.27745H31.2433V3.36907C32.0686 3.60055 32.6792 4.35169 32.6792 5.24994H31.6279C31.6279 4.74799 31.2197 4.33965 30.7177 4.33965C30.216 4.33965 29.8076 4.74794 29.8076 5.24994C29.8076 5.75163 30.2159 6.15997 30.7177 6.15997C31.7991 6.15997 32.6792 7.03972 32.6792 8.1212C32.6792 9.01946 32.0686 9.77039 31.2433 10.0019V11.1098H30.1921V10.0019C29.3668 9.77039 28.7564 9.01946 28.7564 8.1212H29.8076ZM43.3342 17.7835C42.8322 17.7835 42.4239 17.3751 42.4239 16.8734H41.3727C41.3727 17.7717 41.9832 18.5226 42.8086 18.7541V19.862H43.8598V18.7541C44.6851 18.5226 45.2954 17.7717 45.2954 16.8734C45.2954 15.792 44.4156 14.9122 43.3342 14.9122C42.8322 14.9122 42.4239 14.5039 42.4239 14.0019C42.4239 13.5002 42.8322 13.0919 43.3342 13.0919C43.8359 13.0919 44.2442 13.5002 44.2442 14.0019H45.2954C45.2954 13.1037 44.685 12.3527 43.8598 12.1212V11.0295H42.8086V12.1212C41.9832 12.3527 41.3727 13.1037 41.3727 14.0019C41.3727 15.0834 42.2527 15.9634 43.3342 15.9634C43.8359 15.9634 44.2442 16.3717 44.2442 16.8734C44.2442 17.3751 43.8359 17.7835 43.3342 17.7835ZM32.1097 28.1128C32.1097 28.6148 32.518 29.0231 33.0197 29.0231C33.5215 29.0231 33.9298 28.6148 33.9298 28.1128C33.9298 27.6111 33.5215 27.2028 33.0197 27.2028C31.9383 27.2028 31.0585 26.323 31.0585 25.2416C31.0585 24.3433 31.6688 23.5924 32.4941 23.3609V22.2692H33.5453V23.3609C34.3706 23.5924 34.981 24.3433 34.981 25.2416H33.9298C33.9298 24.7399 33.5214 24.3315 33.0197 24.3315C32.5181 24.3315 32.1097 24.7399 32.1097 25.2416C32.1097 25.7432 32.518 26.1516 33.0197 26.1516C34.1012 26.1516 34.981 27.0313 34.981 28.1128C34.981 29.0111 34.3706 29.7621 33.5453 29.9937V31.1014H32.4941V29.9937C31.6689 29.7621 31.0585 29.0111 31.0585 28.1128H32.1097Z" fill="#FF9419"/>
</svg>
