<svg width="20" height="20" viewBox="0 0 20 20" fill="none" xmlns="http://www.w3.org/2000/svg">
<path fill-rule="evenodd" clip-rule="evenodd" d="M15.625 1.25H18.6428C19.3912 1.25 20 1.85883 20 2.60723V18.6428C20 19.3912 19.3912 20 18.6428 20H1.35723C0.608828 20 0 19.3912 0 18.6428V2.60723C0 1.85883 0.608828 1.25 1.35723 1.25H4.375V0.625C4.375 0.279844 4.65484 0 5 0C5.34516 0 5.625 0.279844 5.625 0.625V1.25H9.375V0.625C9.375 0.279844 9.65484 0 10 0C10.3452 0 10.625 0.279844 10.625 0.625V1.25H14.375V0.625C14.375 0.279844 14.6548 0 15 0C15.3452 0 15.625 0.279844 15.625 0.625V1.25ZM18.6428 18.75C18.7019 18.75 18.75 18.7019 18.75 18.6428V2.60723C18.75 2.54809 18.7019 2.5 18.6428 2.5H15.625V3.125C15.625 3.47016 15.3452 3.75 15 3.75C14.6548 3.75 14.375 3.47016 14.375 3.125V2.5H10.625V3.125C10.625 3.47016 10.3452 3.75 10 3.75C9.65484 3.75 9.375 3.47016 9.375 3.125V2.5H5.625V3.125C5.625 3.47016 5.34516 3.75 5 3.75C4.65484 3.75 4.375 3.47016 4.375 3.125V2.5H1.35723C1.29809 2.5 1.25 2.54809 1.25 2.60723V18.6428C1.25 18.7019 1.29809 18.75 1.35723 18.75H18.6428ZM3.96825 6.66667C3.61762 6.66667 3.33333 6.41792 3.33333 6.11111C3.33333 5.80431 3.61762 5.55556 3.96825 5.55556H16.0317C16.3824 5.55556 16.6667 5.80431 16.6667 6.11111C16.6667 6.41792 16.3824 6.66667 16.0317 6.66667H3.96825ZM2.88889 11.1111H4.88889C5.25706 11.1111 5.55556 10.8624 5.55556 10.5556C5.55556 10.2487 5.25706 10 4.88889 10H2.88889C2.52072 10 2.22222 10.2487 2.22222 10.5556C2.22222 10.8624 2.52072 11.1111 2.88889 11.1111ZM4.88889 13.3333H2.88889C2.52072 13.3333 2.22222 13.0846 2.22222 12.7778C2.22222 12.471 2.52072 12.2222 2.88889 12.2222H4.88889C5.25706 12.2222 5.55556 12.471 5.55556 12.7778C5.55556 13.0846 5.25706 13.3333 4.88889 13.3333ZM9.55556 13.3333H11.5556C11.9237 13.3333 12.2222 13.0846 12.2222 12.7778C12.2222 12.471 11.9237 12.2222 11.5556 12.2222H9.55556C9.18739 12.2222 8.88889 12.471 8.88889 12.7778C8.88889 13.0846 9.18739 13.3333 9.55556 13.3333ZM17.1111 13.3333H15.1111C14.7429 13.3333 14.4444 13.0846 14.4444 12.7778C14.4444 12.471 14.7429 12.2222 15.1111 12.2222H17.1111C17.4793 12.2222 17.7778 12.471 17.7778 12.7778C17.7778 13.0846 17.4793 13.3333 17.1111 13.3333ZM15.1111 15.5556H17.1111C17.4793 15.5556 17.7778 15.3068 17.7778 15C17.7778 14.6932 17.4793 14.4444 17.1111 14.4444H15.1111C14.7429 14.4444 14.4444 14.6932 14.4444 15C14.4444 15.3068 14.7429 15.5556 15.1111 15.5556ZM11.5556 15.5556H9.55556C9.18739 15.5556 8.88889 15.3068 8.88889 15C8.88889 14.6932 9.18739 14.4444 9.55556 14.4444H11.5556C11.9237 14.4444 12.2222 14.6932 12.2222 15C12.2222 15.3068 11.9237 15.5556 11.5556 15.5556ZM2.88889 15.5556H4.88889C5.25706 15.5556 5.55556 15.3068 5.55556 15C5.55556 14.6932 5.25706 14.4444 4.88889 14.4444H2.88889C2.52072 14.4444 2.22222 14.6932 2.22222 15C2.22222 15.3068 2.52072 15.5556 2.88889 15.5556ZM11.5556 11.1111H9.55556C9.18739 11.1111 8.88889 10.8624 8.88889 10.5556C8.88889 10.2487 9.18739 10 9.55556 10H11.5556C11.9237 10 12.2222 10.2487 12.2222 10.5556C12.2222 10.8624 11.9237 11.1111 11.5556 11.1111ZM15.1111 11.1111H17.1111C17.4793 11.1111 17.7778 10.8624 17.7778 10.5556C17.7778 10.2487 17.4793 10 17.1111 10H15.1111C14.7429 10 14.4444 10.2487 14.4444 10.5556C14.4444 10.8624 14.7429 11.1111 15.1111 11.1111Z" fill="white"/>
</svg>
