<svg width="14" height="25" viewBox="0 0 14 25" fill="none" xmlns="http://www.w3.org/2000/svg">
<path d="M7.00001 18.7856C5.86475 18.7845 4.94461 17.8646 4.94316 16.7294V16.4448C4.97524 13.576 6.36929 10.8933 8.69845 9.21813C9.58131 8.5536 10.0022 7.43985 9.77958 6.35751C9.55821 5.25419 8.69614 4.39159 7.59295 4.16956C6.75573 3.99337 5.88369 4.20388 5.21905 4.74262C4.55441 5.28136 4.16797 6.09094 4.16706 6.9465C4.16706 8.0821 3.24648 9.00269 2.11088 9.00269C0.975274 9.00269 0.0546875 8.0821 0.0546875 6.9465C0.059817 3.37957 2.76463 0.395732 6.31395 0.041565C9.86326 -0.312602 13.1044 2.07792 13.8142 5.57351C14.1545 7.28444 13.8434 9.06078 12.9419 10.5542C12.7527 10.8651 12.3473 10.9638 12.0364 10.7746C11.7255 10.5854 11.6268 10.18 11.816 9.86904C12.5469 8.65586 12.7983 7.21344 12.5209 5.82452C12.0763 3.60434 10.3404 1.86922 8.12001 1.42556C6.46356 1.09044 4.74415 1.51649 3.43581 2.58624C2.12747 3.656 1.36835 5.25649 1.36772 6.9465C1.36772 7.35439 1.69838 7.68504 2.10626 7.68504C2.51415 7.68504 2.84481 7.35439 2.84481 6.9465C2.84311 4.99114 4.20514 3.29926 6.11577 2.8834C8.0264 2.46754 9.96841 3.44028 10.7796 5.21945C11.5907 6.99863 11.0514 9.10262 9.48443 10.2722C7.48926 11.7004 6.29109 13.9914 6.25619 16.4448V16.7294C6.26812 17.1289 6.59541 17.4465 6.99506 17.4465C7.39472 17.4465 7.722 17.1289 7.73393 16.7294V16.4448C7.77015 14.4573 8.74826 12.6053 10.3692 11.4548C10.6603 11.2365 11.0733 11.2955 11.2916 11.5866C11.5099 11.8777 11.4509 12.2906 11.1598 12.5089C9.87264 13.4123 9.09035 14.8727 9.05158 16.4448V16.7294C9.0505 17.8627 8.13335 18.7819 7.00001 18.7856Z" fill="white"/>
<path fill-rule="evenodd" clip-rule="evenodd" d="M4.94531 22.3203C4.94531 23.4559 5.8659 24.3765 7.0015 24.3765C8.1365 24.3751 9.05624 23.4553 9.05769 22.3203C9.05769 21.1847 8.1371 20.2642 7.0015 20.2642C5.8659 20.2642 4.94531 21.1847 4.94531 22.3203ZM6.26296 22.3203C6.26296 21.9125 6.59362 21.5818 7.0015 21.5818V21.5811C7.40934 21.5819 7.73968 21.9125 7.74004 22.3203C7.74004 22.7282 7.40939 23.0589 7.0015 23.0589C6.59362 23.0589 6.26296 22.7282 6.26296 22.3203Z" fill="white"/>
</svg>
