<svg width="18" height="18" viewBox="0 0 18 18" fill="none" xmlns="http://www.w3.org/2000/svg">
<path id="Combined Shape Copy" fill-rule="evenodd" clip-rule="evenodd" d="M14.0625 1.125H16.7785C17.4521 1.125 18 1.67295 18 2.3465V16.7785C18 17.4521 17.4521 18 16.7785 18H1.2215C0.547945 18 0 17.4521 0 16.7785V2.3465C0 1.67295 0.547945 1.125 1.2215 1.125H3.9375V0.5625C3.9375 0.251859 4.18936 0 4.5 0C4.81064 0 5.0625 0.251859 5.0625 0.5625V1.125H8.4375V0.5625C8.4375 0.251859 8.68936 0 9 0C9.31064 0 9.5625 0.251859 9.5625 0.5625V1.125H12.9375V0.5625C12.9375 0.251859 13.1894 0 13.5 0C13.8106 0 14.0625 0.251859 14.0625 0.5625V1.125ZM16.7785 16.875C16.8317 16.875 16.875 16.8317 16.875 16.7785V2.3465C16.875 2.29328 16.8317 2.25 16.7785 2.25H14.0625V2.8125C14.0625 3.12314 13.8106 3.375 13.5 3.375C13.1894 3.375 12.9375 3.12314 12.9375 2.8125V2.25H9.5625V2.8125C9.5625 3.12314 9.31064 3.375 9 3.375C8.68936 3.375 8.4375 3.12314 8.4375 2.8125V2.25H5.0625V2.8125C5.0625 3.12314 4.81064 3.375 4.5 3.375C4.18936 3.375 3.9375 3.12314 3.9375 2.8125V2.25H1.2215C1.16828 2.25 1.125 2.29328 1.125 2.3465V16.7785C1.125 16.8317 1.16828 16.875 1.2215 16.875H16.7785ZM3.65625 5.90625C3.34561 5.90625 3.09375 5.65439 3.09375 5.34375C3.09375 5.03311 3.34561 4.78125 3.65625 4.78125H14.3438C14.6544 4.78125 14.9062 5.03311 14.9062 5.34375C14.9062 5.65439 14.6544 5.90625 14.3438 5.90625H3.65625ZM2.53125 9C2.53125 9.31064 2.78311 9.5625 3.09375 9.5625H4.78125C5.09189 9.5625 5.34375 9.31064 5.34375 9C5.34375 8.68936 5.09189 8.4375 4.78125 8.4375H3.09375C2.78311 8.4375 2.53125 8.68936 2.53125 9ZM3.09375 11.8125C2.78311 11.8125 2.53125 11.5606 2.53125 11.25C2.53125 10.9394 2.78311 10.6875 3.09375 10.6875H4.78125C5.09189 10.6875 5.34375 10.9394 5.34375 11.25C5.34375 11.5606 5.09189 11.8125 4.78125 11.8125H3.09375ZM7.59375 11.25C7.59375 11.5606 7.84561 11.8125 8.15625 11.8125H9.84375C10.1544 11.8125 10.4062 11.5606 10.4062 11.25C10.4062 10.9394 10.1544 10.6875 9.84375 10.6875H8.15625C7.84561 10.6875 7.59375 10.9394 7.59375 11.25ZM13.2188 11.8125C12.9081 11.8125 12.6562 11.5606 12.6562 11.25C12.6562 10.9394 12.9081 10.6875 13.2188 10.6875H14.9062C15.2169 10.6875 15.4688 10.9394 15.4688 11.25C15.4688 11.5606 15.2169 11.8125 14.9062 11.8125H13.2188ZM12.6562 13.5C12.6562 13.8106 12.9081 14.0625 13.2188 14.0625H14.9062C15.2169 14.0625 15.4688 13.8106 15.4688 13.5C15.4688 13.1894 15.2169 12.9375 14.9062 12.9375H13.2188C12.9081 12.9375 12.6562 13.1894 12.6562 13.5ZM8.15625 14.0625C7.84561 14.0625 7.59375 13.8106 7.59375 13.5C7.59375 13.1894 7.84561 12.9375 8.15625 12.9375H9.84375C10.1544 12.9375 10.4062 13.1894 10.4062 13.5C10.4062 13.8106 10.1544 14.0625 9.84375 14.0625H8.15625ZM3.09375 14.0625H4.78125C5.09189 14.0625 5.34375 13.8106 5.34375 13.5C5.34375 13.1894 5.09189 12.9375 4.78125 12.9375H3.09375C2.78311 12.9375 2.53125 13.1894 2.53125 13.5C2.53125 13.8106 2.78311 14.0625 3.09375 14.0625ZM8.15625 9.5625C7.84561 9.5625 7.59375 9.31064 7.59375 9C7.59375 8.68936 7.84561 8.4375 8.15625 8.4375H9.84375C10.1544 8.4375 10.4062 8.68936 10.4062 9C10.4062 9.31064 10.1544 9.5625 9.84375 9.5625H8.15625ZM13.2188 9.5625H14.9062C15.2169 9.5625 15.4688 9.31064 15.4688 9C15.4688 8.68936 15.2169 8.4375 14.9062 8.4375H13.2188C12.9081 8.4375 12.6562 8.68936 12.6562 9C12.6562 9.31064 12.9081 9.5625 13.2188 9.5625Z" fill="#323438"/>
</svg>
