<svg width="19" height="19" viewBox="0 0 19 19" fill="none" xmlns="http://www.w3.org/2000/svg">
<path fill-rule="evenodd" clip-rule="evenodd" d="M14.2943 15.3169C12.7813 16.555 10.8436 17.3028 8.73386 17.3028C3.9176 17.3028 0 13.4214 0 8.64964C0 3.87791 3.91409 0 8.73035 0C13.5466 0 17.4642 3.88138 17.4642 8.65312C17.4642 10.8303 16.6463 12.8232 15.2983 14.3465L18.7946 17.8105C19.0685 18.0818 19.0685 18.5235 18.7946 18.7948C18.6577 18.9304 18.4787 19 18.2997 19C18.1206 19 17.9416 18.9304 17.8047 18.7948L14.2943 15.3169ZM16.0636 8.64964C16.0636 4.64305 12.7743 1.3877 8.73386 1.3877C4.6934 1.3877 1.40416 4.64653 1.40416 8.64964C1.40416 12.6528 4.6934 15.9116 8.73386 15.9116C12.7743 15.9116 16.0636 12.6562 16.0636 8.64964Z" fill="white"/>
</svg>
