<svg width="61" height="62" viewBox="0 0 61 62" fill="none" xmlns="http://www.w3.org/2000/svg">
<path d="M26.1454 8.53051L26.6045 8.3324L26.4089 7.87907L25.9531 8.06897L26.1454 8.53051ZM35.189 8.54803L35.3793 8.08569L34.9265 7.89921L34.7307 8.34812L35.189 8.54803ZM43.5921 12.0083L44.0564 12.1941L44.2403 11.7345L43.7825 11.546L43.5921 12.0083ZM49.9743 18.4149L50.4358 18.2226L50.247 17.7693L49.7904 17.9499L49.9743 18.4149ZM53.4697 26.8047L53.6678 27.2638L54.1211 27.0682L53.9312 26.6124L53.4697 26.8047ZM53.4527 35.8472L53.915 36.0375L54.1015 35.5846L53.6526 35.3888L53.4527 35.8472ZM49.992 44.2516L49.8063 44.7158L50.2659 44.8997L50.4544 44.442L49.992 44.2516ZM43.5849 50.6334L43.7772 51.0949L44.2305 50.906L44.0498 50.4494L43.5849 50.6334ZM35.1963 54.1289L34.7372 54.327L34.9329 54.7803L35.3886 54.5904L35.1963 54.1289ZM26.1532 54.1113L25.9628 54.5736L26.4157 54.7601L26.6115 54.3112L26.1532 54.1113ZM17.7493 50.6507L17.2851 50.465L17.1013 50.9246L17.559 51.1131L17.7493 50.6507ZM18.0995 48.8275L18.5995 48.8276V48.8275H18.0995ZM11.3658 44.2451L10.9043 44.4374L11.0932 44.8908L11.5499 44.71L11.3658 44.2451ZM7.87021 35.8554L7.67225 35.3962L7.21872 35.5918L7.40867 36.0477L7.87021 35.8554ZM10.8521 31.3302L11.3521 31.3303V31.3302H10.8521ZM7.88838 26.8119L7.42604 26.6216L7.23952 27.0745L7.68856 27.2703L7.88838 26.8119ZM11.3491 18.4077L11.5348 17.9435L11.0752 17.7596L10.8868 18.2174L11.3491 18.4077ZM18.0995 13.833L18.5995 13.8332V13.833H18.0995ZM17.7564 12.026L17.564 11.5645L17.1108 11.7533L17.2914 12.21L17.7564 12.026ZM51.1479 44.9074L50.6856 44.7171L50.5393 45.0723L50.8449 45.3052L51.1479 44.9074ZM54.7303 36.2077L54.7995 35.7125L54.4155 35.6589L54.2679 36.0173L54.7303 36.2077ZM53.094 48.8275L53.594 48.8276V48.8275H53.094ZM44.2363 51.7916L44.6352 51.49L44.4016 51.1811L44.044 51.33L44.2363 51.7916ZM35.5522 55.4096L35.3599 54.948L35.0051 55.0959L35.0567 55.4767L35.5522 55.4096ZM35.597 56.0749L36.097 56.0751V56.0749H35.597ZM25.7925 55.3896L26.2877 55.4588L26.3413 55.0749L25.9829 54.9273L25.7925 55.3896ZM17.0934 51.8066L17.2838 51.3443L16.9286 51.198L16.6957 51.5036L17.0934 51.8066ZM10.2087 44.8961L10.5102 45.2949L10.8192 45.0614L10.6702 44.7038L10.2087 44.8961ZM6.59013 36.2107L7.05167 36.0184L6.90389 35.6637L6.52308 35.7152L6.59013 36.2107ZM6.61018 26.4515L6.54108 26.9467L6.92494 27.0003L7.07251 26.6419L6.61018 26.4515ZM10.1927 17.7514L10.6551 17.9418L10.8013 17.5866L10.4958 17.3538L10.1927 17.7514ZM17.105 10.8679L16.7061 11.1695L16.9397 11.4784L17.2973 11.3295L17.105 10.8679ZM25.7896 7.24973L25.9819 7.71128L26.3367 7.56348L26.2851 7.18265L25.7896 7.24973ZM35.5496 7.26963L35.0544 7.20052L35.0008 7.58439L35.3592 7.73197L35.5496 7.26963ZM44.2488 10.8517L44.0584 11.314L44.4135 11.4603L44.6464 11.1549L44.2488 10.8517ZM53.094 13.833L53.594 13.8332V13.833H53.094ZM51.1317 17.7641L50.8303 17.3652L50.5212 17.5987L50.6702 17.9564L51.1317 17.7641ZM54.7506 26.4489L54.2891 26.6412L54.4369 26.9959L54.8178 26.9443L54.7506 26.4489ZM60.3417 31.3302L60.8417 31.3303V31.3302H60.3417ZM11.3486 16.9437L11.0935 17.3737L11.0948 17.3745L11.3486 16.9437ZM16.7809 13.833H17.2809V13.8328L16.7809 13.833ZM11.338 16.9374L11.0828 17.3674L11.0836 17.3678L11.338 16.9374ZM11.3484 16.9436L11.6034 16.5135L11.6028 16.5132L11.3484 16.9436ZM54.5249 27.8334L54.4013 27.3488L54.391 27.3516L54.5249 27.8334ZM54.5018 27.8393L54.3853 27.353L54.375 27.3557L54.5018 27.8393ZM59.023 31.3299H59.523V31.3297L59.023 31.3299ZM54.5414 34.83L54.3784 35.3027L54.399 35.3098L54.4202 35.3151L54.5414 34.83ZM54.4478 34.8052L54.3135 35.2869L54.3346 35.2927L54.3561 35.2968L54.4478 34.8052ZM34.1689 7.46919L34.6446 7.62301L34.6496 7.6075L34.6536 7.59168L34.1689 7.46919ZM34.1502 7.54007L34.6323 7.67247L34.6367 7.65665L34.64 7.64058L34.1502 7.54007ZM27.8093 41.8992L27.7847 41.3998H27.7846L27.8093 41.8992ZM28.2434 41.7062L27.8898 41.3526L27.8888 41.3536L28.2434 41.7062ZM42.696 27.2537L43.0496 27.6072L43.051 27.6058L42.696 27.2537ZM42.7397 27.2051L42.3524 26.889L42.3524 26.889L42.7397 27.2051ZM42.8887 26.7544L42.3893 26.7793L42.3893 26.7794L42.8887 26.7544ZM42.696 26.3206L42.3425 26.6742L42.3427 26.6744L42.696 26.3206ZM38.5 22.1246L38.1458 22.4775L38.1464 22.4781L38.5 22.1246ZM38.3964 22.0397L38.6726 21.6229L38.6726 21.6229L38.3964 22.0397ZM37.5674 22.1246L37.9209 22.4782L37.9224 22.4767L37.5674 22.1246ZM27.7764 31.9149L27.4228 32.2685L27.7764 32.622L28.1299 32.2685L27.7764 31.9149ZM23.114 27.2527L22.7604 27.6061L22.7605 27.6062L23.114 27.2527ZM22.1814 27.2527L21.8279 26.8991L21.8278 26.8991L22.1814 27.2527ZM22.1814 27.2527L22.5349 27.6062L22.1814 27.2527ZM17.9854 31.4487L17.6318 31.0952L17.9854 31.4487ZM17.9853 31.4487L18.3387 31.8025L18.3389 31.8023L17.9853 31.4487ZM17.7919 31.9152L17.2919 31.9151L17.2919 32.1181L17.4333 32.2637L17.7919 31.9152ZM17.9853 32.3818L18.3389 32.0282L18.3389 32.0282L17.9853 32.3818ZM17.7918 31.9152L18.2772 31.7949L17.2918 31.9152H17.7918ZM6.83228 27.8373L6.9727 27.3574L6.96539 27.3553L6.95801 27.3534L6.83228 27.8373ZM6.86413 27.8457L6.99432 27.363L6.98698 27.361L6.97959 27.3593L6.86413 27.8457ZM16.2894 50.6441L16.7142 50.9082L16.721 50.8966L16.2894 50.6441ZM16.2742 50.6698L16.7038 50.926L16.7104 50.9143L16.2742 50.6698ZM34.1618 55.1659L33.6756 55.2828L33.6765 55.2865L34.1618 55.1659ZM34.1677 55.1881L34.6523 55.065L34.6505 55.0577L34.6484 55.0505L34.1677 55.1881ZM34.1594 55.1558L34.6456 55.0389L34.6428 55.0282L34.1594 55.1558ZM34.2783 56.0749H34.7783V56.0747L34.2783 56.0749ZM51.7752 13.833H52.2752V13.8328L51.7752 13.833ZM59.6806 57.0448H59.1806V57.0451L59.6806 57.0448ZM0.500265 4.95606C0.500265 7.41304 2.49791 9.41308 4.95633 9.41308V8.41308C3.05067 8.41308 1.50027 6.86123 1.50027 4.95606H0.500265ZM4.95633 0.5C2.4991 0.5 0.500265 2.49885 0.500265 4.95606H1.50027C1.50027 3.05113 3.05139 1.5 4.95633 1.5V0.5ZM9.41239 4.95606C9.41239 2.49886 7.41384 0.5 4.95633 0.5V1.5C6.86151 1.5 8.41239 3.0511 8.41239 4.95606H9.41239ZM4.95633 9.41308C7.41402 9.41308 9.41239 7.4131 9.41239 4.95606H8.41239C8.41239 6.86118 6.86137 8.41308 4.95633 8.41308V9.41308ZM2.81893 4.95604C2.81893 3.77753 3.77776 2.81877 4.95635 2.81877V1.81877C3.22554 1.81877 1.81893 3.22517 1.81893 4.95604H2.81893ZM4.95635 7.09345C3.77779 7.09345 2.81893 6.1346 2.81893 4.95604H1.81893C1.81893 6.68688 3.22551 8.09345 4.95635 8.09345V7.09345ZM7.09362 4.95604C7.09362 6.13451 6.13402 7.09345 4.95635 7.09345V8.09345C6.68613 8.09345 8.09362 6.68697 8.09362 4.95604H7.09362ZM4.95635 2.81877C6.13405 2.81877 7.09362 3.77761 7.09362 4.95604H8.09362C8.09362 3.22508 6.68609 1.81877 4.95635 1.81877V2.81877ZM30.6709 11.0107C28.8525 11.0107 27.2843 9.90761 26.6045 8.3324L25.6863 8.72862C26.5182 10.6562 28.4383 12.0107 30.6709 12.0107V11.0107ZM34.7307 8.34812C34.0472 9.91496 32.4833 11.0107 30.6709 11.0107V12.0107C32.8961 12.0107 34.8109 10.6652 35.6473 8.74793L34.7307 8.34812ZM43.7825 11.546L35.3793 8.08569L34.9986 9.01036L43.4018 12.4707L43.7825 11.546ZM43.7419 13.833C43.7419 13.2534 43.8537 12.7006 44.0564 12.1941L43.1279 11.8226C42.8788 12.4451 42.7419 13.1238 42.7419 13.833H43.7419ZM48.168 18.2579C45.7281 18.2579 43.7419 16.2725 43.7419 13.833H42.7419C42.7419 16.825 45.1761 19.2579 48.168 19.2579V18.2579ZM49.7904 17.9499C49.2883 18.1486 48.7411 18.2579 48.168 18.2579V19.2579C48.8694 19.2579 49.5412 19.1239 50.1582 18.8798L49.7904 17.9499ZM53.9312 26.6124L50.4358 18.2226L49.5127 18.6072L53.0081 26.997L53.9312 26.6124ZM50.9898 31.3302C50.9898 29.5113 52.0926 27.9435 53.6678 27.2638L53.2716 26.3456C51.3439 27.1775 49.9898 29.0971 49.9898 31.3302H50.9898ZM53.6526 35.3888C52.0857 34.7055 50.9898 33.1422 50.9898 31.3302H49.9898C49.9898 33.5553 51.3357 35.4693 53.2528 36.3055L53.6526 35.3888ZM50.4544 44.442L53.915 36.0375L52.9903 35.6568L49.5297 44.0612L50.4544 44.442ZM48.168 44.4016C48.7472 44.4016 49.2999 44.5132 49.8063 44.7158L50.1777 43.7873C49.5553 43.5384 48.8768 43.4016 48.168 43.4016V44.4016ZM43.7419 48.8275C43.7419 46.387 45.7281 44.4016 48.168 44.4016V43.4016C45.176 43.4016 42.7419 45.8345 42.7419 48.8275H43.7419ZM44.0498 50.4494C43.8513 49.9475 43.7419 49.4005 43.7419 48.8275H42.7419C42.7419 49.5288 42.8759 50.2004 43.1199 50.8173L44.0498 50.4494ZM35.3886 54.5904L43.7772 51.0949L43.3926 50.1718L35.0039 53.6673L35.3886 54.5904ZM30.6709 51.6489C32.4891 51.6489 34.0573 52.7517 34.7372 54.327L35.6553 53.9307C34.8233 52.0031 32.9033 50.6489 30.6709 50.6489V51.6489ZM26.6115 54.3112C27.2948 52.7444 28.8581 51.6489 30.6709 51.6489V50.6489C28.4453 50.6489 26.5311 51.9941 25.6949 53.9114L26.6115 54.3112ZM17.559 51.1131L25.9628 54.5736L26.3436 53.649L17.9397 50.1884L17.559 51.1131ZM17.5995 48.8273C17.5993 49.4064 17.4876 49.9588 17.2851 50.465L18.2136 50.8364C18.4624 50.2144 18.5993 49.5362 18.5995 48.8276L17.5995 48.8273ZM13.1736 44.4016C15.6133 44.4016 17.5995 46.387 17.5995 48.8275H18.5995C18.5995 45.8345 16.1655 43.4016 13.1736 43.4016V44.4016ZM11.5499 44.71C12.0523 44.5111 12.5999 44.4016 13.1736 44.4016V43.4016C12.4716 43.4016 11.7993 43.5358 11.1818 43.7802L11.5499 44.71ZM7.40867 36.0477L10.9043 44.4374L11.8274 44.0528L8.33176 35.6631L7.40867 36.0477ZM10.3521 31.3301C10.3516 33.1488 9.24799 34.7168 7.67225 35.3962L8.06818 36.3145C9.99639 35.4831 11.3515 33.5633 11.3521 31.3303L10.3521 31.3301ZM7.68856 27.2703C9.25577 27.9535 10.3521 29.5171 10.3521 31.3302H11.3521C11.3521 29.1041 10.0058 27.1896 8.08819 26.3536L7.68856 27.2703ZM10.8868 18.2174L7.42604 26.6216L8.35071 27.0023L11.8114 18.5981L10.8868 18.2174ZM13.1736 18.2579C12.5942 18.2579 12.0414 18.1462 11.5348 17.9435L11.1634 18.872C11.7859 19.121 12.4646 19.2579 13.1736 19.2579V18.2579ZM17.5995 13.8328C17.5987 16.273 15.6132 18.2579 13.1736 18.2579V19.2579C16.1655 19.2579 18.5985 16.8253 18.5995 13.8332L17.5995 13.8328ZM17.2914 12.21C17.4901 12.7122 17.5995 13.2595 17.5995 13.833H18.5995C18.5995 13.1313 18.4655 12.4593 18.2213 11.8421L17.2914 12.21ZM25.9531 8.06897L17.564 11.5645L17.9487 12.4875L26.3377 8.99205L25.9531 8.06897ZM51.6102 45.0978L55.1926 36.3981L54.2679 36.0173L50.6856 44.7171L51.6102 45.0978ZM53.594 48.8275C53.594 47.0668 52.7512 45.5004 51.4509 44.5097L50.8449 45.3052C51.9084 46.1155 52.594 47.3931 52.594 48.8275H53.594ZM48.168 54.2525C51.1593 54.2525 53.5929 51.82 53.594 48.8276L52.594 48.8273C52.5931 51.2676 50.607 53.2525 48.168 53.2525V54.2525ZM43.8375 52.0931C44.8277 53.4027 46.4002 54.2525 48.168 54.2525V53.2525C46.7278 53.2525 45.4451 52.5612 44.6352 51.49L43.8375 52.0931ZM35.7445 55.8711L44.4286 52.2531L44.044 51.33L35.3599 54.948L35.7445 55.8711ZM36.097 56.0749C36.097 55.8268 36.0802 55.5822 36.0477 55.3424L35.0567 55.4767C35.0832 55.6722 35.097 55.8719 35.097 56.0749H36.097ZM30.6709 61.5C33.663 61.5 36.0959 59.067 36.097 56.0751L35.097 56.0747C35.0961 58.5147 33.1106 60.5 30.6709 60.5V61.5ZM25.245 56.0749C25.245 59.0671 27.679 61.5 30.6709 61.5V60.5C28.2311 60.5 26.245 58.5146 26.245 56.0749H25.245ZM25.2973 55.3205C25.2628 55.5673 25.245 55.8192 25.245 56.0749H26.245C26.245 55.8657 26.2596 55.66 26.2877 55.4588L25.2973 55.3205ZM16.903 52.2689L25.6021 55.852L25.9829 54.9273L17.2838 51.3443L16.903 52.2689ZM13.1736 54.2525C14.934 54.2525 16.5003 53.4099 17.4911 52.1097L16.6957 51.5036C15.8853 52.5671 14.6077 53.2525 13.1736 53.2525V54.2525ZM7.74761 48.8275C7.74761 51.8196 10.1817 54.2525 13.1736 54.2525V53.2525C10.7338 53.2525 8.74761 51.2671 8.74761 48.8275H7.74761ZM9.90713 44.4972C8.59756 45.4872 7.74761 47.0594 7.74761 48.8275H8.74761C8.74761 47.3871 9.43899 46.1047 10.5102 45.2949L9.90713 44.4972ZM6.12858 36.403L9.74711 45.0884L10.6702 44.7038L7.05167 36.0184L6.12858 36.403ZM5.92603 36.7553C6.1737 36.7553 6.41779 36.7386 6.65717 36.7062L6.52308 35.7152C6.32799 35.7416 6.1287 35.7553 5.92603 35.7553V36.7553ZM0.5 31.3302C0.5 34.3224 2.93412 36.7553 5.92603 36.7553V35.7553C3.48615 35.7553 1.5 33.7698 1.5 31.3302H0.5ZM5.92603 25.9042C2.93406 25.9042 0.5 28.3371 0.5 31.3302H1.5C1.5 28.8895 3.48622 26.9042 5.92603 26.9042V25.9042ZM6.67928 25.9563C6.43282 25.9219 6.18132 25.9042 5.92603 25.9042V26.9042C6.13492 26.9042 6.34024 26.9187 6.54108 26.9467L6.67928 25.9563ZM9.7304 17.561L6.14784 26.2611L7.07251 26.6419L10.6551 17.9418L9.7304 17.561ZM7.74761 13.833C7.74761 15.5927 8.59003 17.1584 9.88963 18.1491L10.4958 17.3538C9.43278 16.5434 8.74761 15.2663 8.74761 13.833H7.74761ZM13.1736 8.40696C10.1817 8.40696 7.74761 10.8399 7.74761 13.833H8.74761C8.74761 11.3923 10.7338 9.40697 13.1736 9.40697V8.40696ZM17.5038 10.5664C16.5136 9.2567 14.9413 8.40696 13.1736 8.40696V9.40697C14.6136 9.40697 15.8962 10.0982 16.7061 11.1695L17.5038 10.5664ZM25.5973 6.78818L16.9127 10.4064L17.2973 11.3295L25.9819 7.71128L25.5973 6.78818ZM25.245 6.58567C25.245 6.83334 25.2618 7.07743 25.2942 7.31681L26.2851 7.18265C26.2587 6.98758 26.245 6.78832 26.245 6.58567H25.245ZM30.6709 1.15965C27.6778 1.15965 25.245 3.59372 25.245 6.58567H26.245C26.245 4.14584 28.2303 2.15965 30.6709 2.15965V1.15965ZM36.097 6.58567C36.097 3.59364 33.663 1.15965 30.6709 1.15965V2.15965C33.1107 2.15965 35.097 4.14592 35.097 6.58567H36.097ZM36.0448 7.33875C36.0792 7.09235 36.097 6.84091 36.097 6.58567H35.097C35.097 6.79451 35.0824 6.99976 35.0544 7.20052L36.0448 7.33875ZM44.4392 10.3894L35.74 6.80729L35.3592 7.73197L44.0584 11.314L44.4392 10.3894ZM48.168 8.40696C46.4083 8.40696 44.8422 9.24897 43.8512 10.5485L44.6464 11.1549C45.457 10.0919 46.7344 9.40697 48.168 9.40697V8.40696ZM53.594 13.833C53.594 10.8399 51.1599 8.40696 48.168 8.40696V9.40697C50.6078 9.40697 52.594 11.3923 52.594 13.833H53.594ZM51.4332 18.163C52.743 17.1732 53.5934 15.6012 53.594 13.8332L52.594 13.8328C52.5935 15.2732 51.9017 16.5555 50.8303 17.3652L51.4332 18.163ZM55.2122 26.2565L51.5933 17.5718L50.6702 17.9564L54.2891 26.6412L55.2122 26.2565ZM55.4158 25.9042C55.1677 25.9042 54.9233 25.9209 54.6835 25.9534L54.8178 26.9443C55.0132 26.9179 55.2128 26.9042 55.4158 26.9042V25.9042ZM60.8417 31.3302C60.8417 28.3371 58.4078 25.9042 55.4158 25.9042V26.9042C57.8556 26.9042 59.8417 28.8895 59.8417 31.3302H60.8417ZM55.4158 36.7553C58.4078 36.7553 60.8408 34.3222 60.8417 31.3303L59.8417 31.33C59.8409 33.7699 57.8555 35.7553 55.4158 35.7553V36.7553ZM54.661 36.7029C54.908 36.7374 55.16 36.7553 55.4158 36.7553V35.7553C55.2065 35.7553 55.0007 35.7407 54.7995 35.7125L54.661 36.7029ZM13.1736 16.9403C12.6 16.9403 12.0634 16.7844 11.6023 16.5128L11.0948 17.3745C11.7051 17.7339 12.4163 17.9403 13.1736 17.9403V16.9403ZM16.2809 13.833C16.2809 15.5457 14.8868 16.9403 13.1736 16.9403V17.9403C15.4392 17.9403 17.2809 16.0979 17.2809 13.833H16.2809ZM13.1736 10.7249C14.8857 10.7249 16.28 12.1194 16.2809 13.8333L17.2809 13.8328C17.2798 11.5676 15.4386 9.72494 13.1736 9.72494V10.7249ZM10.0663 13.833C10.0663 12.1196 11.4613 10.7249 13.1736 10.7249V9.72494C10.9089 9.72494 9.06625 11.5674 9.06625 13.833H10.0663ZM11.5932 16.5075C10.6783 15.9644 10.0663 14.9678 10.0663 13.833H9.06625C9.06625 15.3363 9.8779 16.6523 11.0828 17.3674L11.5932 16.5075ZM11.6028 16.5132L11.5925 16.507L11.0836 17.3678L11.0939 17.374L11.6028 16.5132ZM11.6036 16.5136L11.6034 16.5135L11.0934 17.3736L11.0935 17.3737L11.6036 16.5136ZM54.391 27.3516C54.3891 27.3521 54.3872 27.3526 54.3853 27.3531L54.6183 28.3256C54.6318 28.3223 54.6453 28.3188 54.6587 28.3151L54.391 27.3516ZM55.4158 27.222C55.0664 27.222 54.7263 27.2659 54.4013 27.3489L54.6484 28.3178C54.8935 28.2553 55.1505 28.222 55.4158 28.222V27.222ZM59.523 31.3297C59.5219 29.0648 57.6807 27.222 55.4158 27.222V28.222C57.1279 28.222 58.5222 29.6166 58.523 31.3302L59.523 31.3297ZM55.4158 35.4372C57.6805 35.4372 59.523 33.5949 59.523 31.3299H58.523C58.523 33.0426 57.1282 34.4372 55.4158 34.4372V35.4372ZM54.4202 35.3151C54.7395 35.3949 55.0731 35.4372 55.4158 35.4372V34.4372C55.1556 34.4372 54.9034 34.4051 54.6627 34.3449L54.4202 35.3151ZM54.3561 35.2968C54.3634 35.2981 54.3708 35.3001 54.3784 35.3027L54.7045 34.3573C54.6501 34.3386 54.595 34.3241 54.5395 34.3137L54.3561 35.2968ZM51.3084 31.3299C51.3084 33.2141 52.583 34.8041 54.3135 35.2869L54.5821 34.3236C53.2717 33.9581 52.3084 32.7527 52.3084 31.3299H51.3084ZM54.375 27.3557C52.6134 27.8175 51.3084 29.4228 51.3084 31.3299H52.3084C52.3084 29.8896 53.2949 28.6727 54.6286 28.323L54.375 27.3557ZM33.7783 6.58571C33.7783 6.84873 33.7455 7.10358 33.6841 7.3467L34.6536 7.59168C34.7351 7.26922 34.7783 6.9321 34.7783 6.58571H33.7783ZM30.6709 3.47847C32.3834 3.47847 33.7783 4.87245 33.7783 6.58571H34.7783C34.7783 4.31994 32.9355 2.47847 30.6709 2.47847V3.47847ZM27.5637 6.58571C27.5637 4.87244 28.9584 3.47847 30.6709 3.47847V2.47847C28.4063 2.47847 26.5637 4.31998 26.5637 6.58571H27.5637ZM30.6709 9.6931C28.9582 9.6931 27.5637 8.29905 27.5637 6.58571H26.5637C26.5637 8.85141 28.406 10.6931 30.6709 10.6931V9.6931ZM33.668 7.40766C33.3065 8.72426 32.0981 9.6931 30.6709 9.6931V10.6931C32.5607 10.6931 34.1548 9.41128 34.6323 7.67247L33.668 7.40766ZM33.6931 7.31537C33.6799 7.35635 33.669 7.3978 33.6604 7.43955L34.64 7.64058C34.6412 7.63489 34.6427 7.62904 34.6446 7.62301L33.6931 7.31537ZM27.7766 41.4C27.7343 41.4 27.6942 41.3835 27.6637 41.3531L26.9566 42.0602C27.1745 42.278 27.469 42.4 27.7766 42.4V41.4ZM27.7846 41.3998C27.782 41.3999 27.7793 41.4 27.7766 41.4V42.4C27.7958 42.4 27.815 42.3995 27.8341 42.3985L27.7846 41.3998ZM27.8888 41.3536C27.8612 41.3814 27.8243 41.3978 27.7847 41.3998L27.834 42.3985C28.1205 42.3844 28.3932 42.2646 28.5979 42.0588L27.8888 41.3536ZM42.3425 26.9001L27.8898 41.3526L28.5969 42.0597L43.0496 27.6072L42.3425 26.9001ZM42.3524 26.889C42.3489 26.8932 42.3451 26.8974 42.3411 26.9015L43.051 27.6058C43.0778 27.5788 43.1032 27.5506 43.1271 27.5212L42.3524 26.889ZM42.3895 26.7871C42.3895 26.8226 42.3771 26.8587 42.3524 26.889L43.1271 27.5212C43.2945 27.3161 43.3895 27.0577 43.3895 26.7871H42.3895ZM42.3893 26.7794C42.3895 26.7818 42.3895 26.7844 42.3895 26.7871H43.3895C43.3895 26.7679 43.389 26.7486 43.3881 26.7293L42.3893 26.7794ZM42.3427 26.6744C42.3705 26.7022 42.3874 26.7402 42.3893 26.7793L43.3881 26.7294C43.3737 26.4423 43.2527 26.17 43.0494 25.9669L42.3427 26.6744ZM38.1464 22.4781L42.3425 26.6742L43.0496 25.9671L38.8535 21.771L38.1464 22.4781ZM38.1203 22.4565C38.1289 22.4622 38.1375 22.4692 38.1458 22.4775L38.8542 21.7717C38.7981 21.7153 38.7372 21.6657 38.6726 21.6229L38.1203 22.4565ZM37.9224 22.4767C37.9751 22.4236 38.0584 22.4155 38.1203 22.4565L38.6726 21.6229C38.2221 21.3244 37.6088 21.3729 37.2124 21.7725L37.9224 22.4767ZM28.1299 32.2685L37.9209 22.4782L37.2138 21.771L27.4228 31.5613L28.1299 32.2685ZM22.7605 27.6062L27.4228 32.2685L28.1299 31.5613L23.4676 26.8991L22.7605 27.6062ZM22.6477 27.5594C22.6892 27.5594 22.729 27.5748 22.7604 27.6061L23.4677 26.8992C23.2414 26.6728 22.9438 26.5594 22.6477 26.5594V27.5594ZM22.5349 27.6062C22.5664 27.5748 22.6064 27.5594 22.6477 27.5594V26.5594C22.3517 26.5594 22.0541 26.6728 21.8279 26.8991L22.5349 27.6062ZM22.5349 27.6062C22.5644 27.5768 22.5863 27.5475 22.6023 27.5225C22.6182 27.4978 22.6292 27.4758 22.6366 27.4596C22.6439 27.4435 22.6489 27.4302 22.6516 27.4228C22.653 27.4188 22.6541 27.4157 22.6547 27.4138C22.6551 27.4128 22.6553 27.412 22.6555 27.4115C22.6556 27.4113 22.6556 27.4111 22.6557 27.411C22.6557 27.4109 22.6557 27.4109 22.6557 27.4108C22.6557 27.4108 22.6557 27.4108 22.6557 27.4108C22.6557 27.4108 22.6557 27.4108 22.6557 27.4108C22.6557 27.4108 22.6557 27.4108 22.6557 27.4108C22.6558 27.4105 22.6553 27.412 22.6547 27.4138C22.6541 27.4157 22.653 27.4188 22.6516 27.4228C22.6489 27.4302 22.6439 27.4435 22.6366 27.4596C22.6292 27.4757 22.6182 27.4978 22.6023 27.5225C22.5863 27.5475 22.5644 27.5767 22.535 27.6062L21.8278 26.8991C21.7984 26.9286 21.7765 26.9579 21.7605 26.9828C21.7446 27.0076 21.7336 27.0296 21.7262 27.0458C21.7189 27.0619 21.7139 27.0751 21.7112 27.0826C21.7098 27.0865 21.7087 27.0897 21.7081 27.0916C21.7077 27.0926 21.7075 27.0934 21.7073 27.0938C21.7072 27.0941 21.7072 27.0943 21.7071 27.0944C21.7071 27.0944 21.7071 27.0945 21.7071 27.0945C21.7071 27.0945 21.7071 27.0946 21.7071 27.0946C21.7071 27.0946 21.7071 27.0946 21.7071 27.0946C21.7071 27.0946 21.7071 27.0946 21.7071 27.0946C21.707 27.0948 21.7075 27.0933 21.7081 27.0916C21.7087 27.0897 21.7098 27.0865 21.7112 27.0826C21.7139 27.0751 21.7189 27.0619 21.7262 27.0458C21.7336 27.0296 21.7446 27.0076 21.7605 26.9829C21.7765 26.9579 21.7984 26.9286 21.8278 26.8991L22.5349 27.6062ZM18.3389 31.8023L22.5349 27.6062L21.8278 26.8991L17.6318 31.0952L18.3389 31.8023ZM18.3389 31.8023C18.3684 31.7728 18.3903 31.7435 18.4063 31.7186C18.4221 31.6938 18.4332 31.6718 18.4405 31.6556C18.4478 31.6395 18.4528 31.6263 18.4555 31.6188C18.457 31.6149 18.458 31.6117 18.4587 31.6098C18.459 31.6088 18.4593 31.6081 18.4594 31.6076C18.4595 31.6073 18.4596 31.6071 18.4596 31.607C18.4597 31.607 18.4597 31.6069 18.4597 31.6069C18.4597 31.6069 18.4597 31.6069 18.4597 31.6069C18.4597 31.6068 18.4597 31.6068 18.4597 31.6068C18.4597 31.6068 18.4597 31.6068 18.4597 31.6068C18.4598 31.6066 18.4593 31.6081 18.4587 31.6098C18.458 31.6117 18.457 31.6149 18.4555 31.6188C18.4528 31.6263 18.4479 31.6395 18.4405 31.6556C18.4332 31.6718 18.4221 31.6938 18.4063 31.7186C18.3903 31.7435 18.3684 31.7728 18.3389 31.8023L17.6318 31.0952C17.6023 31.1247 17.5804 31.1539 17.5644 31.1789C17.5486 31.2036 17.5375 31.2257 17.5302 31.2418C17.5229 31.2579 17.5179 31.2712 17.5152 31.2787C17.5137 31.2826 17.5127 31.2858 17.512 31.2876C17.5117 31.2886 17.5114 31.2894 17.5113 31.2899C17.5112 31.2901 17.5111 31.2903 17.5111 31.2904C17.5111 31.2905 17.511 31.2905 17.511 31.2906C17.511 31.2906 17.511 31.2906 17.511 31.2906C17.511 31.2906 17.511 31.2906 17.511 31.2906C17.511 31.2906 17.511 31.2906 17.511 31.2906C17.5109 31.2909 17.5114 31.2894 17.512 31.2876C17.5127 31.2858 17.5137 31.2826 17.5152 31.2787C17.5179 31.2712 17.5229 31.2579 17.5302 31.2418C17.5375 31.2257 17.5486 31.2036 17.5644 31.1789C17.5804 31.1539 17.6023 31.1247 17.6318 31.0952L18.3389 31.8023ZM18.2919 31.9152C18.2919 31.8729 18.3083 31.8328 18.3387 31.8025L17.632 31.095C17.4138 31.3129 17.2919 31.6075 17.2919 31.9151L18.2919 31.9152ZM17.4333 32.2637L26.9517 42.0551L27.6687 41.3581L18.1504 31.5666L17.4333 32.2637ZM18.3389 32.0282C18.3276 32.0169 18.318 32.0038 18.3104 31.9895L17.4256 32.4554C17.4794 32.5576 17.5487 32.6522 17.6318 32.7353L18.3389 32.0282ZM27.6637 41.3531L18.3389 32.0282L17.6318 32.7353L26.9566 42.0602L27.6637 41.3531ZM27.6645 41.3538L18.2223 31.8697L17.5137 32.5752L26.9559 42.0594L27.6645 41.3538ZM18.3104 31.9895C18.2982 31.9662 18.2918 31.9406 18.2918 31.9152H17.2918C17.2918 32.1056 17.339 32.2909 17.4256 32.4554L18.3104 31.9895ZM17.3065 32.0355L17.3827 32.3427L18.3533 32.1022L18.2772 31.7949L17.3065 32.0355ZM6.69186 28.3172C6.7108 28.3227 6.72975 28.3277 6.74867 28.3322L6.97959 27.3593C6.97723 27.3587 6.97494 27.3581 6.9727 27.3574L6.69186 28.3172ZM5.92599 28.222C6.19603 28.222 6.4575 28.2565 6.70654 28.3212L6.95801 27.3534C6.62767 27.2675 6.28172 27.222 5.92599 27.222V28.222ZM2.81861 31.3299C2.81861 29.6165 4.2136 28.222 5.92599 28.222V27.222C3.66129 27.222 1.81861 29.0643 1.81861 31.3299H2.81861ZM5.92599 34.4372C4.21319 34.4372 2.81861 33.0423 2.81861 31.3299H1.81861C1.81861 33.5946 3.66088 35.4372 5.92599 35.4372V34.4372ZM9.03323 31.3299C9.03323 33.0426 7.63842 34.4372 5.92599 34.4372V35.4372C8.19065 35.4372 10.0332 33.5949 10.0332 31.3299H9.03323ZM6.73394 28.3285C8.05724 28.6854 9.03323 29.8972 9.03323 31.3299H10.0332C10.0332 29.433 8.74211 27.8343 6.99432 27.363L6.73394 28.3285ZM16.721 50.8966C17.0768 50.2885 17.2809 49.5808 17.2809 48.8275H16.2809C16.2809 49.3981 16.1267 49.9322 15.8579 50.3916L16.721 50.8966ZM16.7104 50.9143C16.7115 50.9122 16.7128 50.9101 16.714 50.9081L15.8648 50.3802C15.8556 50.395 15.8467 50.41 15.8381 50.4253L16.7104 50.9143ZM13.1736 52.9349C14.6742 52.9349 15.9877 52.1267 16.7037 50.9259L15.8448 50.4138C15.3011 51.3254 14.3066 51.9349 13.1736 51.9349V52.9349ZM9.06625 48.8275C9.06625 51.0931 10.908 52.9349 13.1736 52.9349V51.9349C11.4603 51.9349 10.0663 50.5408 10.0663 48.8275H9.06625ZM13.1736 44.7195C10.9089 44.7195 9.06625 46.562 9.06625 48.8275H10.0663C10.0663 47.1142 11.4613 45.7195 13.1736 45.7195V44.7195ZM17.2809 48.8275C17.2809 46.562 15.4384 44.7195 13.1736 44.7195V45.7195C14.886 45.7195 16.2809 47.1142 16.2809 48.8275H17.2809ZM33.6765 55.2865C33.6798 55.2996 33.6833 55.3127 33.687 55.3256L34.6484 55.0505C34.6479 55.0487 34.6474 55.047 34.647 55.0453L33.6765 55.2865ZM33.6732 55.2727L33.6757 55.2828L34.6479 55.049L34.6455 55.0389L33.6732 55.2727ZM30.6709 52.967C32.1088 52.967 33.3243 53.951 33.6759 55.2834L34.6428 55.0282C34.1786 53.2691 32.5754 51.967 30.6709 51.967V52.967ZM27.5637 56.0749C27.5637 54.3615 28.9586 52.967 30.6709 52.967V51.967C28.4062 51.967 26.5637 53.8093 26.5637 56.0749H27.5637ZM30.6709 59.1823C28.9583 59.1823 27.5637 57.7874 27.5637 56.0749H26.5637C26.5637 58.3396 28.4059 60.1823 30.6709 60.1823V59.1823ZM33.7783 56.0749C33.7783 57.7876 32.3834 59.1823 30.6709 59.1823V60.1823C32.9356 60.1823 34.7783 58.3399 34.7783 56.0749H33.7783ZM33.6831 55.3111C33.7451 55.5552 33.7782 55.8111 33.7783 56.0752L34.7783 56.0747C34.7781 55.727 34.7345 55.3886 34.6523 55.065L33.6831 55.3111ZM48.1679 9.72494C45.9032 9.72494 44.0605 11.5674 44.0605 13.833H45.0605C45.0605 12.1196 46.4556 10.7249 48.1679 10.7249V9.72494ZM52.2752 13.8328C52.2741 11.5676 50.4329 9.72494 48.1679 9.72494V10.7249C49.88 10.7249 51.2743 12.1194 51.2752 13.8333L52.2752 13.8328ZM48.1679 17.9403C50.4326 17.9403 52.2752 16.098 52.2752 13.833H51.2752C51.2752 15.5457 49.8803 16.9403 48.1679 16.9403V17.9403ZM44.0605 13.833C44.0605 16.0977 45.903 17.9403 48.1679 17.9403V16.9403C46.4553 16.9403 45.0605 15.5454 45.0605 13.833H44.0605ZM45.0605 48.8275C45.0605 47.1142 46.4556 45.7195 48.1679 45.7195V44.7195C45.9032 44.7195 44.0605 46.562 44.0605 48.8275H45.0605ZM48.1679 51.9349C46.4552 51.9349 45.0605 50.5408 45.0605 48.8275H44.0605C44.0605 51.0932 45.903 52.9349 48.1679 52.9349V51.9349ZM51.2752 48.8275C51.2752 50.5408 49.8804 51.9349 48.1679 51.9349V52.9349C50.4325 52.9349 52.2752 51.0932 52.2752 48.8275H51.2752ZM48.1679 45.7195C49.8803 45.7195 51.2752 47.1142 51.2752 48.8275H52.2752C52.2752 46.562 50.4326 44.7195 48.1679 44.7195V45.7195ZM56.3843 59.8412C54.8424 59.8412 53.5879 58.5858 53.5879 57.0448H52.5879C52.5879 59.1379 54.2899 60.8412 56.3843 60.8412V59.8412ZM59.1806 57.0451C59.1814 58.5856 57.9263 59.8412 56.3843 59.8412V60.8412C58.4784 60.8412 60.1817 59.138 60.1806 57.0445L59.1806 57.0451ZM56.3843 54.2484C57.9262 54.2484 59.1806 55.5029 59.1806 57.0448H60.1806C60.1806 54.9506 58.4785 53.2484 56.3843 53.2484V54.2484ZM53.5879 57.0448C53.5879 55.5029 54.8423 54.2484 56.3843 54.2484V53.2484C54.29 53.2484 52.5879 54.9506 52.5879 57.0448H53.5879ZM56.3843 54.5655C55.0171 54.5655 53.9066 55.6776 53.9066 57.0441H54.9066C54.9066 56.2293 55.5699 55.5655 56.3843 55.5655V54.5655ZM58.8629 57.0441C58.8629 55.6774 57.7523 54.5655 56.3843 54.5655V55.5655C57.1996 55.5655 57.8629 56.2294 57.8629 57.0441H58.8629ZM56.3843 59.5228C57.7518 59.5228 58.8629 58.4109 58.8629 57.0441H57.8629C57.8629 57.8589 57.1993 58.5228 56.3843 58.5228V59.5228ZM53.9066 57.0441C53.9066 58.4107 55.017 59.5228 56.3843 59.5228V58.5228C55.57 58.5228 54.9066 57.8591 54.9066 57.0441H53.9066Z" fill="#4A90E2"/>
<path opacity="0.387812" fill-rule="evenodd" clip-rule="evenodd" d="M27.7767 41.9C27.6017 41.9 27.4344 41.8308 27.3102 41.7066L17.9854 32.3818C17.862 32.2585 17.7919 32.0902 17.7919 31.9152C17.7919 31.7402 17.8611 31.5729 17.9854 31.4488L22.1814 27.2527C22.4391 26.995 22.8564 26.995 23.114 27.2527L27.7764 31.9149L37.5674 22.1246C37.824 21.8659 38.2423 21.8659 38.5 22.1246L42.696 26.3207C42.8194 26.4438 42.8895 26.6121 42.8895 26.7871C42.8895 26.962 42.8194 27.1294 42.696 27.2537L28.2434 41.7062C28.1195 41.8308 27.9516 41.9 27.7767 41.9L27.7767 41.9Z" fill="#4A90E2"/>
</svg>
