<svg width="24" height="24" viewBox="0 0 24 24" fill="none" xmlns="http://www.w3.org/2000/svg">
<path id="Combined Shape" fill-rule="evenodd" clip-rule="evenodd" d="M18.75 1.5H22.3713C23.2694 1.5 24 2.23059 24 3.12867V22.3713C24 23.2694 23.2694 24 22.3713 24H1.62867C0.730594 24 0 23.2694 0 22.3713V3.12867C0 2.23059 0.730594 1.5 1.62867 1.5H5.25V0.75C5.25 0.335813 5.58581 0 6 0C6.41419 0 6.75 0.335813 6.75 0.75V1.5H11.25V0.75C11.25 0.335813 11.5858 0 12 0C12.4142 0 12.75 0.335813 12.75 0.75V1.5H17.25V0.75C17.25 0.335813 17.5858 0 18 0C18.4142 0 18.75 0.335813 18.75 0.75V1.5ZM22.3713 22.5C22.4423 22.5 22.5 22.4423 22.5 22.3713V3.12867C22.5 3.0577 22.4423 3 22.3713 3H18.75V3.75C18.75 4.16419 18.4142 4.5 18 4.5C17.5858 4.5 17.25 4.16419 17.25 3.75V3H12.75V3.75C12.75 4.16419 12.4142 4.5 12 4.5C11.5858 4.5 11.25 4.16419 11.25 3.75V3H6.75V3.75C6.75 4.16419 6.41419 4.5 6 4.5C5.58581 4.5 5.25 4.16419 5.25 3.75V3H1.62867C1.5577 3 1.5 3.0577 1.5 3.12867V22.3713C1.5 22.4423 1.5577 22.5 1.62867 22.5H22.3713ZM4.875 7.875C4.46081 7.875 4.125 7.53919 4.125 7.125C4.125 6.71081 4.46081 6.375 4.875 6.375H19.125C19.5392 6.375 19.875 6.71081 19.875 7.125C19.875 7.53919 19.5392 7.875 19.125 7.875H4.875ZM3.375 12C3.375 12.4142 3.71081 12.75 4.125 12.75H6.375C6.78919 12.75 7.125 12.4142 7.125 12C7.125 11.5858 6.78919 11.25 6.375 11.25H4.125C3.71081 11.25 3.375 11.5858 3.375 12ZM4.125 15.75C3.71081 15.75 3.375 15.4142 3.375 15C3.375 14.5858 3.71081 14.25 4.125 14.25H6.375C6.78919 14.25 7.125 14.5858 7.125 15C7.125 15.4142 6.78919 15.75 6.375 15.75H4.125ZM10.125 15C10.125 15.4142 10.4608 15.75 10.875 15.75H13.125C13.5392 15.75 13.875 15.4142 13.875 15C13.875 14.5858 13.5392 14.25 13.125 14.25H10.875C10.4608 14.25 10.125 14.5858 10.125 15ZM17.625 15.75C17.2108 15.75 16.875 15.4142 16.875 15C16.875 14.5858 17.2108 14.25 17.625 14.25H19.875C20.2892 14.25 20.625 14.5858 20.625 15C20.625 15.4142 20.2892 15.75 19.875 15.75H17.625ZM16.875 18C16.875 18.4142 17.2108 18.75 17.625 18.75H19.875C20.2892 18.75 20.625 18.4142 20.625 18C20.625 17.5858 20.2892 17.25 19.875 17.25H17.625C17.2108 17.25 16.875 17.5858 16.875 18ZM10.875 18.75C10.4608 18.75 10.125 18.4142 10.125 18C10.125 17.5858 10.4608 17.25 10.875 17.25H13.125C13.5392 17.25 13.875 17.5858 13.875 18C13.875 18.4142 13.5392 18.75 13.125 18.75H10.875ZM3.375 18C3.375 18.4142 3.71081 18.75 4.125 18.75H6.375C6.78919 18.75 7.125 18.4142 7.125 18C7.125 17.5858 6.78919 17.25 6.375 17.25H4.125C3.71081 17.25 3.375 17.5858 3.375 18ZM13.125 12.75H10.875C10.4608 12.75 10.125 12.4142 10.125 12C10.125 11.5858 10.4608 11.25 10.875 11.25H13.125C13.5392 11.25 13.875 11.5858 13.875 12C13.875 12.4142 13.5392 12.75 13.125 12.75ZM17.625 12.75H19.875C20.2892 12.75 20.625 12.4142 20.625 12C20.625 11.5858 20.2892 11.25 19.875 11.25H17.625C17.2108 11.25 16.875 11.5858 16.875 12C16.875 12.4142 17.2108 12.75 17.625 12.75Z" fill="#323438"/>
</svg>
