<svg width="160" height="158" viewBox="0 0 160 158" fill="none" xmlns="http://www.w3.org/2000/svg">
<g id="business-and-finance" opacity="0.221773">
<g id="Combined Shape" opacity="0.476237">
<mask id="path-1-inside-1" fill="white">
<path fill-rule="evenodd" clip-rule="evenodd" d="M0.321423 143.923C0.321423 151.6 6.5835 157.846 14.2809 157.846H145.886C153.591 157.846 159.861 151.593 159.861 143.906V48.5457H159.653C158.839 44.8453 155.536 42.0636 151.585 42.0636H137.525V24.8096C137.525 20.5321 134.037 17.0519 129.748 17.0519H128.29V16.1948C128.29 13.3118 125.939 10.9663 123.049 10.9663H101.297V8.58204C101.297 3.85615 97.4423 0.0117493 92.705 0.0117493H22.6243C17.8862 0.0117493 14.0318 3.85615 14.0318 8.58204V17.0716C6.42629 17.3299 0.314941 23.5656 0.314941 31.2133C0.314941 31.2356 0.316566 31.2573 0.318191 31.2791L0.318191 31.2791C0.319726 31.2996 0.321261 31.3202 0.321423 31.3411V143.923ZM128.29 20.367H129.748C132.203 20.367 134.201 22.3596 134.201 24.8096V42.0636H128.29V20.367ZM124.966 16.1948C124.966 15.1394 124.106 14.2814 123.049 14.2814H65.0732C64.0151 14.2814 63.1549 15.1394 63.1549 16.1948V42.0634H124.966V16.1948ZM17.3555 8.58204C17.3555 5.68461 19.7194 3.32689 22.6243 3.32689H92.705C95.61 3.32689 97.973 5.68461 97.973 8.58204V10.9665H65.0732C62.1827 10.9665 59.8312 13.3119 59.8312 16.1949V42.0636H17.3555V8.58204ZM156.53 50.311C156.53 47.5916 154.312 45.3788 151.585 45.3788L14.0318 45.3796V45.3544C9.86884 45.213 6.15457 43.2887 3.64515 40.3102V143.923C3.64515 149.772 8.41654 154.531 14.2809 154.531H145.886C150.342 154.531 154.162 151.784 155.749 147.9H154.398V144.585H156.502L156.508 144.505L156.512 144.437L156.512 144.437C156.525 144.261 156.537 144.085 156.537 143.906V119.314H131.429C120.639 119.314 111.86 110.558 111.86 99.7961C111.86 89.0332 120.639 80.2775 131.429 80.2775H156.537V57.1007H156.53V56.7009H151.545V53.3858H156.53V50.311ZM149.987 88.5654V83.5927H156.53V115.999H131.429C122.471 115.999 115.184 108.731 115.184 99.7961C115.184 90.8616 122.471 83.5927 131.429 83.5927H146.664V88.5654H149.987ZM14.0318 42.0391V20.3868C8.26132 20.6425 3.64183 25.3901 3.63884 31.2075H3.64515V31.3411C3.71279 37.1018 8.30237 41.7851 14.0318 42.0391ZM24.003 25.4037H27.3267V13.2723H34.0131V9.95716H24.003V25.4037ZM43.9637 9.95733H38.315V13.2725H43.9637V9.95733ZM81.7877 20.9122H86.3662V24.2273H81.7877V20.9122ZM78.9159 24.2268H73.1261V33.7758H69.8024V20.9117H78.9159V24.2268ZM123.919 99.7961C123.919 95.2265 127.646 91.5082 132.228 91.5082C136.809 91.5082 140.537 95.2265 140.537 99.7961C140.537 104.366 136.809 108.084 132.228 108.084C127.646 108.084 123.919 104.366 123.919 99.7961ZM127.242 99.7961C127.242 102.538 129.479 104.769 132.228 104.769C134.977 104.769 137.213 102.538 137.213 99.7961C137.213 97.054 134.977 94.8234 132.228 94.8234C129.479 94.8234 127.242 97.054 127.242 99.7961ZM149.987 95.1962H146.664V101.826H149.987V95.1962ZM146.664 108.457H149.987V115.087H146.664V108.457ZM107.866 144.585H101.218V147.9H107.866V144.585ZM21.5159 144.578L21.3827 147.89C21.5466 147.896 21.7115 147.9 21.8785 147.9H28.0967V144.585H21.8785L21.5159 144.578ZM25.2428 56.7008H20.3692C19.8912 56.7008 19.4149 56.7502 18.9556 56.8481L18.2626 53.6058C18.9499 53.4601 19.6584 53.3856 20.3692 53.3856H25.2428V56.7008ZM74.6284 144.585H81.2759V147.9H74.6284V144.585ZM105.012 53.3856H98.3648V56.7008H105.012V53.3856ZM34.7436 144.585H41.3911V147.9H34.7436V144.585ZM144.897 53.3856H138.25V56.7008H144.897V53.3856ZM85.0699 53.3856H91.7174V56.7008H85.0699V53.3856ZM118.307 53.3856H111.66V56.7008H118.307V53.3856ZM124.955 53.3856H131.602V56.7008H124.955V53.3856ZM78.4225 53.3856H71.775V56.7008H78.4225V53.3856ZM48.0386 144.585H54.686V147.9H48.0386V144.585ZM67.981 144.585H61.3335V147.9H67.981V144.585ZM10.2926 63.4355V65.2767H13.6163V63.4355C13.6163 62.1404 13.9856 60.8835 14.6834 59.7998L11.8872 58.0078C10.8444 59.6267 10.2926 61.5036 10.2926 63.4355ZM13.6163 85.1679H10.2926V91.7981H13.6163V85.1679ZM127.808 144.585H134.456V147.9H127.808V144.585ZM13.6163 111.689H10.2926V118.319H13.6163V111.689ZM10.2926 98.4284H13.6163V105.059H10.2926V98.4284ZM51.8326 53.3856H45.1851V56.7008H51.8326V53.3856ZM87.9233 144.585H94.5708V147.9H87.9233V144.585ZM65.1275 53.3856H58.4801V56.7008H65.1275V53.3856ZM114.513 144.585H121.161V147.9H114.513V144.585ZM38.5377 53.3856H31.8902V56.7008H38.5377V53.3856ZM10.4954 138.506C10.9773 141.047 12.3292 143.383 14.2995 145.085L16.4759 142.58C15.0688 141.365 14.1048 139.699 13.7608 137.889L10.4954 138.506ZM147.751 144.585H141.103V147.9H147.751V144.585ZM10.2926 124.95H13.6163V131.58H10.2926V124.95ZM13.6163 71.9073H10.2926V78.5376H13.6163V71.9073Z"/>
</mask>
<path d="M159.861 48.5457H160.861V47.5457H159.861V48.5457ZM159.653 48.5457L158.676 48.7605L158.849 49.5457H159.653V48.5457ZM137.525 42.0636H136.525V43.0636H137.525V42.0636ZM128.29 17.0519H127.29V18.0519H128.29V17.0519ZM101.297 10.9663H100.297V11.9663H101.297V10.9663ZM14.0318 17.0716L14.0657 18.071L15.0318 18.0382V17.0716H14.0318ZM0.318191 31.2791L1.31687 31.2278L1.31628 31.2162L1.31541 31.2046L0.318191 31.2791ZM0.318191 31.2791L-0.680491 31.3304L-0.679896 31.342L-0.679031 31.3536L0.318191 31.2791ZM0.321423 31.3411H1.32145L1.32139 31.3334L0.321423 31.3411ZM128.29 20.367V19.367H127.29V20.367H128.29ZM134.201 42.0636V43.0636H135.201V42.0636H134.201ZM128.29 42.0636H127.29V43.0636H128.29V42.0636ZM63.1549 42.0634H62.1549V43.0634H63.1549V42.0634ZM124.966 42.0634V43.0634H125.966V42.0634H124.966ZM97.973 10.9665V11.9665H98.973V10.9665H97.973ZM59.8312 42.0636V43.0636H60.8312V42.0636H59.8312ZM17.3555 42.0636H16.3555V43.0636H17.3555V42.0636ZM151.585 45.3788V44.3788V45.3788ZM14.0318 45.3796H13.0318V46.3796L14.0318 46.3796L14.0318 45.3796ZM14.0318 45.3544H15.0318V44.3878L14.0658 44.355L14.0318 45.3544ZM3.64515 40.3102L4.40991 39.6659L2.64515 37.5713V40.3102H3.64515ZM155.749 147.9L156.675 148.279L157.238 146.9H155.749V147.9ZM154.398 147.9H153.398V148.9H154.398V147.9ZM154.398 144.585V143.585H153.398V144.585H154.398ZM156.502 144.585V145.585H157.438L157.5 144.652L156.502 144.585ZM156.508 144.505L155.51 144.436L155.51 144.439L156.508 144.505ZM156.512 144.437L155.516 144.354L155.515 144.368L156.512 144.437ZM156.512 144.437L157.509 144.52L157.51 144.506L156.512 144.437ZM156.537 119.314H157.537V118.314H156.537V119.314ZM156.537 80.2775V81.2775H157.537V80.2775H156.537ZM156.537 57.1007H157.537V56.1007H156.537V57.1007ZM156.53 57.1007H155.53V58.1007H156.53V57.1007ZM156.53 56.7009H157.53V55.7009H156.53V56.7009ZM151.545 56.7009H150.545V57.7009H151.545V56.7009ZM151.545 53.3858V52.3858H150.545V53.3858H151.545ZM156.53 53.3858V54.3858H157.53V53.3858H156.53ZM149.987 83.5927V82.5927H148.987V83.5927H149.987ZM149.987 88.5654V89.5654H150.987V88.5654H149.987ZM156.53 83.5927H157.53V82.5927H156.53V83.5927ZM156.53 115.999V116.999H157.53V115.999H156.53ZM146.664 83.5927H147.664V82.5927H146.664V83.5927ZM146.664 88.5654H145.664V89.5654H146.664V88.5654ZM14.0318 20.3868H15.0318V19.3414L13.9875 19.3877L14.0318 20.3868ZM14.0318 42.0391L13.9875 43.0381L15.0318 43.0844V42.0391H14.0318ZM3.63884 31.2075L2.63884 31.207L2.63832 32.2075H3.63884V31.2075ZM3.64515 31.2075H4.64515V30.2075H3.64515V31.2075ZM3.64515 31.3411H2.64508L2.64522 31.3529L3.64515 31.3411ZM27.3267 25.4037V26.4037H28.3267V25.4037H27.3267ZM24.003 25.4037H23.003V26.4037H24.003V25.4037ZM27.3267 13.2723V12.2723H26.3267V13.2723H27.3267ZM34.0131 13.2723V14.2723H35.0131V13.2723H34.0131ZM34.0131 9.95716H35.0131V8.95716H34.0131V9.95716ZM24.003 9.95716V8.95716H23.003V9.95716H24.003ZM38.315 9.95733V8.95733H37.315V9.95733H38.315ZM43.9637 9.95733H44.9637V8.95733H43.9637V9.95733ZM38.315 13.2725H37.315V14.2725H38.315V13.2725ZM43.9637 13.2725V14.2725H44.9637V13.2725H43.9637ZM86.3662 20.9122H87.3662V19.9122H86.3662V20.9122ZM81.7877 20.9122V19.9122H80.7877V20.9122H81.7877ZM86.3662 24.2273V25.2273H87.3662V24.2273H86.3662ZM81.7877 24.2273H80.7877V25.2273H81.7877V24.2273ZM73.1261 24.2268V23.2268H72.1261V24.2268H73.1261ZM78.9159 24.2268V25.2268H79.9159V24.2268H78.9159ZM73.1261 33.7758V34.7758H74.1261V33.7758H73.1261ZM69.8024 33.7758H68.8024V34.7758H69.8024V33.7758ZM69.8024 20.9117V19.9117H68.8024V20.9117H69.8024ZM78.9159 20.9117H79.9159V19.9117H78.9159V20.9117ZM146.664 95.1962V94.1962H145.664V95.1962H146.664ZM149.987 95.1962H150.987V94.1962H149.987V95.1962ZM146.664 101.826H145.664V102.826H146.664V101.826ZM149.987 101.826V102.826H150.987V101.826H149.987ZM149.987 108.457H150.987V107.457H149.987V108.457ZM146.664 108.457V107.457H145.664V108.457H146.664ZM149.987 115.087V116.087H150.987V115.087H149.987ZM146.664 115.087H145.664V116.087H146.664V115.087ZM101.218 144.585V143.585H100.218V144.585H101.218ZM107.866 144.585H108.866V143.585H107.866V144.585ZM101.218 147.9H100.218V148.9H101.218V147.9ZM107.866 147.9V148.9H108.866V147.9H107.866ZM21.3827 147.89L20.3836 147.85L20.3434 148.85L21.3434 148.889L21.3827 147.89ZM21.5159 144.578L21.5355 143.578L20.556 143.559L20.5167 144.538L21.5159 144.578ZM28.0967 147.9V148.9H29.0967V147.9H28.0967ZM28.0967 144.585H29.0967V143.585H28.0967V144.585ZM21.8785 144.585L21.8588 145.585L21.8687 145.585H21.8785V144.585ZM25.2428 56.7008V57.7008H26.2428V56.7008H25.2428ZM18.9556 56.8481L17.9777 57.0571L18.1866 58.0346L19.1642 57.8261L18.9556 56.8481ZM18.2626 53.6058L18.0552 52.6275L17.0753 52.8352L17.2847 53.8148L18.2626 53.6058ZM25.2428 53.3856H26.2428V52.3856H25.2428V53.3856ZM81.2759 144.585H82.2759V143.585H81.2759V144.585ZM74.6284 144.585V143.585H73.6284V144.585H74.6284ZM81.2759 147.9V148.9H82.2759V147.9H81.2759ZM74.6284 147.9H73.6284V148.9H74.6284V147.9ZM98.3648 53.3856V52.3856H97.3648V53.3856H98.3648ZM105.012 53.3856H106.012V52.3856H105.012V53.3856ZM98.3648 56.7008H97.3648V57.7008H98.3648V56.7008ZM105.012 56.7008V57.7008H106.012V56.7008H105.012ZM41.3911 144.585H42.3911V143.585H41.3911V144.585ZM34.7436 144.585V143.585H33.7436V144.585H34.7436ZM41.3911 147.9V148.9H42.3911V147.9H41.3911ZM34.7436 147.9H33.7436V148.9H34.7436V147.9ZM138.25 53.3856V52.3856H137.25V53.3856H138.25ZM144.897 53.3856H145.897V52.3856H144.897V53.3856ZM138.25 56.7008H137.25V57.7008H138.25V56.7008ZM144.897 56.7008V57.7008H145.897V56.7008H144.897ZM91.7174 53.3856H92.7174V52.3856H91.7174V53.3856ZM85.0699 53.3856V52.3856H84.0699V53.3856H85.0699ZM91.7174 56.7008V57.7008H92.7174V56.7008H91.7174ZM85.0699 56.7008H84.0699V57.7008H85.0699V56.7008ZM111.66 53.3856V52.3856H110.66V53.3856H111.66ZM118.307 53.3856H119.307V52.3856H118.307V53.3856ZM111.66 56.7008H110.66V57.7008H111.66V56.7008ZM118.307 56.7008V57.7008H119.307V56.7008H118.307ZM131.602 53.3856H132.602V52.3856H131.602V53.3856ZM124.955 53.3856V52.3856H123.955V53.3856H124.955ZM131.602 56.7008V57.7008H132.602V56.7008H131.602ZM124.955 56.7008H123.955V57.7008H124.955V56.7008ZM71.775 53.3856V52.3856H70.775V53.3856H71.775ZM78.4225 53.3856H79.4225V52.3856H78.4225V53.3856ZM71.775 56.7008H70.775V57.7008H71.775V56.7008ZM78.4225 56.7008V57.7008H79.4225V56.7008H78.4225ZM54.686 144.585H55.686V143.585H54.686V144.585ZM48.0386 144.585V143.585H47.0386V144.585H48.0386ZM54.686 147.9V148.9H55.686V147.9H54.686ZM48.0386 147.9H47.0386V148.9H48.0386V147.9ZM61.3335 144.585V143.585H60.3335V144.585H61.3335ZM67.981 144.585H68.981V143.585H67.981V144.585ZM61.3335 147.9H60.3335V148.9H61.3335V147.9ZM67.981 147.9V148.9H68.981V147.9H67.981ZM10.2926 65.2767H9.29262V66.2767H10.2926V65.2767ZM13.6163 65.2767V66.2767H14.6163V65.2767H13.6163ZM14.6834 59.7998L15.5242 60.3411L16.0668 59.4986L15.223 58.9578L14.6834 59.7998ZM11.8872 58.0078L12.4267 57.1658L11.5867 56.6275L11.0465 57.4663L11.8872 58.0078ZM10.2926 85.1679V84.1679H9.29262V85.1679H10.2926ZM13.6163 85.1679H14.6163V84.1679H13.6163V85.1679ZM10.2926 91.7981H9.29262V92.7981H10.2926V91.7981ZM13.6163 91.7981V92.7981H14.6163V91.7981H13.6163ZM134.456 144.585H135.456V143.585H134.456V144.585ZM127.808 144.585V143.585H126.808V144.585H127.808ZM134.456 147.9V148.9H135.456V147.9H134.456ZM127.808 147.9H126.808V148.9H127.808V147.9ZM10.2926 111.689V110.689H9.29262V111.689H10.2926ZM13.6163 111.689H14.6163V110.689H13.6163V111.689ZM10.2926 118.319H9.29262V119.319H10.2926V118.319ZM13.6163 118.319V119.319H14.6163V118.319H13.6163ZM13.6163 98.4284H14.6163V97.4284H13.6163V98.4284ZM10.2926 98.4284V97.4284H9.29262V98.4284H10.2926ZM13.6163 105.059V106.059H14.6163V105.059H13.6163ZM10.2926 105.059H9.29262V106.059H10.2926V105.059ZM45.1851 53.3856V52.3856H44.1851V53.3856H45.1851ZM51.8326 53.3856H52.8326V52.3856H51.8326V53.3856ZM45.1851 56.7008H44.1851V57.7008H45.1851V56.7008ZM51.8326 56.7008V57.7008H52.8326V56.7008H51.8326ZM94.5708 144.585H95.5708V143.585H94.5708V144.585ZM87.9233 144.585V143.585H86.9233V144.585H87.9233ZM94.5708 147.9V148.9H95.5708V147.9H94.5708ZM87.9233 147.9H86.9233V148.9H87.9233V147.9ZM58.4801 53.3856V52.3856H57.4801V53.3856H58.4801ZM65.1275 53.3856H66.1275V52.3856H65.1275V53.3856ZM58.4801 56.7008H57.4801V57.7008H58.4801V56.7008ZM65.1275 56.7008V57.7008H66.1275V56.7008H65.1275ZM121.161 144.585H122.161V143.585H121.161V144.585ZM114.513 144.585V143.585H113.513V144.585H114.513ZM121.161 147.9V148.9H122.161V147.9H121.161ZM114.513 147.9H113.513V148.9H114.513V147.9ZM31.8902 53.3856V52.3856H30.8902V53.3856H31.8902ZM38.5377 53.3856H39.5377V52.3856H38.5377V53.3856ZM31.8902 56.7008H30.8902V57.7008H31.8902V56.7008ZM38.5377 56.7008V57.7008H39.5377V56.7008H38.5377ZM14.2995 145.085L13.6458 145.842L14.4006 146.494L15.0545 145.741L14.2995 145.085ZM10.4954 138.506L10.3098 137.523L9.32636 137.709L9.51288 138.692L10.4954 138.506ZM16.4759 142.58L17.2309 143.235L17.8886 142.478L17.1294 141.823L16.4759 142.58ZM13.7608 137.889L14.7432 137.703L14.5566 136.721L13.5752 136.907L13.7608 137.889ZM141.103 144.585V143.585H140.103V144.585H141.103ZM147.751 144.585H148.751V143.585H147.751V144.585ZM141.103 147.9H140.103V148.9H141.103V147.9ZM147.751 147.9V148.9H148.751V147.9H147.751ZM13.6163 124.95H14.6163V123.95H13.6163V124.95ZM10.2926 124.95V123.95H9.29262V124.95H10.2926ZM13.6163 131.58V132.58H14.6163V131.58H13.6163ZM10.2926 131.58H9.29262V132.58H10.2926V131.58ZM10.2926 71.9073V70.9073H9.29262V71.9073H10.2926ZM13.6163 71.9073H14.6163V70.9073H13.6163V71.9073ZM10.2926 78.5376H9.29262V79.5376H10.2926V78.5376ZM13.6163 78.5376V79.5376H14.6163V78.5376H13.6163ZM14.2809 156.846C7.1333 156.846 1.32142 151.045 1.32142 143.923H-0.678577C-0.678577 152.155 6.03369 158.846 14.2809 158.846V156.846ZM145.886 156.846H14.2809V158.846H145.886V156.846ZM158.861 143.906C158.861 151.038 153.041 156.846 145.886 156.846V158.846C154.141 158.846 160.861 152.147 160.861 143.906H158.861ZM158.861 48.5457V143.906H160.861V48.5457H158.861ZM159.653 49.5457H159.861V47.5457H159.653V49.5457ZM151.585 43.0636C155.056 43.0636 157.961 45.5078 158.676 48.7605L160.63 48.3309C159.717 44.1829 156.017 41.0636 151.585 41.0636V43.0636ZM137.525 43.0636H151.585V41.0636H137.525V43.0636ZM136.525 24.8096V42.0636H138.525V24.8096H136.525ZM129.748 18.0519C133.487 18.0519 136.525 21.0867 136.525 24.8096H138.525C138.525 19.9775 134.587 16.0519 129.748 16.0519V18.0519ZM128.29 18.0519H129.748V16.0519H128.29V18.0519ZM127.29 16.1948V17.0519H129.29V16.1948H127.29ZM123.049 11.9663C125.389 11.9663 127.29 13.8663 127.29 16.1948H129.29C129.29 12.7572 126.489 9.96629 123.049 9.96629V11.9663ZM101.297 11.9663H123.049V9.96629H101.297V11.9663ZM100.297 8.58204V10.9663H102.297V8.58204H100.297ZM92.705 1.01175C96.8924 1.01175 100.297 4.41081 100.297 8.58204H102.297C102.297 3.30149 97.9922 -0.988251 92.705 -0.988251V1.01175ZM22.6243 1.01175H92.705V-0.988251H22.6243V1.01175ZM15.0318 8.58204C15.0318 4.41087 18.436 1.01175 22.6243 1.01175V-0.988251C17.3363 -0.988251 13.0318 3.30143 13.0318 8.58204H15.0318ZM15.0318 17.0716V8.58204H13.0318V17.0716H15.0318ZM1.31494 31.2133C1.31494 24.1108 6.99284 18.3112 14.0657 18.071L13.9979 16.0722C5.85973 16.3485 -0.685059 23.0204 -0.685059 31.2133H1.31494ZM1.31541 31.2046C1.31498 31.1988 1.31475 31.1957 1.31456 31.193C1.31439 31.1906 1.31437 31.1901 1.31441 31.1908C1.31448 31.192 1.31494 31.2005 1.31494 31.2133H-0.685059C-0.685059 31.2789 -0.680232 31.3375 -0.679032 31.3536L1.31541 31.2046ZM1.31687 31.2278L1.31687 31.2278L-0.680491 31.3304L-0.680491 31.3304L1.31687 31.2278ZM1.32139 31.3334C1.32093 31.2736 1.31656 31.22 1.31541 31.2046L-0.679031 31.3536C-0.678621 31.3591 -0.678397 31.3621 -0.678208 31.3648C-0.678036 31.3672 -0.677998 31.3679 -0.678017 31.3676C-0.678047 31.3671 -0.678462 31.3599 -0.678548 31.3488L1.32139 31.3334ZM1.32142 143.923V31.3411H-0.678577V143.923H1.32142ZM129.748 19.367H128.29V21.367H129.748V19.367ZM135.201 24.8096C135.201 21.805 132.753 19.367 129.748 19.367V21.367C131.653 21.367 133.201 22.9142 133.201 24.8096H135.201ZM135.201 42.0636V24.8096H133.201V42.0636H135.201ZM128.29 43.0636H134.201V41.0636H128.29V43.0636ZM127.29 20.367V42.0636H129.29V20.367H127.29ZM123.049 15.2814C123.556 15.2814 123.966 15.6938 123.966 16.1948H125.966C125.966 14.5849 124.656 13.2814 123.049 13.2814V15.2814ZM65.0732 15.2814H123.049V13.2814H65.0732V15.2814ZM64.1549 16.1948C64.1549 15.6941 64.5649 15.2814 65.0732 15.2814V13.2814C63.4652 13.2814 62.1549 14.5847 62.1549 16.1948H64.1549ZM64.1549 42.0634V16.1948H62.1549V42.0634H64.1549ZM124.966 41.0634H63.1549V43.0634H124.966V41.0634ZM123.966 16.1948V42.0634H125.966V16.1948H123.966ZM22.6243 2.32689C19.1695 2.32689 16.3555 5.12989 16.3555 8.58204H18.3555C18.3555 6.23934 20.2692 4.32689 22.6243 4.32689V2.32689ZM92.705 2.32689H22.6243V4.32689H92.705V2.32689ZM98.973 8.58204C98.973 5.13009 96.16 2.32689 92.705 2.32689V4.32689C95.0599 4.32689 96.973 6.23913 96.973 8.58204H98.973ZM98.973 10.9665V8.58204H96.973V10.9665H98.973ZM65.0732 11.9665H97.973V9.96646H65.0732V11.9665ZM60.8312 16.1949C60.8312 13.8666 62.7325 11.9665 65.0732 11.9665V9.96646C61.6329 9.96646 58.8312 12.7572 58.8312 16.1949H60.8312ZM60.8312 42.0636V16.1949H58.8312V42.0636H60.8312ZM17.3555 43.0636H59.8312V41.0636H17.3555V43.0636ZM16.3555 8.58204V42.0636H18.3555V8.58204H16.3555ZM151.585 46.3788C153.762 46.3788 155.53 48.1463 155.53 50.311H157.53C157.53 47.0369 154.862 44.3788 151.585 44.3788V46.3788ZM14.0318 46.3796L151.585 46.3788V44.3788L14.0318 44.3796L14.0318 46.3796ZM13.0318 45.3544V45.3796H15.0318V45.3544H13.0318ZM2.8804 40.9546C5.56586 44.142 9.54235 46.2025 13.9979 46.3538L14.0658 44.355C10.1953 44.2235 6.74328 42.4354 4.40991 39.6659L2.8804 40.9546ZM4.64515 143.923V40.3102H2.64515V143.923H4.64515ZM14.2809 153.531C8.96628 153.531 4.64515 149.218 4.64515 143.923H2.64515C2.64515 150.327 7.8668 155.531 14.2809 155.531V153.531ZM145.886 153.531H14.2809V155.531H145.886V153.531ZM154.823 147.522C153.385 151.043 149.921 153.531 145.886 153.531V155.531C150.763 155.531 154.94 152.524 156.675 148.279L154.823 147.522ZM154.398 148.9H155.749V146.9H154.398V148.9ZM153.398 144.585V147.9H155.398V144.585H153.398ZM156.502 143.585H154.398V145.585H156.502V143.585ZM155.51 144.439L155.504 144.519L157.5 144.652L157.505 144.572L155.51 144.439ZM155.515 144.368L155.51 144.436L157.505 144.574L157.51 144.506L155.515 144.368ZM155.516 144.354L155.516 144.354L157.509 144.52L157.509 144.52L155.516 144.354ZM155.537 143.906C155.537 144.045 155.527 144.186 155.515 144.367L157.51 144.506C157.522 144.336 157.537 144.125 157.537 143.906H155.537ZM155.537 119.314V143.906H157.537V119.314H155.537ZM131.429 120.314H156.537V118.314H131.429V120.314ZM110.86 99.7961C110.86 111.113 120.089 120.314 131.429 120.314V118.314C121.188 118.314 112.86 110.003 112.86 99.7961H110.86ZM131.429 79.2775C120.089 79.2775 110.86 88.4785 110.86 99.7961H112.86C112.86 89.5879 121.189 81.2775 131.429 81.2775V79.2775ZM156.537 79.2775H131.429V81.2775H156.537V79.2775ZM155.537 57.1007V80.2775H157.537V57.1007H155.537ZM156.53 58.1007H156.537V56.1007H156.53V58.1007ZM155.53 56.7009V57.1007H157.53V56.7009H155.53ZM151.545 57.7009H156.53V55.7009H151.545V57.7009ZM150.545 53.3858V56.7009H152.545V53.3858H150.545ZM156.53 52.3858H151.545V54.3858H156.53V52.3858ZM155.53 50.311V53.3858H157.53V50.311H155.53ZM148.987 83.5927V88.5654H150.987V83.5927H148.987ZM156.53 82.5927H149.987V84.5927H156.53V82.5927ZM157.53 115.999V83.5927H155.53V115.999H157.53ZM131.429 116.999H156.53V114.999H131.429V116.999ZM114.184 99.7961C114.184 109.285 121.921 116.999 131.429 116.999V114.999C123.021 114.999 116.184 108.176 116.184 99.7961H114.184ZM131.429 82.5927C121.921 82.5927 114.184 90.307 114.184 99.7961H116.184C116.184 91.4163 123.021 84.5927 131.429 84.5927V82.5927ZM146.664 82.5927H131.429V84.5927H146.664V82.5927ZM147.664 88.5654V83.5927H145.664V88.5654H147.664ZM149.987 87.5654H146.664V89.5654H149.987V87.5654ZM13.0318 20.3868V42.0391H15.0318V20.3868H13.0318ZM4.63884 31.208C4.64155 25.9323 8.83308 21.6182 14.0761 21.3858L13.9875 19.3877C7.68955 19.6669 2.64211 24.8479 2.63884 31.207L4.63884 31.208ZM3.64515 30.2075H3.63884V32.2075H3.64515V30.2075ZM4.64515 31.3411V31.2075H2.64515V31.3411H4.64515ZM14.0761 41.0401C8.87126 40.8094 4.70643 36.5542 4.64508 31.3294L2.64522 31.3529C2.71915 37.6495 7.73347 42.7609 13.9875 43.0381L14.0761 41.0401ZM27.3267 24.4037H24.003V26.4037H27.3267V24.4037ZM26.3267 13.2723V25.4037H28.3267V13.2723H26.3267ZM34.0131 12.2723H27.3267V14.2723H34.0131V12.2723ZM33.0131 9.95716V13.2723H35.0131V9.95716H33.0131ZM24.003 10.9572H34.0131V8.95716H24.003V10.9572ZM25.003 25.4037V9.95716H23.003V25.4037H25.003ZM38.315 10.9573H43.9637V8.95733H38.315V10.9573ZM39.315 13.2725V9.95733H37.315V13.2725H39.315ZM43.9637 12.2725H38.315V14.2725H43.9637V12.2725ZM42.9637 9.95733V13.2725H44.9637V9.95733H42.9637ZM86.3662 19.9122H81.7877V21.9122H86.3662V19.9122ZM87.3662 24.2273V20.9122H85.3662V24.2273H87.3662ZM81.7877 25.2273H86.3662V23.2273H81.7877V25.2273ZM80.7877 20.9122V24.2273H82.7877V20.9122H80.7877ZM73.1261 25.2268H78.9159V23.2268H73.1261V25.2268ZM74.1261 33.7758V24.2268H72.1261V33.7758H74.1261ZM69.8024 34.7758H73.1261V32.7758H69.8024V34.7758ZM68.8024 20.9117V33.7758H70.8024V20.9117H68.8024ZM78.9159 19.9117H69.8024V21.9117H78.9159V19.9117ZM79.9159 24.2268V20.9117H77.9159V24.2268H79.9159ZM132.228 90.5082C127.097 90.5082 122.919 94.6718 122.919 99.7961H124.919C124.919 95.7812 128.196 92.5082 132.228 92.5082V90.5082ZM141.537 99.7961C141.537 94.6718 137.359 90.5082 132.228 90.5082V92.5082C136.259 92.5082 139.537 95.7812 139.537 99.7961H141.537ZM132.228 109.084C137.359 109.084 141.537 104.92 141.537 99.7961H139.537C139.537 103.811 136.259 107.084 132.228 107.084V109.084ZM122.919 99.7961C122.919 104.92 127.097 109.084 132.228 109.084V107.084C128.196 107.084 124.919 103.811 124.919 99.7961H122.919ZM132.228 103.769C130.028 103.769 128.242 101.983 128.242 99.7961H126.242C126.242 103.093 128.929 105.769 132.228 105.769V103.769ZM136.213 99.7961C136.213 101.983 134.427 103.769 132.228 103.769V105.769C135.527 105.769 138.213 103.093 138.213 99.7961H136.213ZM132.228 95.8234C134.427 95.8234 136.213 97.6087 136.213 99.7961H138.213C138.213 96.4992 135.527 93.8234 132.228 93.8234V95.8234ZM128.242 99.7961C128.242 97.6087 130.028 95.8234 132.228 95.8234V93.8234C128.929 93.8234 126.242 96.4992 126.242 99.7961H128.242ZM146.664 96.1962H149.987V94.1962H146.664V96.1962ZM147.664 101.826V95.1962H145.664V101.826H147.664ZM149.987 100.826H146.664V102.826H149.987V100.826ZM148.987 95.1962V101.826H150.987V95.1962H148.987ZM149.987 107.457H146.664V109.457H149.987V107.457ZM150.987 115.087V108.457H148.987V115.087H150.987ZM146.664 116.087H149.987V114.087H146.664V116.087ZM145.664 108.457V115.087H147.664V108.457H145.664ZM101.218 145.585H107.866V143.585H101.218V145.585ZM102.218 147.9V144.585H100.218V147.9H102.218ZM107.866 146.9H101.218V148.9H107.866V146.9ZM106.866 144.585V147.9H108.866V144.585H106.866ZM22.3819 147.93L22.5151 144.618L20.5167 144.538L20.3836 147.85L22.3819 147.93ZM21.8785 146.9C21.7273 146.9 21.5759 146.897 21.4221 146.891L21.3434 148.889C21.5174 148.896 21.6956 148.9 21.8785 148.9V146.9ZM28.0967 146.9H21.8785V148.9H28.0967V146.9ZM27.0967 144.585V147.9H29.0967V144.585H27.0967ZM21.8785 145.585H28.0967V143.585H21.8785V145.585ZM21.4962 145.578L21.8588 145.585L21.8981 143.585L21.5355 143.578L21.4962 145.578ZM20.3692 57.7008H25.2428V55.7008H20.3692V57.7008ZM19.1642 57.8261C19.5532 57.7432 19.9595 57.7008 20.3692 57.7008V55.7008C19.8229 55.7008 19.2766 55.7572 18.747 55.8701L19.1642 57.8261ZM17.2847 53.8148L17.9777 57.0571L19.9335 56.6391L19.2405 53.3968L17.2847 53.8148ZM20.3692 52.3856C19.589 52.3856 18.811 52.4673 18.0552 52.6275L18.47 54.584C19.0889 54.4528 19.7278 54.3856 20.3692 54.3856V52.3856ZM25.2428 52.3856H20.3692V54.3856H25.2428V52.3856ZM26.2428 56.7008V53.3856H24.2428V56.7008H26.2428ZM81.2759 143.585H74.6284V145.585H81.2759V143.585ZM82.2759 147.9V144.585H80.2759V147.9H82.2759ZM74.6284 148.9H81.2759V146.9H74.6284V148.9ZM73.6284 144.585V147.9H75.6284V144.585H73.6284ZM98.3648 54.3856H105.012V52.3856H98.3648V54.3856ZM99.3648 56.7008V53.3856H97.3648V56.7008H99.3648ZM105.012 55.7008H98.3648V57.7008H105.012V55.7008ZM104.012 53.3856V56.7008H106.012V53.3856H104.012ZM41.3911 143.585H34.7436V145.585H41.3911V143.585ZM42.3911 147.9V144.585H40.3911V147.9H42.3911ZM34.7436 148.9H41.3911V146.9H34.7436V148.9ZM33.7436 144.585V147.9H35.7436V144.585H33.7436ZM138.25 54.3856H144.897V52.3856H138.25V54.3856ZM139.25 56.7008V53.3856H137.25V56.7008H139.25ZM144.897 55.7008H138.25V57.7008H144.897V55.7008ZM143.897 53.3856V56.7008H145.897V53.3856H143.897ZM91.7174 52.3856H85.0699V54.3856H91.7174V52.3856ZM92.7174 56.7008V53.3856H90.7174V56.7008H92.7174ZM85.0699 57.7008H91.7174V55.7008H85.0699V57.7008ZM84.0699 53.3856V56.7008H86.0699V53.3856H84.0699ZM111.66 54.3856H118.307V52.3856H111.66V54.3856ZM112.66 56.7008V53.3856H110.66V56.7008H112.66ZM118.307 55.7008H111.66V57.7008H118.307V55.7008ZM117.307 53.3856V56.7008H119.307V53.3856H117.307ZM131.602 52.3856H124.955V54.3856H131.602V52.3856ZM132.602 56.7008V53.3856H130.602V56.7008H132.602ZM124.955 57.7008H131.602V55.7008H124.955V57.7008ZM123.955 53.3856V56.7008H125.955V53.3856H123.955ZM71.775 54.3856H78.4225V52.3856H71.775V54.3856ZM72.775 56.7008V53.3856H70.775V56.7008H72.775ZM78.4225 55.7008H71.775V57.7008H78.4225V55.7008ZM77.4225 53.3856V56.7008H79.4225V53.3856H77.4225ZM54.686 143.585H48.0386V145.585H54.686V143.585ZM55.686 147.9V144.585H53.686V147.9H55.686ZM48.0386 148.9H54.686V146.9H48.0386V148.9ZM47.0386 144.585V147.9H49.0386V144.585H47.0386ZM61.3335 145.585H67.981V143.585H61.3335V145.585ZM62.3335 147.9V144.585H60.3335V147.9H62.3335ZM67.981 146.9H61.3335V148.9H67.981V146.9ZM66.981 144.585V147.9H68.981V144.585H66.981ZM11.2926 65.2767V63.4355H9.29262V65.2767H11.2926ZM13.6163 64.2767H10.2926V66.2767H13.6163V64.2767ZM12.6163 63.4355V65.2767H14.6163V63.4355H12.6163ZM13.8427 59.2584C13.0405 60.5041 12.6163 61.9491 12.6163 63.4355H14.6163C14.6163 62.3317 14.9307 61.2629 15.5242 60.3411L13.8427 59.2584ZM11.3476 58.8497L14.1439 60.6417L15.223 58.9578L12.4267 57.1658L11.3476 58.8497ZM11.2926 63.4355C11.2926 61.6952 11.7893 60.0064 12.7279 58.5493L11.0465 57.4663C9.89941 59.2471 9.29262 61.312 9.29262 63.4355H11.2926ZM10.2926 86.1679H13.6163V84.1679H10.2926V86.1679ZM11.2926 91.7981V85.1679H9.29262V91.7981H11.2926ZM13.6163 90.7981H10.2926V92.7981H13.6163V90.7981ZM12.6163 85.1679V91.7981H14.6163V85.1679H12.6163ZM134.456 143.585H127.808V145.585H134.456V143.585ZM135.456 147.9V144.585H133.456V147.9H135.456ZM127.808 148.9H134.456V146.9H127.808V148.9ZM126.808 144.585V147.9H128.808V144.585H126.808ZM10.2926 112.689H13.6163V110.689H10.2926V112.689ZM11.2926 118.319V111.689H9.29262V118.319H11.2926ZM13.6163 117.319H10.2926V119.319H13.6163V117.319ZM12.6163 111.689V118.319H14.6163V111.689H12.6163ZM13.6163 97.4284H10.2926V99.4284H13.6163V97.4284ZM14.6163 105.059V98.4284H12.6163V105.059H14.6163ZM10.2926 106.059H13.6163V104.059H10.2926V106.059ZM9.29262 98.4284V105.059H11.2926V98.4284H9.29262ZM45.1851 54.3856H51.8326V52.3856H45.1851V54.3856ZM46.1851 56.7008V53.3856H44.1851V56.7008H46.1851ZM51.8326 55.7008H45.1851V57.7008H51.8326V55.7008ZM50.8326 53.3856V56.7008H52.8326V53.3856H50.8326ZM94.5708 143.585H87.9233V145.585H94.5708V143.585ZM95.5708 147.9V144.585H93.5708V147.9H95.5708ZM87.9233 148.9H94.5708V146.9H87.9233V148.9ZM86.9233 144.585V147.9H88.9233V144.585H86.9233ZM58.4801 54.3856H65.1275V52.3856H58.4801V54.3856ZM59.4801 56.7008V53.3856H57.4801V56.7008H59.4801ZM65.1275 55.7008H58.4801V57.7008H65.1275V55.7008ZM64.1275 53.3856V56.7008H66.1275V53.3856H64.1275ZM121.161 143.585H114.513V145.585H121.161V143.585ZM122.161 147.9V144.585H120.161V147.9H122.161ZM114.513 148.9H121.161V146.9H114.513V148.9ZM113.513 144.585V147.9H115.513V144.585H113.513ZM31.8902 54.3856H38.5377V52.3856H31.8902V54.3856ZM32.8902 56.7008V53.3856H30.8902V56.7008H32.8902ZM38.5377 55.7008H31.8902V57.7008H38.5377V55.7008ZM37.5377 53.3856V56.7008H39.5377V53.3856H37.5377ZM14.9532 144.329C13.1523 142.773 11.9173 140.637 11.4778 138.32L9.51288 138.692C10.0373 141.457 11.5062 143.994 13.6458 145.842L14.9532 144.329ZM15.7209 141.924L13.5446 144.43L15.0545 145.741L17.2309 143.235L15.7209 141.924ZM12.7784 138.076C13.1649 140.11 14.2461 141.976 15.8224 143.337L17.1294 141.823C15.8915 140.754 15.0446 139.289 14.7432 137.703L12.7784 138.076ZM10.681 139.489L13.9464 138.872L13.5752 136.907L10.3098 137.523L10.681 139.489ZM141.103 145.585H147.751V143.585H141.103V145.585ZM142.103 147.9V144.585H140.103V147.9H142.103ZM147.751 146.9H141.103V148.9H147.751V146.9ZM146.751 144.585V147.9H148.751V144.585H146.751ZM13.6163 123.95H10.2926V125.95H13.6163V123.95ZM14.6163 131.58V124.95H12.6163V131.58H14.6163ZM10.2926 132.58H13.6163V130.58H10.2926V132.58ZM9.29262 124.95V131.58H11.2926V124.95H9.29262ZM10.2926 72.9073H13.6163V70.9073H10.2926V72.9073ZM11.2926 78.5376V71.9073H9.29262V78.5376H11.2926ZM13.6163 77.5376H10.2926V79.5376H13.6163V77.5376ZM12.6163 71.9073V78.5376H14.6163V71.9073H12.6163Z" fill="#444E5B" mask="url(#path-1-inside-1)"/>
</g>
</g>
</svg>
