<svg width="35" height="35" viewBox="0 0 35 35" fill="none" xmlns="http://www.w3.org/2000/svg">
<path d="M28.0068 22.492L17.4253 33.0736L6.84376 22.492C6.61072 22.259 6.61077 21.8816 6.84376 21.6486C7.07675 21.4156 7.45419 21.4155 7.68723 21.6486L16.7182 30.6795L17.4253 31.3867L18.1324 30.6795L27.1634 21.6486C27.3964 21.4156 27.7738 21.4155 28.0068 21.6486C28.2396 21.8813 28.2396 22.2593 28.0068 22.492Z" stroke="#FF9419" stroke-width="2"/>
<path d="M28.0068 13.492L17.4253 24.0736L6.84376 13.492C6.61072 13.259 6.61077 12.8816 6.84376 12.6486C7.07675 12.4156 7.45419 12.4155 7.68723 12.6486L16.7182 21.6795L17.4253 22.3867L18.1324 21.6795L27.1634 12.6486C27.3964 12.4156 27.7738 12.4155 28.0068 12.6486C28.2396 12.8813 28.2396 13.2593 28.0068 13.492Z" stroke="#FF9419" stroke-width="2"/>
</svg>
